<svg width="286" height="122" viewBox="0 0 286 122" fill="none" xmlns="http://www.w3.org/2000/svg">
<g filter="url(#filter0_d_447_15919)">
<path d="M4.432 22.5V0.547998H21.968V4.452H9.232V9.348H20.496V13.22H9.232V18.564H22.16V22.5H4.432ZM30.2438 22.5L23.9718 5.668H28.6758L31.1398 12.772C31.2678 13.1347 31.4171 13.6147 31.5878 14.212C31.7798 14.8093 31.9718 15.4387 32.1638 16.1C32.3558 16.7613 32.5158 17.3587 32.6438 17.892H32.8038C32.9531 17.4013 33.1131 16.836 33.2838 16.196C33.4544 15.5347 33.6251 14.9053 33.7958 14.308C33.9878 13.6893 34.1478 13.1773 34.2758 12.772L36.7398 5.668H41.2198L34.9158 22.5H30.2438ZM51.0398 22.884C49.1838 22.884 47.6264 22.5747 46.3678 21.956C45.1091 21.316 44.1598 20.3453 43.5198 19.044C42.8798 17.7427 42.5598 16.0893 42.5598 14.084C42.5598 12.0573 42.8798 10.404 43.5198 9.124C44.1598 7.82267 45.0984 6.86267 46.3358 6.244C47.5944 5.604 49.1304 5.284 50.9438 5.284C52.6504 5.284 54.0904 5.59333 55.2638 6.212C56.4371 6.80933 57.3224 7.748 57.9198 9.028C58.5171 10.2867 58.8158 11.9187 58.8158 13.924V15.076H47.0718C47.1144 16.0573 47.2638 16.8893 47.5198 17.572C47.7971 18.2547 48.2131 18.7667 48.7678 19.108C49.3438 19.428 50.1011 19.588 51.0398 19.588C51.5518 19.588 52.0104 19.524 52.4158 19.396C52.8424 19.268 53.2051 19.076 53.5038 18.82C53.8024 18.564 54.0371 18.244 54.2078 17.86C54.3784 17.476 54.4638 17.0387 54.4638 16.548H58.8158C58.8158 17.6147 58.6238 18.5427 58.2397 19.332C57.8558 20.1213 57.3224 20.7827 56.6398 21.316C55.9571 21.828 55.1358 22.2227 54.1758 22.5C53.2371 22.756 52.1918 22.884 51.0398 22.884ZM47.1358 12.26H54.2398C54.2398 11.62 54.1544 11.0653 53.9838 10.596C53.8344 10.1267 53.6211 9.74267 53.3438 9.444C53.0664 9.14533 52.7251 8.932 52.3198 8.804C51.9358 8.65467 51.4984 8.58 51.0078 8.58C50.1971 8.58 49.5144 8.71867 48.9598 8.996C48.4264 9.252 48.0104 9.65733 47.7118 10.212C47.4344 10.7453 47.2424 11.428 47.1358 12.26ZM62.0793 22.5V5.668H65.7593L66.1113 7.972H66.3353C66.7193 7.41733 67.1779 6.93733 67.7113 6.532C68.2659 6.12667 68.8846 5.81733 69.5673 5.604C70.2499 5.39067 70.9966 5.284 71.8073 5.284C72.9166 5.284 73.8873 5.48667 74.7193 5.892C75.5513 6.29733 76.1913 6.93733 76.6393 7.812C77.1086 8.68667 77.3433 9.828 77.3433 11.236V22.5H72.8953V11.94C72.8953 11.4067 72.8313 10.9587 72.7033 10.596C72.5753 10.212 72.3833 9.90267 72.1273 9.668C71.8926 9.412 71.5939 9.23067 71.2313 9.124C70.8686 9.01733 70.4633 8.964 70.0153 8.964C69.3539 8.964 68.7566 9.124 68.2233 9.444C67.6899 9.764 67.2739 10.2013 66.9753 10.756C66.6766 11.3107 66.5273 11.9507 66.5273 12.676V22.5H62.0793ZM86.3533 22.884C85.2866 22.884 84.4226 22.692 83.7613 22.308C83.0999 21.924 82.6199 21.412 82.3213 20.772C82.0226 20.1107 81.8733 19.3853 81.8733 18.596V9.092H79.7933V5.668H82.0333L82.8653 0.867998H86.3213V5.668H89.3933V9.092H86.3213V17.86C86.3213 18.372 86.4386 18.7667 86.6733 19.044C86.9079 19.3 87.2919 19.428 87.8253 19.428H89.3933V22.372C89.1373 22.4573 88.8386 22.532 88.4973 22.596C88.1559 22.6813 87.7933 22.7453 87.4093 22.788C87.0253 22.852 86.6733 22.884 86.3533 22.884ZM100.011 22.884C98.1761 22.884 96.6188 22.5747 95.3388 21.956C94.0588 21.316 93.0881 20.3453 92.4268 19.044C91.7654 17.7213 91.4348 16.068 91.4348 14.084C91.4348 12.0573 91.7654 10.404 92.4268 9.124C93.0881 7.82267 94.0588 6.86267 95.3388 6.244C96.6188 5.604 98.1761 5.284 100.011 5.284C101.888 5.284 103.456 5.604 104.715 6.244C105.995 6.86267 106.965 7.82267 107.627 9.124C108.288 10.404 108.619 12.0573 108.619 14.084C108.619 16.068 108.288 17.7213 107.627 19.044C106.965 20.3453 105.995 21.316 104.715 21.956C103.456 22.5747 101.888 22.884 100.011 22.884ZM100.011 19.428C100.992 19.428 101.771 19.2467 102.347 18.884C102.944 18.5213 103.381 17.9667 103.659 17.22C103.936 16.4733 104.075 15.556 104.075 14.468V13.7C104.075 12.612 103.936 11.6947 103.659 10.948C103.381 10.2013 102.944 9.64667 102.347 9.284C101.771 8.9 100.992 8.708 100.011 8.708C99.0508 8.708 98.2721 8.9 97.6748 9.284C97.0988 9.64667 96.6721 10.2013 96.3948 10.948C96.1174 11.6947 95.9788 12.612 95.9788 13.7V14.468C95.9788 15.556 96.1174 16.4733 96.3948 17.22C96.6721 17.9667 97.0988 18.5213 97.6748 18.884C98.2721 19.2467 99.0508 19.428 100.011 19.428ZM118.708 22.884C117.534 22.884 116.478 22.756 115.54 22.5C114.601 22.244 113.801 21.892 113.14 21.444C112.478 20.9747 111.966 20.42 111.604 19.78C111.262 19.14 111.092 18.4147 111.092 17.604C111.092 17.5187 111.092 17.4333 111.092 17.348C111.092 17.2627 111.102 17.1987 111.124 17.156H115.412C115.412 17.1987 115.412 17.2413 115.412 17.284C115.412 17.3267 115.412 17.3693 115.412 17.412C115.433 17.9453 115.604 18.3827 115.924 18.724C116.244 19.044 116.66 19.2787 117.172 19.428C117.705 19.5773 118.26 19.652 118.836 19.652C119.348 19.652 119.838 19.6093 120.308 19.524C120.798 19.4173 121.204 19.236 121.524 18.98C121.865 18.724 122.036 18.3933 122.036 17.988C122.036 17.476 121.822 17.0813 121.396 16.804C120.99 16.5267 120.446 16.3027 119.764 16.132C119.102 15.9613 118.377 15.7693 117.588 15.556C116.862 15.3853 116.137 15.1933 115.412 14.98C114.686 14.7453 114.025 14.4467 113.428 14.084C112.852 13.7213 112.382 13.252 112.02 12.676C111.657 12.0787 111.476 11.332 111.476 10.436C111.476 9.56133 111.668 8.804 112.052 8.164C112.436 7.50267 112.958 6.95867 113.62 6.532C114.302 6.10533 115.092 5.796 115.988 5.604C116.905 5.39067 117.886 5.284 118.932 5.284C119.913 5.284 120.83 5.39067 121.684 5.604C122.537 5.796 123.284 6.09467 123.924 6.5C124.564 6.884 125.065 7.37467 125.428 7.972C125.79 8.548 125.972 9.19867 125.972 9.924C125.972 10.0733 125.972 10.212 125.972 10.34C125.972 10.468 125.961 10.5533 125.94 10.596H121.684V10.34C121.684 9.956 121.566 9.636 121.332 9.38C121.097 9.10267 120.756 8.88933 120.308 8.74C119.881 8.59067 119.358 8.516 118.74 8.516C118.313 8.516 117.918 8.548 117.556 8.612C117.214 8.676 116.916 8.772 116.66 8.9C116.404 9.028 116.201 9.188 116.052 9.38C115.924 9.55067 115.86 9.764 115.86 10.02C115.86 10.3827 116.009 10.6813 116.308 10.916C116.628 11.1293 117.044 11.3107 117.556 11.46C118.068 11.6093 118.633 11.7693 119.252 11.94C120.02 12.1533 120.82 12.3667 121.652 12.58C122.505 12.772 123.294 13.0387 124.02 13.38C124.745 13.7213 125.332 14.212 125.78 14.852C126.228 15.4707 126.452 16.3133 126.452 17.38C126.452 18.404 126.249 19.268 125.844 19.972C125.46 20.676 124.916 21.2413 124.212 21.668C123.508 22.0947 122.686 22.404 121.748 22.596C120.809 22.788 119.796 22.884 118.708 22.884ZM37.568 64.444C38.192 64.444 38.672 64.732 39.008 65.308C39.392 65.884 39.584 66.676 39.584 67.684C39.584 69.604 39.128 71.092 38.216 72.148C36.44 74.308 33.92 76.3 30.656 78.124C27.44 79.948 23.984 80.86 20.288 80.86C15.248 80.86 11.336 79.492 8.552 76.756C5.768 74.02 4.376 70.276 4.376 65.524C4.376 62.212 5.072 59.14 6.464 56.308C7.856 53.428 9.776 51.148 12.224 49.468C14.72 47.788 17.528 46.948 20.648 46.948C23.432 46.948 25.664 47.788 27.344 49.468C29.024 51.1 29.864 53.332 29.864 56.164C29.864 59.476 28.664 62.332 26.264 64.732C23.912 67.084 19.904 68.956 14.24 70.348C15.44 72.556 17.72 73.66 21.08 73.66C23.24 73.66 25.688 72.916 28.424 71.428C31.208 69.892 33.608 67.9 35.624 65.452C36.2 64.78 36.848 64.444 37.568 64.444ZM19.424 54.004C17.648 54.004 16.136 55.036 14.888 57.1C13.688 59.164 13.088 61.66 13.088 64.588V64.732C15.92 64.06 18.152 63.052 19.784 61.708C21.416 60.364 22.232 58.804 22.232 57.028C22.232 56.116 21.968 55.396 21.44 54.868C20.96 54.292 20.288 54.004 19.424 54.004ZM47.1136 82.444C44.6176 82.444 42.6976 81.868 41.3536 80.716C40.0576 79.564 39.4096 78.268 39.4096 76.828C39.4096 75.58 39.8656 74.5 40.7776 73.588C41.6896 72.676 43.0336 72.22 44.8096 72.22C45.4336 72.22 46.1536 72.292 46.9696 72.436C47.8336 72.532 48.4816 72.604 48.9136 72.652C48.8656 71.404 48.5776 70.228 48.0496 69.124C47.5696 68.02 46.9456 66.964 46.1776 65.956C45.4096 64.9 44.6896 63.988 44.0176 63.22C42.5296 66.052 41.0416 68.404 39.5536 70.276C38.1136 72.148 36.5296 73.924 34.8016 75.604C33.9376 76.468 33.0256 76.9 32.0656 76.9C31.2976 76.9 30.6736 76.636 30.1936 76.108C29.7136 75.532 29.4736 74.836 29.4736 74.02C29.4736 73.06 29.8096 72.172 30.4816 71.356L31.4176 70.204C34.0576 66.94 36.0496 64.252 37.3936 62.14C38.2096 60.748 39.1696 58.9 40.2736 56.596C41.3776 54.244 42.4576 51.82 43.5136 49.324C44.4256 47.212 46.3216 46.156 49.2016 46.156C50.5456 46.156 51.4816 46.276 52.0096 46.516C52.5376 46.756 52.8016 47.14 52.8016 47.668C52.8016 47.956 52.7056 48.412 52.5136 49.036C52.3216 49.66 52.0576 50.284 51.7216 50.908C50.8576 52.636 50.4256 54.1 50.4256 55.3C50.4256 56.02 50.6656 56.812 51.1456 57.676C51.6736 58.54 52.4656 59.62 53.5216 60.916C55.0576 62.932 56.2096 64.66 56.9776 66.1C57.7936 67.492 58.2016 69.028 58.2016 70.708C58.2016 71.188 58.1536 71.86 58.0576 72.724C60.4096 71.812 63.1696 69.388 66.3376 65.452C66.9136 64.78 67.5616 64.444 68.2816 64.444C68.9056 64.444 69.3856 64.732 69.7216 65.308C70.1056 65.884 70.2976 66.676 70.2976 67.684C70.2976 69.508 69.8416 70.996 68.9296 72.148C66.5296 75.124 64.2256 77.164 62.0176 78.268C59.8576 79.324 57.1696 79.9 53.9536 79.996C52.0336 81.628 49.7536 82.444 47.1136 82.444ZM102.896 64.444C103.52 64.444 104 64.732 104.336 65.308C104.72 65.884 104.912 66.676 104.912 67.684C104.912 69.604 104.456 71.092 103.544 72.148C101.48 74.692 99.2482 76.78 96.8482 78.412C94.4962 80.044 91.8082 80.86 88.7842 80.86C86.2402 80.86 84.1762 79.948 82.5922 78.124C79.8562 79.9 77.0002 80.812 74.0242 80.86C73.4002 90.124 71.9842 97.852 69.7762 104.044C67.5682 110.284 64.3282 113.404 60.0562 113.404C57.4642 113.404 55.5442 112.468 54.2962 110.596C53.0482 108.724 52.4242 106.132 52.4242 102.82C52.4242 98.116 53.5042 92.62 55.6642 86.332C57.8242 80.092 61.1602 73.204 65.6722 65.668C65.6722 58.66 65.6242 53.788 65.5282 51.052C65.4802 49.66 66.0322 48.556 67.1842 47.74C68.3362 46.924 69.7762 46.516 71.5042 46.516C72.5122 46.516 73.2322 46.732 73.6642 47.164C74.1442 47.548 74.4082 48.34 74.4562 49.54C74.4562 50.74 74.4802 51.628 74.5282 52.204C76.0642 50.284 77.5762 48.916 79.0642 48.1C80.5522 47.236 82.1362 46.804 83.8162 46.804C86.5042 46.804 88.6882 47.884 90.3682 50.044C92.0962 52.204 92.9602 55.036 92.9602 58.54C92.9602 61.084 92.5522 63.556 91.7362 65.956C90.9202 68.356 89.7922 70.54 88.3522 72.508C89.3602 72.796 90.2002 72.94 90.8722 72.94C92.4562 72.94 93.9682 72.364 95.4082 71.212C96.8482 70.06 98.6962 68.14 100.952 65.452C101.528 64.78 102.176 64.444 102.896 64.444ZM74.3842 73.948C76.1122 73.564 77.6962 72.628 79.1362 71.14C80.6242 69.604 81.8002 67.732 82.6642 65.524C83.5282 63.268 83.9602 60.916 83.9602 58.468C83.9602 57.028 83.6722 55.948 83.0962 55.228C82.5202 54.46 81.7522 54.076 80.7922 54.076C79.0642 54.076 76.9762 55.9 74.5282 59.548C74.4802 61.66 74.4562 64.756 74.4562 68.836C74.4562 71.044 74.4322 72.748 74.3842 73.948ZM60.6322 106.348C61.9282 106.348 63.0082 103.516 63.8722 97.852C64.7362 92.236 65.2882 85.228 65.5282 76.828C63.4642 81.628 61.8322 86.212 60.6322 90.58C59.4322 94.948 58.8322 98.62 58.8322 101.596C58.8322 103.132 59.0242 104.308 59.4082 105.124C59.7442 105.94 60.1522 106.348 60.6322 106.348ZM131.224 64.444C131.848 64.444 132.328 64.732 132.664 65.308C133.048 65.884 133.24 66.676 133.24 67.684C133.24 69.604 132.784 71.092 131.872 72.148C130.096 74.308 127.576 76.3 124.312 78.124C121.096 79.948 117.64 80.86 113.944 80.86C108.904 80.86 104.992 79.492 102.208 76.756C99.4243 74.02 98.0322 70.276 98.0322 65.524C98.0322 62.212 98.7283 59.14 100.12 56.308C101.512 53.428 103.432 51.148 105.88 49.468C108.376 47.788 111.184 46.948 114.304 46.948C117.088 46.948 119.32 47.788 121 49.468C122.68 51.1 123.52 53.332 123.52 56.164C123.52 59.476 122.32 62.332 119.92 64.732C117.568 67.084 113.56 68.956 107.896 70.348C109.096 72.556 111.376 73.66 114.736 73.66C116.896 73.66 119.344 72.916 122.08 71.428C124.864 69.892 127.264 67.9 129.28 65.452C129.856 64.78 130.504 64.444 131.224 64.444ZM113.08 54.004C111.304 54.004 109.792 55.036 108.544 57.1C107.344 59.164 106.744 61.66 106.744 64.588V64.732C109.576 64.06 111.808 63.052 113.44 61.708C115.072 60.364 115.888 58.804 115.888 57.028C115.888 56.116 115.624 55.396 115.096 54.868C114.616 54.292 113.944 54.004 113.08 54.004ZM141.13 80.86C136.426 80.86 132.754 79.54 130.114 76.9C127.522 74.212 126.226 70.684 126.226 66.316C126.226 62.428 126.994 59.02 128.53 56.092C130.066 53.164 132.058 50.908 134.506 49.324C136.954 47.74 139.522 46.948 142.21 46.948C144.85 46.948 146.89 47.74 148.33 49.324C149.818 50.86 150.562 52.852 150.562 55.3C150.562 57.316 150.106 59.02 149.194 60.412C148.33 61.804 147.178 62.5 145.738 62.5C144.826 62.5 144.082 62.284 143.506 61.852C142.978 61.42 142.714 60.82 142.714 60.052C142.714 59.716 142.762 59.332 142.858 58.9C142.954 58.468 143.026 58.156 143.074 57.964C143.314 57.244 143.434 56.572 143.434 55.948C143.434 55.324 143.266 54.844 142.93 54.508C142.642 54.172 142.21 54.004 141.634 54.004C140.53 54.004 139.498 54.508 138.538 55.516C137.578 56.476 136.81 57.796 136.234 59.476C135.658 61.156 135.37 63.004 135.37 65.02C135.37 70.588 137.794 73.372 142.642 73.372C144.61 73.372 146.722 72.724 148.978 71.428C151.282 70.084 153.538 68.092 155.746 65.452C156.322 64.78 156.97 64.444 157.69 64.444C158.314 64.444 158.794 64.732 159.13 65.308C159.514 65.884 159.706 66.676 159.706 67.684C159.706 69.508 159.25 70.996 158.338 72.148C156.082 74.932 153.37 77.092 150.202 78.628C147.082 80.116 144.058 80.86 141.13 80.86ZM163.318 42.196C161.302 42.196 159.79 41.74 158.782 40.828C157.774 39.868 157.27 38.548 157.27 36.868C157.27 35.188 157.918 33.796 159.214 32.692C160.558 31.54 162.214 30.964 164.182 30.964C165.958 30.964 167.398 31.396 168.502 32.26C169.606 33.124 170.158 34.348 170.158 35.932C170.158 37.852 169.534 39.388 168.286 40.54C167.038 41.644 165.382 42.196 163.318 42.196ZM162.742 80.86C159.622 80.86 157.342 79.756 155.902 77.548C154.51 75.34 153.814 72.412 153.814 68.764C153.814 66.604 154.078 63.844 154.606 60.484C155.182 57.076 155.902 53.908 156.766 50.98C157.198 49.444 157.774 48.388 158.494 47.812C159.214 47.236 160.366 46.948 161.95 46.948C164.398 46.948 165.622 47.764 165.622 49.396C165.622 50.596 165.166 53.38 164.254 57.748C163.102 63.028 162.526 66.604 162.526 68.476C162.526 69.916 162.718 71.02 163.102 71.788C163.486 72.556 164.134 72.94 165.046 72.94C165.91 72.94 166.99 72.34 168.286 71.14C169.582 69.94 171.31 68.044 173.47 65.452C174.046 64.78 174.694 64.444 175.414 64.444C176.038 64.444 176.518 64.732 176.854 65.308C177.238 65.884 177.43 66.676 177.43 67.684C177.43 69.604 176.974 71.092 176.062 72.148C171.31 77.956 166.87 80.86 162.742 80.86ZM180.46 80.86C177.484 80.86 175.108 79.78 173.332 77.62C171.556 75.46 170.668 72.628 170.668 69.124C170.668 65.284 171.556 61.66 173.332 58.252C175.108 54.796 177.46 52.036 180.388 49.972C183.364 47.86 186.508 46.804 189.82 46.804C190.876 46.804 191.572 47.02 191.908 47.452C192.292 47.836 192.604 48.556 192.844 49.612C193.852 49.42 194.908 49.324 196.012 49.324C198.364 49.324 199.54 50.164 199.54 51.844C199.54 52.852 199.18 55.252 198.46 59.044C197.356 64.564 196.804 68.404 196.804 70.564C196.804 71.284 196.972 71.86 197.308 72.292C197.692 72.724 198.172 72.94 198.748 72.94C199.66 72.94 200.764 72.364 202.06 71.212C203.356 70.012 205.108 68.092 207.316 65.452C207.892 64.78 208.54 64.444 209.26 64.444C209.884 64.444 210.364 64.732 210.7 65.308C211.084 65.884 211.276 66.676 211.276 67.684C211.276 69.604 210.82 71.092 209.908 72.148C207.94 74.596 205.852 76.66 203.644 78.34C201.436 80.02 199.3 80.86 197.236 80.86C195.652 80.86 194.188 80.332 192.844 79.276C191.548 78.172 190.564 76.684 189.892 74.812C187.396 78.844 184.252 80.86 180.46 80.86ZM183.052 73.588C184.108 73.588 185.116 72.964 186.076 71.716C187.036 70.468 187.732 68.812 188.164 66.748L190.828 53.5C188.812 53.548 186.94 54.316 185.212 55.804C183.532 57.244 182.188 59.164 181.18 61.564C180.172 63.964 179.668 66.508 179.668 69.196C179.668 70.684 179.956 71.788 180.532 72.508C181.156 73.228 181.996 73.588 183.052 73.588ZM232.713 64.444C233.337 64.444 233.817 64.732 234.153 65.308C234.537 65.884 234.729 66.676 234.729 67.684C234.729 69.604 234.273 71.092 233.361 72.148C231.297 74.692 229.041 76.78 226.593 78.412C224.193 80.044 221.457 80.86 218.385 80.86C214.161 80.86 211.017 78.94 208.953 75.1C206.937 71.26 205.929 66.292 205.929 60.196C205.929 54.34 206.673 47.668 208.161 40.18C209.697 32.692 211.929 26.26 214.857 20.884C217.833 15.508 221.361 12.82 225.441 12.82C227.745 12.82 229.545 13.9 230.841 16.06C232.185 18.172 232.857 21.22 232.857 25.204C232.857 30.916 231.273 37.54 228.105 45.076C224.937 52.612 220.641 60.076 215.217 67.468C215.553 69.436 216.105 70.852 216.873 71.716C217.641 72.532 218.649 72.94 219.897 72.94C221.865 72.94 223.593 72.388 225.081 71.284C226.569 70.132 228.465 68.188 230.769 65.452C231.345 64.78 231.993 64.444 232.713 64.444ZM223.857 19.948C222.753 19.948 221.505 21.94 220.113 25.924C218.721 29.908 217.497 34.852 216.441 40.756C215.385 46.66 214.809 52.324 214.713 57.748C218.121 52.132 220.833 46.516 222.849 40.9C224.865 35.236 225.873 30.076 225.873 25.42C225.873 21.772 225.201 19.948 223.857 19.948ZM261.021 64.444C261.645 64.444 262.125 64.732 262.461 65.308C262.845 65.884 263.037 66.676 263.037 67.684C263.037 69.604 262.581 71.092 261.669 72.148C259.893 74.308 257.373 76.3 254.109 78.124C250.893 79.948 247.437 80.86 243.741 80.86C238.701 80.86 234.789 79.492 232.005 76.756C229.221 74.02 227.829 70.276 227.829 65.524C227.829 62.212 228.525 59.14 229.917 56.308C231.309 53.428 233.229 51.148 235.677 49.468C238.173 47.788 240.981 46.948 244.101 46.948C246.885 46.948 249.117 47.788 250.797 49.468C252.477 51.1 253.317 53.332 253.317 56.164C253.317 59.476 252.117 62.332 249.717 64.732C247.365 67.084 243.357 68.956 237.693 70.348C238.893 72.556 241.173 73.66 244.533 73.66C246.693 73.66 249.141 72.916 251.877 71.428C254.661 69.892 257.061 67.9 259.077 65.452C259.653 64.78 260.301 64.444 261.021 64.444ZM242.877 54.004C241.101 54.004 239.589 55.036 238.341 57.1C237.141 59.164 236.541 61.66 236.541 64.588V64.732C239.373 64.06 241.605 63.052 243.237 61.708C244.869 60.364 245.685 58.804 245.685 57.028C245.685 56.116 245.421 55.396 244.893 54.868C244.413 54.292 243.741 54.004 242.877 54.004ZM270.567 82.444C268.071 82.444 266.151 81.868 264.807 80.716C263.511 79.564 262.863 78.268 262.863 76.828C262.863 75.58 263.319 74.5 264.231 73.588C265.143 72.676 266.487 72.22 268.263 72.22C268.887 72.22 269.607 72.292 270.423 72.436C271.287 72.532 271.935 72.604 272.367 72.652C272.319 71.404 272.031 70.228 271.503 69.124C271.023 68.02 270.399 66.964 269.631 65.956C268.863 64.9 268.143 63.988 267.471 63.22C265.983 66.052 264.495 68.404 263.007 70.276C261.567 72.148 259.983 73.924 258.255 75.604C257.391 76.468 256.479 76.9 255.519 76.9C254.751 76.9 254.127 76.636 253.647 76.108C253.167 75.532 252.927 74.836 252.927 74.02C252.927 73.06 253.263 72.172 253.935 71.356L254.871 70.204C257.511 66.94 259.503 64.252 260.847 62.14C261.711 60.748 262.575 59.092 263.439 57.172C264.351 55.252 265.527 52.636 266.967 49.324C267.879 47.212 269.775 46.156 272.655 46.156C273.999 46.156 274.935 46.276 275.463 46.516C275.991 46.756 276.255 47.14 276.255 47.668C276.255 47.956 276.159 48.412 275.967 49.036C275.775 49.66 275.511 50.284 275.175 50.908C274.311 52.636 273.879 54.1 273.879 55.3C273.879 56.02 274.119 56.812 274.599 57.676C275.127 58.54 275.919 59.62 276.975 60.916C278.511 62.932 279.663 64.66 280.431 66.1C281.247 67.492 281.655 69.028 281.655 70.708C281.655 72.724 281.175 74.644 280.215 76.468C279.303 78.244 278.007 79.684 276.327 80.788C274.647 81.892 272.727 82.444 270.567 82.444Z" fill="white"/>
</g>
<defs>
<filter id="filter0_d_447_15919" x="0.375977" y="0.546875" width="285.278" height="120.855" filterUnits="userSpaceOnUse" color-interpolation-filters="sRGB">
<feFlood flood-opacity="0" result="BackgroundImageFix"/>
<feColorMatrix in="SourceAlpha" type="matrix" values="0 0 0 0 0 0 0 0 0 0 0 0 0 0 0 0 0 0 127 0" result="hardAlpha"/>
<feOffset dy="4"/>
<feGaussianBlur stdDeviation="2"/>
<feComposite in2="hardAlpha" operator="out"/>
<feColorMatrix type="matrix" values="0 0 0 0 0 0 0 0 0 0 0 0 0 0 0 0 0 0 0.25 0"/>
<feBlend mode="normal" in2="BackgroundImageFix" result="effect1_dropShadow_447_15919"/>
<feBlend mode="normal" in="SourceGraphic" in2="effect1_dropShadow_447_15919" result="shape"/>
</filter>
</defs>
</svg>
