<svg width="235" height="220" viewBox="0 0 235 220" fill="none" xmlns="http://www.w3.org/2000/svg">
<g opacity="0.05" clip-path="url(#clip0_447_15924)">
<path d="M138.84 194.413C138.949 193.726 139.38 192.375 139.584 191.125L140.845 191.383C140.759 191.898 140.774 192.437 140.876 192.937C141.182 194.413 142.662 194.718 142.662 196.014C142.662 197.303 144.574 196.686 147.104 197.983C149.634 199.272 148.341 200.318 150.065 200.685C151.796 201.052 152.039 204.622 152.039 205.668C152.039 206.715 152.407 207.02 154.812 206.832C157.224 206.653 158.329 206.371 158.329 206.371V206.364C158.564 206.52 158.666 206.692 158.517 206.903C157.961 207.699 157.467 208.871 155.619 208.746C153.762 208.621 153.95 207.637 152.407 207.887C150.864 208.129 147.965 208.012 147.292 206.348C146.61 204.684 146.422 203.153 144.887 202.474C143.344 201.794 139.889 201.302 140.195 199.092C140.508 196.874 138.652 195.585 138.84 194.413Z" fill="#A6D5D9"/>
<path d="M176.158 150.939C175.484 150.884 175.194 150.978 175.186 151.157C175.186 151.157 174.489 150.439 174.74 149.705C174.983 148.963 175.985 149.517 176.072 148.103C176.158 146.69 174.058 145.893 175.045 144.229C176.032 142.573 176.338 140.293 177.388 140.113C178.437 139.926 178.993 139.621 179.362 140.66C179.73 141.706 180.349 143.37 180.717 142.941C181.093 142.511 181.461 141.769 182.573 143.12C183.678 144.479 185.409 144.104 185.534 145.213C185.652 146.291 186.122 149.337 186.153 149.517C186.153 149.525 186.153 149.525 186.153 149.525H186.145C186.004 149.611 185.863 149.697 185.714 149.767C184.359 150.447 184.297 151.431 182.941 151.556C181.578 151.673 181.273 152.844 179.487 151.556C177.693 150.259 177.693 151.064 176.158 150.939Z" fill="#A6D5D9"/>
<path d="M150.065 200.681C148.341 200.314 149.634 199.267 147.104 197.979C144.574 196.682 142.662 197.299 142.662 196.01C142.662 194.714 141.182 194.409 140.876 192.933C140.774 192.433 140.759 191.894 140.845 191.379C141.017 190.395 141.55 189.512 142.482 189.184C143.9 188.692 144.331 187.825 144.393 185.614C144.456 183.404 144.268 181.865 145.067 181.553C145.874 181.248 146.179 179.092 145.623 178.296C145.067 177.499 143.649 176.577 144.519 175.406C145.38 174.234 145.686 173.133 145.012 170.977C144.331 168.829 144.205 165.994 145.13 165.072C146.054 164.151 147.166 162.495 146.242 160.769C145.318 159.05 147.041 155.481 147.848 154.801C148.647 154.13 150.221 152.224 149.556 150.865C148.898 149.513 147.911 147.178 148.467 145.889C149.015 144.593 147.166 143.429 148.216 141.461C149.266 139.492 149.822 138.633 149.822 135.923C149.822 133.22 152.039 133.65 152.783 131.377C153.519 129.096 152.47 127.62 153.394 126.456C154.318 125.285 156.237 124.363 155.25 122.824C155.25 122.824 156.48 120.364 157.835 120.981C159.198 121.598 160.922 121.864 161.478 121.856C162.034 121.84 162.645 122.668 163.021 121.856C163.389 121.044 164.126 120.841 164.87 120.88C164.87 120.88 165.489 122.457 166.656 122.824C167.831 123.192 169.985 125.472 171.841 125.839C173.69 126.206 173.377 126.761 174.246 127.441C175.108 128.112 177.262 127.808 177.45 128.917C177.638 130.018 176.353 129.159 176.071 130.885C175.789 132.603 175.844 132.478 175.108 133.4C174.364 134.322 175.507 135.798 176.91 134.939C178.312 134.08 178.194 133.283 179.549 133.4C180.905 133.525 182.448 132.846 183.067 132.361C183.678 131.869 184.038 128.432 184.038 128.432C184.069 128.69 184.171 128.846 184.422 128.917C185.103 129.096 185.777 130.76 185.158 132.728C184.547 134.697 183.067 134.08 182.197 135.064C181.335 136.048 180.717 136.97 179.119 137.399C177.513 137.829 177.387 140.109 177.387 140.109C176.338 140.289 176.032 142.57 175.045 144.226C174.058 145.889 176.158 146.686 176.071 148.1C175.985 149.513 174.983 148.959 174.74 149.701C174.489 150.435 175.186 151.154 175.186 151.154C175.178 151.388 175.617 151.763 176.275 152.153C177.45 152.841 177.818 153.083 176.894 153.762C175.97 154.442 177.082 155.426 178.069 155.606C179.056 155.793 178.617 157.144 176.526 158.746C174.426 160.339 176.095 160.652 174.058 161.323C172.022 162.003 170.972 162.307 168.692 162.19C166.413 162.065 166.225 162.432 166.468 163.292C166.718 164.158 166.781 163.784 166.1 164.338C165.426 164.893 165.606 165.689 165.606 166.923C165.606 168.15 164.439 167.783 163.695 167.658C162.958 167.541 162.026 167.166 160.922 167.478C159.809 167.783 160.554 170.063 160.608 170.305C160.671 170.548 161.595 171.102 162.582 170.735C163.569 170.368 163.945 172.516 163.139 172.641C162.34 172.766 161.846 171.532 160.984 172.211C160.115 172.891 161.595 173.258 161.227 173.688C160.859 174.117 160.796 172.828 159.997 173.688C159.191 174.547 159.535 175.718 159.567 176.577C159.59 177.437 158.916 177.163 158.822 178.022C158.728 178.882 158.235 178.764 156.754 179.132C155.274 179.499 154.874 180.483 155.188 181.959C155.493 183.435 157.71 182.482 158.086 183.529C158.454 184.576 158.329 184.974 157.929 185.927C157.53 186.88 157.279 186.973 155.705 188.387C154.138 189.801 154.224 190.324 154.169 191.183C154.107 192.043 153.457 192.261 152.47 192.472C151.483 192.691 151.146 193.917 151.114 194.409C151.083 194.901 150.684 196.565 151.671 197.768C152.658 198.963 152.752 198.963 152.007 199.182C151.271 199.392 151.052 199.736 151.483 199.978C151.913 200.228 153.088 201.298 152.532 201.978C151.976 202.657 153.519 204.251 154.812 205.055C155.775 205.641 157.64 205.93 158.329 206.36V206.367C158.329 206.367 157.224 206.649 154.812 206.828C152.407 207.016 152.039 206.711 152.039 205.664C152.039 204.618 151.796 201.048 150.065 200.681Z" fill="#A6D5D9"/>
<path d="M175.789 115.569C175.789 115.569 176.525 118.154 176.4 119.443C176.274 120.732 176.274 120.552 178.068 121.349C179.854 122.145 179.98 121.474 180.841 122.825C181.703 124.176 181.703 125.652 182.259 125.652C182.815 125.652 183.802 124.364 183.99 126.152C184.1 127.269 183.975 127.996 184.037 128.433C184.037 128.433 183.677 131.87 183.066 132.362C182.447 132.846 180.904 133.525 179.549 133.401C178.194 133.283 178.311 134.08 176.909 134.939C175.507 135.798 174.363 134.322 175.107 133.401C175.844 132.479 175.789 132.604 176.071 130.885C176.353 129.159 177.637 130.019 177.449 128.917C177.261 127.808 175.107 128.113 174.246 127.441C173.376 126.761 173.689 126.207 171.841 125.84C169.984 125.473 167.83 123.192 166.655 122.825C165.488 122.458 164.869 120.88 164.869 120.88C165.605 120.919 166.036 120.794 166.287 118.951C166.53 117.107 167.274 116.123 168.997 115.819C170.728 115.506 171.285 115.694 172.389 115.202C173.501 114.71 174.614 115.819 175.789 115.569Z" fill="#A6D5D9"/>
<path d="M161.477 121.858C160.921 121.865 159.198 121.6 157.835 120.983C156.479 120.366 155.25 122.826 155.25 122.826C154.263 121.287 153.707 121.537 153.581 119.444C153.456 117.351 152.289 117.288 152.406 116.25C152.532 115.203 152.351 113.735 151.364 112.899C150.377 112.063 150.37 110.032 150.37 110.032C150.612 109.696 150.879 109.361 151.114 109.048C151.811 108.111 151.482 107.658 150.91 106.752C150.33 105.854 150.746 105.565 151.357 104.213C151.96 102.862 151.858 102.698 151.357 101.425C150.855 100.152 150.871 99.1676 151.239 98.2303C151.537 97.4649 151.27 96.7541 150.236 96.3792C150.236 96.3792 152.962 94.903 154.2 94.9655C155.43 95.0279 155.861 93.6142 158.328 93.2471C160.796 92.88 159.809 93.3721 159.997 95.0904C160.177 96.8166 159.871 98.2303 163.2 98.8395C166.53 99.4566 164.932 100.253 166.349 100.378C167.767 100.503 167.579 101.237 169.06 101.73C170.54 102.222 170.854 102.472 170.854 104.01C170.854 105.549 171.096 106.713 172.945 107.08C174.802 107.455 175.538 107.634 175.789 109.423C176.031 111.204 177.324 111.633 176.768 112.899C176.22 114.164 176.956 115.328 175.789 115.57C174.614 115.82 173.501 114.711 172.389 115.203C171.285 115.695 170.728 115.508 168.997 115.82C167.274 116.125 166.53 117.109 166.287 118.952C166.036 120.795 165.605 120.92 164.869 120.881C164.125 120.842 163.389 121.045 163.02 121.858C162.644 122.67 162.033 121.842 161.477 121.858Z" fill="#A6D5D9"/>
<path d="M139.583 191.122C139.732 190.255 139.771 189.442 139.521 188.942C138.902 187.708 138.103 183.834 138.839 183.217C139.583 182.608 139.333 179.343 140.445 178.851C141.549 178.359 141.737 175.657 141.925 174.672C142.106 173.688 143.03 170.369 142.482 170.306C141.925 170.244 142.356 170.798 141.369 171.595C140.382 172.399 140.32 173.751 139.763 173.751C139.207 173.751 139.207 172.025 139.826 170.986C140.445 169.939 141.244 169.51 141.181 168.096C141.119 166.674 141.244 164.831 141.612 163.542C141.988 162.253 140.813 159.176 141.369 157.887C141.925 156.591 142.419 155.544 143.469 154.13C144.51 152.717 143.774 150.444 145.004 149.092C146.242 147.733 145.56 147.429 145.435 143.617C145.317 139.806 145.56 139.806 145.928 139.556C146.304 139.313 145.255 138.884 145.497 137.65C145.748 136.423 146.798 132.979 147.229 131.19C147.659 129.41 148.396 127.254 148.216 125.168C148.028 123.075 146.798 122.77 148.028 119.818C149.265 116.866 148.772 114.038 148.216 113.171C148.169 113.101 148.114 113.007 148.059 112.906C148.051 112.906 148.051 112.906 148.051 112.906V112.898C148.051 112.898 149.265 112.82 149.344 111.96C149.398 111.39 149.861 110.703 150.37 110.031C150.37 110.031 150.378 112.062 151.365 112.898C152.352 113.734 152.532 115.202 152.406 116.249C152.289 117.287 153.456 117.35 153.581 119.443C153.707 121.536 154.263 121.286 155.25 122.825C156.237 124.364 154.318 125.285 153.393 126.457C152.469 127.621 153.519 129.097 152.782 131.378C152.038 133.651 149.821 133.221 149.821 135.924C149.821 138.634 149.265 139.493 148.216 141.461C147.166 143.43 149.015 144.593 148.466 145.89C147.91 147.179 148.897 149.514 149.555 150.865C150.221 152.224 148.646 154.13 147.847 154.802C147.041 155.482 145.317 159.051 146.242 160.769C147.166 162.496 146.054 164.151 145.129 165.073C144.205 165.995 144.33 168.83 145.012 170.978C145.685 173.134 145.38 174.235 144.518 175.407C143.649 176.578 145.067 177.5 145.623 178.297C146.179 179.093 145.873 181.249 145.067 181.554C144.268 181.866 144.456 183.405 144.393 185.615C144.33 187.826 143.899 188.693 142.482 189.185C141.549 189.513 141.017 190.395 140.844 191.379L139.583 191.122Z" fill="#A6D5D9"/>
<path d="M149.39 80.5544C149.594 80.5544 150.33 79.0001 150.33 78.016C150.33 77.0318 150.706 76.1727 150.988 75.2276C151.278 74.2825 149.962 72.8063 149.837 71.908C149.719 71.002 149.226 70.838 149.798 70.5099C150.377 70.1819 150.91 70.2522 150.33 69.4789C149.759 68.7057 149.672 68.4245 150.252 67.9324C150.824 67.4403 152.226 67.8855 153.503 67.6825C154.772 67.4794 155.594 66.3547 155.594 66.3547C155.931 67.0732 155.775 67.3857 156.91 68.6666C158.148 70.0647 157.937 69.2446 158.759 69.2446C159.582 69.2446 160.404 69.8148 160.78 69.1196C161.148 68.4245 161.062 68.0105 161.885 67.9715C162.707 67.9324 163.945 67.1123 163.655 66.3703C163.365 65.6361 162.668 66.0032 162.464 64.8159C162.261 63.6209 160.733 62.3946 161.148 61.9416C161.556 61.4964 163.122 62.5977 163.694 62.6368C164.274 62.6836 164.603 62.1916 164.893 62.8008C165.175 63.4178 165.339 62.6368 165.872 62.2697C166.412 61.9026 167.023 62.3556 168.794 61.8635C170.337 61.4339 170.509 60.192 170.243 59.6609C170.956 59.3407 171.426 59.8562 171.386 60.0593C171.347 60.2623 171.59 61.4496 172.35 62.2306C173.11 63.0117 172.413 63.3788 171.958 64.1599C171.512 64.9331 171.386 65.4252 171.958 66.6202C172.538 67.8074 172.538 68.7057 174.222 68.9166C175.906 69.1196 175.867 68.6276 176.979 67.4403C177.379 67.0108 177.583 66.7218 177.653 66.4718L177.966 66.5734C177.966 66.5734 178.577 67.3544 179.447 67.4403C180.309 67.5184 180.763 66.9873 180.88 66.4562C181.006 65.9173 180.763 66.0032 182.157 65.8001C182.941 65.6829 183.246 65.8235 183.473 65.9485V65.9563C183.473 65.9563 183.802 67.1123 184.828 66.9483C185.862 66.7842 187.014 66.9873 187.664 66.6593C188.322 66.3312 188.244 65.144 189.145 64.1599C190.053 63.1757 190.899 62.0432 190.899 62.0432C191.095 62.2384 191.291 62.4649 191.51 62.7461C192.372 63.8552 191.385 65.886 193.241 66.6202C195.09 67.3622 194.722 68.2839 193.978 68.9556C193.241 69.6351 193.179 69.7601 192.004 70.8067C190.829 71.8456 192.497 72.2205 193.359 71.6659C194.228 71.1114 195.027 71.1738 195.701 71.5409C196.383 71.908 197.926 71.416 197.675 72.2205C197.432 73.0172 196.445 74.6808 197.182 74.6808C197.926 74.6808 197.863 73.7514 198.607 73.2593C199.344 72.7672 200.573 72.6501 201.443 73.3843C202.305 74.1263 206.002 73.5717 206.253 74.6808C206.495 75.7821 205.391 77.8129 206.253 77.8129C207.114 77.8129 206.926 76.3992 207.976 76.6491C209.026 76.8913 211.305 78.1175 212.974 77.8129C214.642 77.5083 216.24 76.7663 217.603 78.6721C218.958 80.5779 220.376 81.6245 222.287 81.812C224.199 81.9994 225.93 80.7654 226.423 83.4132C226.917 86.0532 228.946 88.1464 226.972 91.5285C224.998 94.9105 224.324 95.2776 222.781 95.7696C221.238 96.2617 221.731 99.7062 220.564 99.6437C219.389 99.5813 218.708 99.4016 218.77 100.136C218.833 100.878 219.264 100.995 218.465 102.167C217.658 103.338 218.402 107.642 218.77 108.806C219.138 109.977 217.971 110.344 217.54 111.266C217.11 112.188 218.151 114.101 216.734 115.085C215.316 116.062 216.491 117.436 215.253 118.6C214.023 119.756 214.705 121.412 213.898 121.537C213.099 121.662 213.342 122.396 211.556 123.013C209.77 123.63 206.871 122.584 205.078 124.06C203.292 125.536 203.785 125.966 201.067 126.091C198.357 126.216 199.038 129.043 197.926 129.223C196.813 129.41 197.064 129.715 197.001 131.933C196.939 134.143 197.926 136.729 196.077 136.854C194.228 136.979 194.659 139.806 193.484 141.22C192.309 142.634 191.142 144.539 190.954 143.922C190.774 143.305 191.267 143.001 191.448 141.892C191.636 140.79 192.435 140.478 191.142 140.478C189.842 140.478 191.205 142.329 190.335 143.188C189.474 144.047 189.293 143.985 188.737 145.953C188.244 147.703 187.312 148.82 186.152 149.515C186.121 149.335 185.651 146.289 185.533 145.211C185.408 144.102 183.677 144.477 182.572 143.118C181.46 141.767 181.092 142.509 180.716 142.938C180.348 143.368 179.729 141.704 179.361 140.658C178.993 139.619 178.436 139.923 177.387 140.111C177.387 140.111 177.512 137.83 179.118 137.401C180.716 136.971 181.335 136.049 182.196 135.065C183.066 134.081 184.546 134.698 185.157 132.73C185.776 130.761 185.103 129.098 184.421 128.918C184.17 128.848 184.069 128.692 184.037 128.434C183.975 127.996 184.1 127.27 183.99 126.153C183.802 124.365 182.815 125.653 182.259 125.653C181.703 125.653 181.703 124.177 180.841 122.826C179.98 121.475 179.854 122.146 178.068 121.35C176.274 120.553 176.274 120.733 176.4 119.444C176.525 118.155 175.789 115.57 175.789 115.57C176.956 115.328 176.22 114.164 176.768 112.898C177.324 111.633 176.032 111.204 175.789 109.423C175.538 107.634 174.802 107.454 172.945 107.08C171.097 106.712 170.854 105.549 170.854 104.01C170.854 102.471 170.54 102.221 169.06 101.729C167.579 101.237 167.767 100.503 166.35 100.378C164.932 100.253 166.53 99.4563 163.201 98.8392C159.871 98.23 160.177 96.8163 159.997 95.0901C159.809 93.3718 160.796 92.8797 158.328 93.2468C155.861 93.6139 155.43 95.0276 154.2 94.9651C152.962 94.9027 150.236 96.3789 150.236 96.3789C150.001 96.293 149.719 96.2227 149.39 96.1758C147.659 95.9337 148.278 96.2149 148.027 95.0276C147.785 93.8404 148.192 93.5514 147.581 92.8953C146.962 92.2392 145.607 93.7154 145.027 93.9263C144.455 94.1294 144.698 93.0203 143.547 92.6532C142.395 92.2861 142.192 92.0361 141.534 90.435C140.876 88.8416 140.343 88.0215 140.915 87.2013C141.494 86.3812 140.797 85.8892 141.534 84.616C142.278 83.3429 142.81 83.9599 143.1 83.0617C143.382 82.1557 143.508 81.9526 144.659 81.8276C145.811 81.7026 145.889 81.1715 147.127 80.5544C147.808 80.2186 148.435 80.2577 148.85 80.3514C149.077 80.4764 149.304 80.5544 149.39 80.5544Z" fill="#A6D5D9"/>
<path d="M124.527 84.3955C125.084 83.6535 123.666 80.3339 124.715 79.7169C125.757 79.0999 125.702 79.0999 126.313 78.5609C126.266 78.6703 126.008 79.2951 126.611 79.8575C127.269 80.4746 125.789 81.1697 126.611 81.6618C127.434 82.1538 128.334 80.5526 128.828 81.6618C129.321 82.7709 129.776 81.0604 130.019 80.1543C130.269 79.2405 130.348 78.5063 132.651 78.1782C134.954 77.8502 136.638 75.8428 136.849 74.8587C137.053 73.8745 138.001 71.8438 138.001 71.8438C138.886 71.9687 138.98 72.5623 139.317 73.2575C139.685 74.0386 140.507 73.2575 140.962 74.2416C141.408 75.2258 141.62 76.9051 142.56 76.991C143.508 77.0691 145.278 77.0691 145.771 76.741C146.265 76.413 146.758 76.3349 147.581 76.7801C148.403 77.2331 149.759 77.155 148.936 77.8892C148.114 78.6312 147.988 79.2405 148.153 79.6935C148.247 79.9512 148.56 80.1856 148.85 80.3496C148.435 80.2558 147.808 80.2168 147.127 80.5526C145.889 81.1697 145.811 81.7008 144.659 81.8258C143.508 81.9508 143.382 82.1538 143.1 83.0599C142.81 83.9581 142.278 83.3411 141.534 84.6142C140.797 85.8873 141.494 86.3794 140.915 87.1995C140.343 88.0196 140.876 88.8398 141.534 90.4332C142.192 92.0343 142.395 92.2843 143.547 92.6514C144.698 93.0185 144.455 94.1276 145.027 93.9245C145.607 93.7136 146.962 92.2374 147.581 92.8935C148.192 93.5496 147.785 93.8386 148.027 95.0258C148.278 96.2131 147.659 95.9319 149.39 96.174C149.719 96.2209 150.001 96.2912 150.236 96.3771C151.27 96.752 151.537 97.4628 151.239 98.2282C150.871 99.1655 150.855 100.15 151.357 101.423C151.858 102.696 151.96 102.86 151.357 104.211C150.746 105.562 150.33 105.851 150.91 106.75C151.482 107.656 151.811 108.109 151.114 109.046C150.879 109.358 150.612 109.694 150.37 110.03C149.86 110.702 149.398 111.389 149.343 111.959C149.265 112.819 148.051 112.897 148.051 112.897C147.409 111.788 146.03 109.171 143.155 108.374C140.014 107.515 134.891 104.688 134.954 103.211C135.016 101.735 135.016 102.227 134.272 100.564C133.536 98.9077 131.499 96.2599 130.7 93.7996C129.893 91.3392 128.538 88.1446 126.689 87.1605C124.841 86.1763 123.971 85.1297 124.527 84.3955Z" fill="#A6D5D9"/>
<path d="M128.828 81.664C128.335 80.5549 127.434 82.1561 126.611 81.664C125.789 81.1719 127.269 80.4768 126.611 79.8597C126.008 79.2974 126.267 78.6725 126.314 78.5632C126.321 78.5554 126.321 78.5554 126.321 78.5554V78.5475C126.925 77.993 126.439 77.3838 126.008 77.2588C125.577 77.1416 124.841 76.2746 125.146 75.6029C125.452 74.9234 125.515 74.0642 125.577 73.2597C125.64 72.463 126.133 71.4789 127.371 70.8072C128.601 70.1276 129.032 68.6514 129.032 68.6514C129.032 68.6514 129.032 68.6514 129.032 68.6436C129.032 68.6436 130.559 68.1359 130.638 68.6436C130.724 69.1591 131.585 70.5572 132.737 70.5572C133.888 70.5572 134.711 69.7371 135.447 70.5572C136.191 71.3773 136.395 71.8226 137.625 71.8226C137.766 71.8226 137.891 71.8304 138.001 71.846C138.001 71.846 137.053 73.8768 136.849 74.8609C136.638 75.8451 134.954 77.8524 132.651 78.1804C130.348 78.5085 130.269 79.2427 130.019 80.1565C129.776 81.0626 129.322 82.7731 128.828 81.664Z" fill="#A6D5D9"/>
<path d="M183.474 65.9513C183.654 66.0528 183.779 66.1387 184.053 66.0841C184.664 65.9669 184.625 64.4048 184.656 63.1785C184.688 61.9444 183.889 60.6791 184.656 59.898C185.424 59.1169 184.656 58.0469 184.656 58.0469C185.902 58.2031 187.335 58.6483 188.369 59.6715C189.74 61.0462 190.336 61.468 190.9 62.0459C190.9 62.0459 190.054 63.1785 189.145 64.1626C188.244 65.1468 188.322 66.334 187.664 66.662C187.014 66.9901 185.863 66.787 184.829 66.951C183.803 67.1151 183.474 65.9591 183.474 65.9591V65.9513Z" fill="#A6D5D9"/>
<path d="M179.753 57.6224C180.043 58.052 181.312 58.2395 182.322 58.052C182.769 57.9661 183.654 57.9114 184.656 58.0442C184.656 58.0442 185.424 59.1143 184.656 59.8954C183.889 60.6764 184.688 61.9417 184.656 63.1758C184.625 64.4021 184.664 65.9642 184.053 66.0814C183.779 66.1361 183.654 66.0502 183.474 65.9486C183.246 65.8237 182.941 65.6831 182.158 65.8002C180.763 66.0033 181.006 65.9174 180.881 66.4563C180.763 66.9874 180.309 67.5186 179.447 67.4405C178.578 67.3545 177.967 66.5735 177.967 66.5735L177.653 66.4719C177.787 66.0345 177.52 65.7299 177.309 65.0192C176.98 63.91 176.729 63.621 176.071 62.8009C175.413 61.9808 176.236 61.1685 176.729 60.6295C177.223 60.0984 178.46 60.2624 178.061 59.5283C177.693 58.8331 178.014 57.9271 178.061 57.8099C178.123 57.8333 178.202 57.8411 178.296 57.8255C178.969 57.7474 179.463 57.1929 179.753 57.6224Z" fill="#A6D5D9"/>
<path d="M178.06 59.5292C178.46 60.2634 177.222 60.0994 176.729 60.6305C176.235 61.1695 175.413 61.9818 176.071 62.8019C176.729 63.622 176.979 63.911 177.308 65.0201C177.52 65.7309 177.786 66.0355 177.653 66.4729C177.582 66.7229 177.379 67.0119 176.979 67.4414C175.867 68.6287 175.906 69.1208 174.222 68.9177C172.538 68.7068 172.538 67.8086 171.958 66.6213C171.386 65.4263 171.512 64.9342 171.958 64.161C172.412 63.3799 173.11 63.0128 172.35 62.2317C171.59 61.4507 171.347 60.2634 171.386 60.0604C171.425 59.8573 170.955 59.3418 170.243 59.662C170.211 59.5839 170.164 59.5214 170.109 59.4824C169.702 59.1543 168.958 59.9354 169.162 58.4201C169.373 56.9049 168.997 56.2488 170.031 56.1628C171.057 56.0847 170.376 55.3583 170.344 55.0069C170.313 54.6632 172.185 52.9448 172.342 52.7964C172.35 52.7886 172.35 52.7964 172.35 52.7964C172.812 53.1948 173.431 53.7962 174.183 53.9524C175.146 54.1555 175.17 54.1555 175.185 55.0069C175.209 55.8582 176.376 55.9441 177.12 56.4753C177.755 56.9361 177.669 57.6703 178.06 57.8109C178.013 57.9281 177.692 58.8341 178.06 59.5292Z" fill="#A6D5D9"/>
<path d="M141.989 50.5855C141.824 49.4842 142.772 49.9762 142.647 48.336C142.522 46.6958 143.305 47.2269 144.167 46.2037C144.989 45.2195 144.973 44.0245 144.973 43.9074C145.295 43.6887 145.577 43.5481 145.78 43.5637C146.517 43.6184 146.767 43.837 146.548 44.2354C146.336 44.6337 145.96 44.6962 145.686 45.0633C145.412 45.4382 145.467 45.7741 145.749 46.5395C146.023 47.3128 144.825 47.9298 144.543 48.8203C144.268 49.7107 145.036 50.9994 146.086 50.8745C147.135 50.7573 146.853 49.8044 146.626 48.6328C146.399 47.4612 146.611 46.7582 147.355 46.5083C148.091 46.2662 149.415 45.9928 149.509 45.6491C149.603 45.3133 149.509 44.3291 149.846 44.3916C150.19 44.4541 150.159 45.2508 150.864 45.407C151.577 45.5554 152.752 45.3445 153.026 46.1724C153.3 47.0004 153.026 48.2032 154.781 48.1407C156.543 48.0782 156.512 47.5237 158.024 48.2657C159.536 48.9999 159.904 49.2186 161.134 48.5078C162.371 47.8049 164.212 47.7814 164.353 47.5784C164.494 47.3753 164.212 47.5393 164.275 47.2503C164.33 46.9613 164.557 46.8832 165.035 47.0004C165.505 47.1253 165.92 47.2269 166.531 47.3128C167.15 47.3909 167.173 47.9064 166.531 48.008C165.896 48.1095 165.857 48.4219 165.732 48.6016C165.606 48.789 166.1 49.0936 166.554 49.078C167.009 49.0546 168.63 49.3826 169.163 49.7107C169.695 50.0387 170.048 50.5699 169.476 50.7573C168.896 50.937 168.936 51.6946 168.857 51.9445C168.771 52.1867 169.742 52.3351 170.581 52.171C171.427 52.007 171.505 52.1867 171.983 52.4991C172.092 52.5694 172.202 52.6631 172.343 52.7959C172.186 52.9443 170.314 54.6626 170.346 55.0063C170.377 55.3578 171.058 56.0842 170.032 56.1623C168.998 56.2482 169.374 56.9043 169.163 58.4196C168.959 59.9348 169.703 59.1538 170.111 59.4818C170.165 59.5209 170.212 59.5834 170.244 59.6615C170.51 60.1926 170.338 61.4345 168.795 61.8641C167.024 62.3562 166.413 61.9031 165.873 62.2702C165.34 62.6373 165.176 63.4184 164.894 62.8014C164.604 62.1921 164.275 62.6842 163.695 62.6373C163.123 62.5983 161.557 61.497 161.149 61.9422C160.734 62.3952 162.262 63.6215 162.465 64.8165C162.669 66.0037 163.366 65.6366 163.656 66.3708C163.946 67.1129 162.708 67.933 161.886 67.972C161.063 68.0111 161.149 68.4251 160.781 69.1202C160.405 69.8154 159.583 69.2452 158.76 69.2452C157.938 69.2452 158.149 70.0653 156.911 68.6672C155.776 67.3862 155.932 67.0738 155.595 66.3552C155.564 66.2927 155.533 66.2303 155.501 66.1678C155.031 65.3086 154.812 64.9337 155.353 64.0354C155.885 63.1294 154.859 62.3562 154.201 61.536C153.543 60.7159 153.872 58.9116 154.569 57.8416C155.266 56.7793 152.799 57.1855 150.872 57.0683C148.937 56.9434 149.141 56.1623 148.24 55.5062C147.331 54.8501 146.548 55.9592 144.973 55.8733C143.391 55.7952 143.712 53.866 143.712 52.3897C143.712 50.9135 142.153 51.6946 141.989 50.5855Z" fill="#A6D5D9"/>
<path d="M130.638 68.6427C130.559 68.135 129.032 68.6427 129.032 68.6427C128.954 68.5333 128.366 67.5726 129.588 67.0493C130.881 66.4947 129.831 65.2059 131.311 65.0185C132.792 64.8388 133.285 63.1752 133.043 62.191C132.792 61.2069 132.792 60.2852 133.105 58.3169C133.411 56.3486 131.437 55.5676 131.687 55.0052C131.93 54.4428 133.231 51.4904 134.703 50.9983C135.471 50.7406 135.675 50.8343 135.808 50.7172C136.364 50.8499 137.257 50.8031 137.829 50.725C138.769 50.6 137.194 49.3268 137.406 48.8192C137.57 48.4052 137.445 48.1084 137.061 47.835C137.445 47.0696 137.805 46.7337 138.534 46.6947C139.638 46.6322 139.952 47.6163 140.625 46.6947C141.307 45.773 141.119 45.7105 142.168 45.648C142.936 45.6012 144.103 44.4842 144.973 43.9062C144.973 44.0234 144.988 45.2184 144.166 46.2026C143.304 47.2258 142.521 46.6947 142.646 48.3349C142.772 49.9751 141.824 49.4831 141.988 50.5844C142.153 51.6935 143.712 50.9124 143.712 52.3886C143.712 53.8649 143.39 55.7941 144.973 55.8722C146.547 55.9581 147.331 54.849 148.239 55.5051C149.14 56.1612 148.936 56.9423 150.871 57.0672C152.798 57.1844 155.266 56.7782 154.569 57.8405C153.871 58.9105 153.542 60.7148 154.2 61.5349C154.858 62.3551 155.885 63.1283 155.352 64.0343C154.811 64.9326 155.031 65.3075 155.501 66.1667C155.532 66.2292 155.563 66.2916 155.595 66.3541C155.595 66.3541 154.772 67.4789 153.503 67.6819C152.226 67.885 150.824 67.4398 150.252 67.9319C149.673 68.424 149.759 68.7051 150.331 69.4784C150.91 70.2516 150.378 70.1814 149.798 70.5094C149.226 70.8375 149.72 71.0015 149.837 71.9075C149.963 72.8057 151.279 74.282 150.989 75.227C150.707 76.1721 150.331 77.0313 150.331 78.0155C150.331 78.9996 149.594 80.5539 149.391 80.5539C149.391 80.5539 149.187 80.4368 148.85 80.3509C148.56 80.1868 148.247 79.9525 148.153 79.6948C147.989 79.2417 148.114 78.6325 148.936 77.8905C149.759 77.1563 148.404 77.2344 147.581 76.7814C146.759 76.3362 146.265 76.4143 145.772 76.7423C145.278 77.0704 143.508 77.0704 142.56 76.9923C141.62 76.9063 141.409 75.227 140.962 74.2429C140.508 73.2588 139.685 74.0398 139.317 73.2588C138.98 72.5636 138.886 71.97 138.001 71.845C137.891 71.8294 137.766 71.8216 137.625 71.8216C136.395 71.8216 136.192 71.3764 135.447 70.5563C134.711 69.7361 133.889 70.5563 132.737 70.5563C131.586 70.5563 130.724 69.1582 130.638 68.6427Z" fill="#A6D5D9"/>
<path d="M123.972 51.9768C123.972 51.9768 123.502 50.7739 123.972 50.3053C124.442 49.8367 123.643 49.3289 123.768 48.7353C123.894 48.1339 124.317 47.923 124.317 47.923C125.554 48.3058 126.236 49.1571 127.81 49.1571C129.393 49.1571 130.709 46.8608 132.377 47.0326C134.038 47.2045 136.082 47.2904 136.725 47.6262C136.85 47.6965 136.968 47.7668 137.062 47.8371C137.445 48.1105 137.571 48.4073 137.406 48.8213C137.195 49.3289 138.769 50.6021 137.829 50.7271C137.257 50.8052 136.364 50.852 135.808 50.7193C135.456 50.6411 135.236 50.4849 135.315 50.2194C135.526 49.5398 135.659 48.4385 134.806 48.4776C133.952 48.5166 133.693 48.2667 133.27 48.1339C132.847 48.009 131.649 48.3058 131.437 48.5166C131.226 48.7353 131.563 49.4539 130.928 49.6648C130.286 49.8835 132.542 51.6643 131.476 52.0471C130.411 52.4298 130.074 51.7112 128.962 51.7112C127.857 51.7112 128.492 50.9458 127.043 50.813C125.594 50.688 126.064 50.688 125.131 51.4535C124.567 51.9143 124.293 52.0393 123.972 51.9768Z" fill="#A6D5D9"/>
<path d="M123.972 50.3035C123.502 50.7721 123.972 51.975 123.972 51.975C123.752 51.9359 123.517 51.811 123.165 51.6626C122.272 51.2798 122.867 51.069 121.543 50.2645C120.227 49.4521 120.995 49.3662 119.546 49.499C118.097 49.624 119.029 48.7726 117.282 48.6008C116.029 48.4836 116.444 47.6166 115.911 46.6637L116.013 46.6012C116.013 46.6012 116.389 45.7499 117.799 45.4531C119.201 45.1563 119.037 45.1563 119.718 45.4531C120.368 45.7343 121.661 45.6093 121.786 45.5937C121.794 45.5937 121.794 45.5937 121.794 45.5937C122.53 46.5075 123.47 47.6635 124.316 47.9213C124.316 47.9213 123.893 48.1321 123.768 48.7336C123.643 49.3272 124.442 49.8349 123.972 50.3035Z" fill="#A6D5D9"/>
<path d="M116.35 36.441C116.773 35.9333 118.269 36.7378 118.864 36.441C119.444 36.152 120.016 34.6914 120.055 34.6055C120.431 34.6992 120.768 34.8164 120.822 35.0897C120.948 35.6833 120.055 36.4488 120.313 38.1046C120.564 39.7605 122.06 40.9555 121.332 41.5492C120.611 42.1428 120.18 43.8846 120.909 44.5641C121.136 44.7828 121.441 45.1655 121.786 45.5951C121.661 45.6107 120.368 45.7357 119.718 45.4545C119.036 45.1577 119.201 45.1577 117.799 45.4545C116.389 45.7513 116.013 46.6027 116.013 46.6027L115.911 46.6652C115.699 46.2902 115.339 45.8997 114.681 45.5404C113.13 44.6969 112.59 43.4471 111.979 42.8067V42.7989C113.138 42.8145 112.684 40.0573 113.616 39.0263C114.556 37.9953 115.621 39.1669 116.13 38.6123C116.647 38.0578 115.919 36.9565 116.35 36.441Z" fill="#A6D5D9"/>
<path d="M110.717 40.9465C110.42 40.142 108.696 39.4859 106.809 39.6421C107.255 39.1735 106.934 38.8923 106.809 38.4002C106.652 37.8066 107.012 37.8847 108.336 37.338C109.55 36.8303 109.213 36.2679 109.151 36.182C109.754 36.182 110.553 35.9789 111.101 35.6821C112.127 35.1276 112.041 34.1903 113.365 34.2762C114.681 34.3621 115.449 34.3231 117.156 34.0263C118.864 33.7295 118.817 33.4717 119.029 34.0653C119.146 34.3856 119.624 34.4871 120.055 34.6043C120.016 34.6902 119.444 36.1508 118.864 36.4398C118.269 36.7366 116.773 35.9321 116.35 36.4398C115.919 36.9553 116.647 38.0566 116.13 38.6111C115.621 39.1657 114.556 37.9941 113.616 39.0251C112.684 40.0561 113.138 42.8133 111.979 42.7977V42.8055H111.971C111.665 42.4774 111.336 42.3056 110.843 42.4384C110.725 42.4696 110.608 42.5009 110.49 42.5399V42.5321C110.49 42.5321 111.015 41.7588 110.717 40.9465Z" fill="#A6D5D9"/>
<path d="M106.879 42.3116C106.503 41.9367 105.947 41.8664 105.289 41.8898V41.8742C105.266 41.4524 105.438 40.6479 106.417 39.9684C106.589 39.8512 106.715 39.7419 106.809 39.6403C108.697 39.4841 110.42 40.1402 110.718 40.9447C111.015 41.757 110.49 42.5303 110.49 42.5303V42.5381H110.483C109.151 42.8974 107.858 43.2879 106.879 42.3116Z" fill="#A6D5D9"/>
<path d="M107.435 30.9023C107.608 31.8552 108.673 32.4488 108.414 33.0893C108.164 33.7297 108.461 34.9091 108.328 35.6746V35.6824C108.25 35.6824 107.788 35.7683 107.435 36.276C107.051 36.8228 106.456 37.0805 106.284 36.44C106.119 35.8074 106.503 34.7451 105.814 33.9797C105.132 33.2142 105.305 32.3082 105.305 32.3082V32.3004C105.579 32.3004 105.775 32.2301 106.158 31.9801C106.84 31.5427 107.365 30.6679 107.427 30.5586C107.412 30.6367 107.404 30.7461 107.435 30.9023Z" fill="#A6D5D9"/>
<path d="M107.435 36.2764C107.787 35.7687 108.25 35.6828 108.328 35.6828C108.273 36.0343 108.641 36.1827 109.15 36.1827C109.213 36.2686 109.55 36.831 108.336 37.3387C107.012 37.8854 106.652 37.8073 106.808 38.4009C106.934 38.893 107.255 39.1742 106.808 39.6428C106.714 39.7443 106.589 39.8537 106.417 39.9708C105.437 40.6504 105.265 41.4549 105.289 41.8767V41.8923C104.09 41.9157 102.563 42.2516 101.215 41.5877C100.714 41.3455 100.252 41.0097 99.7896 40.6348C99.7896 40.6348 99.7269 39.4163 99.7896 38.315C99.8522 37.2059 101.129 36.8231 102.453 36.6591C103.769 36.4873 104.067 35.2142 103.644 34.7455C103.221 34.2769 102.406 33.1287 102.578 32.871C102.751 32.621 103.001 32.2773 104.2 32.2773C104.756 32.2773 105.069 32.3164 105.304 32.3008V32.3086C105.304 32.3086 105.132 33.2146 105.813 33.9801C106.503 34.7455 106.119 35.8078 106.283 36.4404C106.456 37.0809 107.051 36.8231 107.435 36.2764Z" fill="#A6D5D9"/>
<path d="M50.2757 0.292898C51.8032 0.417872 53.1506 0.613139 54.6232 1.2458C56.0881 1.88628 58.9081 1.82379 60.1222 1.2458C61.3364 0.675625 63.0597 0.417871 64.3366 0.738112C65.6212 1.05835 66.0677 1.31611 67.4072 3.35469C68.7546 5.39327 69.4517 4.94806 70.6032 6.15872C71.7547 7.36938 71.5667 4.7528 72.7809 4.88558C73.9951 5.01055 75.7889 5.01055 76.6192 6.98665C77.4496 8.96275 78.9849 8.64251 79.1729 10.4936C79.3687 12.3448 79.4941 12.212 81.3506 13.2977C83.1209 14.3365 84.5387 14.0865 84.6641 14.0631V14.0709C84.6484 15.3206 84.4996 14.852 83.8416 16.8125C83.1366 18.9135 84.1627 20.8272 84.6092 22.1003C85.0557 23.3734 84.5466 23.7562 85.0557 24.2717C85.5649 24.7794 84.5466 26.693 87.1629 27.2007C89.7871 27.7162 88.7609 30.3874 90.2962 30.4577C91.8316 30.5202 93.8839 30.075 94.3304 30.4577C94.7769 30.8404 97.0172 31.231 98.6152 30.4577C100.213 29.6923 100.08 29.9422 101.106 29.6923C102.132 29.4345 101.937 28.8565 101.553 26.568C101.169 24.2717 101.232 23.186 102.9 22.9282C104.561 22.6783 106.926 21.2724 108.266 21.7801C109.613 22.2956 109.825 23.3578 108.799 24.4591C107.78 25.5682 107.396 25.6073 108.415 26.5836C109.441 27.5678 108.673 27.9895 108.759 28.6691C108.846 29.3486 109.229 30.4968 108.712 30.5827C108.289 30.653 107.569 30.1687 107.436 30.5514C107.436 30.5514 107.436 30.5514 107.428 30.5593C107.365 30.6686 106.84 31.5434 106.159 31.9808C105.775 32.2307 105.579 32.301 105.305 32.301C105.07 32.3167 104.757 32.2776 104.2 32.2776C103.002 32.2776 102.751 32.6213 102.579 32.8712C102.407 33.129 103.221 34.2771 103.644 34.7458C104.067 35.2144 103.77 36.4876 102.454 36.6594C101.13 36.8234 99.8529 37.2061 99.7902 38.3153C99.7276 39.4166 99.7902 40.635 99.7902 40.635H99.7824C99.7824 40.635 99.7824 40.635 99.7824 40.6272C98.3176 39.44 96.9467 37.8388 94.9022 37.3858C92.2154 36.7844 91.3224 37.8935 89.6617 38.0184C88.0011 38.1512 86.3326 37.0187 83.2619 37.0187C80.1991 37.0187 80.3244 36.7063 77.9587 35.4253C75.5931 34.1522 75.9456 34.1444 74.0577 33.7694C73.7366 33.707 69.9687 33.2618 68.8799 31.2857C67.7911 29.3096 67.4699 28.6066 68.1122 27.9036C68.7467 27.2007 66.3811 23.5062 65.3001 22.9282C64.2112 22.358 64.3366 21.6551 62.8012 19.3588C61.2659 17.0624 60.8194 16.4922 58.7122 14.8364C56.5972 13.1727 54.6859 11.0091 54.0436 9.28299C53.4012 7.56464 51.9991 9.41577 51.6152 5.84629C51.2784 2.72202 49.4376 1.0193 48.6777 1.0193L49.3436 0.0351562C49.5864 0.167938 49.8919 0.261661 50.2757 0.292898Z" fill="#A6D5D9"/>
<path d="M48.16 -1.35681C48.4028 -1.07563 48.6065 -0.357034 49.3428 0.0334992L48.677 1.01764C48.5595 1.01764 48.4733 1.0567 48.4185 1.12699C47.9641 1.69716 46.8126 2.58758 48.4185 4.88392C50.0165 7.18026 49.4995 8.77363 50.9095 10.3045C52.3195 11.8354 53.5336 14.1318 53.4005 14.7019C53.2751 15.2799 55.8288 18.7244 56.7296 19.4899C57.6226 20.2475 57.3015 22.3564 56.667 22.2314C56.0246 22.0987 55.3823 19.3571 53.2751 18.4667C51.168 17.5763 51.2306 13.999 50.7136 12.6009C50.2045 11.1949 48.5438 10.3045 47.0711 7.9457C45.5985 5.58688 44.7681 4.18096 44.6428 2.20487C44.5801 1.21291 44.4548 -0.169586 44.1885 -1.35681C44.1885 -1.35681 47.8388 -1.73172 48.16 -1.35681Z" fill="#A6D5D9"/>
<path d="M39.9739 -43.9539C40.6789 -43.5087 41.4465 -44.3991 41.5719 -42.8682C41.6972 -41.3373 42.6607 -40.6344 43.4284 -41.2124C43.8514 -41.5248 43.444 -42.9307 42.9505 -44.5085C42.9505 -44.5085 88.0392 -43.5946 90.7652 -43.0869C93.499 -42.5714 92.982 -41.8919 96.9927 -42.0637C101.003 -42.2356 103.729 -40.1111 105.437 -39.1738C107.137 -38.2365 109.526 -35.3465 109.354 -33.0502C109.181 -30.7539 108.179 -28.8012 109.362 -28.5513C110.552 -28.2935 110.631 -29.3948 112.338 -30.5039C114.046 -31.6052 115.667 -31.2694 115.746 -31.9489C115.832 -32.6284 114.555 -33.222 116.513 -33.9875C118.48 -34.7529 119.075 -34.4405 119.333 -36.5103C119.584 -38.5802 120.438 -39.7674 122.396 -40.1111C124.362 -40.4469 125.13 -40.2829 126.752 -42.4855C127.864 -44.0086 127.723 -44.8053 128.028 -45.3833C128.169 -45.641 128.404 -45.8519 128.882 -46.0628C130.418 -46.7423 130.418 -47.9295 131.436 -47.25C132.462 -46.5705 131.945 -45.9769 132.713 -44.9537C133.48 -43.9383 134.734 -44.1023 134.734 -44.1023L134.726 -44.0945C134.585 -43.9227 134.514 -43.6961 134.546 -43.3759C134.679 -42.2277 134.295 -41.5951 133.206 -41.2748C132.117 -40.9546 129.814 -39.4862 129.877 -38.0256C129.948 -36.5572 130.841 -35.0888 130.261 -34.2609C129.689 -33.4329 126.556 -33.3704 126.493 -31.7771C126.43 -30.1837 126.94 -29.9259 125.788 -29.2855C124.637 -28.6528 125.663 -27.3718 125.083 -25.8409C124.511 -24.3179 123.039 -25.4582 123.297 -23.9976C123.548 -22.5292 123.994 -20.8734 123.422 -20.8109C122.843 -20.7406 120.673 -21.7638 121.503 -20.3579C122.334 -18.9597 124.958 -19.28 124.19 -17.4288C123.422 -15.5777 124.958 -17.1711 124.057 -15.4527C123.164 -13.7266 121.824 -13.9219 121.95 -12.5862C122.075 -11.2428 121.887 -11.5005 120.477 -10.4774C119.075 -9.46196 119.647 -8.43877 117.986 -7.03284C116.325 -5.63474 116.067 -5.95498 116.897 -2.69792C117.728 0.551311 118.816 -0.917088 118.174 1.05901C117.54 3.03511 121.503 5.20648 121.629 7.76057C121.762 10.3068 121.307 10.8145 120.861 10.9473C120.414 11.0723 119.2 10.6896 118.628 9.0337C118.049 7.37785 116.772 8.01051 116.13 6.5421C115.495 5.0815 114.727 2.26966 113.827 1.95724C112.934 1.637 111.531 0.10611 110.505 0.746578C109.479 1.37924 109.095 2.20718 108.077 1.12931C107.051 0.0436249 105.962 -0.21413 103.917 0.10611C101.873 0.42635 97.2669 1.37924 98.4184 1.69948C99.5699 2.01972 100.275 1.95724 99.891 2.65239C99.5072 3.35535 99.0607 4.05831 98.0972 4.05831C97.1415 4.05831 95.9274 2.78516 94.9639 3.41783C94.0082 4.05831 93.3659 4.1208 92.1517 3.99582C90.9375 3.87085 91.196 5.20648 90.0445 4.31606C88.893 3.41783 88.188 4.25357 88.2507 4.94873C88.3134 5.65168 89.2142 5.84695 87.9295 6.67489C86.6527 7.50282 85.6265 6.41714 85.4385 7.94802C85.2505 9.47892 84.992 9.28365 83.9659 10.3068C82.9475 11.33 84.6709 12.0955 84.6709 13.7514C84.6709 13.8685 84.6709 13.9701 84.663 14.0638C84.5377 14.0872 83.1199 14.3372 81.3495 13.2983C79.493 12.2127 79.3677 12.3454 79.1719 10.4943C78.9839 8.64317 77.4486 8.96341 76.6182 6.98731C75.7879 5.01121 73.994 5.01121 72.7799 4.88624C71.5657 4.75346 71.7537 7.37004 70.6022 6.15938C69.4507 4.94873 68.7535 5.39393 67.4062 3.35535C66.0667 1.31677 65.6202 1.05901 64.3355 0.738773C63.0587 0.418533 61.3354 0.676285 60.1212 1.24646C58.907 1.82446 56.087 1.88694 54.6222 1.24646C53.1495 0.6138 51.8022 0.418533 50.2747 0.29356C49.8909 0.262321 49.5854 0.168598 49.3425 0.0358162C48.6062 -0.354717 48.4026 -1.07331 48.1597 -1.35449C47.8385 -1.7294 44.1882 -1.35449 44.1882 -1.35449C44.1804 -1.35449 44.1804 -1.35449 44.1804 -1.35449C43.9297 -2.5339 43.5224 -3.53366 42.9192 -3.78361C41.6972 -4.2913 36.7152 -6.97036 36.6526 -9.64943C36.5821 -12.3285 36.4567 -14.1796 35.4306 -15.773C34.4122 -17.3664 35.0467 -18.9597 35.4306 -21.0608C35.8144 -23.1697 33.8326 -23.5524 34.7334 -26.5439C35.6264 -29.5432 35.689 -33.2377 37.2871 -34.9638C38.885 -36.6822 38.6344 -39.619 38.7597 -42.4855C38.885 -45.352 39.2689 -44.3991 39.9739 -43.9539Z" fill="#A6D5D9"/>
<path d="M172.351 52.7969C172.813 53.1952 173.432 53.7966 174.184 53.9529C175.147 54.1559 175.171 54.1559 175.186 55.0073C175.21 55.8587 176.377 55.9446 177.121 56.4757C177.756 56.9365 177.669 57.6707 178.061 57.8113C178.124 57.8348 178.202 57.8426 178.296 57.827C178.97 57.7489 179.463 57.1943 179.753 57.6239C180.043 58.0535 181.312 58.2409 182.322 58.0535C182.769 57.9675 183.654 57.9129 184.657 58.0456C185.902 58.2019 187.336 58.6471 188.37 59.6703C189.741 61.0449 190.336 61.4667 190.9 62.0447C191.096 62.24 191.292 62.4665 191.511 62.7477C192.373 63.8568 191.386 65.8876 193.242 66.6218C195.091 67.3638 194.723 68.2854 193.978 68.9572C193.242 69.6367 193.179 69.7617 192.004 70.8083C190.829 71.8471 192.498 72.222 193.36 71.6675C194.229 71.1129 195.028 71.1754 195.702 71.5425C196.383 71.9096 197.926 71.4175 197.676 72.222C197.433 73.0187 196.446 74.6824 197.182 74.6824C197.926 74.6824 197.864 73.7529 198.608 73.2608C199.344 72.7688 200.574 72.6516 201.444 73.3858C202.305 74.1278 206.003 73.5733 206.253 74.6824C206.496 75.7837 205.392 77.8145 206.253 77.8145C207.115 77.8145 206.927 76.4007 207.977 76.6507C209.026 76.8928 211.306 78.1191 212.974 77.8145C214.643 77.5098 216.241 76.7678 217.604 78.6736C218.959 80.5794 220.377 81.6261 222.288 81.8135C224.199 82.001 225.931 80.7669 226.424 83.4147C226.918 86.0547 228.946 88.148 226.972 91.53C224.998 94.912 224.325 95.2791 222.782 95.7712C221.238 96.2633 221.732 99.7078 220.565 99.6453C219.39 99.5828 218.708 99.4032 218.771 100.137C218.834 100.879 219.264 100.997 218.465 102.168C217.659 103.34 218.403 107.643 218.771 108.807C219.139 109.979 217.972 110.346 217.541 111.268C217.11 112.189 218.152 114.103 216.734 115.087C215.316 116.063 216.491 117.438 215.254 118.602C214.024 119.758 214.705 121.414 213.899 121.539C213.1 121.664 213.342 122.398 211.556 123.015C209.77 123.632 206.872 122.585 205.078 124.061C203.292 125.538 203.786 125.967 201.068 126.092C198.357 126.217 199.039 129.045 197.926 129.224C196.814 129.412 197.065 129.716 197.002 131.935C196.939 134.145 197.926 136.73 196.078 136.855C194.229 136.98 194.66 139.808 193.485 141.222C192.31 142.635 191.143 144.541 190.955 143.924C190.775 143.307 191.268 143.002 191.448 141.893C191.636 140.792 192.435 140.479 191.143 140.479C189.842 140.479 191.205 142.331 190.336 143.19C189.474 144.049 189.294 143.986 188.738 145.955C188.244 147.704 187.312 148.821 186.153 149.516" stroke="#676B78" stroke-width="1.35333" stroke-miterlimit="10"/>
<path d="M137.062 47.8361C137.445 47.0707 137.806 46.7348 138.534 46.6958C139.639 46.6333 139.952 47.6174 140.626 46.6958C141.307 45.7741 141.119 45.7116 142.169 45.6491C142.937 45.6023 144.104 44.4853 144.973 43.9074C145.294 43.6887 145.576 43.5481 145.78 43.5637C146.516 43.6184 146.767 43.837 146.548 44.2354C146.336 44.6337 145.96 44.6962 145.686 45.0633C145.412 45.4382 145.467 45.7741 145.749 46.5395C146.023 47.3128 144.824 47.9298 144.542 48.8203C144.268 49.7107 145.036 50.9994 146.086 50.8745C147.135 50.7573 146.853 49.8044 146.626 48.6328C146.399 47.4612 146.61 46.7582 147.355 46.5083C148.091 46.2662 149.415 45.9928 149.509 45.6491C149.603 45.3133 149.509 44.3291 149.846 44.3916C150.19 44.4541 150.159 45.2508 150.864 45.407C151.577 45.5554 152.752 45.3445 153.026 46.1724C153.3 47.0004 153.026 48.2032 154.781 48.1407C156.543 48.0783 156.512 47.5237 158.024 48.2657C159.535 48.9999 159.904 49.2186 161.133 48.5078C162.371 47.8049 164.212 47.7814 164.353 47.5784C164.494 47.3753 164.212 47.5393 164.275 47.2503C164.329 46.9613 164.557 46.8832 165.034 47.0004C165.504 47.1253 165.92 47.2269 166.531 47.3128C167.149 47.3909 167.173 47.9064 166.531 48.008C165.896 48.1095 165.857 48.4219 165.732 48.6016C165.606 48.789 166.1 49.0936 166.554 49.078C167.008 49.0546 168.63 49.3826 169.163 49.7107C169.695 50.0387 170.048 50.5699 169.476 50.7573C168.896 50.937 168.935 51.6946 168.857 51.9445C168.771 52.1867 169.742 52.3351 170.58 52.171C171.426 52.007 171.505 52.1867 171.983 52.4991C172.092 52.5694 172.202 52.6631 172.343 52.7959" stroke="#676B78" stroke-width="1.35333" stroke-miterlimit="10"/>
<path d="M126.321 78.5482C126.925 77.9936 126.439 77.3844 126.008 77.2594C125.577 77.1422 124.841 76.2753 125.146 75.6036C125.452 74.924 125.515 74.0649 125.577 73.2604C125.64 72.4637 126.133 71.4795 127.371 70.8078C128.601 70.1283 129.032 68.652 129.032 68.652C129.032 68.652 129.032 68.652 129.032 68.6442C128.953 68.5349 128.366 67.5742 129.588 67.0509C130.88 66.4963 129.831 65.2075 131.311 65.0201C132.792 64.8404 133.285 63.1768 133.042 62.1926C132.792 61.2085 132.792 60.2868 133.105 58.3185C133.411 56.3502 131.437 55.5692 131.687 55.0068C131.93 54.4444 133.23 51.492 134.703 50.9999C135.471 50.7422 135.674 50.8359 135.808 50.7188" stroke="#676B78" stroke-width="1.35333" stroke-miterlimit="10"/>
<path d="M186.152 149.522H186.144C186.003 149.608 185.862 149.694 185.714 149.765C184.358 150.444 184.296 151.428 182.941 151.553C181.578 151.67 181.272 152.842 179.486 151.553C177.692 150.257 177.692 151.061 176.157 150.936C175.483 150.882 175.193 150.975 175.186 151.155C175.178 151.389 175.616 151.764 176.274 152.155C177.449 152.842 177.818 153.084 176.893 153.764C175.969 154.443 177.081 155.427 178.068 155.607C179.055 155.794 178.617 157.146 176.525 158.747C174.426 160.34 176.094 160.653 174.058 161.324C172.021 162.004 170.971 162.309 168.692 162.191C166.412 162.066 166.224 162.433 166.467 163.293C166.718 164.16 166.78 163.785 166.099 164.339C165.425 164.894 165.605 165.691 165.605 166.925C165.605 168.151 164.438 167.784 163.694 167.659C162.958 167.542 162.026 167.167 160.921 167.479C159.809 167.784 160.553 170.065 160.608 170.307C160.67 170.549 161.595 171.103 162.582 170.736C163.569 170.369 163.945 172.517 163.138 172.642C162.339 172.767 161.845 171.533 160.984 172.212C160.114 172.892 161.595 173.259 161.227 173.689C160.858 174.118 160.796 172.83 159.997 173.689C159.19 174.548 159.535 175.719 159.566 176.579C159.589 177.438 158.916 177.164 158.822 178.024C158.728 178.883 158.234 178.766 156.754 179.133C155.273 179.5 154.874 180.484 155.187 181.96C155.493 183.436 157.709 182.483 158.085 183.53C158.454 184.577 158.328 184.975 157.929 185.928C157.529 186.881 157.279 186.975 155.704 188.388C154.137 189.802 154.224 190.325 154.169 191.185C154.106 192.044 153.456 192.262 152.469 192.473C151.482 192.692 151.145 193.918 151.114 194.41C151.082 194.902 150.683 196.566 151.67 197.769C152.657 198.964 152.751 198.964 152.007 199.183C151.27 199.394 151.051 199.737 151.482 199.979C151.913 200.229 153.088 201.299 152.532 201.979C151.975 202.658 153.519 204.252 154.811 205.056C155.775 205.642 157.639 205.931 158.328 206.361C158.563 206.517 158.665 206.689 158.516 206.9C157.96 207.696 157.467 208.868 155.618 208.743C153.761 208.618 153.949 207.634 152.406 207.884C150.863 208.126 147.965 208.009 147.291 206.345C146.61 204.681 146.422 203.151 144.886 202.471C143.343 201.791 139.889 201.299 140.194 199.089C140.507 196.871 138.651 195.582 138.839 194.41C138.949 193.723 139.379 192.372 139.583 191.122C139.732 190.255 139.771 189.443 139.52 188.943C138.902 187.709 138.103 183.835 138.839 183.218C139.583 182.608 139.332 179.344 140.445 178.852C141.549 178.359 141.737 175.657 141.925 174.673C142.105 173.689 143.03 170.369 142.481 170.307C141.925 170.244 142.356 170.799 141.369 171.595C140.382 172.4 140.319 173.751 139.763 173.751C139.207 173.751 139.207 172.025 139.826 170.986C140.445 169.94 141.244 169.51 141.181 168.096C141.118 166.675 141.244 164.831 141.612 163.543C141.988 162.254 140.813 159.176 141.369 157.888C141.925 156.591 142.419 155.544 143.468 154.131C144.51 152.717 143.774 150.444 145.004 149.093C146.241 147.734 145.56 147.429 145.435 143.618C145.317 139.806 145.56 139.806 145.928 139.556C146.304 139.314 145.254 138.884 145.497 137.65C145.748 136.424 146.798 132.979 147.228 131.191C147.659 129.41 148.396 127.254 148.215 125.169C148.027 123.076 146.798 122.771 148.027 119.818C149.265 116.866 148.772 114.039 148.215 113.172C148.168 113.101 148.114 113.008 148.059 112.906C148.051 112.906 148.051 112.906 148.051 112.906V112.898C147.409 111.789 146.03 109.173 143.155 108.376C140.014 107.517 134.891 104.689 134.954 103.213C135.016 101.737 135.016 102.229 134.272 100.565C133.536 98.9093 131.499 96.2615 130.7 93.8011C129.893 91.3407 128.538 88.1462 126.689 87.1621C124.841 86.1779 123.971 85.1313 124.527 84.3971C125.084 83.655 123.666 80.3355 124.715 79.7185C125.757 79.1014 125.702 79.1014 126.313 78.5625C126.321 78.5547 126.321 78.5547 126.321 78.5547" stroke="#676B78" stroke-width="1.35333" stroke-miterlimit="10"/>
<path d="M123.972 51.9756C123.752 51.9365 123.517 51.8116 123.165 51.6631C122.272 51.2804 122.867 51.0695 121.543 50.265C120.227 49.4527 120.995 49.3668 119.546 49.4996C118.097 49.6246 119.029 48.7732 117.282 48.6014C116.029 48.4842 116.444 47.6172 115.911 46.6643C115.7 46.2894 115.339 45.8989 114.681 45.5396C113.13 44.696 112.59 43.4463 111.979 42.8058H111.971C111.665 42.4778 111.336 42.306 110.843 42.4387C110.725 42.47 110.608 42.5012 110.49 42.5403H110.483C109.151 42.8996 107.858 43.2901 106.879 42.3138C106.503 41.9389 105.947 41.8686 105.289 41.892C104.091 41.9154 102.563 42.2513 101.216 41.5874C100.714 41.3453 100.252 41.0094 99.7902 40.6345H99.7823C99.7823 40.6345 99.7823 40.6345 99.7823 40.6267C98.3175 39.4394 96.9467 37.8383 94.9022 37.3852C92.2153 36.7838 91.3223 37.8929 89.6617 38.0179C88.001 38.1507 86.3325 37.0181 83.2618 37.0181C80.199 37.0181 80.3243 36.7057 77.9587 35.4248C75.593 34.1516 75.9455 34.1438 74.0577 33.7689C73.7365 33.7064 69.9687 33.2612 68.8798 31.2851C67.791 29.309 67.4698 28.606 68.1122 27.9031C68.7467 27.2001 66.381 23.5057 65.3 22.9277C64.2112 22.3575 64.3365 21.6545 62.8012 19.3582C61.2658 17.0619 60.8193 16.4917 58.7122 14.8358C56.5972 13.1722 54.6858 11.0086 54.0435 9.28244C53.4012 7.5641 51.999 9.41522 51.6152 5.84574C51.2783 2.72147 49.4375 1.01875 48.6777 1.01875C48.5602 1.01875 48.474 1.0578 48.4192 1.1281C47.9648 1.69827 46.8133 2.58869 48.4192 4.88503C50.0172 7.18137 49.5002 8.77474 50.9102 10.3056C52.3202 11.8365 53.5343 14.1329 53.4012 14.703C53.2758 15.281 55.8295 18.7255 56.7303 19.491C57.6233 20.2486 57.3022 22.3575 56.6677 22.2325C56.0253 22.0998 55.383 19.3582 53.2758 18.4678C51.1687 17.5774 51.2313 14.0001 50.7143 12.602C50.2052 11.1961 48.5445 10.3056 47.0718 7.94681C45.5992 5.58798 44.7688 4.18207 44.6435 2.20597C44.5808 1.21401 44.4555 -0.168478 44.1892 -1.3557C44.1813 -1.3557 44.1813 -1.3557 44.1813 -1.3557C43.9307 -2.53511 43.5233 -3.53488 42.9202 -3.78482C41.6982 -4.29251 36.7162 -6.97157 36.6535 -9.65063C36.583 -12.3297 36.4577 -14.1808 35.4315 -15.7742C34.4132 -17.3676 35.0477 -18.961 35.4315 -21.062C35.8153 -23.1709 33.8335 -23.5536 34.7343 -26.5451C35.6273 -29.5444 35.69 -33.2389 37.288 -34.965C38.886 -36.6834 38.6353 -39.6202 38.7607 -42.4867C38.886 -45.3532 39.2698 -44.4003 39.9748 -43.9551C40.6798 -43.5099 41.4475 -44.4003 41.5728 -42.8694C41.6982 -41.3385 42.6617 -40.6356 43.4293 -41.2136C43.8523 -41.526 43.445 -42.9319 42.9515 -44.5097C42.5442 -45.8062 42.0742 -47.22 41.9567 -48.2275C41.6982 -50.4536 40.1002 -49.6257 38.7607 -51.3518C37.4212 -53.0702 37.6718 -53.7106 38.2515 -55.304C38.8233 -56.8974 39.4657 -57.2176 38.7607 -58.9985C38.0557 -60.7871 37.993 -62.5055 39.0818 -63.9114C40.1707 -65.3095 37.8677 -66.5201 37.993 -68.3713C38.1183 -70.2224 39.591 -69.5819 38.181 -72.4563C36.7788 -75.3228 36.0738 -73.2217 35.3688 -75.5102C34.6717 -77.8066 36.3323 -77.9393 34.2878 -78.5095C34.1233 -78.5564 33.9667 -78.6189 33.8178 -78.7048C32.0162 -79.5874 30.7628 -82.5008 30.7002 -84.4378C30.6375 -86.5467 30.003 -87.3122 28.6557 -87.8198C27.3162 -88.3275 26.8697 -89.4132 25.585 -88.2651C24.3082 -87.1169 24.1202 -87.4371 23.1567 -87.4371C22.201 -87.4371 24.2455 -86.0312 21.1748 -85.2033C18.1042 -84.3753 19.5768 -83.5474 17.2738 -83.2897C14.9708 -83.0397 14.0778 -81.3136 12.3545 -82.1415C10.6233 -82.9772 11.203 -83.1647 9.28383 -83.1022C7.36466 -83.0397 5.76666 -84.3129 5.76666 -84.3129L5.69616 -84.4144C5.69616 -84.4144 5.59433 -85.6719 6.44816 -85.6719C7.30199 -85.6719 6.78499 -85.1408 7.87383 -85.2658C8.96266 -85.3985 9.18983 -85.0783 9.40916 -84.5706C9.63633 -84.0551 10.8818 -84.555 11.8062 -84.9924C12.7383 -85.4298 13.9838 -84.1176 15.0335 -84.7268C16.091 -85.3361 15.6758 -86.3827 16.8273 -86.7966C17.9788 -87.2106 18.6525 -86.7029 19.4828 -87.5621C20.3132 -88.4291 20.697 -89.1242 19.7022 -89.0617C18.7152 -88.9993 18.0728 -88.968 17.7517 -89.8897C17.4383 -90.8191 17.3052 -90.8191 16.6393 -90.7879C15.9657 -90.7489 15.8717 -91.1706 16.2868 -91.5143C16.702 -91.8658 16.7647 -92.2173 16.9213 -93.0764C17.0858 -93.9434 17.6263 -93.7794 18.4567 -94.1621C19.287 -94.5448 19.005 -95.1228 18.7465 -95.1541C18.488 -95.1853 17.8535 -94.8651 17.3992 -95.1541C16.9527 -95.4353 17.4697 -95.5993 17.7517 -96.3647C18.0415 -97.1302 18.0728 -97.7316 18.4253 -97.4816C18.7778 -97.2239 18.9658 -96.5834 19.6082 -96.685C20.2505 -96.7787 20.3758 -96.7787 19.8667 -98.0206C19.8667 -98.0206 18.9345 -100.379 21.6213 -100.887C24.3082 -101.403 23.799 -100.317 24.8173 -100.254C25.8435 -100.192 27.0577 -100.762 27.7627 -100.442C28.4677 -100.122 28.8515 -101.02 29.8072 -101.973C30.7707 -102.933 31.4052 -101.973 31.9848 -102.676C32.5567 -103.379 30.4495 -103.699 29.4233 -104.011C28.405 -104.332 27.7627 -105.417 27.9507 -106.37C28.1465 -107.331 28.6557 -106.245 29.3607 -107.011C30.0657 -107.776 28.9768 -109.369 30.003 -109.245C31.0213 -109.112 30.9665 -107.651 32.0788 -107.714C33.199 -107.776 32.8152 -107.206 32.7525 -106.245C32.682 -105.292 34.092 -105.542 34.6012 -106.12C35.1182 -106.69 34.2173 -108.096 35.4315 -108.667C36.6535 -109.245 35.69 -111.541 36.7788 -111.924C37.8677 -112.306 38.0557 -111.541 39.2698 -111.603C40.484 -111.666 44.0012 -111.221 45.2858 -111.088C46.5627 -110.963 47.8395 -109.815 47.581 -108.862C47.3303 -107.901 49.2495 -107.011 48.6072 -106.44C47.9648 -105.863 48.6698 -105.48 49.8213 -104.714C50.9728 -103.949 51.5525 -102.613 51.4193 -101.785C51.3958 -101.613 51.435 -101.34 51.5212 -101.012C51.8345 -99.8014 52.7667 -97.8956 53.0173 -97.8956C53.3385 -97.8956 53.8477 -98.4502 54.8738 -98.169C55.9 -97.8956 56.7303 -97.1927 57.3022 -97.2551C57.8818 -97.3176 58.5868 -98.044 59.6052 -97.8331C60.6313 -97.6144 61.3128 -97.8722 61.6105 -96.9818C61.9082 -96.0835 62.3782 -95.3181 62.5897 -95.365C62.8012 -95.404 63.8273 -95.5758 64.0388 -94.8963C64.2503 -94.2168 65.958 -94.5995 66.2557 -93.5373C66.5533 -92.475 68.214 -92.2173 68.684 -91.2409C69.154 -90.2646 69.0678 -90.2177 69.0287 -89.4132C68.9817 -88.6087 70.1802 -88.9914 72.4832 -88.0932C74.7783 -87.2028 74.9507 -85.2033 75.3815 -85.461C75.8045 -85.7188 75.2092 -87.5465 76.063 -87.8433C76.9168 -88.1401 77.2145 -88.7337 76.6583 -88.9914C76.1022 -89.2414 77.7628 -90.2177 78.0683 -89.5382C78.366 -88.8587 79.0005 -88.3119 80.3635 -88.2651C81.7343 -88.226 81.2643 -88.1791 82.6273 -87.3278C83.9903 -86.4842 84.9303 -88.0932 85.7842 -87.6714C86.6302 -87.2419 85.9487 -85.6329 86.8025 -85.461C87.6563 -85.2892 87.6563 -86.781 88.0402 -87.3278C88.424 -87.8823 87.8678 -88.8196 88.6355 -89.0305C89.4032 -89.2414 88.6355 -90.2177 88.2125 -90.4364C87.7817 -90.6473 87.8287 -91.8814 87.9148 -92.2173C88.001 -92.5609 87.1002 -93.7091 87.484 -94.3027C87.8678 -94.8963 87.8287 -97.5285 89.4032 -96.599C90.9777 -95.6618 90.2178 -95.1072 91.5808 -94.5995C92.9438 -94.0918 91.7062 -93.4123 91.5808 -92.8577C91.4477 -92.3032 92.5992 -92.1782 92.0038 -91.28C91.4085 -90.3896 92.4268 -88.9914 93.2807 -88.9055C94.1345 -88.8196 93.8838 -89.7569 93.5783 -90.6473C93.2807 -91.5377 93.9622 -92.2641 94.346 -92.0454C94.7298 -91.8345 94.1345 -91.2019 94.5183 -90.4755C94.9022 -89.7569 95.333 -88.9446 95.7168 -88.1791C96.1007 -87.4137 97.5028 -88.1401 97.5028 -89.5382C97.5028 -90.9441 96.5628 -91.5377 97.5028 -91.8814C98.4428 -92.2173 98.1843 -92.9827 98.8267 -92.7328C99.4612 -92.475 99.093 -91.8345 100.401 -91.9673C101.709 -92.0923 101.937 -91.8345 101.968 -91.6783C101.999 -91.5143 100.691 -91.483 100.566 -90.6864C100.432 -89.8897 100.049 -89.257 100.213 -89.0617C100.37 -88.8743 101.748 -88.968 101.748 -88.2651C101.748 -87.5621 101.169 -87.6246 100.879 -86.8982C100.597 -86.164 100.66 -85.2033 99.9233 -85.461C99.187 -85.7188 98.9285 -85.75 98.2627 -85.172C97.589 -84.6018 97.1112 -85.7188 96.5942 -84.9533C96.085 -84.1879 97.4637 -84.5003 96.4375 -83.8364C95.4113 -83.1647 93.8447 -84.5706 93.3982 -83.4224C92.9517 -82.2743 94.8082 -82.4305 95.0275 -81.1261C95.2547 -79.8139 93.9465 -79.3375 92.8577 -79.1812C91.7688 -79.0172 90.2335 -78.8298 90.5547 -78.0331C90.8758 -77.2364 92.7323 -77.1739 90.9385 -75.7055C89.1447 -74.2371 88.001 -73.3154 87.9618 -72.261C87.9305 -71.2065 87.1628 -70.9566 86.6537 -70.4099C86.1445 -69.8709 86.9122 -70.2849 86.5597 -68.7228C86.2072 -67.1606 86.591 -67.1294 87.7738 -67.2543C88.9567 -67.3871 89.1838 -66.3639 89.1838 -65.4423C89.1838 -64.5128 89.2778 -62.9507 90.3667 -63.2397C91.4477 -63.5287 91.7375 -64.4816 92.4425 -64.2316C93.1475 -63.9739 93.0457 -63.5287 93.8447 -63.5911C94.6437 -63.6536 93.8447 -62.7632 94.9648 -62.7007C96.085 -62.6382 96.4062 -62.7632 96.4688 -61.6463C96.5315 -60.5294 104.302 -61.615 104.623 -60.8183C104.945 -60.0217 103.699 -60.0841 104.012 -59.1625C104.334 -58.233 106.127 -58.5845 105.9 -57.0848C105.681 -55.593 105.712 -54.8276 107.02 -53.8669C108.328 -52.9139 108.587 -52.1797 109.198 -52.3672C109.801 -52.5625 110.028 -53.3279 110.506 -52.7812C110.984 -52.2422 112.104 -52.8515 112.041 -53.2264C111.979 -53.6091 112.457 -55.554 111.564 -55.8117C110.663 -56.0695 110.381 -56.9599 110.31 -57.8815C110.248 -58.811 109.096 -59.6077 110.091 -60.6934C111.078 -61.7712 112.934 -61.5526 111.532 -64.6768C110.122 -67.8011 108.14 -68.3713 108.462 -69.5819C108.783 -70.7926 109.417 -69.5819 109.355 -71.7533C109.292 -73.9168 107.694 -73.7294 107.694 -74.6823C107.694 -75.643 108.783 -75.1978 108.203 -76.4085C107.631 -77.6191 107.631 -79.0172 108.783 -79.0172C109.926 -79.0172 110.89 -79.2125 111.72 -79.5327C112.551 -79.853 112.809 -78.5095 114.086 -78.0018C115.363 -77.4941 116.005 -76.9161 117.478 -77.1114C118.943 -77.2989 118.371 -75.1353 118.755 -74.4324C119.138 -73.7294 119.076 -72.5187 120.736 -72.5187C122.397 -72.5187 122.656 -72.5812 123.423 -72.7062C124.191 -72.839 124.959 -73.2842 124.575 -74.2371C124.191 -75.1978 123.549 -76.1507 123.87 -76.6584C124.191 -77.1739 123.361 -77.4238 124.128 -77.5566C124.896 -77.6816 123.611 -79.6577 125.147 -79.2125C126.682 -78.7673 125.084 -77.0411 127.512 -76.4709C129.948 -75.8929 132.502 -73.9871 131.993 -72.9639C131.476 -71.9407 132.698 -70.1599 134.359 -70.2224C136.019 -70.2849 135.573 -68.8868 136.85 -68.8868C138.126 -68.8868 138.706 -69.8397 138.894 -69.1367C139.09 -68.4338 139.341 -68.6915 138.581 -67.6058C137.813 -66.5201 137.233 -66.5201 137.743 -65.8875C138.26 -65.247 139.983 -65.95 140.108 -66.5904C140.241 -67.2231 140.813 -67.9885 141.393 -67.5433C141.965 -67.0981 142.928 -66.7154 143.5 -65.8875C144.08 -65.0595 144.84 -63.2709 143.5 -62.9507C142.161 -62.6382 143.054 -61.3573 142.09 -60.3419C141.134 -59.3187 140.241 -57.7253 138.322 -57.6628C136.403 -57.6004 134.484 -56.7724 132.314 -55.554C130.136 -54.3433 130.262 -53.7106 129.753 -52.336C129.243 -50.9691 127.708 -50.7738 127.262 -49.118C126.839 -47.5636 126.478 -45.775 126.909 -45.775C126.94 -45.775 126.972 -45.7828 127.003 -45.7984C127.575 -46.0562 128.476 -46.6342 128.343 -47.4621C128.217 -48.29 128.664 -49.0555 129.565 -49.8209C130.458 -50.5864 130.646 -53.1951 132.949 -52.6874C135.252 -52.1797 136.019 -53.3279 135.698 -52.2422C135.377 -51.1565 135.314 -50.3911 134.609 -50.3286C133.912 -50.2661 133.27 -49.6881 134.225 -49.1804C135.189 -48.6728 135.831 -48.993 136.207 -47.8448C136.591 -46.6967 136.912 -46.9466 138.064 -46.9466C139.215 -46.9466 140.625 -47.8448 140.688 -46.7591C140.751 -45.6735 139.09 -45.611 138.51 -44.6581C137.938 -43.6974 136.975 -42.1665 136.528 -42.1665C136.082 -42.1665 136.591 -43.4396 136.975 -44.0801C137.359 -44.7206 136.975 -45.486 136.34 -44.9705C135.878 -44.6034 135.095 -44.5331 134.735 -44.1035L134.727 -44.0957C134.586 -43.9239 134.515 -43.6974 134.547 -43.3771C134.68 -42.2289 134.296 -41.5963 133.207 -41.276C132.118 -40.9558 129.815 -39.4874 129.878 -38.0268C129.948 -36.5584 130.841 -35.09 130.262 -34.2621C129.69 -33.4341 126.557 -33.3716 126.494 -31.7783C126.431 -30.1849 126.94 -29.9271 125.789 -29.2867C124.637 -28.654 125.664 -27.373 125.084 -25.8422C124.512 -24.3191 123.039 -25.4594 123.298 -23.9988C123.549 -22.5304 123.995 -20.8746 123.423 -20.8121C122.844 -20.7418 120.674 -21.765 121.504 -20.3591C122.334 -18.961 124.959 -19.2812 124.191 -17.4301C123.423 -15.5789 124.959 -17.1723 124.058 -15.454C123.165 -13.7278 121.825 -13.9231 121.951 -12.5874C122.076 -11.244 121.888 -11.5018 120.478 -10.4786C119.076 -9.46317 119.648 -8.43998 117.987 -7.03405C116.326 -5.63595 116.068 -5.95619 116.898 -2.69913C117.728 0.550102 118.817 -0.918296 118.175 1.0578C117.54 3.0339 121.504 5.20527 121.629 7.75936C121.763 10.3056 121.308 10.8133 120.862 10.9461C120.415 11.0711 119.201 10.6884 118.629 9.03249C118.05 7.37663 116.773 8.0093 116.13 6.54089C115.496 5.0803 114.728 2.26845 113.827 1.95603C112.934 1.63579 111.532 0.104901 110.506 0.74537C109.48 1.37803 109.096 2.20597 108.078 1.1281C107.052 0.0424141 105.963 -0.215339 103.918 0.104901C101.874 0.425141 97.2678 1.37803 98.4193 1.69827C99.5708 2.01851 100.276 1.95603 99.892 2.65118C99.5082 3.35414 99.0617 4.0571 98.0982 4.0571C97.1425 4.0571 95.9283 2.78396 94.9648 3.41662C94.0092 4.0571 93.3668 4.11959 92.1527 3.99461C90.9385 3.86964 91.197 5.20527 90.0455 4.31485C88.894 3.41662 88.189 4.25237 88.2517 4.94752C88.3143 5.65047 89.2152 5.84574 87.9305 6.67368C86.6537 7.50161 85.6275 6.41593 85.4395 7.94681C85.2515 9.47771 84.993 9.28244 83.9668 10.3056C82.9485 11.3288 84.6718 12.0943 84.6718 13.7501C84.6718 13.8673 84.6718 13.9688 84.664 14.0626V14.0704C84.6483 15.3201 84.4995 14.8514 83.8415 16.8119C83.1365 18.913 84.1627 20.8266 84.6092 22.0998C85.0557 23.3729 84.5465 23.7556 85.0557 24.2711C85.5648 24.7788 84.5465 26.6924 87.1628 27.2001C89.787 27.7156 88.7608 30.3869 90.2962 30.4572C91.8315 30.5197 93.8838 30.0744 94.3303 30.4572C94.7768 30.8399 97.0172 31.2304 98.6152 30.4572C100.213 29.6917 100.08 29.9417 101.106 29.6917C102.132 29.434 101.937 28.856 101.553 26.5675C101.169 24.2711 101.231 23.1854 102.9 22.9277C104.561 22.6777 106.926 21.2718 108.266 21.7795C109.613 22.295 109.825 23.3573 108.798 24.4586C107.78 25.5677 107.396 25.6067 108.415 26.5831C109.441 27.5672 108.673 27.989 108.759 28.6685C108.845 29.3481 109.229 30.4962 108.712 30.5821C108.289 30.6524 107.569 30.1682 107.435 30.5509" stroke="#676B78" stroke-width="1.35333" stroke-miterlimit="10"/>
<path d="M121.794 45.5938C122.53 46.5076 123.47 47.6636 124.316 47.9213" stroke="#676B78" stroke-width="1.35333" stroke-miterlimit="10"/>
<path d="M108.329 35.6821C108.274 36.0336 108.642 36.182 109.151 36.182C109.754 36.182 110.553 35.9789 111.102 35.6821C112.128 35.1276 112.042 34.1903 113.365 34.2762C114.681 34.3621 115.449 34.3231 117.157 34.0263C118.864 33.7295 118.817 33.4717 119.029 34.0653C119.146 34.3856 119.624 34.4871 120.055 34.6043C120.431 34.698 120.768 34.8152 120.823 35.0885C120.948 35.6821 120.055 36.4476 120.314 38.1034C120.564 39.7593 122.06 40.9543 121.332 41.5479C120.611 42.1416 120.18 43.8833 120.909 44.5629C121.136 44.7816 121.442 45.1643 121.786 45.5939" stroke="#676B78" stroke-width="1.35333" stroke-miterlimit="10"/>
<path d="M107.428 30.5586C107.412 30.6367 107.404 30.7461 107.436 30.9023C107.608 31.8552 108.673 32.4488 108.415 33.0893C108.164 33.7297 108.462 34.9091 108.329 35.6746" stroke="#676B78" stroke-width="1.35333" stroke-miterlimit="10"/>
<path d="M144.973 43.8984C144.973 43.8984 144.973 43.8984 144.973 43.9063C144.973 44.0234 144.989 45.2184 144.167 46.2026C143.305 47.2258 142.522 46.6947 142.647 48.3349C142.772 49.9751 141.824 49.4831 141.989 50.5844C142.153 51.6935 143.712 50.9124 143.712 52.3886C143.712 53.8649 143.391 55.7941 144.973 55.8722C146.548 55.9581 147.331 54.849 148.24 55.5051C149.141 56.1612 148.937 56.9423 150.872 57.0672C152.799 57.1844 155.266 56.7782 154.569 57.8405C153.872 58.9106 153.543 60.7148 154.201 61.5349C154.859 62.3551 155.885 63.1283 155.353 64.0344C154.812 64.9326 155.031 65.3075 155.501 66.1667C155.533 66.2292 155.564 66.2916 155.595 66.3541C155.932 67.0727 155.776 67.3851 156.911 68.6661C158.149 70.0642 157.938 69.2441 158.76 69.2441C159.583 69.2441 160.405 69.8143 160.781 69.1191C161.149 68.424 161.063 68.01 161.886 67.9709C162.708 67.9319 163.946 67.1118 163.656 66.3697C163.366 65.6355 162.669 66.0026 162.465 64.8154C162.262 63.6204 160.734 62.3941 161.149 61.9411C161.557 61.4959 163.123 62.5972 163.695 62.6362C164.275 62.6831 164.604 62.191 164.894 62.8003C165.176 63.4173 165.34 62.6362 165.873 62.2691C166.413 61.902 167.024 62.3551 168.795 61.863C170.338 61.4334 170.51 60.1915 170.244 59.6604C170.212 59.5823 170.165 59.5198 170.111 59.4807C169.703 59.1527 168.959 59.9337 169.163 58.4185C169.374 56.9032 168.998 56.2471 170.032 56.1612C171.058 56.0831 170.377 55.3567 170.346 55.0052C170.314 54.6615 172.186 52.9432 172.343 52.7948C172.351 52.787 172.351 52.7948 172.351 52.7948V52.787" stroke="#676B78" stroke-width="1.015" stroke-miterlimit="10" stroke-linecap="round" stroke-linejoin="round"/>
<path d="M178.061 57.8047C178.061 57.8047 178.061 57.8047 178.061 57.8125C178.014 57.9297 177.693 58.8357 178.061 59.5309C178.46 60.265 177.223 60.101 176.729 60.6321C176.236 61.1711 175.413 61.9834 176.071 62.8035C176.729 63.6236 176.98 63.9126 177.309 65.0218C177.52 65.7325 177.787 66.0371 177.653 66.4745C177.583 66.7245 177.379 67.0135 176.98 67.4431C175.867 68.6303 175.907 69.1224 174.222 68.9193C172.538 68.7084 172.538 67.8102 171.959 66.6229C171.387 65.4279 171.512 64.9358 171.959 64.1626C172.413 63.3815 173.11 63.0144 172.35 62.2333C171.59 61.4523 171.348 60.265 171.387 60.062C171.426 59.8589 170.956 59.3434 170.243 59.6636" stroke="#676B78" stroke-width="1.015" stroke-miterlimit="10" stroke-linecap="round" stroke-linejoin="round"/>
<path d="M184.656 58.0469C184.656 58.0469 185.424 59.1169 184.656 59.898C183.889 60.6791 184.688 61.9444 184.656 63.1785C184.625 64.4048 184.664 65.9669 184.053 66.0841C183.779 66.1387 183.654 66.0528 183.474 65.9513C183.246 65.8263 182.941 65.6857 182.158 65.8029C180.763 66.006 181.006 65.92 180.881 66.459C180.763 66.9901 180.309 67.5212 179.447 67.4431C178.578 67.3572 177.967 66.5761 177.967 66.5761" stroke="#676B78" stroke-width="1.015" stroke-miterlimit="10" stroke-linecap="round" stroke-linejoin="round"/>
<path d="M190.9 62.043C190.9 62.043 190.054 63.1755 189.145 64.1597C188.244 65.1438 188.322 66.331 187.664 66.6591C187.014 66.9871 185.863 66.784 184.829 66.9481C183.803 67.1121 183.474 65.9561 183.474 65.9561" stroke="#676B78" stroke-width="1.015" stroke-miterlimit="10" stroke-linecap="round" stroke-linejoin="round"/>
<path d="M129.032 68.644C129.032 68.644 130.56 68.1363 130.638 68.644C130.724 69.1595 131.586 70.5576 132.737 70.5576C133.889 70.5576 134.711 69.7375 135.448 70.5576C136.192 71.3777 136.396 71.8229 137.625 71.8229C137.766 71.8229 137.892 71.8308 138.001 71.8464C138.887 71.9713 138.981 72.565 139.317 73.2601C139.686 74.0412 140.508 73.2601 140.962 74.2443C141.409 75.2284 141.62 76.9077 142.56 76.9936C143.508 77.0717 145.279 77.0717 145.772 76.7437C146.266 76.4156 146.759 76.3375 147.582 76.7827C148.404 77.2357 149.759 77.1576 148.937 77.8918C148.114 78.6338 147.989 79.2431 148.153 79.6961C148.247 79.9539 148.561 80.1882 148.851 80.3522C149.078 80.4772 149.305 80.5553 149.391 80.5553C149.595 80.5553 150.331 79.001 150.331 78.0168C150.331 77.0327 150.707 76.1735 150.989 75.2284C151.279 74.2833 149.963 72.8071 149.838 71.9089C149.72 71.0028 149.227 70.8388 149.798 70.5108C150.378 70.1827 150.911 70.253 150.331 69.4797C149.759 68.7065 149.673 68.4253 150.253 67.9332C150.825 67.4412 152.227 67.8864 153.504 67.6833C154.773 67.4802 155.595 66.3555 155.595 66.3555" stroke="#676B78" stroke-width="1.015" stroke-miterlimit="10" stroke-linecap="round" stroke-linejoin="round"/>
<path d="M126.322 78.5492V78.557C126.322 78.557 126.322 78.557 126.314 78.5648C126.267 78.6742 126.008 79.299 126.612 79.8614C127.27 80.4785 125.789 81.1736 126.612 81.6657C127.434 82.1578 128.335 80.5566 128.828 81.6657C129.322 82.7748 129.776 81.0643 130.019 80.1582C130.27 79.2444 130.348 78.5102 132.651 78.1821C134.954 77.8541 136.638 75.8467 136.85 74.8626C137.053 73.8784 138.001 71.8477 138.001 71.8477" stroke="#676B78" stroke-width="1.015" stroke-miterlimit="10" stroke-linecap="round" stroke-linejoin="round"/>
<path d="M149.39 80.554C149.39 80.554 149.187 80.4368 148.85 80.3509C148.435 80.2572 147.808 80.2181 147.127 80.554C145.889 81.171 145.811 81.7021 144.659 81.8271C143.508 81.9521 143.382 82.1552 143.1 83.0612C142.81 83.9594 142.278 83.3424 141.534 84.6155C140.797 85.8887 141.494 86.3807 140.915 87.2009C140.343 88.021 140.876 88.8411 141.534 90.4345C142.192 92.0357 142.395 92.2856 143.547 92.6527C144.698 93.0198 144.455 94.1289 145.027 93.9259C145.607 93.715 146.962 92.2387 147.581 92.8948C148.192 93.5509 147.785 93.8399 148.027 95.0271C148.278 96.2144 147.659 95.9332 149.39 96.1753C149.719 96.2222 150.001 96.2925 150.236 96.3784C151.27 96.7533 151.537 97.4641 151.239 98.2295C150.871 99.1668 150.855 100.151 151.357 101.424C151.858 102.697 151.96 102.861 151.357 104.212C150.746 105.564 150.33 105.853 150.91 106.751C151.482 107.657 151.811 108.11 151.114 109.047C150.879 109.36 150.612 109.696 150.37 110.031C149.86 110.703 149.398 111.391 149.343 111.961C149.265 112.82 148.051 112.898 148.051 112.898" stroke="#676B78" stroke-width="1.015" stroke-miterlimit="10" stroke-linecap="round" stroke-linejoin="round"/>
<path d="M158.329 206.368C158.329 206.368 157.224 206.649 154.812 206.829C152.407 207.016 152.039 206.712 152.039 205.665C152.039 204.619 151.796 201.049 150.065 200.682C148.341 200.315 149.634 199.268 147.104 197.979C144.574 196.683 142.662 197.3 142.662 196.011C142.662 194.715 141.182 194.41 140.876 192.934C140.774 192.434 140.759 191.895 140.845 191.379C141.017 190.395 141.55 189.513 142.482 189.185C143.9 188.693 144.331 187.826 144.393 185.615C144.456 183.405 144.268 181.866 145.067 181.554C145.874 181.249 146.179 179.093 145.623 178.297C145.067 177.5 143.649 176.578 144.519 175.407C145.38 174.235 145.686 173.134 145.012 170.978C144.331 168.83 144.205 165.995 145.13 165.073C146.054 164.151 147.166 162.496 146.242 160.769C145.318 159.051 147.041 155.482 147.848 154.802C148.647 154.13 150.221 152.224 149.556 150.865C148.898 149.514 147.911 147.179 148.467 145.89C149.015 144.593 147.166 143.43 148.216 141.461C149.266 139.493 149.822 138.634 149.822 135.924C149.822 133.221 152.039 133.651 152.783 131.378C153.519 129.097 152.47 127.621 153.394 126.457C154.318 125.285 156.237 124.364 155.25 122.825C154.263 121.286 153.707 121.536 153.582 119.443C153.457 117.35 152.289 117.287 152.407 116.249C152.532 115.202 152.352 113.734 151.365 112.898C150.378 112.062 150.37 110.031 150.37 110.031" stroke="#676B78" stroke-width="1.015" stroke-miterlimit="10" stroke-linecap="round" stroke-linejoin="round"/>
<path d="M175.186 151.157C175.186 151.157 174.489 150.439 174.74 149.705C174.983 148.963 175.985 149.517 176.072 148.103C176.158 146.69 174.058 145.893 175.045 144.229C176.032 142.573 176.338 140.293 177.388 140.113C178.437 139.926 178.993 139.621 179.362 140.66C179.73 141.706 180.349 143.37 180.717 142.941C181.093 142.511 181.461 141.769 182.573 143.12C183.678 144.479 185.409 144.104 185.534 145.213C185.652 146.291 186.122 149.337 186.153 149.517C186.153 149.525 186.153 149.525 186.153 149.525" stroke="#676B78" stroke-width="1.015" stroke-miterlimit="10" stroke-linecap="round" stroke-linejoin="round"/>
<path d="M155.25 122.826C155.25 122.826 156.479 120.366 157.835 120.983C159.198 121.6 160.921 121.865 161.477 121.858C162.033 121.842 162.644 122.67 163.02 121.858C163.388 121.045 164.125 120.842 164.869 120.881C165.605 120.92 166.036 120.795 166.287 118.952C166.53 117.109 167.274 116.125 168.997 115.82C170.728 115.508 171.284 115.695 172.389 115.203C173.501 114.711 174.614 115.82 175.789 115.57C176.956 115.328 176.22 114.164 176.768 112.899C177.324 111.633 176.031 111.204 175.789 109.423C175.538 107.634 174.802 107.455 172.945 107.08C171.096 106.713 170.854 105.549 170.854 104.01C170.854 102.472 170.54 102.222 169.06 101.73C167.579 101.237 167.767 100.503 166.349 100.378C164.932 100.253 166.53 99.4566 163.2 98.8395C159.871 98.2303 160.177 96.8166 159.997 95.0904C159.809 93.3721 160.796 92.88 158.328 93.2471C155.861 93.6142 155.43 95.0279 154.2 94.9655C152.962 94.903 150.236 96.3792 150.236 96.3792" stroke="#676B78" stroke-width="1.015" stroke-miterlimit="10" stroke-linecap="round" stroke-linejoin="round"/>
<path d="M177.387 140.111C177.387 140.111 177.512 137.831 179.118 137.401C180.716 136.972 181.335 136.05 182.197 135.066C183.066 134.082 184.547 134.699 185.158 132.73C185.777 130.762 185.103 129.098 184.421 128.919C184.171 128.848 184.069 128.692 184.038 128.434C183.975 127.997 184.1 127.271 183.991 126.154C183.803 124.365 182.816 125.654 182.259 125.654C181.703 125.654 181.703 124.178 180.842 122.826C179.98 121.475 179.855 122.147 178.069 121.35C176.275 120.554 176.275 120.733 176.4 119.444C176.525 118.156 175.789 115.57 175.789 115.57" stroke="#676B78" stroke-width="1.015" stroke-miterlimit="10" stroke-linecap="round" stroke-linejoin="round"/>
<path d="M164.869 120.883C164.869 120.883 165.488 122.461 166.655 122.828C167.83 123.195 169.984 125.475 171.841 125.843C173.689 126.21 173.376 126.764 174.246 127.444C175.107 128.116 177.261 127.811 177.449 128.92C177.637 130.021 176.353 129.162 176.071 130.888C175.789 132.607 175.844 132.482 175.107 133.403C174.363 134.325 175.507 135.801 176.909 134.942C178.311 134.083 178.194 133.286 179.549 133.403C180.904 133.528 182.447 132.849 183.066 132.365C183.677 131.872 184.037 128.436 184.037 128.436" stroke="#676B78" stroke-width="1.015" stroke-miterlimit="10" stroke-linecap="round" stroke-linejoin="round"/>
<path d="M137.062 47.8371C137.445 48.1105 137.571 48.4073 137.406 48.8213C137.195 49.3289 138.769 50.6021 137.829 50.7271C137.257 50.8052 136.364 50.852 135.808 50.7193C135.456 50.6411 135.236 50.4849 135.315 50.2194C135.526 49.5398 135.659 48.4385 134.806 48.4776C133.952 48.5166 133.693 48.2667 133.27 48.1339C132.847 48.009 131.649 48.3058 131.437 48.5166C131.226 48.7353 131.563 49.4539 130.928 49.6648C130.286 49.8835 132.542 51.6643 131.476 52.0471C130.411 52.4298 130.074 51.7112 128.962 51.7112C127.857 51.7112 128.492 50.9458 127.043 50.813C125.594 50.688 126.064 50.688 125.131 51.4535C124.567 51.9143 124.293 52.0393 123.972 51.9768C123.972 51.9768 123.502 50.7739 123.972 50.3053C124.442 49.8367 123.643 49.3289 123.768 48.7353C123.894 48.1339 124.317 47.923 124.317 47.923C125.554 48.3058 126.236 49.1571 127.81 49.1571C129.393 49.1571 130.709 46.8608 132.377 47.0326C134.038 47.2045 136.082 47.2904 136.725 47.6262C136.85 47.6965 136.968 47.7668 137.062 47.8371Z" stroke="#676B78" stroke-width="1.015" stroke-miterlimit="10" stroke-linecap="round" stroke-linejoin="round"/>
<path d="M44.1885 -1.35681C44.1885 -1.35681 47.8388 -1.73172 48.16 -1.35681C48.4028 -1.07563 48.6065 -0.357034 49.3428 0.0334996C49.5856 0.166279 49.8911 0.260003 50.275 0.291241C51.8025 0.416215 53.1498 0.611482 54.6225 1.24414C56.0873 1.88462 58.9073 1.82214 60.1215 1.24414C61.3356 0.673968 63.059 0.416215 64.3358 0.736455C65.6205 1.0567 66.067 1.31445 67.4065 3.35304C68.7538 5.39161 69.451 4.94641 70.6025 6.15706C71.754 7.36772 71.566 4.75114 72.7801 4.88392C73.9943 5.00889 75.7881 5.00889 76.6185 6.98499C77.4488 8.96109 78.9841 8.64085 79.1721 10.492C79.368 12.3431 79.4933 12.2103 81.3498 13.296C83.1201 14.3348 84.538 14.0849 84.6633 14.0615C84.6711 14.0615 84.6711 14.0615 84.6711 14.0615" stroke="#676B78" stroke-width="1.015" stroke-miterlimit="10" stroke-linecap="round" stroke-linejoin="round"/>
<path d="M99.7896 40.6344C99.7896 40.6344 99.7269 39.4159 99.7896 38.3146C99.8522 37.2055 101.129 36.8228 102.453 36.6587C103.769 36.4869 104.067 35.2138 103.644 34.7451C103.221 34.2765 102.406 33.1283 102.578 32.8706C102.751 32.6206 103.001 32.2769 104.2 32.2769C104.756 32.2769 105.069 32.316 105.304 32.3004C105.578 32.3004 105.774 32.2301 106.158 31.9801C106.84 31.5427 107.364 30.6679 107.427 30.5586C107.435 30.5508 107.435 30.5508 107.435 30.5508" stroke="#676B78" stroke-width="1.015" stroke-miterlimit="10" stroke-linecap="round" stroke-linejoin="round"/>
<path d="M108.336 35.675C108.336 35.675 108.336 35.675 108.328 35.675V35.6828C108.25 35.6828 107.788 35.7687 107.435 36.2764C107.051 36.8232 106.456 37.0809 106.284 36.4404C106.119 35.8078 106.503 34.7455 105.814 33.9801C105.132 33.2146 105.305 32.3086 105.305 32.3086" stroke="#676B78" stroke-width="1.015" stroke-miterlimit="10" stroke-linecap="round" stroke-linejoin="round"/>
<path d="M109.143 36.1758C109.143 36.1758 109.143 36.1758 109.151 36.1836C109.214 36.2695 109.55 36.8319 108.336 37.3396C107.012 37.8863 106.652 37.8082 106.809 38.4018C106.934 38.8939 107.255 39.1751 106.809 39.6437C106.715 39.7453 106.589 39.8546 106.417 39.9718C105.438 40.6513 105.266 41.4558 105.289 41.8776" stroke="#676B78" stroke-width="1.015" stroke-miterlimit="10" stroke-linecap="round" stroke-linejoin="round"/>
<path d="M110.491 42.5303C110.491 42.5303 111.016 41.757 110.718 40.9447C110.421 40.1402 108.697 39.4841 106.81 39.6403" stroke="#676B78" stroke-width="1.015" stroke-miterlimit="10" stroke-linecap="round" stroke-linejoin="round"/>
<path d="M120.055 34.5977C120.055 34.5977 120.055 34.5977 120.055 34.6055C120.016 34.6914 119.444 36.152 118.864 36.441C118.269 36.7378 116.773 35.9333 116.35 36.441C115.919 36.9565 116.647 38.0578 116.13 38.6123C115.621 39.1669 114.556 37.9953 113.616 39.0263C112.684 40.0573 113.138 42.8145 111.979 42.7989H111.971" stroke="#676B78" stroke-width="1.015" stroke-miterlimit="10" stroke-linecap="round" stroke-linejoin="round"/>
<path d="M116.013 46.6012C116.013 46.6012 116.389 45.7499 117.799 45.4531C119.201 45.1563 119.036 45.1563 119.718 45.4531C120.368 45.7343 121.661 45.6093 121.786 45.5937C121.794 45.5937 121.794 45.5937 121.794 45.5937" stroke="#676B78" stroke-width="1.015" stroke-miterlimit="10" stroke-linecap="round" stroke-linejoin="round"/>
</g>
<defs>
<clipPath id="clip0_447_15924">
<rect width="235" height="220" fill="white"/>
</clipPath>
</defs>
</svg>
