<svg width="98" height="122" viewBox="0 0 98 122" fill="none" xmlns="http://www.w3.org/2000/svg">
<path opacity="0.2" d="M52.6536 94.6512C59.0754 94.6512 64.2813 93.6441 64.2813 92.4018C64.2813 91.1595 59.0754 90.1523 52.6536 90.1523C46.2318 90.1523 41.0259 91.1595 41.0259 92.4018C41.0259 93.6441 46.2318 94.6512 52.6536 94.6512Z" fill="#2D3C5B"/>
<path d="M55.4276 92.403H49.8794L51.5203 46.625H54.259L55.4276 92.403Z" fill="#C47723"/>
<path d="M63.9743 44.5868C63.9743 53.243 58.8864 60.2504 52.6063 60.2504C46.3261 60.2504 41.2383 53.243 41.2383 44.5868C41.2383 35.9305 52.6063 5.85156 52.6063 5.85156C52.6063 5.85156 63.9743 35.9305 63.9743 44.5868Z" fill="#0EE02C"/>
<path opacity="0.2" d="M54.6015 60.0149L55.4278 92.4022H52.6064V5.85156C52.6064 5.85156 63.9745 35.9305 63.9745 44.5868C63.9745 52.3008 59.9372 58.7194 54.6015 60.0149Z" fill="#2D3C5B"/>
<path opacity="0.2" d="M75.6141 113.921C82.0359 113.921 87.2418 112.914 87.2418 111.671C87.2418 110.429 82.0359 109.422 75.6141 109.422C69.1922 109.422 63.9863 110.429 63.9863 111.671C63.9863 112.914 69.1922 113.921 75.6141 113.921Z" fill="#2D3C5B"/>
<path d="M78.3881 111.673H72.8398L74.4807 65.8711H77.2194L78.3881 111.673Z" fill="#C47723"/>
<path d="M86.9348 63.8446C86.9348 72.5008 81.8469 79.5083 75.5668 79.5083C69.2866 79.5083 64.1987 72.5008 64.1987 63.8446C64.1987 55.1883 75.5668 25.1094 75.5668 25.1094C75.5668 25.1094 86.9348 55.1883 86.9348 63.8446Z" fill="#0EE02C"/>
<path opacity="0.2" d="M77.5619 79.2727L78.3882 111.66H75.5669V25.1094C75.5669 25.1094 86.9349 55.1883 86.9349 63.8446C86.9349 71.5704 82.8859 77.9772 77.5619 79.2727Z" fill="#2D3C5B"/>
<path opacity="0.2" d="M26.1639 108.198C32.5857 108.198 37.7916 107.191 37.7916 105.949C37.7916 104.706 32.5857 103.699 26.1639 103.699C19.742 103.699 14.5361 104.706 14.5361 105.949C14.5361 107.191 19.742 108.198 26.1639 108.198Z" fill="#2D3C5B"/>
<path d="M28.9378 105.95H23.4014L25.0304 60.1602H27.7691L28.9378 105.95Z" fill="#C47723"/>
<path d="M37.4963 58.1219C37.4963 66.7782 32.4084 73.7856 26.1283 73.7856C19.8481 73.7856 14.7603 66.7782 14.7603 58.1219C14.7603 49.4657 26.1283 19.3867 26.1283 19.3867C26.1283 19.3867 37.4963 49.4657 37.4963 58.1219Z" fill="#0EE02C"/>
<path opacity="0.2" d="M28.1117 73.5383L28.938 105.926H26.1167V19.3867C26.1167 19.3867 37.4847 49.4657 37.4847 58.1219C37.4965 65.8478 33.4475 72.2428 28.1117 73.5383Z" fill="#2D3C5B"/>
</svg>
