<svg width="62" height="62" fill="none" xmlns="http://www.w3.org/2000/svg"><path d="M1.938 31a29.006 29.006 0 004.456 15.5h49.115A29.007 29.007 0 0059.966 31a29.007 29.007 0 00-4.457-15.5H6.394A29.006 29.006 0 001.937 31z" fill="#F9F9F9"/><path d="M55.606 15.5C50.472 7.361 41.366 1.936 31 1.936c-10.366 0-19.472 5.425-24.606 13.563h49.212zm-49.212 31C11.528 54.636 20.634 60.061 31 60.061c10.365 0 19.472-5.425 24.606-13.563H6.394z" fill="#B4D7EE"/><path d="M44.272 30.806l-7.944-.29v-.097c1.26-.194 2.228-.969 3.585-.872 1.647.194 2.615-.775 3.197-.969.678-.194 1.065.194 1.065 0 .097-.194-.387-.581-1.356-.484-.872.097-1.163.872-3.197.678-1.744-.097-2.325.581-3.584.581v-.097l7.168-3.294s.194-.096.194-.29c-.097-.194-.29-.097-.29-.097l-7.266 2.906v-.097c1.066-.678 1.647-1.743 3.003-2.13 1.55-.485 2.131-1.648 2.616-2.132.484-.485 1.065-.194 1.065-.388 0-.193-.58-.387-1.356.097-.775.485-.775 1.26-2.712 1.84-1.647.485-1.938 1.357-3.1 1.938l-.097-.097 5.425-5.812s.193-.194.097-.29c-.097-.098-.291.096-.291.096l-5.813 5.425-.096-.097c.775-1.065.871-2.228 1.937-3.1 1.26-1.065 1.26-2.325 1.55-2.906.29-.581.872-.581.775-.775-.097-.194-.678-.097-1.26.581-.58.775-.29 1.453-1.743 2.713-1.26 1.066-1.26 2.034-2.034 2.906 0 0-.097 0-.097-.097l2.712-7.46s.097-.193-.097-.29c-.193-.097-.29.194-.29.194l-3.294 7.169h-.097c.29-1.26 0-2.422.581-3.585.775-1.453.29-2.712.29-3.293.098-.678.582-.872.485-.97-.097-.193-.678.195-.968 1.067-.194.871.29 1.453-.582 3.196-.775 1.55-.387 2.325-.775 3.488h-.097l-.29-7.944s0-.29-.194-.29-.194.29-.194.29l-.29 7.944h-.097c-.194-1.26-.969-2.228-.872-3.585.194-1.646-.775-2.615-.969-3.196-.194-.582.194-1.066 0-1.066-.194-.097-.581.387-.484 1.356.097.872.872 1.163.678 3.197-.097 1.744.581 2.325.581 3.584h-.097l-3.293-7.168s-.097-.194-.291-.194c-.194.097-.097.29-.097.29l2.713 7.46h-.097c-.678-1.066-1.744-1.647-2.132-3.003-.484-1.55-1.646-2.131-2.13-2.616-.485-.484-.195-1.065-.388-1.065-.194 0-.388.58.097 1.356.484.775 1.259.775 1.84 2.712.485 1.647 1.356 1.938 1.938 3.1l-.097.097-5.813-5.425s-.193-.194-.29-.097c-.097.097.097.291.097.291l5.425 5.813-.097.096c-1.066-.775-2.228-.872-3.1-1.937-1.066-1.26-2.325-1.26-2.907-1.55-.58-.29-.58-.872-.775-.775-.193.097-.096.678.582 1.26.775.58 1.453.29 2.712 1.743 1.066 1.26 2.035 1.26 2.906 2.034 0 0 0 .097-.096.097L18.6 25.77s-.194-.097-.29.097c-.097.193.193.29.193.29l7.17 3.294v.097c-1.26-.29-2.423 0-3.585-.581-1.453-.775-2.713-.291-3.294-.291-.678-.097-.872-.581-.969-.484-.194.097.194.678 1.066.968.872.194 1.453-.29 3.197.582 1.55.775 2.325.387 3.487.775v.097l-7.944.29s-.29 0-.29.194.29.194.29.194l7.944.29v.097c-1.26.194-2.228.969-3.584.872-1.647-.194-2.616.775-3.197.969-.678.194-1.066-.194-1.066 0-.097.194.388.581 1.357.484.968-.097 1.162-.775 3.196-.678 1.744.097 2.325-.581 3.585-.581v.097l-7.169 3.293s-.194.097-.194.291c0 .194.29.097.29.097l7.46-2.713v.097c-1.065.678-1.647 1.744-3.003 2.132-1.55.484-2.131 1.646-2.615 2.13-.485.485-1.066.194-1.066.388s.581.388 1.356-.097c.775-.484.775-1.259 2.713-1.84 1.647-.485 1.937-1.356 3.1-1.938l.097.097-5.425 5.813s-.194.193-.097.29c.097.097.29-.097.29-.097l5.813-5.425.097.097c-.775 1.066-.872 2.228-1.938 3.1-1.26 1.066-1.26 2.325-1.55 2.907-.29.58-.872.58-.775.774.097.194.678.097 1.26-.58.58-.679.29-1.454 1.743-2.713 1.26-1.066 1.26-2.035 2.035-2.907 0 0 .097 0 .097.097l-2.713 7.46s-.097.194.097.29c.194.097.29-.193.29-.193l3.294-7.17h.097c-.29 1.26 0 2.423-.581 3.585-.775 1.453-.29 2.713-.388 3.294-.096.678-.58.872-.484.969.097.194.678-.194.969-1.066.194-.872-.29-1.356.581-3.197.775-1.55.388-2.325.775-3.487h.097l.29 7.944s0 .29.194.29.194-.29.194-.29l.29-7.944h.098c.193 1.26.968 2.228.871 3.584-.193 1.647.775 2.616.97 3.197.193.678-.195 1.066 0 1.066.193.096.58-.388.484-1.357-.097-.872-.872-1.162-.679-3.197.097-1.743-.58-2.325-.58-3.584h.096l3.294 7.169s.097.194.29.194c.194-.097.097-.291.097-.291l-2.81-7.556h.098c.678 1.065 1.744 1.647 2.131 3.003.484 1.55 1.647 2.131 2.131 2.615.485.485.194 1.066.388 1.066s.387-.581-.097-1.356c-.484-.775-1.26-.775-1.84-2.713-.485-1.647-1.357-1.937-1.938-3.1l.097-.096 5.812 5.425s.194.193.29.096c.098-.096-.096-.29-.096-.29l-5.425-5.813.097-.097c1.065.775 2.228.872 3.1 1.938 1.065 1.26 2.325 1.26 2.906 1.55.581.29.581.872.775.775.194-.097.097-.678-.581-1.26-.775-.58-1.453-.29-2.713-1.743-1.065-1.26-2.034-1.26-2.906-2.132 0 0 0-.096.097-.096l7.46 2.712s.193.097.29-.097c.097-.194-.194-.29-.194-.29l-7.169-3.294v-.097c1.26.29 2.422 0 3.585.581 1.453.775 2.712.29 3.294.29.678.098.871.582.968.485.194-.097-.193-.678-1.065-.968-.872-.194-1.453.29-3.197-.582-1.55-.775-2.325-.387-3.488-.775v-.097l7.944-.29s.29 0 .29-.194-.29-.194-.29-.194z" fill="#F6B40E"/><path d="M33.906 30.325c-.29-.29-.678-.484-1.065-.484-.388 0-.678.194-.969.484.484.388 1.356.388 2.034 0zm-.29-.097c-.194.194-.388.29-.581.29.096-.096.193-.193.193-.29 0-.097-.097-.193-.193-.29.29.097.484.193.58.29zm-1.066-.29c-.097.097-.097.193-.097.29 0 .097.097.29.194.29-.194 0-.387-.096-.581-.29.194-.097.29-.193.484-.29z" fill="#85340A"/><path d="M32.937 29.547c-.581 0-.678.097-.872.29-.29.194-.387.194-.387.194s0 .194.097.097c.097 0 .29-.097.484-.29.29-.194.484-.194.775-.194.775 0 1.163.581 1.26.581.096 0-.582-.678-1.357-.678z" fill="#85340A"/><path d="M31.291 29.451c-.097.194-.097.291-.097.485-.097.581 0 1.26.388 1.937 0 0 .096-.097.193-.097-.387-.484-.484-1.065-.484-1.55 0-.29.194-.484.29-.678.679-.58 1.841-.484 2.81.291-.872-1.26-2.131-1.162-3.1-.387z" fill="#85340A"/><path d="M32.26 30.712c-.291-.194-.388-.291-.485-.291-.097 0-.097.097.29.29.388.194 1.163.291 1.841-.29-.775.387-1.356.387-1.647.29zm-.485 1.55c-.097 0-.194-.097-.29-.194 0 .097-.195.29-.485.29s-.485-.29-.485-.29c0 .097-.096.194-.29.194-.097 0-.29-.097-.29-.291 0-.097.096-.194.193-.194-.194 0-.29.194-.29.388 0 .193.193.387.387.387.097 0 .194-.097.29-.194.097.097.388.097.485.097h.097c.097 0 .29 0 .484-.097.097.097.194.194.29.194a.417.417 0 00.388-.387c0-.194-.097-.291-.29-.388.096 0 .193.097.193.194-.097.194-.193.29-.387.29zm-.775.871c.194 0 .387-.193.678 0 .29.194.484.291.678.388-.387-.29-.581-.581-.969-.581-.097 0-.29 0-.387.096-.194-.096-.29-.096-.388-.096-.387 0-.58.387-.968.58.193-.096.387-.29.678-.387.29-.097.484 0 .678 0z" fill="#85340A"/><path d="M31 33.423c-.194 0-.29-.096-.581 0-.194 0-.388 0-.678.097h-.097c.872.097.484.581 1.356.581.872 0 .484-.484 1.356-.58h-.194c-.774-.291-.871-.098-1.162-.098zm0 .485c-.678 0-.484-.485-1.26-.485.776-.193.873.097 1.26.097.29 0 .484-.194 1.26-.097-.776.097-.582.485-1.26.485zm0 .194a.764.764 0 00-.775.775c.097-.388.387-.582.775-.582.387 0 .678.29.775.581a.764.764 0 00-.775-.774zm-.581-4.554c.194.194.29.485.29.679.097.484-.096.968-.484 1.55 0 0 .097 0 .194.096.29-.678.484-1.259.387-1.937 0-.194-.097-.29-.097-.485-.872-.774-2.13-.871-3.1.388.97-.872 2.228-.969 2.81-.29z" fill="#85340A"/><path d="M29.837 29.936c.291.194.388.29.485.29.097 0 .097-.096.097-.096s-.194 0-.388-.194c-.29-.194-.387-.29-.872-.29-.872 0-1.356.678-1.26.678.098 0 .485-.582 1.26-.582.194 0 .485 0 .678.194z" fill="#85340A"/><path d="M28.19 30.325c.194.194.582.29.97.29.29 0 .677-.096.968-.29-.29-.29-.678-.484-1.066-.484-.29 0-.678.194-.872.484zm.194 0c.194-.194.388-.387.581-.387-.096.097-.193.193-.193.29 0 .194.097.29.193.29a.466.466 0 01-.58-.193zm1.453-.097c-.097.097-.29.194-.484.29.097-.096.097-.193.097-.29 0-.097-.097-.193-.097-.29.29.097.484.193.484.29z" fill="#85340A"/><path d="M30.322 30.42c-.097 0-.194.098-.485.291-.29.194-.872.194-1.647-.193.679.581 1.454.484 1.841.29.388-.29.388-.387.29-.387z" fill="#85340A"/></svg>