<svg width="62" height="62" fill="none" xmlns="http://www.w3.org/2000/svg"><g clip-path="url(#clip0_447_15728)"><mask id="a" style="mask-type:luminance" maskUnits="userSpaceOnUse" x="0" y="0" width="62" height="62"><path d="M31 62c17.12 0 31-13.88 31-31C62 13.88 48.12 0 31 0 13.88 0 0 13.88 0 31c0 17.12 13.88 31 31 31z" fill="#fff"/></mask><g mask="url(#a)"><path d="M0 0h62v62H0V0z" fill="#6DA544"/><path d="M31 12.133l25.611 18.866L31 49.866 5.389 30.999 31 12.133z" fill="#FFDA44"/><path d="M21.094 26.76a10.535 10.535 0 00-.872 4.396l19.618 6.03a10.715 10.715 0 001.743-4.117c-4.916-7.907-14.494-9.724-20.476-6.297l-.013-.012z" fill="#EEE"/><path d="M30.964 20.223a10.778 10.778 0 00-5.074 1.283 10.777 10.777 0 00-4.796 5.256 22.003 22.003 0 0120.477 6.32 10.777 10.777 0 00-1.09-7.192 10.778 10.778 0 00-9.517-5.667zm-5.292 10.111a18.042 18.042 0 00-5.45.823c.021 1.73.457 3.428 1.272 4.953a10.779 10.779 0 0018.322 1.078 18.285 18.285 0 00-14.144-6.854z" fill="#0052B4"/></g></g><defs><clipPath id="clip0_447_15728"><path fill="#fff" d="M0 0h62v62H0z"/></clipPath></defs></svg>