<svg width="62" height="62" fill="none" xmlns="http://www.w3.org/2000/svg"><path d="M60.063 31H1.937c0 5.328 1.454 10.269 3.875 14.531h50.376c2.421-4.262 3.874-9.203 3.874-14.531z" fill="#2A5F9E"/><path d="M31 1.938C14.919 1.938 1.937 14.918 1.937 31h58.126C60.063 14.919 47.08 1.937 31 1.937z" fill="#FFE62E"/><path d="M31 60.063c10.753 0 20.15-5.813 25.188-14.532H5.812C10.85 54.25 20.248 60.063 31 60.063z" fill="#ED4C5C"/><path d="M24.59 28.629l.777.794.333-.908.111-.567c-.111-1.589 0-3.178 0-3.178l.223.228-.89-.908-.554-.567v5.106z" fill="#034EA2"/><path d="M25.811 27.947l.777-2.383-.777-.794v3.177z" fill="#ED1C24"/><path d="M24.59 23.526l.555.567-2.665-2.722c-.112-.114-.112 2.382-.112 5.105l2.222 2.27v-5.22z" fill="#FD0"/><path d="M25.366 38.272c-1.887-1.134-2.11-4.652-2.11-5.22v-6.126l.556.568-2.666-2.723c-.221-.227 0 7.374 0 10.665 0 1.588 1 7.147 6.553 4.31 0 0 2.776-1.02 3.665-2.268h-.555c-.112.113-.223.113-.334.113-3.22 2.269-5.109.681-5.109.681z" fill="#FD0"/><path d="M23.257 33.052c0 .454.223 3.972 2 5.105 0 0 1.887 1.59 5.219-.566-1 .454-1.777.454-2.333.34-1.555-.454-3.22-2.27-3.442-4.198-.223-1.928-.223-5.56-.223-5.56l.223.228-.888-.908-.556-.454v6.013z" fill="#034EA2"/><path d="M25.59 30.672v-1.475c-.334-.34.11.114-.778-.794l-.222-.227v.114c0 .454 0 3.743.223 5.445.222 1.93 1.887 3.745 3.442 4.198.555.114 1.333.114 2.331-.339.112 0 .112-.114.223-.114-2.999-.34-4.886-3.063-5.22-6.808z" fill="#ED1C24"/><path d="M36.694 38.384c1.778-1.134 2.11-4.652 2-5.105v-6.127l-.556.567 2.665-2.722c.223-.227 0 7.374 0 10.664 0 1.589-1 7.148-6.552 4.311 0 0-2.777-1.02-3.665-2.269h.556c.11 0 .222.114.222.114 3.443 2.156 5.33.567 5.33.567z" fill="#FD0"/><path d="M38.694 33.166c0 .454-.223 3.971-2 5.106 0 0-1.887 1.589-5.22-.568 1 .454 1.778.454 2.333.341 1.555-.454 3.22-2.27 3.443-4.199.222-1.927.222-5.558.222-5.558l-.223.227.89-.908.555-.568v6.127z" fill="#034EA2"/><path d="M36.474 30.785V29.31l.777-.794.221-.227v.113c0 .454 0 3.744-.223 5.446-.221 1.928-1.776 3.744-3.442 4.31-.555.115-1.333.115-2.332-.338-.11 0-.11-.115-.222-.115 2.887-.453 4.886-3.176 5.22-6.92" fill="#ED1C24"/><path d="M25.479 30.028c0 3.972 2.518 7.169 5.521 7.169 3.004 0 5.522-3.197 5.522-7.169 0-3.972-2.518-7.169-5.522-7.169-3.003 0-5.521 3.294-5.521 7.17z" fill="#8CDDEA"/><path d="M25.479 30.32c0 3.972 2.518 7.17 5.521 7.17 3.1 0 5.522-3.198 5.522-7.17H25.48z" fill="#6DD337"/><path d="M25.672 30.518l10.462.194.097-.775c0-.097.194-.194-.097-.194-1.162-.097-.678-.194-1.356-.194-.194 0-4.65-1.066-5.037-1.066-.388-.096-3.875.485-3.875.485l-.194 1.55z" fill="#557176"/><path d="M25.575 28.673l1.647.678s2.131-.387 2.325-.29c.194.097 2.034.387 2.131.387h2.81-.097c-.194-.097-2.325-.678-2.519-.775-.097-.097-1.744-.678-1.84-.872-.194-.193-1.357-.871-1.55-.871-.194-.097-2.907 1.743-2.907 1.743z" fill="#fff"/><path d="M33.325 23.057s-1.066-.678-2.422-.678c-1.066 0-2.131.581-2.131.581-1.163.678-2.132 1.938-2.713 3.488-.387 1.065-.678 2.325-.678 3.584 0 3.778 2.034 6.684 4.65 7.46 0 0 .387.193.872.193.484 0 .969-.097.969-.097 2.615-.678 4.746-3.681 4.746-7.46 0-4.94-3.778-7.459-3.293-7.071zm-1.357 14.047s-.484.097-.968.097c-.485 0-.97-.097-.97-.097-2.324-.678-4.165-3.488-4.165-6.878 0-1.163.29-2.422.678-3.39.582-1.357 1.454-2.52 2.52-3.1 0 0 1.065-.679 1.937-.679 1.259 0 2.228.678 2.228.678 1.743 1.066 3.003 3.585 3.003 6.394-.097 3.487-1.938 6.394-4.263 6.975z" fill="#B1BABF"/><path d="M27.706 30.225l1.647 2.228-2.519 1.453s.194.581.678 1.26c.485.58 1.647 1.84 2.713 1.937 1.162.097 1.937.097 2.615-.29.581-.388 1.453-.872 2.035-1.841.58-.872.58-1.066.58-1.066s-3.68-.775-3.777-.775c-.097-.097-3.585-2.81-3.681-2.906-.097-.097.774-1.163.774-1.163l-1.065 1.163z" fill="#034EA2"/><path d="M30.128 38.555h1.84v4.747h-1.84v-4.747z" fill="#ED1C24"/><path d="M28.675 38.945h1.84v4.747h-1.84v-4.747zm2.81 0h1.84v4.747h-1.84v-4.747z" fill="#034EA2"/><path d="M28.287 38.945h1.163v6.007h-1.163v-6.007zm4.263 0h1.162v6.007H32.55v-6.007z" fill="#FD0"/><path d="M26.64 36.91h8.72v2.325h-8.72V36.91z" fill="#fff"/><path d="M36.425 17.922c-1.744 0-3.584 1.937-5.425 1.937-1.84 0-3.681-1.937-5.425-1.937-1.647 0-8.137 1.937-8.137 1.937C26.447 19.86 31 24.703 31 24.703s4.553-4.844 13.563-4.844c0 0-6.491-1.937-8.138-1.937z" fill="#594640"/><path d="M31 20.247a1.163 1.163 0 100-2.325 1.163 1.163 0 000 2.325z" fill="#F9F9F9"/></svg>