<svg width="62" height="62" fill="none" xmlns="http://www.w3.org/2000/svg"><path d="M50.762 9.688c-5.23-4.844-12.11-7.75-19.762-7.75-7.653 0-14.531 2.906-19.763 7.75h39.525zM11.237 52.312c5.232 4.844 12.11 7.75 19.763 7.75 7.653 0 14.531-2.906 19.762-7.75H11.237z" fill="#2A5F9E"/><path d="M1.938 31c0 4.166.871 8.04 2.421 11.625h53.282c1.55-3.584 2.422-7.46 2.422-11.625 0-4.166-.872-8.04-2.422-11.625H4.359C2.81 22.959 1.938 26.835 1.938 31z" fill="#C94747"/><path d="M11.238 52.313h39.428c2.906-2.713 5.328-6.007 6.878-9.688H4.263c1.743 3.681 4.068 6.975 6.975 9.688zM50.763 9.687H11.238C8.33 12.4 5.91 15.694 4.36 19.376h53.28c-1.646-3.681-3.971-6.975-6.877-9.688z" fill="#F9F9F9"/></svg>