<svg width="62" height="62" fill="none" xmlns="http://www.w3.org/2000/svg"><path d="M60.063 31.002A28.968 28.968 0 0040.687 3.586v54.831a28.968 28.968 0 0019.376-27.415z" fill="#ED4C5C"/><path d="M1.938 31.002c0 12.69 8.137 23.443 19.375 27.415V3.586C10.075 7.558 1.938 18.31 1.938 31.002z" fill="#75A843"/><path d="M40.688 3.584A29.056 29.056 0 0031 1.937c-3.39 0-6.684.582-9.688 1.647v54.832A29.055 29.055 0 0031 60.063c3.39 0 6.684-.582 9.688-1.647V3.584z" fill="#fff"/><path d="M39.428 30.71c-.097-.29-.193.097-.193.194 0-.29-.097-.485-.291-.775-.29.29-.388.678-.388 1.066-.096-.291-.193-.582-.484-.679.194.291.097.485.097.775 0 .388.29.678.29 1.066s-.193.678-.484.969v-.29c-.969.387-.775.871-.775 1.743 0 .872-.484.678-1.065 1.162a.828.828 0 000-.678c0 .581-.775.581-.872 1.066-.097.194 0 .581-.29.678-.195.097-.485.29-.485.484-.194-.096-.388-.096-.678-.096.096-.097.193-.097.29-.194-.969-.485-1.26.581-2.131.678-.29 0-.969-.388-.969 0 .872 0 1.26.775 1.938.775.58 0 1.065-.485 1.647-.485-.097 0-.388-.193-.679-.193.485-.29.775-.872 1.357-.872.968 0 1.453-.194 1.743-1.163-.096 0-.193 0-.29.097 0-.387.387-.872.775-1.065.969-.194.872-.97 1.453-1.647-.194 0-.388.097-.581.29 0-.58-.097-1.162.387-1.55.969-.484.872-.678.678-1.356zm-16.856 0c-.194.775-.29.969.484 1.453.582.388.388.969.388 1.55-.194-.194-.29-.29-.581-.29.58.58.484 1.453 1.453 1.646.29.194.775.679.775 1.066-.097 0-.194-.097-.29-.097.29.969.774 1.163 1.743 1.163.581 0 .872.581 1.356.872-.29 0-.581.096-.678.193.581 0 1.066.582 1.647.485.678 0 1.162-.775 1.937-.775 0-.388-.678 0-.968 0-.775-.194-1.066-1.163-2.132-.775.097.097.194.194.291.194-.194 0-.484-.097-.678.096a1.168 1.168 0 00-.484-.484c-.194-.194-.194-.484-.291-.678-.194-.485-.872-.581-.872-1.066a.827.827 0 000 .678c-.581-.484-1.066-.29-1.066-1.162 0-.775.194-1.356-.775-1.744v.29c-.29-.29-.484-.484-.484-.968 0-.387.388-.678.29-1.066 0-.29-.096-.484.098-.775-.291.097-.388.388-.485.679 0-.388-.097-.776-.387-1.066a6.497 6.497 0 00-.29.775c.096-.194 0-.485 0-.194z" fill="#75A843"/><path d="M33.616 36.52c-.194 0-.29-.193-.388-.29 0-.194.775-.388.872-.388v-.194c-1.26.388-5.037.679-5.812-.678-.388.582-1.066.194-1.744-.29.097.193.484 1.162.484 1.065.194.097 1.453.388 1.453.678l-.29.291c2.034.678 3.294.872 5.425-.194z" fill="#428BC1"/><path d="M32.356 36.519c.097-.097.097-.194.097-.388l-.097-.29c.194-.194 0-.679-.29-.582-.194.097-.097.097-.291 0-.097 0-.097-.097-.194-.097h-1.744c-.193 0-.193-.096-.387-.096-.194-.097-.29.096-.387.193 0 .194.096.194.096.29 0 .098-.096.195-.096.388 0 .194.096.291.193.388-.387.29 0 .775.388.484.097.194.387.194.678.194h1.066c.193 0 .58.097.678-.194.29.485.678-.097.29-.29z" fill="#ED4C5C"/><path d="M35.456 34.003c-.775-.969-1.163.484-2.035.387.194-1.162-1.55-.775-2.034-.484.097-.097.194-.29.29-.484-.387 0-.871.193-1.162-.097-.581-.388-1.356-.582-1.84.096-.388-.58-1.454-1.162-2.035-.58 0-.582-.581-1.454-1.26-1.357-.774.097-.483 1.066-.096 1.453.29.29.678.388 1.066.388 0 .193.096.29.193.387.485.388 1.454.484 1.938.097 0 .969 1.937.969 2.422.484-.194.485-.388 1.453.29 1.453.582 0 .388-.58.872-.775.388-.193.872-.29 1.26-.096.678.387 2.809.29 2.13-.872z" fill="#428BC1"/><path d="M27.512 31.583c-.096-.194-.29-.387-.29-.387-.388.096-.388-.194-.485-.485-.096-.484-.775-.678-.775-1.066 0-.387.388-.774.097-1.162-.29-.387-.775-.581-.775-.387-.097.193.388.193.388.678 0 .58-.582 1.065.097 1.55.387.58.387 1.646 1.065 1.646.29 0 .582-.096.678-.387z" fill="#75A843"/><path d="M28.966 31.099c-.194-.388 0-.97-.388-1.26-.484-.387-1.453.388-1.55-.581 0-.194 1.066-1.356 1.26-1.453.29-.388.193-1.066-.097-1.26-.388-.193-.485 0-.775.388.097.097.484.29.484.387-.29.679-1.162.776-1.356 1.454-.194.484-.097 1.259.387 1.55.291.193.485.193.775.193.872-.096.388.097.485.291 0 .194.29.872.775.29zm-2.907-4.747c0 .581.582.484.97.387 0-.194 0-.387.096-.581-.194.097-.484.097-.581 0-.29-.194.678-.581.581-.581 0 0-.969.484-.581-.097.097-.194.29-.388.387-.581.097-.194-.29 0-.29 0-.097 0-.194 0-.29.096-.582.485-.388.775-.291 1.357z" fill="#75A843"/><path d="M36.328 26.35c-.485-.678-2.325-2.906-4.94-3.1-.291 0-1.066.29-1.357.387-.872.582.969 1.066 1.066 1.454 0 .193.096.29.096.484-.29-.484-.58-.775-.678-.969-.484.194-1.259-.097-1.356-.581-.097.194-.097.29-.29.484 0-.29-.097-.29-.194-.484 0 .29 0 .678-.29.775.096-.194 0-.387-.098-.581 0 .29 0 .484-.194.678.097-.194-.096-.29-.096-.484-.097.774-1.163 1.065-.097 1.356.387.097.581 0 .969.194.096.096.29.29.29.193 0 .097-.387.485-.097.582-.097.096-.387.678-.387.678.29 0 .097.193-.097.387-.29.485 0 .969.097 1.55 0-.194.29.097.29.388 0 .387.388.58.485.872-.485-.485-.581 0 0 .29-.485 0-.581.29-.097.485-1.163 0-.194.484 0 .58.775.195 1.356-.387 1.356-.484 0 0 1.55 1.55 1.647 1.55.097 0 .872-.387 1.066-.193.193.29.387 0 .58.096.195.194.97 0 1.163-.096.097 0 1.066-.194.872-.388-.484-.387-1.065-.775-1.55-1.162-.484-.388-.968-.678-1.356-1.066-.194-.194-.194-.581-.29-.872.871.872 1.743 1.356 1.646-.29.581.484 1.744 3.196 1.84 3.196.291 0 0-2.906 0-3.197.388.388.388 3.585.485 3.585.485.097 1.163-4.166-.484-6.297z" fill="#89664C"/><path d="M29.354 31.291c-.097 0-.582-.678-.582-.775.29 1.163-.872.485-.581 0-.387-.097-1.356.485-.969 1.066-.194.387 1.356.097 1.453-.097.388.872 1.357-.097.678-.194zm4.553 2.907c.484-.679-1.55-.872-1.357-1.647-.29.193-.678.872-1.065.678-.194-.097-.969.387-.581.678 0-.388.193-.097.484-.194-.097.29-.388.581.097.775-.194-.581.581-.29.484-.581-.194-.194.678-.194.775-.194.29 0 1.26.29.872.581 0 0 .194 0 .29-.096zm-6.491-8.332c-.097.194-.484.485-.484.775 0 .194.484.678.678.388-.581-.388.097-.678.387-.678.097 0 .097.193.097.193.097.097.872-.193.775-.387.097-.388-1.162-.388-1.453-.29z" fill="#FFCE31"/></svg>