<svg width="62" height="62" fill="none" xmlns="http://www.w3.org/2000/svg"><path d="M59.772 27.125h-1.356v-5.813c-.97-2.809-2.422-5.425-4.166-7.75h-5.813V7.75C43.594 4.069 37.587 1.937 31 1.937 14.919 1.938 1.937 14.92 1.937 31c0 1.356.097 2.616.291 3.875h1.356v5.813c.97 2.809 2.422 5.424 4.166 7.75h5.813v5.812c4.843 3.681 10.85 5.813 17.437 5.813 6.587 0 12.594-2.132 17.438-5.813v-5.813h5.812c1.744-2.325 3.197-4.94 4.166-7.75v-5.812h1.356c.194-1.26.29-2.519.29-3.875a25.11 25.11 0 00-.29-3.875z" fill="#F9F9F9"/><path d="M3.585 40.688h54.831c.678-1.841 1.163-3.779 1.356-5.813H2.23c.193 2.034.678 3.972 1.356 5.813zm4.165 7.75a27.556 27.556 0 005.813 5.812h34.875a27.557 27.557 0 005.812-5.813H7.75zM31 13.562h23.25a27.556 27.556 0 00-5.812-5.812H31v5.813zm0 13.563h28.772c-.29-2.034-.775-3.972-1.356-5.813H31v5.813z" fill="#428BC1"/><path d="M16.178 24.024l-1.356.969c-.775 1.84-.484 2.616-.388 3.294l-.678 1.647c2.616-.872.388-2.422 3.972-5.038l-.872-1.356-.678.484zm-.775-1.453l-.775-.097-1.55-.29c-1.84.775-2.228 1.55-2.615 2.034l-1.744.581c2.422 1.26 1.937-1.453 6.394-.775l.29-1.453zm-1.647-.969l1.357-.872-.485-.678h.097s-.097 0-.097-.096l-.872-1.357c-1.84-.775-2.615-.484-3.293-.387l-1.744-.581c.872 2.518 2.422.29 5.037 3.971zm.872-2.809l1.55.29.097-.774.29-1.55c-.774-1.841-1.55-2.229-2.034-2.616l-.678-1.647c-1.26 2.422 1.453 1.938.775 6.297zm6.49-6.2c-2.615.872-.387 2.422-3.971 5.038l.872 1.356 2.034-1.356c1.356-3.294-.484-3.488 1.066-5.038zm-1.452 7.46l.775.096 1.55.29c1.84-.774 2.228-1.55 2.615-2.034l1.647-.678c-2.422-1.259-1.937 1.453-6.394.775l-.193 1.55zm1.55.968l-1.357.872.485.678h-.097s.097 0 .097.097l.872 1.356c1.84.775 2.615.485 3.293.388l1.647.678c-.775-2.616-2.325-.388-4.94-4.069zm-1.066 2.713l-1.55-.291-.194.775-.29 1.55c.775 1.84 1.55 2.228 2.034 2.616l.678 1.646c1.26-2.421-1.453-1.937-.678-6.296z" fill="#FCD116"/><path d="M20.44 20.15l-.774-.098.193-1.55c4.457.678 3.972-2.034 6.394-.775l-1.647.678c-.387.485-.775 1.26-2.615 2.035l-1.55-.29zm0 0h-.096m-1.938 4.068l.194-.775 1.55.29c-.775 4.36 1.938 3.876.678 6.297l-.678-1.646c-.484-.388-1.26-.775-2.034-2.616l.29-1.55zm0 0v-.097m-2.228-.097l-1.356.969c-.775 1.84-.484 2.616-.388 3.294l-.678 1.647c2.616-.872.388-2.422 3.972-5.038l-.872-1.356-.678.484zm-.775-1.453l-.775-.097-1.55-.29c-1.84.775-2.228 1.55-2.615 2.034l-1.744.581c2.422 1.26 1.937-1.453 6.394-.775l.29-1.453zm-1.647-.969l1.357-.872-.485-.678h.097s-.097 0-.097-.096l-.872-1.357c-1.84-.775-2.615-.484-3.293-.387l-1.744-.581c.872 2.518 2.422.29 5.037 3.971zm.872-2.809l1.55.29.097-.774.29-1.55c-.774-1.841-1.55-2.229-2.034-2.616l-.678-1.647c-1.26 2.422 1.453 1.938.775 6.297zm6.49-6.2c-2.615.872-.387 2.422-3.971 5.038l.872 1.356 2.034-1.356c1.356-3.294-.484-3.488 1.066-5.038zm.098 8.428l-1.357.872.485.678h-.097s.097 0 .097.097l.872 1.356c1.84.775 2.615.485 3.293.388l1.647.678c-.775-2.616-2.325-.388-4.94-4.069z" stroke="#000" stroke-width=".188" stroke-miterlimit="20"/><path d="M20.344 22.572l6.781-1.26-6.781-1.259 3.972-5.619-5.62 3.972-1.259-6.781-1.259 6.781-5.619-3.972 3.875 5.62-6.684 1.259 6.684 1.259-3.875 5.619 5.62-3.875L17.437 31l1.259-6.684 5.619 3.875-3.972-5.62z" fill="#FCD116" stroke="#000" stroke-width=".188" stroke-miterlimit="20"/><path d="M17.437 24.507a3.197 3.197 0 100-6.394 3.197 3.197 0 000 6.394z" fill="#FCD116" stroke="#000" stroke-width=".188" stroke-miterlimit="20"/><path d="M19.86 20.055c-.195.193-.291-.194-1.066-.194-.775 0-.872.484-.97.387-.096-.096.582-.58.873-.678.193 0 .872.194 1.162.485zm-.873.193c.194.194 0 .582-.193.582-.194 0-.582-.388-.388-.582" fill="#000"/><path d="M18.019 20.54c0-.388.29-.388.775-.388.484 0 .678.388.871.485-.193 0-.387-.29-.871-.29-.485-.098-.485-.098-.775.193zm.096.097c.097-.194.291.194.582.194.29 0 .484-.097.678-.194.194-.194-.29.387-.581.387-.388-.097-.775-.29-.679-.387z" fill="#000"/><path d="M19.084 20.83c.388-.194.194-.485 0-.582.097.097.291.388 0 .582zm-1.646 1.743c.193 0 .193-.096.484-.096.29 0 .775.29 1.162.193-.678.29-.387.097-1.55.097h-.193m1.84.194c-.097-.194-.097-.194-.29-.484.193.193.193.29.29.484zm-1.744.29c.775 0 .582-.193 1.55-.58-.678.096-.871.29-1.55.29h-.193m.194-.775c.193 0 .29-.194.484-.194s.581.097.678.194c0 0-.097-.194-.29-.29-.194 0-.194-.388-.388-.485 0 .097.097.097.097.29 0 .194-.29.194-.29 0 .096.194-.098.194-.291.194m-2.422-1.84c.193.193.29-.194 1.065-.194.775 0 .872.484.969.387.097-.096-.581-.58-.872-.678-.194 0-.872.194-1.162.485zm.871.193c-.193.194 0 .582.194.582s.582-.388.388-.582" fill="#000"/><path d="M16.856 20.54c0-.388-.29-.388-.775-.388-.484 0-.678.388-.872.485.194 0 .388-.29.872-.29s.484-.098.775.193zm-.097.097c-.097-.194-.29.194-.581.194-.29 0-.485-.097-.678-.194-.194-.194.29.387.58.387.388-.097.776-.29.679-.387z" fill="#000"/><path d="M15.791 20.831c-.387-.194-.194-.484 0-.581-.097.097-.29.387 0 .581zm1.647 1.744c-.194 0-.194-.097-.484-.097-.291 0-.775.29-1.163.194.678.29.388.097 1.55.097h.194m-1.84.194c.096-.194.096-.194.29-.485-.194.194-.194.29-.29.484zm1.743.29c-.775 0-.581-.194-1.55-.581.678.097.872.29 1.55.29h.194m-.194-.774c-.194 0-.29-.194-.484-.194s-.582.097-.678.194c0 0 .096-.194.29-.291.194 0 .194-.388.388-.484 0 .096-.097.096-.097.29 0 .194.29.194.29 0-.096.194.097.194.291.194m0 1.647c-.484.097-.194 0 0 0z" fill="#000"/></svg>