<svg width="62" height="63" fill="none" xmlns="http://www.w3.org/2000/svg"><path d="M31 61.031c12.69 0 23.443-8.17 27.415-19.687H3.584C7.556 52.86 18.309 61.03 31 61.03z" fill="#428BC1"/><path d="M31 1.969c-12.691 0-23.444 8.269-27.416 19.687h54.831C54.443 10.238 43.69 1.97 31 1.97z" fill="#ED4C5C"/><path d="M58.416 41.344a29.953 29.953 0 001.647-9.844c0-3.445-.582-6.792-1.647-9.844H3.584A29.955 29.955 0 001.937 31.5c0 3.445.582 6.792 1.647 9.844h54.832z" fill="#F9F9F9"/><path d="M31 40.36c-4.844 0-8.719-3.938-8.719-8.86 0-4.922 3.875-8.86 8.719-8.86 4.844 0 8.719 3.938 8.719 8.86 0 4.922-3.875 8.86-8.719 8.86zm0-17.424c-4.65 0-8.428 3.839-8.428 8.564S26.35 40.064 31 40.064s8.428-3.839 8.428-8.564S35.65 22.936 31 22.936z" fill="#3E4347"/><path d="M31 24.02c-4.069 0-7.362 3.346-7.362 7.48 0 4.135 3.293 7.482 7.362 7.482s7.363-3.347 7.363-7.481c0-4.135-3.294-7.482-7.363-7.482zm0 13.092c-3.003 0-5.522-2.56-5.522-5.611 0-3.052 2.52-5.611 5.522-5.611 3.003 0 5.522 2.56 5.522 5.61 0 3.052-2.519 5.612-5.522 5.612z" fill="#ED4C5C"/><path d="M25.187 31.498c0-3.248 2.616-5.906 5.813-5.906 3.197 0 5.812 2.658 5.812 5.906h1.26c0-3.937-3.197-7.186-7.072-7.186s-7.072 3.249-7.072 7.186h1.26z" fill="#FFCE31"/><path d="M33.81 31.202c0 1.575-1.26 2.855-2.81 2.855s-2.81-1.28-2.81-2.855 1.26-2.854 2.81-2.854 2.81 1.28 2.81 2.854z" fill="#428BC1"/><path d="M32.55 33.078L31 31.995l-1.55 1.083.581-1.673-1.356-1.083h1.647l.58-1.674.582 1.674h1.647l-1.162 1.083.58 1.673z" fill="#FFCE31"/><path d="M28.48 29.04s-.387-.099-.58-.099c.193-.295.29-.984.29-.984s-.581.295-.775.69c-.097-.198-.29-.493-.29-.493s-.291.295-.194.59c0 .296.387.69.387.69s.485.197.775.098c.194-.197.388-.492.388-.492z" fill="#699635"/><path d="M27.997 29.827s-.388 0-.582.099c.097-.394 0-.985 0-.985s-.484.493-.581.788a3.794 3.794 0 00-.484-.394s-.194.394-.097.59c.097.198.581.591.581.591s.581 0 .775-.098c.194-.098.387-.59.387-.59z" fill="#83BF4F"/><path d="M27.706 30.713s-.387.099-.581.197c0-.394-.194-.984-.194-.984s-.29.59-.29.984c-.194-.197-.485-.295-.485-.295s-.097.394.097.59c.194.197.678.394.678.394s.484-.098.678-.295c.194-.197.097-.59.097-.59z" fill="#699635"/><path d="M27.706 31.7s-.29.196-.484.393c-.097-.394-.484-.886-.484-.886s-.194.59-.097.984c-.29-.098-.581-.098-.581-.098s0 .394.29.59c.194.197.775.197.775.197s.485-.295.581-.492c.097-.197 0-.689 0-.689z" fill="#83BF4F"/><path d="M27.9 32.584s-.29.295-.387.492c-.194-.394-.678-.69-.678-.69s0 .591.194.985h-.582s.097.394.388.492c.29.099.775 0 .775 0s.387-.394.484-.689c.097-.295-.194-.59-.194-.59z" fill="#699635"/><path d="M28.385 33.469s-.194.295-.291.59c-.29-.295-.872-.492-.872-.492s.194.59.388.886c-.291 0-.582.197-.582.197s.194.295.485.394c.29 0 .775-.197.775-.197s.29-.492.29-.788c.097-.393-.193-.59-.193-.59z" fill="#83BF4F"/><path d="M28.966 34.156s-.097.394-.097.59c-.29-.196-.969-.294-.969-.294s.291.492.678.787c-.193.099-.484.295-.484.295s.29.296.581.197c.291 0 .678-.394.678-.394s.194-.492.097-.787c-.096-.197-.484-.394-.484-.394z" fill="#699635"/><path d="M29.838 34.648s0 .394.097.591c-.388-.098-.97 0-.97 0s.485.394.776.59l-.388.394s.388.197.582.099c.29-.099.58-.59.58-.59s0-.591-.096-.788c-.29-.197-.581-.296-.581-.296z" fill="#83BF4F"/><path d="M33.519 29.04s.387-.099.58-.099c-.193-.295-.29-.984-.29-.984s.581.295.775.69a6 6 0 01.29-.493s.291.295.195.59c0 .296-.388.69-.388.69s-.484.098-.775 0c-.194-.099-.387-.394-.387-.394z" fill="#699635"/><path d="M34.003 29.827s.387 0 .581.099c-.097-.394 0-.985 0-.985s.485.493.581.788c.194-.197.485-.394.485-.394s.194.394.097.59c-.097.198-.678.591-.678.591s-.582 0-.775-.098c-.194-.098-.291-.59-.291-.59z" fill="#83BF4F"/><path d="M34.294 30.713s.387.099.581.197c0-.394.194-.984.194-.984s.29.59.29.984c.194-.197.485-.295.485-.295s.097.394-.097.59c-.194.197-.678.394-.678.394s-.485-.098-.678-.295c-.194-.197-.097-.59-.097-.59z" fill="#699635"/><path d="M34.294 31.7s.29.196.484.393c.097-.394.485-.886.485-.886s.194.59.097.984c.29-.098.58-.098.58-.098s0 .394-.29.59c-.194.197-.775.197-.775.197s-.484-.295-.581-.492c-.097-.295 0-.689 0-.689z" fill="#83BF4F"/><path d="M34.1 32.584s.29.295.388.492c.194-.394.678-.69.678-.69s0 .591-.194.985h.581s-.096.394-.387.492c-.29.099-.775 0-.775 0s-.388-.394-.484-.689c-.097-.295.193-.59.193-.59z" fill="#699635"/><path d="M33.616 33.469s.194.295.29.59c.291-.295.872-.492.872-.492s-.193.59-.387.886c.29 0 .581.197.581.197s-.194.295-.484.394c-.29 0-.775-.197-.775-.197s-.29-.492-.29-.788a.55.55 0 01.193-.59z" fill="#83BF4F"/><path d="M33.034 34.156s.097.394.097.59c.29-.196.969-.294.969-.294s-.291.492-.678.787c.193.099.484.295.484.295s-.29.296-.581.197c-.291 0-.678-.394-.678-.394s-.194-.492-.097-.787c.097-.197.484-.394.484-.394z" fill="#699635"/><path d="M32.163 34.648s0 .394-.097.591c.387-.098.968 0 .968 0s-.484.394-.775.59l.388.394s-.388.197-.581.099c-.291-.099-.582-.59-.582-.59s0-.591.097-.788c.29-.197.582-.296.582-.296z" fill="#83BF4F"/></svg>