<svg width="61" height="43" viewBox="0 0 61 43" fill="none" xmlns="http://www.w3.org/2000/svg">
<g clip-path="url(#clip0_447_16630)">
<path d="M59.6528 6.70681C59.3029 5.41049 58.6204 4.22868 57.6733 3.27906C56.7261 2.32943 55.5473 1.64514 54.2543 1.2943C49.5206 0 30.4691 0 30.4691 0C30.4691 0 11.4166 0.0391777 6.68288 1.33348C5.38985 1.68433 4.21106 2.36867 3.26389 3.31833C2.31672 4.268 1.63423 5.44986 1.28438 6.74622C-0.14745 15.1785 -0.702884 28.0274 1.3237 36.1224C1.67358 37.4187 2.35609 38.6005 3.30326 39.5501C4.25042 40.4998 5.42919 41.1841 6.7222 41.5349C11.4559 42.8292 30.5079 42.8292 30.5079 42.8292C30.5079 42.8292 49.5597 42.8292 54.2931 41.5349C55.5862 41.1841 56.765 40.4998 57.7122 39.5502C58.6594 38.6006 59.342 37.4187 59.6919 36.1224C61.2021 27.6781 61.6675 14.8371 59.6528 6.70681Z" fill="#FF0000"/>
<path d="M24.4053 30.5935L40.21 21.4159L24.4053 12.2383V30.5935Z" fill="white"/>
</g>
<defs>
<clipPath id="clip0_447_16630">
<rect width="61" height="43" fill="white"/>
</clipPath>
</defs>
</svg>
