<svg width="62" height="62" viewBox="0 0 62 62" fill="none" xmlns="http://www.w3.org/2000/svg">
<path d="M27.5123 40.6888L40.1061 32.6159C40.7089 32.2284 41.0103 31.6902 41.0103 31.0013C41.0103 30.3124 40.7089 29.7742 40.1061 29.3867L27.5123 21.3138C26.8665 20.8832 26.2099 20.851 25.5425 21.2169C24.8752 21.5829 24.5415 22.1534 24.5415 22.9284V39.0742C24.5415 39.8492 24.8752 40.4197 25.5425 40.7857C26.2099 41.1516 26.8665 41.1194 27.5123 40.6888ZM30.9998 56.8346C27.4262 56.8346 24.0679 56.1565 20.9248 54.8003C17.7818 53.444 15.0478 51.6034 12.7228 49.2784C10.3978 46.9534 8.55713 44.2194 7.20088 41.0763C5.84463 37.9332 5.1665 34.5749 5.1665 31.0013C5.1665 27.4277 5.84463 24.0694 7.20088 20.9263C8.55713 17.7832 10.3978 15.0492 12.7228 12.7242C15.0478 10.3992 17.7818 8.55859 20.9248 7.20234C24.0679 5.84609 27.4262 5.16797 30.9998 5.16797C34.5734 5.16797 37.9318 5.84609 41.0748 7.20234C44.2179 8.55859 46.9519 10.3992 49.2769 12.7242C51.6019 15.0492 53.4425 17.7832 54.7988 20.9263C56.155 24.0694 56.8332 27.4277 56.8332 31.0013C56.8332 34.5749 56.155 37.9332 54.7988 41.0763C53.4425 44.2194 51.6019 46.9534 49.2769 49.2784C46.9519 51.6034 44.2179 53.444 41.0748 54.8003C37.9318 56.1565 34.5734 56.8346 30.9998 56.8346Z" fill="white"/>
</svg>
