<svg width="25" height="17" viewBox="0 0 25 17" fill="none" xmlns="http://www.w3.org/2000/svg">
<path d="M12.5765 0H12.71C13.943 0.0045 20.1905 0.0495003 21.875 0.5025C22.3842 0.640753 22.8483 0.910234 23.2207 1.28401C23.5932 1.65779 23.861 2.12278 23.9975 2.6325C24.149 3.2025 24.2555 3.957 24.3275 4.7355L24.3425 4.8915L24.3755 5.2815L24.3875 5.4375C24.485 6.8085 24.497 8.0925 24.4985 8.373V8.4855C24.497 8.7765 24.4835 10.1475 24.3755 11.5755L24.3635 11.733L24.35 11.889C24.275 12.747 24.164 13.599 23.9975 14.226C23.861 14.7357 23.5932 15.2007 23.2207 15.5745C22.8483 15.9483 22.3842 16.2177 21.875 16.356C20.135 16.824 13.5215 16.857 12.605 16.8585H12.392C11.9285 16.8585 10.0115 16.8495 8.0015 16.7805L7.7465 16.7715L7.616 16.7655L7.3595 16.755L7.103 16.7445C5.438 16.671 3.8525 16.5525 3.122 16.3545C2.61294 16.2164 2.14902 15.9471 1.77658 15.5736C1.40413 15.2001 1.13618 14.7354 0.9995 14.226C0.833 13.6005 0.722 12.747 0.647 11.889L0.635 11.7315L0.623 11.5755C0.548545 10.5591 0.507523 9.54057 0.5 8.5215L0.5 8.337C0.503 8.0145 0.515 6.9 0.596 5.67L0.6065 5.5155L0.611 5.4375L0.623 5.2815L0.656 4.8915L0.671 4.7355C0.743 3.957 0.8495 3.201 1.001 2.6325C1.13746 2.12278 1.4053 1.65779 1.77776 1.28401C2.15022 0.910234 2.61426 0.640753 3.1235 0.5025C3.854 0.3075 5.4395 0.1875 7.1045 0.1125L7.3595 0.102L7.6175 0.0930002L7.7465 0.0885002L8.003 0.0780003C9.43056 0.0321054 10.8587 0.00660264 12.287 0.00150007L12.5765 0ZM10.1 4.815V12.042L16.3355 8.43L10.1 4.815Z" fill="#456D24"/>
</svg>
