<svg width="286" height="122" fill="none" xmlns="http://www.w3.org/2000/svg"><g filter="url(#filter0_d_447_15919)"><path d="M4.432 22.5V.548h17.536v3.904H9.232v4.896h11.264v3.872H9.232v5.344H22.16V22.5H4.432zm25.812 0L23.972 5.668h4.704l2.464 7.104c.128.363.277.843.448 1.44.192.597.384 1.227.576 1.888.192.661.352 1.259.48 1.792h.16c.15-.49.31-1.056.48-1.696.17-.661.341-1.29.512-1.888.192-.619.352-1.13.48-1.536l2.464-7.104h4.48L34.916 22.5h-4.672zm20.796.384c-1.856 0-3.414-.31-4.672-.928-1.259-.64-2.208-1.61-2.848-2.912-.64-1.301-.96-2.955-.96-4.96 0-2.027.32-3.68.96-4.96.64-1.301 1.578-2.261 2.816-2.88 1.258-.64 2.794-.96 4.608-.96 1.706 0 3.146.31 4.32.928 1.173.597 2.058 1.536 2.656 2.816.597 1.259.896 2.89.896 4.896v1.152H47.072c.042.981.192 1.813.448 2.496.277.683.693 1.195 1.248 1.536.576.32 1.333.48 2.272.48.512 0 .97-.064 1.376-.192a2.95 2.95 0 001.088-.576c.298-.256.533-.576.704-.96a3.2 3.2 0 00.256-1.312h4.352c0 1.067-.192 1.995-.576 2.784a5.58 5.58 0 01-1.6 1.984c-.683.512-1.504.907-2.464 1.184-.939.256-1.984.384-3.136.384zM47.136 12.26h7.104c0-.64-.086-1.195-.256-1.664-.15-.47-.363-.853-.64-1.152a2.327 2.327 0 00-1.024-.64 3.6 3.6 0 00-1.312-.224c-.81 0-1.494.139-2.048.416a2.75 2.75 0 00-1.248 1.216c-.278.533-.47 1.216-.576 2.048zM62.079 22.5V5.668h3.68l.352 2.304h.224a6.301 6.301 0 011.376-1.44 6.31 6.31 0 011.856-.928 7.478 7.478 0 012.24-.32c1.11 0 2.08.203 2.912.608.832.405 1.472 1.045 1.92 1.92.47.875.704 2.016.704 3.424V22.5h-4.448V11.94c0-.533-.064-.981-.192-1.344a2.153 2.153 0 00-.576-.928 1.923 1.923 0 00-.896-.544 4.304 4.304 0 00-1.216-.16c-.661 0-1.258.16-1.792.48-.533.32-.95.757-1.248 1.312-.298.555-.448 1.195-.448 1.92V22.5H62.08zm24.274.384c-1.066 0-1.93-.192-2.592-.576-.661-.384-1.141-.896-1.44-1.536a5.225 5.225 0 01-.448-2.176V9.092h-2.08V5.668h2.24l.832-4.8h3.456v4.8h3.072v3.424h-3.072v8.768c0 .512.118.907.352 1.184.235.256.619.384 1.152.384h1.568v2.944c-.256.085-.554.16-.896.224-.341.085-.704.15-1.088.192a6.463 6.463 0 01-1.056.096zm13.658 0c-1.835 0-3.392-.31-4.672-.928-1.28-.64-2.25-1.61-2.912-2.912-.662-1.323-.992-2.976-.992-4.96 0-2.027.33-3.68.992-4.96.661-1.301 1.632-2.261 2.912-2.88 1.28-.64 2.837-.96 4.672-.96 1.877 0 3.445.32 4.704.96 1.28.619 2.25 1.579 2.912 2.88.661 1.28.992 2.933.992 4.96 0 1.984-.331 3.637-.992 4.96-.662 1.301-1.632 2.272-2.912 2.912-1.259.619-2.827.928-4.704.928zm0-3.456c.981 0 1.76-.181 2.336-.544.597-.363 1.034-.917 1.312-1.664.277-.747.416-1.664.416-2.752V13.7c0-1.088-.139-2.005-.416-2.752-.278-.747-.715-1.301-1.312-1.664-.576-.384-1.355-.576-2.336-.576-.96 0-1.739.192-2.336.576-.576.363-1.003.917-1.28 1.664-.278.747-.416 1.664-.416 2.752v.768c0 1.088.138 2.005.416 2.752.277.747.704 1.301 1.28 1.664.597.363 1.376.544 2.336.544zm18.697 3.456c-1.174 0-2.23-.128-3.168-.384-.939-.256-1.739-.608-2.4-1.056-.662-.47-1.174-1.024-1.536-1.664-.342-.64-.512-1.365-.512-2.176v-.256c0-.085.01-.15.032-.192h4.288v.256c.021.533.192.97.512 1.312.32.32.736.555 1.248.704.533.15 1.088.224 1.664.224.512 0 1.002-.043 1.472-.128.49-.107.896-.288 1.216-.544.341-.256.512-.587.512-.992 0-.512-.214-.907-.64-1.184-.406-.277-.95-.501-1.632-.672-.662-.17-1.387-.363-2.176-.576a40.765 40.765 0 01-2.176-.576 9.333 9.333 0 01-1.984-.896 4.43 4.43 0 01-1.408-1.408c-.363-.597-.544-1.344-.544-2.24 0-.875.192-1.632.576-2.272a4.77 4.77 0 011.568-1.632c.682-.427 1.472-.736 2.368-.928.917-.213 1.898-.32 2.944-.32.981 0 1.898.107 2.752.32.853.192 1.6.49 2.24.896a4.33 4.33 0 011.504 1.472c.362.576.544 1.227.544 1.952v.416a.673.673 0 01-.032.256h-4.256v-.256c0-.384-.118-.704-.352-.96-.235-.277-.576-.49-1.024-.64-.427-.15-.95-.224-1.568-.224-.427 0-.822.032-1.184.096-.342.064-.64.16-.896.288a1.735 1.735 0 00-.608.48c-.128.17-.192.384-.192.64 0 .363.149.661.448.896.32.213.736.395 1.248.544.512.15 1.077.31 1.696.48.768.213 1.568.427 2.4.64.853.192 1.642.459 2.368.8a4.39 4.39 0 011.76 1.472c.448.619.672 1.461.672 2.528 0 1.024-.203 1.888-.608 2.592a4.446 4.446 0 01-1.632 1.696c-.704.427-1.526.736-2.464.928a15.17 15.17 0 01-3.04.288zm-81.14 41.56c.624 0 1.104.288 1.44.864.384.576.576 1.368.576 2.376 0 1.92-.456 3.408-1.368 4.464-1.776 2.16-4.296 4.152-7.56 5.976a20.674 20.674 0 01-10.368 2.736c-5.04 0-8.952-1.368-11.736-4.104-2.784-2.736-4.176-6.48-4.176-11.232 0-3.312.696-6.384 2.088-9.216 1.392-2.88 3.312-5.16 5.76-6.84 2.496-1.68 5.304-2.52 8.424-2.52 2.784 0 5.016.84 6.696 2.52 1.68 1.632 2.52 3.864 2.52 6.696 0 3.312-1.2 6.168-3.6 8.568-2.352 2.352-6.36 4.224-12.024 5.616 1.2 2.208 3.48 3.312 6.84 3.312 2.16 0 4.608-.744 7.344-2.232a24.701 24.701 0 007.2-5.976c.576-.672 1.224-1.008 1.944-1.008zm-18.144-10.44c-1.776 0-3.288 1.032-4.536 3.096-1.2 2.064-1.8 4.56-1.8 7.488v.144c2.832-.672 5.064-1.68 6.696-3.024 1.632-1.344 2.448-2.904 2.448-4.68 0-.912-.264-1.632-.792-2.16-.48-.576-1.152-.864-2.016-.864zm27.69 28.44c-2.496 0-4.416-.576-5.76-1.728-1.296-1.152-1.944-2.448-1.944-3.888 0-1.248.456-2.328 1.368-3.24.912-.912 2.256-1.368 4.032-1.368.624 0 1.344.072 2.16.216l1.944.216a8.88 8.88 0 00-.864-3.528 15.261 15.261 0 00-1.872-3.168 39.154 39.154 0 00-2.16-2.736c-1.488 2.832-2.976 5.184-4.464 7.056a49.634 49.634 0 01-4.752 5.328c-.864.864-1.776 1.296-2.736 1.296-.768 0-1.392-.264-1.872-.792-.48-.576-.72-1.272-.72-2.088 0-.96.336-1.848 1.008-2.664l.936-1.152c2.64-3.264 4.632-5.952 5.976-8.064.816-1.392 1.776-3.24 2.88-5.544a206.21 206.21 0 003.24-7.272c.912-2.112 2.808-3.168 5.688-3.168 1.344 0 2.28.12 2.808.36s.792.624.792 1.152c0 .288-.096.744-.288 1.368a10.405 10.405 0 01-.792 1.872c-.864 1.728-1.296 3.192-1.296 4.392 0 .72.24 1.512.72 2.376.528.864 1.32 1.944 2.376 3.24 1.536 2.016 2.688 3.744 3.456 5.184.816 1.392 1.224 2.928 1.224 4.608 0 .48-.048 1.152-.144 2.016 2.352-.912 5.112-3.336 8.28-7.272.576-.672 1.224-1.008 1.944-1.008.624 0 1.104.288 1.44.864.384.576.576 1.368.576 2.376 0 1.824-.456 3.312-1.368 4.464-2.4 2.976-4.704 5.016-6.912 6.12-2.16 1.056-4.848 1.632-8.064 1.728-1.92 1.632-4.2 2.448-6.84 2.448zm55.782-18c.624 0 1.104.288 1.44.864.384.576.576 1.368.576 2.376 0 1.92-.456 3.408-1.368 4.464-2.064 2.544-4.296 4.632-6.696 6.264-2.352 1.632-5.04 2.448-8.064 2.448-2.544 0-4.608-.912-6.192-2.736C79.856 79.9 77 80.812 74.024 80.86c-.624 9.264-2.04 16.992-4.248 23.184-2.208 6.24-5.448 9.36-9.72 9.36-2.592 0-4.512-.936-5.76-2.808-1.248-1.872-1.872-4.464-1.872-7.776 0-4.704 1.08-10.2 3.24-16.488 2.16-6.24 5.496-13.128 10.008-20.664 0-7.008-.048-11.88-.144-14.616-.048-1.392.504-2.496 1.656-3.312 1.152-.816 2.592-1.224 4.32-1.224 1.008 0 1.728.216 2.16.648.48.384.744 1.176.792 2.376 0 1.2.024 2.088.072 2.664 1.536-1.92 3.048-3.288 4.536-4.104 1.488-.864 3.072-1.296 4.752-1.296 2.688 0 4.872 1.08 6.552 3.24 1.728 2.16 2.592 4.992 2.592 8.496 0 2.544-.408 5.016-1.224 7.416a24.222 24.222 0 01-3.384 6.552c1.008.288 1.848.432 2.52.432 1.584 0 3.096-.576 4.536-1.728 1.44-1.152 3.288-3.072 5.544-5.76.576-.672 1.224-1.008 1.944-1.008zm-28.512 9.504c1.728-.384 3.312-1.32 4.752-2.808 1.488-1.536 2.664-3.408 3.528-5.616a19.562 19.562 0 001.296-7.056c0-1.44-.288-2.52-.864-3.24-.576-.768-1.344-1.152-2.304-1.152-1.728 0-3.816 1.824-6.264 5.472-.048 2.112-.072 5.208-.072 9.288 0 2.208-.024 3.912-.072 5.112zm-13.752 32.4c1.296 0 2.376-2.832 3.24-8.496.864-5.616 1.416-12.624 1.656-21.024-2.064 4.8-3.696 9.384-4.896 13.752-1.2 4.368-1.8 8.04-1.8 11.016 0 1.536.192 2.712.576 3.528.336.816.744 1.224 1.224 1.224zm70.592-41.904c.624 0 1.104.288 1.44.864.384.576.576 1.368.576 2.376 0 1.92-.456 3.408-1.368 4.464-1.776 2.16-4.296 4.152-7.56 5.976a20.674 20.674 0 01-10.368 2.736c-5.04 0-8.952-1.368-11.736-4.104-2.784-2.736-4.176-6.48-4.176-11.232 0-3.312.696-6.384 2.088-9.216 1.392-2.88 3.312-5.16 5.76-6.84 2.496-1.68 5.304-2.52 8.424-2.52 2.784 0 5.016.84 6.696 2.52 1.68 1.632 2.52 3.864 2.52 6.696 0 3.312-1.2 6.168-3.6 8.568-2.352 2.352-6.36 4.224-12.024 5.616 1.2 2.208 3.48 3.312 6.84 3.312 2.16 0 4.608-.744 7.344-2.232a24.701 24.701 0 007.2-5.976c.576-.672 1.224-1.008 1.944-1.008zm-18.144-10.44c-1.776 0-3.288 1.032-4.536 3.096-1.2 2.064-1.8 4.56-1.8 7.488v.144c2.832-.672 5.064-1.68 6.696-3.024 1.632-1.344 2.448-2.904 2.448-4.68 0-.912-.264-1.632-.792-2.16-.48-.576-1.152-.864-2.016-.864zm28.05 26.856c-4.704 0-8.376-1.32-11.016-3.96-2.592-2.688-3.888-6.216-3.888-10.584 0-3.888.768-7.296 2.304-10.224 1.536-2.928 3.528-5.184 5.976-6.768 2.448-1.584 5.016-2.376 7.704-2.376 2.64 0 4.68.792 6.12 2.376 1.488 1.536 2.232 3.528 2.232 5.976 0 2.016-.456 3.72-1.368 5.112-.864 1.392-2.016 2.088-3.456 2.088-.912 0-1.656-.216-2.232-.648-.528-.432-.792-1.032-.792-1.8 0-.336.048-.72.144-1.152.096-.432.168-.744.216-.936.24-.72.36-1.392.36-2.016 0-.624-.168-1.104-.504-1.44-.288-.336-.72-.504-1.296-.504-1.104 0-2.136.504-3.096 1.512-.96.96-1.728 2.28-2.304 3.96-.576 1.68-.864 3.528-.864 5.544 0 5.568 2.424 8.352 7.272 8.352 1.968 0 4.08-.648 6.336-1.944 2.304-1.344 4.56-3.336 6.768-5.976.576-.672 1.224-1.008 1.944-1.008.624 0 1.104.288 1.44.864.384.576.576 1.368.576 2.376 0 1.824-.456 3.312-1.368 4.464-2.256 2.784-4.968 4.944-8.136 6.48-3.12 1.488-6.144 2.232-9.072 2.232zm22.188-38.664c-2.016 0-3.528-.456-4.536-1.368-1.008-.96-1.512-2.28-1.512-3.96 0-1.68.648-3.072 1.944-4.176 1.344-1.152 3-1.728 4.968-1.728 1.776 0 3.216.432 4.32 1.296 1.104.864 1.656 2.088 1.656 3.672 0 1.92-.624 3.456-1.872 4.608-1.248 1.104-2.904 1.656-4.968 1.656zm-.576 38.664c-3.12 0-5.4-1.104-6.84-3.312-1.392-2.208-2.088-5.136-2.088-8.784 0-2.16.264-4.92.792-8.28.576-3.408 1.296-6.576 2.16-9.504.432-1.536 1.008-2.592 1.728-3.168.72-.576 1.872-.864 3.456-.864 2.448 0 3.672.816 3.672 2.448 0 1.2-.456 3.984-1.368 8.352-1.152 5.28-1.728 8.856-1.728 10.728 0 1.44.192 2.544.576 3.312.384.768 1.032 1.152 1.944 1.152.864 0 1.944-.6 3.24-1.8 1.296-1.2 3.024-3.096 5.184-5.688.576-.672 1.224-1.008 1.944-1.008.624 0 1.104.288 1.44.864.384.576.576 1.368.576 2.376 0 1.92-.456 3.408-1.368 4.464-4.752 5.808-9.192 8.712-13.32 8.712zm17.718 0c-2.976 0-5.352-1.08-7.128-3.24-1.776-2.16-2.664-4.992-2.664-8.496 0-3.84.888-7.464 2.664-10.872 1.776-3.456 4.128-6.216 7.056-8.28 2.976-2.112 6.12-3.168 9.432-3.168 1.056 0 1.752.216 2.088.648.384.384.696 1.104.936 2.16a16.905 16.905 0 013.168-.288c2.352 0 3.528.84 3.528 2.52 0 1.008-.36 3.408-1.08 7.2-1.104 5.52-1.656 9.36-1.656 11.52 0 .72.168 1.296.504 1.728.384.432.864.648 1.44.648.912 0 2.016-.576 3.312-1.728 1.296-1.2 3.048-3.12 5.256-5.76.576-.672 1.224-1.008 1.944-1.008.624 0 1.104.288 1.44.864.384.576.576 1.368.576 2.376 0 1.92-.456 3.408-1.368 4.464-1.968 2.448-4.056 4.512-6.264 6.192-2.208 1.68-4.344 2.52-6.408 2.52-1.584 0-3.048-.528-4.392-1.584-1.296-1.104-2.28-2.592-2.952-4.464-2.496 4.032-5.64 6.048-9.432 6.048zm2.592-7.272c1.056 0 2.064-.624 3.024-1.872.96-1.248 1.656-2.904 2.088-4.968l2.664-13.248c-2.016.048-3.888.816-5.616 2.304-1.68 1.44-3.024 3.36-4.032 5.76s-1.512 4.944-1.512 7.632c0 1.488.288 2.592.864 3.312.624.72 1.464 1.08 2.52 1.08zm49.661-9.144c.624 0 1.104.288 1.44.864.384.576.576 1.368.576 2.376 0 1.92-.456 3.408-1.368 4.464-2.064 2.544-4.32 4.632-6.768 6.264-2.4 1.632-5.136 2.448-8.208 2.448-4.224 0-7.368-1.92-9.432-5.76-2.016-3.84-3.024-8.808-3.024-14.904 0-5.856.744-12.528 2.232-20.016 1.536-7.488 3.768-13.92 6.696-19.296 2.976-5.376 6.504-8.064 10.584-8.064 2.304 0 4.104 1.08 5.4 3.24 1.344 2.112 2.016 5.16 2.016 9.144 0 5.712-1.584 12.336-4.752 19.872-3.168 7.536-7.464 15-12.888 22.392.336 1.968.888 3.384 1.656 4.248.768.816 1.776 1.224 3.024 1.224 1.968 0 3.696-.552 5.184-1.656 1.488-1.152 3.384-3.096 5.688-5.832.576-.672 1.224-1.008 1.944-1.008zm-8.856-44.496c-1.104 0-2.352 1.992-3.744 5.976-1.392 3.984-2.616 8.928-3.672 14.832s-1.632 11.568-1.728 16.992c3.408-5.616 6.12-11.232 8.136-16.848 2.016-5.664 3.024-10.824 3.024-15.48 0-3.648-.672-5.472-2.016-5.472zm37.164 44.496c.624 0 1.104.288 1.44.864.384.576.576 1.368.576 2.376 0 1.92-.456 3.408-1.368 4.464-1.776 2.16-4.296 4.152-7.56 5.976a20.674 20.674 0 01-10.368 2.736c-5.04 0-8.952-1.368-11.736-4.104-2.784-2.736-4.176-6.48-4.176-11.232 0-3.312.696-6.384 2.088-9.216 1.392-2.88 3.312-5.16 5.76-6.84 2.496-1.68 5.304-2.52 8.424-2.52 2.784 0 5.016.84 6.696 2.52 1.68 1.632 2.52 3.864 2.52 6.696 0 3.312-1.2 6.168-3.6 8.568-2.352 2.352-6.36 4.224-12.024 5.616 1.2 2.208 3.48 3.312 6.84 3.312 2.16 0 4.608-.744 7.344-2.232a24.701 24.701 0 007.2-5.976c.576-.672 1.224-1.008 1.944-1.008zm-18.144-10.44c-1.776 0-3.288 1.032-4.536 3.096-1.2 2.064-1.8 4.56-1.8 7.488v.144c2.832-.672 5.064-1.68 6.696-3.024 1.632-1.344 2.448-2.904 2.448-4.68 0-.912-.264-1.632-.792-2.16-.48-.576-1.152-.864-2.016-.864zm27.69 28.44c-2.496 0-4.416-.576-5.76-1.728-1.296-1.152-1.944-2.448-1.944-3.888 0-1.248.456-2.328 1.368-3.24.912-.912 2.256-1.368 4.032-1.368.624 0 1.344.072 2.16.216l1.944.216a8.88 8.88 0 00-.864-3.528 15.261 15.261 0 00-1.872-3.168 39.154 39.154 0 00-2.16-2.736c-1.488 2.832-2.976 5.184-4.464 7.056a49.634 49.634 0 01-4.752 5.328c-.864.864-1.776 1.296-2.736 1.296-.768 0-1.392-.264-1.872-.792-.48-.576-.72-1.272-.72-2.088 0-.96.336-1.848 1.008-2.664l.936-1.152c2.64-3.264 4.632-5.952 5.976-8.064.864-1.392 1.728-3.048 2.592-4.968.912-1.92 2.088-4.536 3.528-7.848.912-2.112 2.808-3.168 5.688-3.168 1.344 0 2.28.12 2.808.36s.792.624.792 1.152c0 .288-.096.744-.288 1.368a10.405 10.405 0 01-.792 1.872c-.864 1.728-1.296 3.192-1.296 4.392 0 .72.24 1.512.72 2.376.528.864 1.32 1.944 2.376 3.24 1.536 2.016 2.688 3.744 3.456 5.184.816 1.392 1.224 2.928 1.224 4.608 0 2.016-.48 3.936-1.44 5.76a11.226 11.226 0 01-3.888 4.32c-1.68 1.104-3.6 1.656-5.76 1.656z" fill="#fff"/></g><defs><filter id="filter0_d_447_15919" x=".376" y=".547" width="285.278" height="120.855" filterUnits="userSpaceOnUse" color-interpolation-filters="sRGB"><feFlood flood-opacity="0" result="BackgroundImageFix"/><feColorMatrix in="SourceAlpha" values="0 0 0 0 0 0 0 0 0 0 0 0 0 0 0 0 0 0 127 0" result="hardAlpha"/><feOffset dy="4"/><feGaussianBlur stdDeviation="2"/><feComposite in2="hardAlpha" operator="out"/><feColorMatrix values="0 0 0 0 0 0 0 0 0 0 0 0 0 0 0 0 0 0 0.25 0"/><feBlend in2="BackgroundImageFix" result="effect1_dropShadow_447_15919"/><feBlend in="SourceGraphic" in2="effect1_dropShadow_447_15919" result="shape"/></filter></defs></svg>