<svg width="61" height="43" fill="none" xmlns="http://www.w3.org/2000/svg"><g clip-path="url(#clip0_447_16630)"><path d="M59.653 6.707a7.693 7.693 0 00-1.98-3.428 7.664 7.664 0 00-3.419-1.985C49.521 0 30.47 0 30.47 0S11.417.04 6.683 1.333a7.663 7.663 0 00-3.42 1.985 7.692 7.692 0 00-1.979 3.428c-1.431 8.432-1.987 21.281.04 29.376a7.692 7.692 0 001.98 3.428 7.662 7.662 0 003.418 1.985c4.734 1.294 23.786 1.294 23.786 1.294s19.052 0 23.785-1.294a7.663 7.663 0 003.42-1.985 7.692 7.692 0 001.979-3.428c1.51-8.444 1.975-21.285-.04-29.415z" fill="red"/><path d="M24.405 30.593l15.805-9.177-15.805-9.178v18.355z" fill="#fff"/></g><defs><clipPath id="clip0_447_16630"><path fill="#fff" d="M0 0h61v43H0z"/></clipPath></defs></svg>