<svg width="62" height="62" fill="none" xmlns="http://www.w3.org/2000/svg"><path d="M27.512 40.689l12.594-8.073c.603-.388.904-.926.904-1.615s-.301-1.227-.904-1.614l-12.594-8.073c-.646-.43-1.302-.463-1.97-.097-.667.366-1 .936-1 1.711v16.146c0 .775.333 1.346 1 1.712.668.366 1.324.333 1.97-.097zM31 56.835c-3.574 0-6.932-.678-10.075-2.035-3.143-1.356-5.877-3.197-8.202-5.522S8.557 44.22 7.2 41.076c-1.356-3.143-2.034-6.501-2.034-10.075 0-3.573.678-6.932 2.034-10.075 1.356-3.143 3.197-5.877 5.522-8.202s5.059-4.165 8.202-5.522C24.068 5.846 27.426 5.168 31 5.168c3.573 0 6.932.678 10.075 2.034 3.143 1.357 5.877 3.197 8.202 5.522s4.166 5.06 5.522 8.202c1.356 3.143 2.034 6.502 2.034 10.075 0 3.574-.678 6.932-2.034 10.075-1.356 3.143-3.197 5.877-5.522 8.202s-5.06 4.166-8.202 5.522c-3.143 1.357-6.502 2.035-10.075 2.035z" fill="#fff"/></svg>