<svg width="20" height="10" fill="none" xmlns="http://www.w3.org/2000/svg"><path d="M5 10c-1.383 0-2.563-.488-3.538-1.463C.488 7.563 0 6.383 0 5s.487-2.563 1.462-3.538C2.438.488 3.617 0 5 0h3c.283 0 .52.096.713.287C8.904.48 9 .718 9 1s-.096.52-.287.712A.968.968 0 018 2H5c-.833 0-1.542.292-2.125.875A2.893 2.893 0 002 5c0 .833.292 1.542.875 2.125A2.893 2.893 0 005 8h3c.283 0 .52.096.713.287.191.192.287.43.287.713s-.096.52-.287.713A.968.968 0 018 10H5zm2-4a.968.968 0 01-.713-.287A.968.968 0 016 5c0-.283.096-.52.287-.713A.968.968 0 017 4h6c.283 0 .52.096.713.287.191.192.287.43.287.713s-.096.52-.287.713A.968.968 0 0113 6H7zm5 4a.968.968 0 01-.713-.287A.967.967 0 0111 9c0-.283.096-.52.287-.713A.968.968 0 0112 8h3c.833 0 1.542-.292 2.125-.875A2.893 2.893 0 0018 5c0-.833-.292-1.542-.875-2.125A2.893 2.893 0 0015 2h-3a.968.968 0 01-.713-.288A.967.967 0 0111 1c0-.283.096-.52.287-.713A.968.968 0 0112 0h3c1.383 0 2.563.487 3.538 1.462C19.512 2.438 20 3.617 20 5s-.488 2.563-1.462 3.537C17.562 9.512 16.383 10 15 10h-3z" fill="#fff"/></svg>