<svg width="20" height="20" fill="none" xmlns="http://www.w3.org/2000/svg"><path fill-rule="evenodd" clip-rule="evenodd" d="M10 0C4.477 0 0 4.477 0 10c0 1.89.525 3.66 1.438 5.168L.546 18.2A1.01 1.01 0 001.8 19.454l3.032-.892A9.957 9.957 0 0010 20c5.523 0 10-4.477 10-10S15.523 0 10 0zM7.738 12.263c2.023 2.022 3.954 2.289 4.636 2.314 1.037.038 2.047-.754 2.44-1.673a.696.696 0 00-.088-.703c-.548-.7-1.289-1.203-2.013-1.703a.711.711 0 00-.973.158l-.6.915a.229.229 0 01-.305.076c-.407-.233-1-.629-1.426-1.055-.426-.426-.798-.992-1.007-1.373a.227.227 0 01.067-.291l.924-.686a.712.712 0 00.12-.94c-.448-.656-.97-1.49-1.727-2.043a.695.695 0 00-.684-.075c-.92.394-1.716 1.404-1.678 2.443.025.682.292 2.613 2.314 4.636z" fill="#fff"/></svg>