<svg width="25" height="17" fill="none" xmlns="http://www.w3.org/2000/svg"><path d="M12.576 0h.134c1.233.004 7.48.05 9.165.502a3.015 3.015 0 012.122 2.13c.152.57.259 1.325.33 2.103l.015.156.034.39.011.157c.098 1.37.11 2.654.111 2.935v.113a48.123 48.123 0 01-.123 3.09l-.012.157-.013.156c-.075.858-.186 1.71-.353 2.337a3.015 3.015 0 01-2.122 2.13c-1.74.468-8.354.501-9.27.502h-.213c-.463 0-2.38-.009-4.39-.078l-.256-.009-.13-.006-.256-.01-.257-.01c-1.665-.074-3.25-.193-3.981-.39A3.015 3.015 0 011 14.226C.833 13.6.722 12.747.647 11.889l-.012-.157-.012-.156A46.5 46.5 0 01.5 8.52v-.184C.503 8.015.515 6.9.596 5.67l.01-.154.005-.079.012-.155.033-.39.015-.157c.072-.778.178-1.534.33-2.103A3.015 3.015 0 013.124.502c.73-.195 2.315-.315 3.98-.39l.255-.01.258-.009.13-.004.256-.011C9.431.032 10.859.007 12.287.002l.29-.002zM10.1 4.815v7.227l6.236-3.612L10.1 4.815z" fill="#456D24"/></svg>