<svg xmlns="http://www.w3.org/2000/svg" viewBox="0 0 406 584"><style>.st0,.st1{fill:#cfe3a8}.st1{stroke:#678f35;stroke-miterlimit:10}.st1,.st2{stroke-width:1.353}.st2,.st3{stroke:#678f35;stroke-miterlimit:10}.st2,.st3{fill:none}.st3{stroke-width:1.015;stroke-linecap:round;stroke-linejoin:round}</style><g id="Capa_1"><path class="st0" d="M316.1 321.6c.3.2.5.3 1 .2 1.1-.2 1-2.9 1-5 .1-2.1-1.3-4.3 0-5.7 1.3-1.4 0-3.2 0-3.2 2.2.3 4.6 1 6.4 2.8 2.4 2.4 3.4 3.1 4.4 4.1 0 0-1.5 2-3 3.7-1.6 1.7-1.4 3.8-2.6 4.3-1.1.6-3.1.2-4.9.5-1.7.4-2.3-1.6-2.3-1.7z"/><path class="st0" d="M309.7 307.2c.5.7 2.7 1.1 4.4.7.8-.1 2.3-.2 4 0 0 0 1.3 1.9 0 3.2-1.3 1.4.1 3.5 0 5.7-.1 2.1 0 4.8-1 5-.5.1-.7-.1-1-.2-.4-.2-.9-.5-2.3-.3-2.4.4-2 .2-2.2 1.1-.2.9-1 1.8-2.5 1.7-1.5-.1-2.6-1.5-2.6-1.5l-.5-.2c.2-.8-.2-1.3-.6-2.5-.6-1.9-1-2.4-2.1-3.8s.3-2.8 1.1-3.8c.9-.9 3-.6 2.3-1.9-.6-1.2-.1-2.8 0-3 .1 0 .3.1.4 0 1.2 0 2.1-.9 2.6-.2z"/><path class="st0" d="M306.8 310.5c.7 1.3-1.4 1-2.3 1.9-.9.9-2.3 2.3-1.1 3.8 1.1 1.4 1.6 1.9 2.1 3.8.4 1.2.8 1.8.6 2.5-.1.4-.5.9-1.2 1.7-1.9 2.1-1.9 2.9-4.8 2.6-2.9-.4-2.9-1.9-3.9-4s-.8-2.9 0-4.3 2-2 .7-3.3c-1.3-1.4-1.7-3.4-1.7-3.8.1-.4-.7-1.2-2-.7 0-.1-.1-.2-.2-.3-.7-.6-2 .8-1.6-1.8.4-2.6-.3-3.8 1.5-3.9 1.8-.1.6-1.4.5-2-.1-.6 3.2-3.6 3.5-3.8.8.7 1.9 1.7 3.2 2 1.7.4 1.7.4 1.7 1.8 0 1.5 2.1 1.6 3.3 2.5 1.1.8.9 2.1 1.6 2.3 0 .3-.6 1.8.1 3zm-93.5-13.1s-.8-2.1 0-2.9c.8-.8-.6-1.7-.4-2.7.2-1 .9-1.4.9-1.4 2.1.7 3.3 2.1 6 2.1s5-4 7.9-3.7c2.9.3 6.4.4 7.5 1 .2.1.4.2.6.4.7.5.9 1 .6 1.7-.4.9 2.4 3.1.7 3.3-1 .1-2.5.2-3.5 0-.6-.1-1-.4-.9-.9.4-1.2.6-3.1-.9-3s-1.9-.4-2.7-.6c-.7-.2-2.8.3-3.2.7-.4.4.2 1.6-.9 2-1.1.4 2.8 3.5.9 4.1-1.8.7-2.4-.6-4.3-.6s-.8-1.3-3.3-1.6c-2.5-.2-1.7-.2-3.3 1.1-.7.9-1.1 1.1-1.7 1zm-13.2-26.9c.7-.9 3.3.5 4.3 0s2-3 2.1-3.2c.6.2 1.2.4 1.3.8.2 1-1.3 2.4-.9 5.2.4 2.9 3 4.9 1.8 6-1.2 1-2 4-.7 5.2.4.4.9 1 1.5 1.8-.2 0-2.4.2-3.6-.2-1.2-.5-.9-.5-3.3 0s-3.1 2-3.1 2l-.2.1c-.4-.6-1-1.3-2.1-1.9-2.7-1.5-3.6-3.6-4.7-4.7 2 0 1.2-4.8 2.8-6.5 1.6-1.8 3.5.2 4.3-.7 1.1-1.1-.2-3 .5-3.9z"/><path class="st0" d="M190.4 278.3c-.5-1.4-3.5-2.5-6.8-2.3.8-.8.2-1.3 0-2.2-.3-1 .4-.9 2.6-1.8 2.1-.9 1.5-1.9 1.4-2 1 0 2.4-.4 3.4-.9 1.8-1 1.6-2.6 3.9-2.4 2.3.1 3.6.1 6.6-.4s2.9-1 3.2.1c.2.6 1 .7 1.8.9-.1.1-1.1 2.7-2.1 3.2s-3.6-.9-4.3 0c-.7.9.5 2.8-.4 3.8s-2.7-1.1-4.3.7c-1.6 1.8-.8 6.6-2.8 6.5-.5-.6-1.1-.9-1.9-.6-.2.1-.4.1-.6.2-.1 0 .8-1.4.3-2.8z"/><path class="st0" d="M183.8 280.7c-.6-.6-1.6-.8-2.7-.7 0-.7.3-2.1 1.9-3.3.3-.2.5-.4.7-.6 3.3-.3 6.2.9 6.8 2.3.5 1.4-.4 2.7-.4 2.7-2.4.6-4.6 1.3-6.3-.4zm.9-19.8c.3 1.7 2.1 2.7 1.7 3.8-.4 1.1.1 3.2-.1 4.5-.1 0-.9.1-1.5 1-.7.9-1.7 1.4-2 .3-.3-1.1.4-2.9-.8-4.3-1.2-1.3-.9-2.9-.9-2.9.5 0 .8-.1 1.5-.6 1.2-.8 2.1-2.3 2.2-2.5-.1.3-.1.5-.1.7z"/><path class="st1" d="M184.7 270.2c.6-.9 1.4-1 1.5-1-.1.6.5.9 1.4.9.1.1.7 1.1-1.4 2-2.3.9-2.9.8-2.6 1.8.2.9.8 1.3 0 2.2-.2.2-.4.4-.7.6-1.7 1.2-2 2.6-1.9 3.3-2.1 0-4.7.6-7-.5-.9-.4-1.7-1-2.5-1.7 0 0-.1-2.1 0-4s2.3-2.6 4.6-2.9c2.3-.3 2.8-2.5 2.1-3.3-.7-.8-2.1-2.8-1.8-3.2.3-.4.7-1 2.8-1 1 0 1.5.1 1.9 0 0 0-.3 1.6.9 2.9 1.2 1.3.5 3.2.8 4.3.3 1 1.3.6 1.9-.4z"/><path class="st0" d="M82.3 205c.4.5.8 1.7 2 2.4l-1.2 1.7c-.2 0-.4.1-.4.2-.8 1-2.8 2.5 0 6.5s1.9 6.7 4.3 9.4 4.5 6.6 4.3 7.6c-.2 1 4.2 7 5.8 8.3 1.5 1.3 1 5-.1 4.8-1.1-.2-2.2-5-5.9-6.5-3.6-1.5-3.5-7.7-4.4-10.2-.9-2.4-3.7-4-6.3-8.1-2.5-4.1-4-6.5-4.2-9.9-.1-1.7-.3-4.1-.8-6.2.1 0 6.4-.6 6.9 0z"/><path class="st0" d="M68.2 131.2c1.2.8 2.5-.8 2.8 1.9.2 2.7 1.9 3.9 3.2 2.9.7-.5 0-3-.8-5.7 0 0 77.9 1.6 82.6 2.5 4.7.9 3.8 2.1 10.8 1.8s11.6 3.4 14.6 5c2.9 1.6 7.1 6.6 6.8 10.6-.3 4-2 7.4 0 7.8 2.1.4 2.2-1.5 5.1-3.4 2.9-1.9 5.8-1.3 5.9-2.5.1-1.2-2.1-2.2 1.3-3.5 3.4-1.3 4.4-.8 4.9-4.4.4-3.6 1.9-5.6 5.3-6.2 3.4-.6 4.7-.3 7.5-4.1 1.9-2.6 1.7-4 2.2-5 .2-.4.6-.8 1.5-1.2 2.7-1.2 2.7-3.2 4.4-2.1 1.8 1.2.9 2.2 2.2 4 1.3 1.8 3.5 1.5 3.5 1.5-.2.3-.4.7-.3 1.2.2 2-.4 3.1-2.3 3.6s-5.9 3.1-5.8 5.6c.1 2.5 1.7 5.1.7 6.5-1 1.4-6.4 1.5-6.5 4.3-.1 2.8.8 3.2-1.2 4.3-2 1.1-.2 3.3-1.2 6-1 2.6-3.5.7-3.1 3.2.4 2.5 1.2 5.4.2 5.5-1 .1-4.8-1.7-3.3.8 1.4 2.4 6 1.9 4.6 5.1-1.3 3.2 1.3.4-.2 3.4s-3.9 2.7-3.6 5c.2 2.3-.1 1.9-2.5 3.7-2.4 1.8-1.4 3.5-4.3 6-2.9 2.4-3.3 1.9-1.9 7.5s3.3 3.1 2.2 6.5c-1.1 3.4 5.8 7.2 6 11.6.2 4.4-.6 5.3-1.3 5.5-.8.2-2.9-.4-3.9-3.3s-3.2-1.8-4.3-4.3c-1.1-2.5-2.4-7.4-4-7.9-1.5-.6-4-3.2-5.7-2.1-1.8 1.1-2.4 2.5-4.2.7-1.8-1.9-3.7-2.3-7.2-1.8-3.5.6-11.5 2.2-9.5 2.8 2 .6 3.2.4 2.5 1.7-.7 1.2-1.4 2.4-3.1 2.4-1.7 0-3.7-2.2-5.4-1.1-1.7 1.1-2.8 1.2-4.9 1-2.1-.2-1.7 2.1-3.6.6-2-1.6-3.2-.1-3.1 1.1.1 1.2 1.7 1.6-.6 3-2.2 1.4-4-.4-4.3 2.2-.3 2.7-.8 2.3-2.5 4.1-1.8 1.8 1.2 3.1 1.2 6v.5c-.2 0-2.7.5-5.7-1.3-3.2-1.9-3.4-1.7-3.8-4.9-.3-3.2-3-2.7-4.4-6.1-1.4-3.4-4.5-3.4-6.6-3.6-2.1-.2-1.8 4.3-3.8 2.2-2-2.1-3.2-1.3-5.5-4.9-2.3-3.5-3.1-4-5.3-4.5-2.2-.6-5.2-.1-7.3.9-2.1 1-7 1.1-9.5 0s-4.9-1.4-7.5-1.7c-.7-.1-1.2-.2-1.6-.4-1.3-.7-1.6-1.9-2-2.4-.6-.6-6.9 0-6.9 0-.4-2-1.1-3.8-2.2-4.2-2.1-.9-10.7-5.5-10.8-10.2-.1-4.6-.3-7.9-2.1-10.6-1.8-2.8-.7-5.5 0-9.2.7-3.7-2.8-4.3-1.2-9.5 1.5-5.2 1.7-11.6 4.4-14.6 2.8-3 2.3-8.1 2.5-13 0-5.2.7-3.5 1.9-2.8z"/><path class="st0" d="M226.2 125.5c-1.8-1.2-1.8.9-4.4 2.1-.8.4-1.2.7-1.5 1.2l-1.9-.7h.2c1-.4 2.5-1.4 2.3-2.9-.2-1.4.6-2.8 2.1-4.1 1.5-1.3 1.9-5.8 5.8-5s5.3-1.1 4.8.8c-.6 1.9-.7 3.2-1.9 3.3-1.2.1-2.3 1.1-.7 2 1.7.9 2.8.3 3.4 2.3.7 2 1.2 1.6 3.2 1.6s4.4-1.6 4.5.3-2.8 2-3.8 3.6c-1 1.7-2.7 4.3-3.4 4.3-.8 0 .1-2.2.8-3.3s0-2.4-1.1-1.5c-.8.6-2.2.8-2.8 1.5 0 0-2.2.3-3.5-1.5-1.2-1.8-.3-2.8-2.1-4z"/><path class="st0" d="M134 52.2c.5 1.2 1.6 2.1 4 2.2 2.4.1 1.6.1 3.9 1.6 2.4 1.5 4-1.3 5.5-.6 1.5.7.3 3.5 1.8 3.8 1.5.3 1.5-2.3 2.1-3.2.7-1-.3-2.6 1-3 1.3-.4 0-2.1-.7-2.4-.7-.4-.7-2.5-.5-3.1.1-.6-1.4-2.6-.7-3.6s.6-5.6 3.3-4c2.7 1.6 1.4 2.6 3.8 3.5 2.4.9.2 2.1 0 3-.2 1 1.8 1.2.7 2.7-1 1.5.7 4 2.2 4.1 1.5.1 1-1.5.5-3s.7-2.8 1.3-2.4c.7.4-.4 1.5.3 2.7.7 1.3 1.4 2.6 2.1 4 .7 1.3 3.1.1 3.1-2.4 0-2.4-1.6-3.5 0-4.1 1.6-.6 1.2-1.9 2.3-1.5 1.1.4.5 1.6 2.7 1.3 2.3-.2 2.7.2 2.7.5.1.3-2.2.3-2.4 1.7-.2 1.4-.9 2.5-.6 2.8.3.3 2.7.2 2.7 1.4s-1 1.1-1.5 2.4c-.5 1.3-.4 2.9-1.7 2.5-1.3-.4-1.7-.5-2.9.5s-2-.9-2.9.4c-.9 1.3 1.5.8-.3 1.9-1.8 1.2-4.5-1.3-5.3.7-.8 2 2.4 1.7 2.8 4 .4 2.3-1.9 3.1-3.7 3.4-1.9.3-4.5.6-4 2 .6 1.4 3.8 1.5.7 4-3.1 2.5-5.1 4.1-5.1 6-.1 1.8-1.4 2.3-2.3 3.2-.9.9.4.2-.2 2.9s.1 2.8 2.1 2.5c2-.2 2.4 1.5 2.4 3.1s.2 4.3 2 3.8c1.9-.5 2.4-2.2 3.6-1.7 1.2.4 1 1.2 2.4 1.1 1.4-.1 0 1.4 1.9 1.5 1.9.1 2.5-.1 2.6 1.8.1 1.9 13.5.1 14.1 1.4.6 1.4-1.6 1.3-1.1 2.9.6 1.6 3.7 1 3.3 3.6-.4 2.6-.3 3.9 1.9 5.6 2.3 1.7 2.7 2.9 3.8 2.6 1-.3 1.4-1.7 2.3-.7.8.9 2.8-.1 2.7-.8-.1-.7.7-4-.8-4.5-1.6-.4-2-2-2.2-3.6-.1-1.6-2.1-3-.4-4.9 1.7-1.9 4.9-1.5 2.5-6.9-2.4-5.4-5.9-6.4-5.3-8.5.6-2.1 1.7 0 1.5-3.8-.1-3.7-2.9-3.4-2.9-5.1 0-1.7 1.9-.9.9-3-1-2.1-1-4.5 1-4.5s3.6-.3 5.1-.9c1.4-.6 1.9 1.8 4.1 2.7 2.2.9 3.3 1.9 5.9 1.5 2.5-.3 1.5 3.4 2.2 4.6.7 1.2.6 3.3 3.4 3.3 2.9 0 3.3-.1 4.6-.3 1.3-.2 2.7-1 2-2.7-.7-1.7-1.8-3.3-1.2-4.2.6-.9-.9-1.3.4-1.6 1.3-.2-.9-3.6 1.8-2.9 2.7.8-.1 3.8 4.1 4.8 4.2 1 8.6 4.3 7.7 6.1-.9 1.8 1.2 4.9 4.1 4.8 2.9-.1 2.1 2.3 4.3 2.3 2.2 0 3.2-1.7 3.5-.4.3 1.2.8.8-.5 2.7-1.3 1.9-2.3 1.9-1.4 3 .9 1.1 3.9-.1 4.1-1.2.2-1.1 1.2-2.4 2.2-1.7 1 .8 2.7 1.4 3.6 2.9 1 1.4 2.3 4.5 0 5.1-2.3.5-.8 2.8-2.4 4.5-1.7 1.8-3.2 4.5-6.5 4.6-3.3.1-6.6 1.5-10.4 3.7-3.8 2.1-3.5 3.2-4.4 5.6-.9 2.4-3.5 2.7-4.3 5.6-.7 2.7-1.4 5.8-.6 5.8l1.9.7c-.5 1-.3 2.4-2.2 5-2.8 3.8-4.1 3.5-7.5 4.1-3.4.6-4.9 2.7-5.3 6.2-.4 3.6-1.5 3-4.9 4.4-3.4 1.3-1.2 2.4-1.3 3.5-.1 1.2-2.9.6-5.9 2.5-3 1.9-3.1 3.8-5.1 3.4-2-.4-.3-3.8 0-7.8s-3.8-9-6.8-10.6c-2.9-1.6-7.7-5.3-14.6-5-6.9.3-6-.9-10.8-1.8-4.7-.9-82.6-2.5-82.6-2.5-.7-2.2-1.5-4.7-1.7-6.4-.4-3.9-3.2-2.4-5.5-5.4-2.3-3-1.9-4.1-.9-6.8 1-2.8 2.1-3.3.9-6.4-1.2-3.1-1.3-6.1.6-8.5 1.9-2.4-2.1-4.5-1.9-7.7.2-3.2 2.8-2.1.3-7.1-2.4-5-3.6-1.3-4.9-5.3-1.2-4 1.7-4.2-1.9-5.2-.3-.1-.6-.2-.8-.3L88.1 32c.5 2.1 2.2 5.4 2.6 5.4.6 0 1.4-1 3.2-.5 1.8.5 3.2 1.7 4.2 1.6 1-.1 2.2-1.4 4-1 1.8.4 3-.1 3.5 1.5s1.3 2.9 1.7 2.8c.4-.1 2.1-.4 2.5.8.4 1.2 3.3.5 3.8 2.4.5 1.8 3.4 2.3 4.2 4 .8 1.7.7 1.8.6 3.2-.1 1.4 2 .7 6 2.3 4 1.5 4.3 5 5 4.6.7-.4-.3-3.6 1.2-4.1 1.5-.5 2-1.5 1-2-1-.2 1.9-1.9 2.4-.8zM51 18.1c1.8.2 1.7 2.8 3.6 2.7 1.9-.1 1.3.9 1.2 2.5-.1 1.6 2.3 1.2 3.2.2.9-1-.7-3.4 1.4-4.4 2.1-1 .4-5 2.3-5.6 1.9-.7 2.2.7 4.3.6 2.1-.1 8.2.7 10.4.9 2.2.2 4.4 2.2 4 3.9-.4 1.7 2.9 3.2 1.8 4.2-1.1 1 .1 1.7 2.1 3s3 3.6 2.8 5.1c0 .3 0 .8.2 1.3L57.6 71c-3.1-1.5-5.3-6.6-5.4-9.9-.1-3.7-1.2-5-3.5-5.9-2.3-.9-3.1-2.8-5.3-.8-2.2 2-2.5 1.4-4.2 1.4-1.7 0 1.9 2.4-3.4 3.9-5.3 1.4-2.8 2.9-6.7 3.3-4 .4-5.5 3.4-8.5 2s-2-1.8-5.3-1.7c-3.3.1-6.1-2.1-6.1-2.1l-.2-.1s-.2-2.2 1.3-2.2.6.9 2.5.7c1.9-.2 2.3.3 2.7 1.2.4.9 2.5 0 4.1-.7 1.6-.8 3.8 1.5 5.6.5 1.8-1.1 1.1-2.9 3.1-3.6 2-.7 3.2.2 4.6-1.3 1.4-1.5 2.1-2.7.4-2.6-1.7.1-2.8.2-3.4-1.4-.6-1.7-.9-1.7-2-1.6-1.2.1-1.3-.7-.6-1.3.7-.6.8-1.2 1.1-2.7.3-1.5 1.2-1.2 2.7-1.9 1.4-.7.9-1.7.5-1.7-.4-.1-1.5.5-2.3 0-.8-.5.1-.8.6-2.1s.6-2.4 1.2-1.9c.6.4.9 1.6 2 1.4 1.1-.2 1.3-.2.4-2.3 0 0-1.6-4.1 3-5 4.6-.9 3.8 1 5.5 1.1 1.8.1 3.9-.9 5.1-.3 1.2.6 1.9-1 3.5-2.7 1.7-1.7 2.8 0 3.8-1.2s-2.7-1.8-4.4-2.3c-1.8-.6-2.9-2.4-2.5-4.1.3-1.7 1.2.2 2.4-1.1 1.2-1.4-.7-4.1 1.1-3.9z"/><path class="st2" d="M296.9 298.9c.8.7 1.9 1.7 3.2 2 1.7.4 1.7.4 1.7 1.8 0 1.5 2.1 1.6 3.3 2.5 1.1.8.9 2.1 1.6 2.3.1 0 .2.1.4 0 1.2-.1 2-1.1 2.5-.4.5.7 2.7 1.1 4.4.7.8-.1 2.3-.2 4 0 2.2.3 4.6 1 6.4 2.8 2.4 2.4 3.4 3.1 4.4 4.1.3.3.7.7 1.1 1.2 1.5 1.9-.2 5.4 3 6.7 3.2 1.3 2.6 2.9 1.3 4-1.3 1.2-1.4 1.4-3.4 3.2-2 1.8.9 2.5 2.3 1.5 1.5-1 2.9-.9 4-.2 1.2.6 3.8-.2 3.4 1.2-.4 1.4-2.1 4.3-.9 4.3 1.3 0 1.2-1.6 2.5-2.5 1.3-.9 3.4-1.1 4.9.2 1.5 1.3 7.9.3 8.3 2.2.4 1.9-1.5 5.4 0 5.4s1.2-2.5 3-2c1.8.4 5.8 2.5 8.6 2 2.9-.5 5.6-1.8 8 1.5 2.3 3.3 4.8 5.1 8.1 5.4 3.3.3 6.3-1.8 7.1 2.8.9 4.6 4.4 8.2.9 14.1-3.4 5.9-4.6 6.5-7.2 7.3-2.7.9-1.8 6.8-3.8 6.7-2-.1-3.2-.4-3.1.9.1 1.3.9 1.5-.5 3.5s-.1 9.5.5 11.5-1.4 2.7-2.1 4.3c-.7 1.6 1.1 4.9-1.4 6.6-2.4 1.7-.4 4.1-2.6 6.1-2.1 2-.9 4.9-2.3 5.1-1.4.2-1 1.5-4 2.6-3.1 1.1-8.1-.7-11.2 1.8-3.1 2.6-2.2 3.3-6.9 3.5-4.7.2-3.5 5.1-5.4 5.4-1.9.3-1.5.9-1.6 4.7-.1 3.8 1.6 8.3-1.6 8.5-3.2.2-2.5 5.1-4.5 7.6s-4 5.8-4.4 4.7c-.3-1.1.5-1.6.9-3.5.3-1.9 1.7-2.4-.5-2.4s.1 3.2-1.4 4.7-1.8 1.4-2.8 4.8c-.9 3-2.5 5-4.5 6.2m-84.7-176c.7-1.3 1.3-1.9 2.5-2 1.9-.1 2.4 1.6 3.6 0 1.2-1.6.9-1.7 2.7-1.8 1.3-.1 3.3-2 4.8-3 .6-.4 1-.6 1.4-.6 1.3.1 1.7.5 1.3 1.2-.4.7-1 .8-1.5 1.4-.5.6-.4 1.2.1 2.6.5 1.3-1.6 2.4-2.1 4-.5 1.5.9 3.8 2.7 3.6 1.8-.2 1.3-1.9.9-3.9s0-3.2 1.3-3.7c1.3-.4 3.6-.9 3.7-1.5.2-.6 0-2.3.6-2.2.6.1.5 1.5 1.8 1.8 1.2.3 3.3-.1 3.7 1.3.5 1.4 0 3.5 3 3.4 3-.1 3-1.1 5.6.2 2.6 1.3 3.2 1.7 5.4.4 2.1-1.2 5.3-1.3 5.6-1.6.2-.4-.2-.1-.1-.6s.5-.6 1.3-.4c.8.2 1.5.4 2.6.5 1.1.1 1.1 1 0 1.2-1.1.2-1.2.7-1.4 1-.2.3.6.9 1.4.8.8 0 3.6.5 4.5 1.1.9.6 1.5 1.5.5 1.8-1 .3-.9 1.6-1.1 2.1-.1.4 1.5.7 3 .4 1.5-.3 1.6 0 2.4.6.2.1.4.3.6.5m-79.3 44.6c1-1 .2-2-.5-2.2-.7-.2-2-1.7-1.5-2.9s.6-2.7.7-4.1c.1-1.4 1-3.1 3.1-4.2 2.1-1.2 2.9-3.7 2.9-3.7-.1-.2-1.1-1.9 1-2.8 2.2-1 .4-3.2 3-3.5 2.6-.3 3.4-3.2 3-4.9-.4-1.7-.4-3.3.1-6.7.5-3.4-2.9-4.8-2.4-5.7.4-1 2.7-6.1 5.2-6.9 1.3-.4 1.7-.3 1.9-.5m86.8 171.1c-.3.1-.5.3-.8.4-2.3 1.2-2.5 2.9-4.8 3.1-2.4.2-2.9 2.2-6 0s-3.1-.9-5.8-1.1c-1.2-.1-1.7.1-1.7.4 0 .4.7 1.1 1.9 1.7 2 1.2 2.7 1.6 1.1 2.8-1.6 1.2.3 2.9 2 3.2 1.7.3.9 2.7-2.7 5.4-3.6 2.8-.7 3.3-4.3 4.5-3.5 1.2-5.3 1.7-9.3 1.5-3.9-.2-4.3.4-3.8 1.9.4 1.5.5.9-.6 1.8-1.2 1-.9 2.3-.9 4.5 0 2.1-2 1.5-3.3 1.3-1.3-.2-2.9-.9-4.8-.3-1.9.5-.6 4.5-.5 4.9.1.4 1.7 1.4 3.4.7s2.4 3.1 1 3.3c-1.4.2-2.2-1.9-3.7-.7s1.1 1.8.4 2.6c-.6.7-.7-1.5-2.1 0-1.4 1.5-.8 3.5-.7 5 0 1.5-1.1 1-1.3 2.5-.2 1.5-1 1.3-3.6 1.9-2.6.6-3.2 2.3-2.7 4.9.5 2.6 4.4.9 5 2.7.6 1.8.4 2.5-.3 4.2s-1.1 1.8-3.8 4.3c-2.7 2.4-2.6 3.4-2.7 4.8-.1 1.5-1.2 1.9-2.9 2.2-1.7.4-2.3 2.5-2.3 3.4-.1.9-.7 3.7 1 5.8 1.7 2.1 1.9 2.1.6 2.5-1.3.4-1.7 1-.9 1.4.7.4 2.8 2.3 1.8 3.5-1 1.2 1.7 3.9 3.9 5.3 1.7 1 4.9 1.5 6.1 2.3.4.3.6.6.3.9-1 1.4-1.8 3.4-5 3.2-3.2-.2-2.9-1.9-5.5-1.5-2.7.4-7.7.2-8.8-2.7-1.2-2.9-1.5-5.5-4.2-6.7-2.7-1.2-8.6-2-8.1-5.9.5-3.8-2.7-6.1-2.3-8.1.2-1.2.9-3.5 1.3-5.7.3-1.5.3-2.9-.1-3.8-1.1-2.1-2.4-8.9-1.2-9.9 1.3-1.1.9-6.7 2.8-7.6 1.9-.9 2.2-5.5 2.6-7.2.3-1.7 1.9-7.5 1-7.6-1-.1-.2.9-1.9 2.2-1.7 1.4-1.8 3.7-2.8 3.7s-1-3 .1-4.8c1.1-1.8 2.4-2.6 2.3-5-.1-2.5.1-5.7.7-7.9s-1.4-7.6-.4-9.8c1-2.2 1.8-4.1 3.6-6.5 1.8-2.5.5-6.4 2.7-8.7 2.1-2.4 1-2.9.7-9.5-.2-6.6.2-6.6.9-7 .6-.4-1.2-1.2-.7-3.3.4-2.1 2.2-8.1 3-11.2.7-3.1 2-6.8 1.7-10.4-.3-3.6-2.4-4.2-.3-9.3 2.1-5.1 1.3-10 .3-11.5-.1-.1-.2-.3-.3-.5-1.1-1.9-3.5-6.5-8.5-7.8-5.4-1.5-14.3-6.4-14.2-8.9.1-2.6.1-1.7-1.2-4.6-1.3-2.9-4.8-7.5-6.2-11.7-1.4-4.3-3.7-9.8-6.9-11.5s-4.7-3.5-3.7-4.8c1-1.3-1.5-7 .3-8.1 1.8-1.1 1.7-1.1 2.8-2m-4.1-46.2c-.4-.1-.8-.3-1.4-.5-1.5-.7-.5-1-2.8-2.4s-.9-1.6-3.5-1.3c-2.5.2-.9-1.3-3.9-1.6-2.2-.2-1.4-1.7-2.4-3.4-.4-.6-1-1.3-2.1-1.9-2.7-1.5-3.6-3.6-4.7-4.7-.5-.6-1.1-.9-1.9-.6-.2.1-.4.1-.6.2-2.3.6-4.5 1.3-6.2-.4-.6-.6-1.6-.8-2.7-.7-2.1 0-4.7.6-7-.5-.9-.4-1.7-1-2.5-1.7-2.5-2.1-4.9-4.8-8.4-5.6-4.6-1-6.2.9-9.1 1.1-2.9.2-5.8-1.7-11.1-1.7s-5.1-.5-9.2-2.8c-4.1-2.2-3.5-2.2-6.7-2.9-.6-.1-7.1-.9-8.9-4.3s-2.4-4.6-1.3-5.9c1.1-1.2-3-7.6-4.9-8.6-1.9-1-1.7-2.2-4.3-6.2-2.7-4-3.4-5-7.1-7.8-3.7-2.9-7-6.6-8.1-9.6-1.1-3-3.5.2-4.2-6-.6-5.4-3.8-8.4-5.1-8.4-.2 0-.4.1-.4.2-.8 1-2.8 2.5 0 6.5s1.9 6.7 4.3 9.4 4.5 6.6 4.3 7.6c-.2 1 4.2 7 5.8 8.3 1.5 1.3 1 5-.1 4.8-1.1-.2-2.2-5-5.9-6.5-3.6-1.5-3.5-7.7-4.4-10.2-.9-2.4-3.7-4-6.3-8.1-2.5-4.1-4-6.5-4.2-9.9-.1-1.7-.3-4.1-.8-6.2-.4-2-1.1-3.8-2.2-4.2-2.1-.9-10.7-5.5-10.8-10.2-.1-4.6-.3-7.9-2.1-10.6-1.8-2.8-.7-5.5 0-9.2.7-3.7-2.8-4.3-1.2-9.5 1.5-5.2 1.7-11.6 4.4-14.6 2.8-3 2.3-8.1 2.5-13 .2-5 .9-3.3 2.1-2.5 1.2.8 2.5-.8 2.8 1.9.2 2.7 1.9 3.9 3.2 2.9.7-.5 0-3-.8-5.7-.7-2.2-1.5-4.7-1.7-6.4-.4-3.9-3.2-2.4-5.5-5.4-2.3-3-1.9-4.1-.9-6.8 1-2.8 2.1-3.3.9-6.4-1.2-3.1-1.3-6.1.6-8.5 1.9-2.4-2.1-4.5-1.9-7.7.2-3.2 2.8-2.1.3-7.1-2.4-5-3.6-1.3-4.9-5.3-1.2-4 1.7-4.2-1.9-5.2-.3-.1-.6-.2-.8-.3-3.1-1.5-5.3-6.6-5.4-9.9-.1-3.7-1.2-5-3.5-5.9-2.3-.9-3.1-2.8-5.3-.8-2.2 2-2.5 1.4-4.2 1.4-1.7 0 1.9 2.4-3.4 3.9-5.3 1.4-2.8 2.9-6.7 3.3-4 .4-5.5 3.4-8.5 2s-2-1.8-5.3-1.7c-3.3.1-6.1-2.1-6.1-2.1l-.2-.4s-.2-2.2 1.3-2.2.6.9 2.5.7c1.9-.2 2.3.3 2.7 1.2.4.9 2.5 0 4.1-.7 1.6-.8 3.8 1.5 5.6.5 1.8-1.1 1.1-2.9 3.1-3.6 2-.7 3.2.2 4.6-1.3 1.4-1.5 2.1-2.7.4-2.6-1.7.1-2.8.2-3.4-1.4-.6-1.7-.9-1.7-2-1.6-1.2.1-1.3-.7-.6-1.3.7-.6.8-1.2 1.1-2.7.3-1.5 1.2-1.2 2.7-1.9 1.4-.7.9-1.7.5-1.7-.4-.1-1.5.5-2.3 0-.8-.5.1-.8.6-2.1s.6-2.4 1.2-1.9c.6.4.9 1.6 2 1.4 1.1-.2 1.3-.2.4-2.3 0 0-1.6-4.1 3-5 4.6-.9 3.8 1 5.5 1.1 1.8.1 3.9-.9 5.1-.3 1.2.6 1.9-1 3.5-2.7 1.7-1.7 2.8 0 3.8-1.2s-2.7-1.8-4.4-2.3c-1.8-.6-2.9-2.4-2.5-4.1.3-1.7 1.2.2 2.4-1.1s-.7-4.1 1.1-3.9c1.8.2 1.7 2.8 3.6 2.7 1.9-.1 1.3.9 1.2 2.5-.1 1.6 2.3 1.2 3.2.2.9-1-.7-3.4 1.4-4.4 2.1-1 .4-5 2.3-5.6 1.9-.7 2.2.7 4.3.6 2.1-.1 8.2.7 10.4.9 2.2.2 4.4 2.2 4 3.9-.4 1.7 2.9 3.2 1.8 4.2-1.1 1 .1 1.7 2.1 3s3 3.6 2.8 5.1c0 .3 0 .8.2 1.3.5 2.1 2.2 5.4 2.6 5.4.6 0 1.4-1 3.2-.5 1.8.5 3.2 1.7 4.2 1.6 1-.1 2.2-1.4 4-1 1.8.4 2.9-.1 3.5 1.5.5 1.6 1.3 2.9 1.7 2.8.4-.1 2.1-.4 2.5.8.4 1.2 3.3.5 3.8 2.4.5 1.8 3.4 2.3 4.2 4 .8 1.7.7 1.8.6 3.2-.1 1.4 2 .7 6 2.3 4 1.5 4.3 5 5 4.6.7-.4-.3-3.6 1.2-4.1 1.5-.5 2-1.5 1-2-1-.4 1.9-2.1 2.4-.9.5 1.2 1.6 2.1 4 2.2 2.4.1 1.6.1 3.9 1.6 2.4 1.5 4-1.3 5.5-.6 1.5.7.3 3.5 1.8 3.8 1.5.3 1.5-2.3 2.1-3.2.7-1-.3-2.6 1-3 1.3-.4 0-2.1-.7-2.4-.7-.4-.7-2.5-.5-3.1.1-.6-1.4-2.6-.7-3.6s.6-5.6 3.3-4c2.7 1.6 1.4 2.6 3.8 3.5s.2 2.1 0 3c-.2 1 1.8 1.2.7 2.7-1 1.5.7 4 2.2 4.1 1.5.1 1-1.5.5-3s.7-2.8 1.3-2.4c.7.4-.4 1.5.3 2.7.7 1.3 1.4 2.6 2.1 4 .7 1.3 3.1.1 3.1-2.4 0-2.4-1.6-3.5 0-4.1 1.6-.6 1.2-1.9 2.3-1.5 1.1.4.5 1.6 2.7 1.3 2.3-.2 2.7.2 2.7.5.1.3-2.2.3-2.4 1.7-.2 1.4-.9 2.5-.6 2.8.3.3 2.7.2 2.7 1.4s-1 1.1-1.5 2.4c-.5 1.3-.4 2.9-1.7 2.5s-1.7-.5-2.9.5-2-.9-2.9.4c-.9 1.3 1.5.8-.3 1.9-1.8 1.2-4.5-1.3-5.2.7-.8 2 2.4 1.7 2.8 4 .4 2.3-1.9 3.1-3.7 3.4-1.9.3-4.5.6-4 2 .6 1.4 3.8 1.5.7 4s-5.1 4.1-5.1 6c-.1 1.8-1.4 2.3-2.3 3.2-.9.9.4.2-.2 2.9s.1 2.8 2.1 2.5c2-.2 2.4 1.5 2.4 3.1s.2 4.3 2 3.8c1.9-.5 2.4-2.2 3.6-1.7 1.2.4 1 1.2 2.4 1.1 1.4-.1 0 1.4 1.9 1.5s2.5-.1 2.6 1.8c.1 1.9 13.5.1 14.1 1.4.6 1.4-1.6 1.3-1.1 2.9.6 1.6 3.7 1 3.3 3.6-.4 2.6-.3 3.9 1.9 5.6 2.3 1.7 2.7 2.9 3.8 2.6 1-.3 1.4-1.7 2.3-.7.8.9 2.8-.1 2.7-.8-.1-.7.7-4-.8-4.5-1.6-.4-2-2-2.2-3.6-.1-1.6-2.1-3-.4-4.9 1.7-1.9 4.9-1.5 2.5-6.9-2.4-5.4-5.9-6.4-5.3-8.5.6-2.1 1.7 0 1.5-3.8-.1-3.7-2.9-3.4-2.9-5.1 0-1.7 1.9-.9.9-3-1-2.1-1-4.5 1-4.5s3.6-.3 5.1-.9 1.9 1.8 4.1 2.7c2.2.9 3.3 1.9 5.9 1.5 2.5-.3 1.5 3.4 2.2 4.6.7 1.2.6 3.3 3.4 3.3s3.3-.1 4.6-.3c1.3-.2 2.7-1 2-2.7-.7-1.7-1.8-3.3-1.2-4.2.6-.9-.9-1.3.4-1.6 1.3-.2-.9-3.6 1.8-2.9 2.7.8-.1 3.8 4.1 4.8 4.2 1 8.6 4.3 7.7 6.1-.9 1.8 1.2 4.9 4.1 4.8 2.9-.1 2.1 2.3 4.3 2.3s3.2-1.7 3.5-.4c.3 1.2.8.8-.5 2.7-1.3 1.9-2.3 1.9-1.4 3 .9 1.1 3.9-.1 4.1-1.2.2-1.1 1.2-2.4 2.2-1.7 1 .8 2.7 1.4 3.6 2.9 1 1.4 2.3 4.5 0 5.1-2.3.5-.8 2.8-2.4 4.5-1.7 1.8-3.2 4.5-6.5 4.6-3.3.1-6.6 1.5-10.4 3.7-3.8 2.1-3.5 3.2-4.4 5.6-.9 2.4-3.5 2.7-4.3 5.6-.7 2.7-1.4 5.8-.6 5.8h.2c1-.4 2.5-1.4 2.3-2.9-.2-1.4.6-2.8 2.1-4.1 1.5-1.3 1.9-5.8 5.8-5 4 .9 5.3-1.1 4.8.8-.6 1.9-.7 3.2-1.9 3.3-1.2.1-2.3 1.1-.7 2 1.7.9 2.8.3 3.4 2.3.7 2 1.2 1.6 3.2 1.6s4.4-1.6 4.5.3c.1 1.9-2.8 2-3.8 3.6-1 1.7-2.7 4.3-3.4 4.3s.1-2.2.8-3.3c.7-1.1 0-2.4-1.1-1.5-.8.6-2.2.8-2.8 1.5-.2.3-.4.7-.3 1.2.2 2-.4 3.1-2.3 3.6s-5.9 3.1-5.8 5.6c.1 2.5 1.7 5.1.7 6.5-1 1.4-6.4 1.5-6.5 4.3-.1 2.8.8 3.2-1.2 4.3-2 1.1-.2 3.3-1.2 6-1 2.6-3.5.7-3.1 3.2.4 2.5 1.2 5.4.2 5.5-1 .1-4.8-1.7-3.3.8 1.4 2.4 6 1.9 4.6 5.1-1.3 3.2 1.3.4-.2 3.4s-3.9 2.7-3.6 5c.2 2.3-.1 1.9-2.5 3.7-2.4 1.8-1.4 3.5-4.3 6-2.9 2.4-3.3 1.9-1.9 7.5s3.3 3.1 2.2 6.5c-1.1 3.4 5.8 7.2 6 11.6.2 4.4-.6 5.3-1.3 5.5-.8.2-2.9-.4-3.9-3.3s-3.2-1.8-4.3-4.3c-1.1-2.5-2.4-7.4-4-7.9-1.5-.6-4-3.2-5.7-2.1-1.8 1.1-2.4 2.5-4.2.7-1.8-1.9-3.7-2.3-7.2-1.8-3.5.6-11.5 2.2-9.5 2.8 2 .6 3.2.4 2.5 1.7-.7 1.2-1.4 2.4-3.1 2.4-1.7 0-3.7-2.2-5.4-1.1-1.7 1.1-2.8 1.2-4.9 1-2.1-.2-1.7 2.1-3.6.6-2-1.6-3.2-.1-3.1 1.1.1 1.2 1.7 1.6-.6 3-2.2 1.4-4-.4-4.3 2.2-.3 2.7-.8 2.3-2.5 4.1-1.8 1.8 1.2 3.1 1.2 6v.5c0 2.2-.3 1.4-1.4 4.8-1.2 3.6.6 7 1.3 9.2.8 2.2-.1 2.9.8 3.8.9.9-.9 4.2 3.6 5.1 4.5.9 2.8 5.5 5.4 5.6 2.7.1 6.2-.7 7 0s4.6 1.3 7.4 0c2.8-1.3 2.5-.9 4.3-1.3 1.8-.4 1.4-1.4.8-5.4-.7-4-.6-5.9 2.3-6.3 2.9-.4 7-2.9 9.3-2 2.3.9 2.7 2.7.9 4.6-1.8 1.9-2.4 2-.7 3.7 1.8 1.7.4 2.4.6 3.6.1 1.2.8 3.2-.1 3.3-.7.1-2-.7-2.2-.1"/><path class="st2" d="M209.6 286.4c1.3 1.6 2.9 3.6 4.4 4m-27.7-21.2c-.1.6.5.9 1.4.9 1 0 2.4-.4 3.4-.9 1.8-1 1.6-2.6 3.9-2.4 2.3.1 3.6.1 6.6-.4s2.9-1 3.2.1c.2.6 1 .7 1.8.9.6.2 1.2.4 1.3.8.2 1-1.3 2.4-.9 5.2.4 2.9 3 4.9 1.8 6-1.2 1-2 4-.7 5.2.4.4.9 1 1.5 1.8m-24.9-26.1v.6c.3 1.7 2.1 2.7 1.7 3.8-.4 1.1.1 3.2-.1 4.5"/><path class="st3" d="M249.6 283.4c0 .2 0 2.3-1.4 4-1.5 1.8-2.8.9-2.6 3.7.2 2.8-1.4 2-1.1 3.9.3 1.9 3 .6 3 3.1s-.6 5.9 2.2 6c2.7.1 4.1-1.8 5.6-.6 1.6 1.1 1.2 2.5 4.5 2.7 3.3.2 7.6-.5 6.4 1.3-1.2 1.9-1.8 5-.6 6.4 1.1 1.4 2.9 2.8 2 4.3-.9 1.6-.6 2.2.3 3.7l.2.3c.6 1.2.3 1.8 2.3 4 2.1 2.4 1.8 1 3.2 1s2.8 1 3.5-.2c.6-1.2.5-1.9 1.9-2 1.4-.1 3.6-1.5 3.1-2.8-.5-1.3-1.7-.6-2.1-2.7-.4-2.1-3-4.2-2.3-5 .7-.8 3.4 1.1 4.4 1.2 1 .1 1.6-.8 2.1.3s.8-.3 1.7-.9c.9-.6 2 .1 5-.7 2.7-.7 3-2.9 2.5-3.8 0-.1-.1-.2-.2-.3-.7-.6-2 .8-1.6-1.8.4-2.6-.3-3.8 1.5-3.9 1.8-.1.6-1.4.5-2-.1-.6 3.2-3.6 3.5-3.8"/><path class="st3" d="M306.8 307.5c-.1.2-.6 1.8 0 3 .7 1.3-1.4 1-2.3 1.9-.9.9-2.3 2.3-1.1 3.8s1.6 1.9 2.1 3.8c.4 1.2.8 1.8.6 2.5-.1.4-.5.9-1.2 1.7-1.9 2.1-1.9 2.9-4.8 2.6-2.9-.4-2.9-1.9-3.9-4s-.8-2.9 0-4.3 2-2 .7-3.3c-1.3-1.4-1.7-3.4-1.7-3.8.1-.4-.7-1.2-2-.7m25-2.7s1.3 1.9 0 3.2c-1.3 1.4.1 3.5 0 5.7-.1 2.1 0 4.8-1 5-.5.1-.7-.1-1-.2-.4-.2-.9-.5-2.3-.3-2.4.4-2 .2-2.2 1.1-.2.9-1 1.8-2.5 1.7-1.5-.1-2.6-1.5-2.6-1.5"/><path class="st3" d="M328.9 314.9s-1.5 2-3 3.7c-1.6 1.7-1.4 3.8-2.6 4.3-1.1.6-3.1.2-4.9.5-1.8.3-2.3-1.7-2.3-1.7m-94 4.6s2.6-.9 2.8 0c.1.9 1.6 3.3 3.6 3.3s3.4-1.4 4.7 0c1.3 1.4 1.6 2.2 3.8 2.2h.6c1.5.2 1.7 1.2 2.3 2.5.6 1.4 2.1 0 2.8 1.7.8 1.7 1.1 4.6 2.8 4.8 1.6.1 4.7.1 5.5-.4.9-.6 1.7-.7 3.1.1 1.4.8 3.8.6 2.3 1.9-1.4 1.3-1.6 2.3-1.4 3.1.2.4.7.9 1.2 1.1.4.2.8.4.9.4.4 0 1.6-2.7 1.6-4.4 0-1.7.6-3.2 1.1-4.8.5-1.6-1.8-4.2-2-5.8-.2-1.6-1.1-1.9-.1-2.4 1-.6 1.9-.4.9-1.8-1-1.3-1.1-1.8-.1-2.7 1-.9 3.4-.1 5.6-.4 2.2-.4 3.6-2.3 3.6-2.3"/><path class="st3" d="M217.4 343.5c-.1.2-.5 1.3.5 2.3 1.1 1.1-1.4 2.3 0 3.1 1.4.9 3-1.9 3.8 0 .9 1.9 1.6-1 2.1-2.6.4-1.6.6-2.9 4.5-3.4 4-.6 6.9-4 7.3-5.8.4-1.7 2-5.2 2-5.2m19.6 15.1s-.4-.2-.9-.4c-1-.2-2.1-.1-3 .4-2.1 1.1-2.3 2-4.3 2.2-2 .2-2.2.6-2.7 2.1-.5 1.6-1.4.5-2.7 2.7-1.3 2.2-.1 3.1-1.1 4.5s-.1 2.8 1.1 5.6c1.1 2.8 1.5 3.2 3.5 3.8 2 .6 1.6 2.6 2.6 2.2 1-.4 3.3-2.9 4.4-1.8 1.1 1.1.4 1.6.8 3.7s-.6 1.6 2.4 2c.5.1 1 .2 1.5.4 1.8.6 2.2 1.9 1.7 3.2-.6 1.6-.7 3.3.2 5.5.9 2.2 1 2.5 0 4.8-1.1 2.3-1.8 2.8-.8 4.4 1 1.6 1.6 2.4.4 4-.4.5-.9 1.1-1.3 1.7-.9 1.2-1.7 2.4-1.8 3.3-.1 1.5-2.2 1.6-2.2 1.6"/><path class="st3" d="M272.7 565s-1.9.5-6.1.8c-4.2.3-4.8-.2-4.8-2s-.4-8-3.4-8.6c-3-.6-.7-2.4-5.1-4.7-4.4-2.2-7.7-1.2-7.7-3.4s-2.6-2.8-3.1-5.3c-.2-.9-.2-1.8-.1-2.7.3-1.7 1.2-3.2 2.8-3.8 2.4-.9 3.2-2.4 3.3-6.2.1-3.8-.2-6.5 1.2-7s1.9-4.3 1-5.6c-1-1.4-3.4-3-1.9-5s2-3.9.9-7.7c-1.2-3.7-1.4-8.6.2-10.2 1.6-1.6 3.5-4.5 1.9-7.5s1.4-9.2 2.8-10.3c1.4-1.2 4.1-4.5 2.9-6.8-1.1-2.3-2.8-6.4-1.9-8.6.9-2.2-2.2-4.3-.4-7.7 1.8-3.4 2.8-4.9 2.8-9.6 0-4.7 3.8-3.9 5.1-7.9 1.3-4-.5-6.5 1.1-8.5s4.9-3.6 3.2-6.3c-1.7-2.7-2.7-2.2-2.9-5.9-.2-3.6-2.2-3.7-2-5.5.2-1.8-.1-4.4-1.8-5.8s-1.7-5-1.7-5m42.8 71.1s-1.2-1.2-.8-2.5c.4-1.3 2.2-.3 2.3-2.8.1-2.4-3.5-3.8-1.8-6.7 1.7-2.9 2.2-6.8 4-7.1 1.8-.3 2.8-.9 3.4.9.6 1.8 1.7 4.7 2.3 4 .6-.7 1.3-2 3.2.3 1.9 2.4 4.9 1.7 5.1 3.6.2 1.9 1 7.1 1.1 7.5"/><path class="st3" d="M267.4 420.2s2.1-4.3 4.5-3.2c2.4 1.1 5.3 1.5 6.3 1.5s2 1.4 2.7 0c.6-1.4 1.9-1.8 3.2-1.7 1.3.1 2-.1 2.4-3.3.4-3.2 1.7-4.9 4.7-5.4s4-.2 5.9-1.1c1.9-.9 3.8 1.1 5.9.6 2-.4.7-2.4 1.7-4.6 1-2.2-1.3-2.9-1.7-6-.4-3.1-1.7-3.4-4.9-4.1-3.2-.6-3.6-2.7-3.6-5.3s-.5-3.1-3.1-4c-2.6-.9-2.2-2.1-4.7-2.3-2.5-.2.3-1.6-5.4-2.7-5.8-1.1-5.2-3.5-5.5-6.5-.3-3 1.4-3.8-2.9-3.2s-5 3.1-7.1 3c-2.1-.1-6.8 2.5-6.8 2.5"/><path class="st3" d="M305.6 450.2s.2-4 3-4.7c2.8-.7 3.8-2.3 5.3-4 1.5-1.7 4.1-.6 5.1-4 1.1-3.4-.1-6.3-1.3-6.6-.4-.1-.6-.4-.7-.8-.1-.8.1-2-.1-4-.3-3.1-2-.9-3-.9s-1-2.6-2.4-4.9c-1.5-2.3-1.7-1.2-4.8-2.6-3.1-1.4-3.1-1.1-2.9-3.3.2-2.2-1.1-6.7-1.1-6.7"/><path class="st3" d="M284 416.8s1.1 2.7 3.1 3.4c2 .6 5.8 4.6 9 5.2 3.2.6 2.7 1.6 4.2 2.8 1.5 1.2 5.2.6 5.5 2.6.3 1.9-1.9.4-2.4 3.4s-.4 2.8-1.7 4.4c-1.3 1.6.7 4.2 3.1 2.7 2.4-1.5 2.2-2.9 4.6-2.7 2.3.2 5-1 6.1-1.8 1.1-.9 1.7-6.8 1.7-6.8m-81.3-139.7c.7.5.9 1 .6 1.7-.4.9 2.4 3.1.7 3.3-1 .1-2.5.2-3.5 0-.6-.1-1-.4-.9-.9.4-1.2.6-3.1-.9-3s-1.9-.4-2.7-.6c-.7-.2-2.8.3-3.2.7-.4.4.2 1.6-.9 2-1.1.4 2.8 3.5.9 4.1-1.8.7-2.4-.6-4.3-.6s-.8-1.3-3.3-1.6c-2.5-.2-1.7-.2-3.3 1.1-1 .8-1.4 1-2 .9 0 0-.8-2.1 0-2.9.8-.8-.6-1.7-.4-2.7.2-1 .9-1.4.9-1.4 2.1.7 3.3 2.1 6 2.1s5-4 7.9-3.7c2.9.3 6.4.4 7.5 1 .6.2.8.3.9.5zM57.5 71l30.6-38.7m-14.8 98s77.9 1.6 82.6 2.5c4.7.9 3.8 2.1 10.8 1.8s11.6 3.4 14.6 5c2.9 1.6 7.1 6.6 6.8 10.6-.3 4-2 7.4 0 7.8 2.1.4 2.2-1.5 5.1-3.4 2.9-1.9 5.8-1.3 5.9-2.5.1-1.2-2.1-2.2 1.3-3.5 3.4-1.3 4.4-.8 4.9-4.4.4-3.6 1.9-5.6 5.3-6.2 3.4-.6 4.7-.3 7.5-4.1 1.9-2.6 1.7-4 2.2-5 .2-.4.6-.8 1.5-1.2 2.7-1.2 2.7-3.2 4.4-2.1 1.8 1.2.9 2.2 2.2 4 1.3 1.8 3.5 1.5 3.5 1.5M75.5 205s6.3-.6 6.9 0c.4.5.8 1.7 2 2.4.4.2.9.4 1.6.4 2.6.2 5 .6 7.5 1.7s7.4 1 9.5 0c2.1-1 5.1-1.4 7.3-.9 2.2.6 3 1 5.3 4.5s3.5 2.8 5.5 4.9c2 2.1 1.7-2.4 3.8-2.2 2.1.2 5.2.2 6.6 3.6 1.4 3.4 4.1 2.9 4.4 6.1.3 3.2.6 3 3.8 4.9 3.1 1.8 5.5 1.4 5.7 1.3m26.1 46.1s-.1-2.1 0-4 2.3-2.6 4.6-2.9c2.3-.3 2.8-2.5 2.1-3.3-.7-.8-2.1-2.8-1.8-3.2.3-.4.7-1 2.8-1 1 0 1.5.1 1.9 0 .5 0 .8-.1 1.5-.6 1.2-.8 2.1-2.3 2.2-2.5"/><path class="st3" d="M186.3 269.2c-.1 0-.9.2-1.6 1-.7.9-1.7 1.4-2 .3-.3-1.1.4-2.9-.8-4.3-1.2-1.3-.9-2.9-.9-2.9m6.7 6.8c.1.2.7 1.1-1.4 2-2.3.9-2.9.8-2.6 1.8.2.9.8 1.3 0 2.2-.2.2-.4.4-.7.6-1.7 1.2-2 2.6-1.9 3.3"/><path class="st3" d="M190 281.1s.9-1.3.4-2.7c-.5-1.4-3.5-2.5-6.8-2.3m22.9-8.8c-.1.2-1.1 2.7-2.1 3.2s-3.6-.9-4.3 0c-.7.9.5 2.8-.4 3.8s-2.7-1.1-4.3.7c-1.6 1.8-.8 6.6-2.8 6.5m7 6.6s.6-1.5 3.1-2c2.4-.5 2.1-.5 3.3 0 1.1.5 3.4.3 3.6.2"/><path class="st1" d="M278.1 418.5c-1 0-3.9-.4-6.3-1.5-2.3-1.1-4.5 3.2-4.5 3.2-1.7-2.7-2.7-2.2-2.9-5.9-.2-3.6-2.2-3.7-2-5.5.2-1.8-.1-4.4-1.8-5.8s-1.7-5-1.7-5c.4-.6.9-1.2 1.3-1.7 1.2-1.6.6-2.4-.4-4s-.3-2.1.8-4.4c1-2.3.9-2.6 0-4.8-.9-2.2-.8-3.9-.2-5.5.5-1.3.1-2.6-1.7-3.2 0 0 4.7-2.6 6.8-2.5 2.1.1 2.9-2.3 7.1-3s2.6.2 2.9 3.2c.3 3-.2 5.4 5.5 6.5 5.8 1.1 3 2.4 5.4 2.7 2.4.2 2.1 1.5 4.7 2.3 2.6.9 3.1 1.3 3.1 4s.4 4.7 3.6 5.3c3.2.6 4.5 1 4.9 4.1.4 3.1 2.7 3.8 1.7 6-.9 2.2.3 4.2-1.7 4.6-2 .4-4-1.5-5.9-.6-1.9.9-2.9.5-5.9 1.1-3 .5-4.3 2.2-4.7 5.4-.4 3.2-1.2 3.4-2.4 3.3-1.3-.1-2.6.3-3.2 1.7-.5 1.4-1.5 0-2.5 0zM244.4 295c-.3-1.9 1.4-1.1 1.1-3.9-.2-2.8 1.1-1.9 2.6-3.7 1.4-1.7 1.4-3.8 1.4-4 .6-.4 1-.6 1.4-.6 1.3.1 1.7.5 1.3 1.2-.4.7-1 .8-1.5 1.4-.5.6-.4 1.2.1 2.6.5 1.3-1.6 2.4-2.1 4-.5 1.5.9 3.8 2.7 3.6 1.8-.2 1.3-1.9.9-3.9s0-3.2 1.3-3.7c1.3-.4 3.6-.9 3.7-1.5.2-.6 0-2.3.6-2.2.6.1.5 1.5 1.8 1.8 1.2.3 3.3-.1 3.7 1.3.5 1.4 0 3.5 3 3.4 3-.1 3-1.1 5.6.2 2.6 1.3 3.2 1.7 5.4.4 2.1-1.2 5.3-1.3 5.6-1.6.2-.4-.2-.1-.1-.6s.5-.6 1.3-.4c.8.2 1.5.4 2.6.5 1.1.1 1.1 1 0 1.2-1.1.2-1.2.7-1.4 1-.2.3.6.9 1.4.8.8 0 3.6.5 4.5 1.1.9.6 1.5 1.5.5 1.8-1 .3-.9 1.6-1.1 2.1-.1.4 1.5.7 3 .4 1.5-.3 1.6 0 2.4.6.2.1.4.3.6.5-.3.3-3.5 3.2-3.5 3.8.1.6 1.2 1.9-.5 2-1.8.1-1.1 1.3-1.5 3.9-.4 2.6.9 1.3 1.6 1.8.1.1.2.2.2.3.5.9.2 3.1-2.5 3.8-3.1.9-4.1.1-5 .7-.9.6-1.2 2-1.7.9s-1.1-.2-2.1-.3c-1-.1-3.7-2-4.4-1.2-.7.8 1.9 2.9 2.3 5 .4 2.1 1.6 1.4 2.1 2.7.5 1.3-1.6 2.7-3.1 2.8s-1.3.8-1.9 2c-.6 1.2-2.1.2-3.5.2s-1.1 1.4-3.2-1c-2-2.2-1.7-2.8-2.3-4-.1-.1-.1-.2-.2-.3-.8-1.5-1.2-2.1-.3-3.7.9-1.6-.9-2.9-2-4.3s-.6-4.5.6-6.4c1.2-1.8-3.1-1.1-6.4-1.3-3.3-.2-3-1.6-4.5-2.7-1.6-1.1-2.9.8-5.6.6-2.7-.1-2.2-3.5-2.2-6s-2.4-1.1-2.7-3.1z"/></g><path class="st1" d="M213.3 294.5c-.8.8 0 2.9 0 2.9-.4-.1-.8-.3-1.4-.5-1.5-.7-.5-1-2.8-2.4s-.9-1.6-3.5-1.3c-2.5.2-.9-1.3-3.9-1.6-2.2-.2-1.4-1.7-2.4-3.4l.2-.1s.6-1.5 3.1-2c2.4-.5 2.1-.5 3.3 0 1.1.5 3.4.3 3.6.2 1.3 1.6 2.9 3.6 4.4 4 0 0-.7.4-.9 1.4-.3 1.2 1.1 2 .3 2.8z" id="Costa_Rica"/><path class="st1" d="M86 207.9c2.6.2 5 .6 7.5 1.7s7.4 1 9.5 0c2.1-1 5.1-1.4 7.3-.9 2.2.6 3 1 5.3 4.5s3.5 2.8 5.5 4.9c2 2.1 1.7-2.4 3.8-2.2 2.1.2 5.2.2 6.6 3.6 1.4 3.4 4.1 2.9 4.4 6.1.3 3.2.6 3 3.8 4.9 3.1 1.8 5.5 1.4 5.7 1.3 0 2.2-.3 1.4-1.4 4.8-1.2 3.6.6 7 1.3 9.2.8 2.2-.1 2.9.8 3.8.9.9-.9 4.2 3.6 5.1 4.5.9 2.8 5.5 5.4 5.6 2.7.1 6.2-.7 7 0 .8.7 4.6 1.3 7.4 0 2.8-1.3 2.5-.9 4.3-1.3 1.8-.4 1.4-1.4.8-5.4-.7-4-.6-5.9 2.3-6.3 2.9-.4 7-2.9 9.3-2 2.3.9 2.7 2.7.9 4.6-1.8 1.9-2.4 2-.7 3.7 1.8 1.7.4 2.4.6 3.6.1 1.2.8 3.2-.1 3.3-.7.1-2-.7-2.2-.1-.1.2-1 1.7-2.2 2.5-.7.4-1 .6-1.5.6h-1.9c-2.1 0-2.5.6-2.8 1-.3.4 1.1 2.4 1.8 3.2.7.8.2 3-2.1 3.3-2.3.3-4.5.9-4.6 2.9-.1 1.9 0 4 0 4-2.5-2.1-4.9-4.8-8.4-5.6-4.6-1-6.2.9-9.1 1.1-2.9.2-5.8-1.7-11.1-1.7s-5.1-.5-9.2-2.8c-4.1-2.2-3.5-2.2-6.7-2.9-.6-.1-7.1-.9-8.9-4.3-1.9-3.4-2.4-4.6-1.3-5.9 1.1-1.2-3-7.6-4.9-8.6-1.9-1-1.7-2.2-4.3-6.2-2.7-4-3.4-5-7.1-7.8-3.7-2.9-7-6.6-8.1-9.6-1.1-3-3.5.2-4.2-6-.6-5.4-3.8-8.4-5.1-8.4l1.2-1.7c.6.2 1.1.3 1.8.4z" id="Mexico"/><path class="st1" d="M221.7 348.9c-.9-1.9-2.4.9-3.8 0s1.1-2.1 0-3.1c-1-1-.6-2.1-.5-2.2 1-1 .2-2-.5-2.2-.7-.2-2-1.7-1.5-2.9s.6-2.7.7-4.1c.1-1.4 1-3.1 3.1-4.2 2.1-1.2 2.9-3.7 2.9-3.7s2.6-.9 2.8 0c.1.9 1.6 3.3 3.6 3.3s3.4-1.4 4.7 0c1.3 1.4 1.6 2.2 3.8 2.2h.6s-1.6 3.5-2 5.2c-.4 1.7-3.3 5.2-7.3 5.8-4 .6-4.1 1.8-4.5 3.4-.5 1.4-1.2 4.4-2.1 2.5z" id="Ecuador"/><path class="st1" d="M257.2 347c.4 0 1.6-2.7 1.6-4.4 0-1.7.6-3.2 1.1-4.8.5-1.6-1.8-4.2-2-5.8-.2-1.6-1.1-1.9-.1-2.4 1-.6 1.9-.4.9-1.8-1-1.3-1.1-1.8-.1-2.7 1-.9 3.4-.1 5.6-.4 2.2-.4 3.6-2.3 3.6-2.3.6 1.2.3 1.8 2.3 4 2.1 2.4 1.8 1 3.2 1s2.8 1 3.5-.2c.6-1.2.5-1.9 1.9-2 1.4-.1 3.6-1.5 3.1-2.8-.5-1.3-1.7-.6-2.1-2.7-.4-2.1-3-4.2-2.3-5 .7-.8 3.4 1.1 4.4 1.2 1 .1 1.6-.8 2.1.3s.8-.3 1.7-.9c.9-.6 2 .1 5-.7 2.7-.7 3-2.9 2.5-3.8 1.2-.6 2 .3 2 .7-.1.4.4 2.4 1.7 3.8 1.3 1.4.1 2-.7 3.3-.8 1.3-1 2.2 0 4.3 1 2.1 1 3.6 3.9 4 2.9.4 2.8-.5 4.8-2.6.7-.7 1-1.2 1.2-1.7l.5.2s1.1 1.4 2.6 1.5c1.5.1 2.3-.8 2.5-1.7.2-.9-.2-.8 2.2-1.1 1.4-.2 1.9 0 2.3.3 0 0 .6 2 2.3 1.7 1.8-.3 3.8.1 4.9-.5 1.1-.6 1-2.6 2.6-4.3 1.6-1.7 3-3.7 3-3.7.3.3.7.7 1.1 1.2 1.5 1.9-.2 5.4 3 6.7 3.2 1.3 2.6 2.9 1.3 4-1.3 1.2-1.4 1.4-3.4 3.2-2 1.8.9 2.5 2.3 1.5 1.5-1 2.9-.9 4-.2 1.2.6 3.8-.2 3.4 1.2-.4 1.4-2.1 4.3-.9 4.3 1.3 0 1.2-1.6 2.5-2.5 1.3-.9 3.4-1.1 4.9.2 1.5 1.3 7.9.3 8.3 2.2.4 1.9-1.5 5.4 0 5.4s1.2-2.5 3-2c1.8.4 5.8 2.5 8.6 2 2.9-.5 5.6-1.8 8 1.5 2.3 3.3 4.8 5.1 8.1 5.4s6.3-1.8 7.1 2.8c.9 4.6 4.4 8.2.9 14.1-3.4 5.9-4.6 6.5-7.2 7.3-2.7.9-1.8 6.8-3.8 6.7-2-.1-3.2-.4-3.1.9.1 1.3.9 1.5-.5 3.5s-.1 9.5.5 11.5-1.4 2.7-2.1 4.3c-.7 1.6 1.1 4.9-1.4 6.6-2.5 1.7-.4 4.1-2.6 6.1-2.1 2-.9 4.9-2.3 5.1-1.4.2-1 1.5-4 2.6-3.1 1.1-8.1-.7-11.2 1.8-3.1 2.6-2.2 3.3-6.9 3.5-4.7.2-3.5 5.1-5.4 5.4-1.9.3-1.5.9-1.6 4.7-.1 3.8 1.6 8.3-1.6 8.5-3.2.2-2.4 5.1-4.5 7.6-2 2.5-4 5.8-4.4 4.7-.3-1.1.5-1.6.9-3.5.3-1.9 1.7-2.4-.5-2.4s.1 3.2-1.4 4.7-1.8 1.4-2.8 4.8c-.9 3-2.5 5-4.5 6.2-.1-.3-.9-5.6-1.1-7.5-.2-1.9-3.2-1.3-5.1-3.6-1.9-2.3-2.6-1.1-3.2-.3-.6.7-1.7-2.1-2.3-4-.6-1.8-1.6-1.3-3.4-.9 0 0 .2-4 3-4.7 2.8-.7 3.8-2.3 5.3-4 1.5-1.7 4.1-.6 5.1-4 1.1-3.4-.1-6.3-1.3-6.6-.4-.1-.6-.4-.7-.8-.1-.8.1-2-.1-4-.3-3.1-2-.9-3-.9s-1-2.6-2.5-4.9c-1.5-2.3-1.7-1.2-4.8-2.6-3.1-1.4-3.1-1.1-2.9-3.3.2-2.2-1.1-6.7-1.1-6.7 2-.4.7-2.4 1.7-4.6 1-2.2-1.3-2.9-1.7-6-.4-3.1-1.7-3.4-4.9-4.1-3.2-.6-3.6-2.7-3.6-5.3s-.5-3.1-3.1-4-2.2-2.1-4.7-2.3c-2.4-.2.3-1.6-5.4-2.7-5.8-1.1-5.2-3.5-5.5-6.5-.3-3 1.4-3.8-2.9-3.2s-5 3.1-7.1 3c-2.1-.1-6.8 2.5-6.8 2.5-.5-.2-1-.3-1.5-.4-3-.4-1.9.1-2.4-2-.4-2.1.3-2.6-.8-3.7s-3.4 1.4-4.4 1.8c-1 .4-.6-1.6-2.6-2.2-2-.6-2.3-1.1-3.5-3.8-1.1-2.8-2.1-4.2-1.1-5.6 1-1.4-.2-2.3 1.1-4.5s2.2-1.1 2.7-2.7.7-1.9 2.7-2.1c2-.2 2.1-1.1 4.3-2.2.9-.5 2-.6 3-.4.6 0 1 .2 1.1.2z" id="Brasil"/><g id="Chile"><path class="st1" d="M242.5 539l-2.2-.4m2.3-.1c-1.2 3.5 2.8 5.7 3.1 8.3 0 2.2 3.3 1.2 7.6 3.5s2.1 4.1 5.1 4.7c8.4 6.5-4.4 13.4 14.2 10 1.3 1.2-2.1 4.6-4.7 4.1-3.2-.3-2.9-2-5.5-1.6-2.7.4-7.7.1-8.8-2.8-1.6-10.5-11.5-5.6-12.1-12.7.6-3.8-2.6-6.1-2.2-8.1.1-1.1.2-3.1 1.2-5.6"/><path class="st1" d="M240.3 538.5c1-3.8-3.4-10.8-1.3-13.7 1.3-1.1.9-6.7 2.8-7.6 1.9-.9 2.2-5.5 2.6-7.2.5-2.9 3.2-11.6-1-5.3-1.7 1.4-1.8 3.7-2.8 3.7s-1-3 .1-4.8c1.1-1.8 2.4-2.6 2.3-5-.1-2.5.1-5.7.7-7.9-.2-6.8-2-10.1 3.2-16.3 1.8-2.4.5-6.4 2.7-8.7 2.1-2.4 1-2.9.7-9.5-.2-6.6.2-6.6.9-7 .6-.4-1.2-1.2-.7-3.3 1.2-6.1 4.9-14.6 4.7-21.6-.3-3.6-2.5-4.2-.3-9.3 2.2-5.6 1.4-10 .1-12 2.3.3 2.3-3.3 4-5-.6 3.7 4.5 6.5 3.5 10.8-.2 1.8 1.8 1.9 2 5.5.2 3.6 1.2 3.2 2.9 5.9s-1.6 4.3-3.2 6.3.2 4.6-1.1 8.5c-1.3 3.9-5.1 3.2-5.1 7.9s-1 6.2-2.8 9.6c-1.8 3.4 1.4 5.4.4 7.7-1.6 5.7 5.8 10.2-1.1 15.4-7.1 8.1 1.3 12.1-4.7 17.8-3.6 3.4 2.9 14.3-1.1 17.9-1.5 2 .9 3.6 1.9 5 1 1.4.4 5.1-1 5.6s-1.1 3.2-1.2 7c.7 6.8-5.2 4.9-6.2 10"/></g><path class="st1" d="M302.8 407.6s1.3 4.5 1.1 6.7c-.2 2.2-.2 1.9 2.9 3.3s3.3.2 4.8 2.6c1.5 2.3 1.5 4.9 2.5 4.9s2.7-2.2 3 .9c.2 1.9 0 3.2.1 4 0 0-.6 6-1.7 6.8-1.1.8-3.7 2-6.1 1.8-2.3-.2-2.1 1.2-4.6 2.7-2.4 1.5-4.4-1.1-3.1-2.7 1.3-1.6 1.2-1.4 1.7-4.4.5-3 2.7-1.5 2.4-3.4-.3-1.9-4-1.4-5.5-2.6-1.5-1.2-1-2.1-4.2-2.8-3.2-.6-6.9-4.6-9-5.2-2-.6-3.1-3.4-3.1-3.4 1.3.1 2-.1 2.4-3.3.4-3.2 1.7-4.9 4.7-5.4s4-.2 5.9-1.1c1.9-.9 3.8 1.1 5.8.6z" id="Paraguay"/><path class="Colombia" d="M224.8 326.3c-.1-.9-2.8 0-2.8 0-.1-.2-1.2-1.9 1-2.8 2.2-1 .4-3.2 3-3.5 2.6-.3 3.4-3.2 3-4.9-.4-1.7-.4-3.3.1-6.7.5-3.4-2.9-4.8-2.4-5.7.4-1 2.7-6.1 5.2-6.9 1.3-.4 1.7-.3 1.9-.5 1 .2 2.5.1 3.5 0 1.6-.2-1.1-2.4-.7-3.3.3-.7.1-1.2-.6-1.7.7-1.3 1.3-1.9 2.5-2 1.9-.1 2.4 1.6 3.6 0 1.2-1.6.9-1.7 2.7-1.8 1.3-.1 3.3-2 4.8-3 0 .2 0 2.3-1.4 4-1.5 1.8-2.8.9-2.6 3.7.2 2.8-1.4 2-1.1 3.9.3 1.9 3 .6 3 3.1s-.6 5.9 2.2 6c2.7.1 4.1-1.8 5.6-.6 1.6 1.1 1.2 2.5 4.5 2.7 3.3.2 7.6-.5 6.4 1.3-1.2 1.9-1.8 5-.6 6.4 1.1 1.4 2.9 2.8 2 4.3-.9 1.6-.6 2.2.3 3.7l.2.3s-1.4 1.9-3.6 2.3c-2.2.4-4.6-.4-5.6.4-1 .9-.9 1.3.1 2.7 1 1.3.1 1.2-.9 1.8-1 .6-.1.9.1 2.4.2 1.6 2.5 4.1 2 5.8-.5 1.6-1.1 3.1-1.1 4.8s-1.3 4.4-1.6 4.4c0 0-.4-.2-.9-.4-.5-.3-1-.7-1.2-1.1-.3-.8-.1-1.8 1.4-3.1 1.4-1.3-.9-1.1-2.3-1.9-1.4-.8-2.3-.6-3.1-.1-.9.6-3.9.6-5.5.4-1.6-.1-2-3.1-2.8-4.8-.8-1.7-2.2-.4-2.8-1.7-.6-1.2-.7-2.2-2.3-2.4h-.6c-2.1 0-2.5-.8-3.8-2.2-1.3-1.4-2.7 0-4.7 0-2.4 0-3.9-2.4-4.1-3.3z" id="Colombia"/><path class="Argentina path" d="M258.4 555.1c-3-.6-.7-2.4-5.1-4.7-4.4-2.2-7.7-1.2-7.7-3.4s-2.6-2.8-3.1-5.3c-.2-.9-.2-1.8-.1-2.7.3-1.7 1.2-3.2 2.8-3.8 2.4-.9 3.2-2.4 3.3-6.2.1-3.8-.2-6.5 1.2-7s1.9-4.3 1-5.6c-1-1.4-3.4-3-1.9-5s2-3.9.9-7.7c-1.2-3.7-1.4-8.6.2-10.2 1.6-1.6 3.5-4.5 1.9-7.5s1.4-9.2 2.8-10.3c1.4-1.2 4.1-4.5 2.9-6.8-1.1-2.3-2.8-6.4-1.9-8.6.9-2.2-2.2-4.3-.4-7.7 1.8-3.4 2.8-4.9 2.8-9.6 0-4.7 3.8-3.9 5.1-7.9 1.3-4-.5-6.5 1.1-8.5s4.9-3.6 3.2-6.3c0 0 2.1-4.3 4.5-3.2 2.4 1.1 5.3 1.5 6.3 1.5s2 1.4 2.7 0c.6-1.4 1.9-1.8 3.2-1.7 0 0 1.1 2.7 3.1 3.4 2 .6 5.8 4.6 9 5.2 3.2.6 2.7 1.6 4.2 2.8 1.5 1.2 5.2.6 5.5 2.6.3 1.9-1.9.4-2.4 3.4s-.4 2.8-1.7 4.4c-1.3 1.6.7 4.2 3.1 2.7 2.4-1.5 2.2-2.9 4.6-2.7 2.3.2 5-1 6.1-1.8 1.1-.9 1.7-6.8 1.7-6.8.1.4.2.7.7.8 1.2.3 2.3 3.2 1.3 6.6-1.1 3.4-3.6 2.3-5.1 4-1.5 1.7-2.6 3.3-5.3 4-2.8.7-3 4.7-3 4.7-1.8.3-2.3 4.3-4 7.1-1.7 2.9 1.9 4.3 1.8 6.7-.1 2.4-1.9 1.5-2.3 2.8-.4 1.3.8 2.5.8 2.5 0 .4.7 1.1 1.9 1.7 2 1.2 2.7 1.6 1.1 2.8-1.6 1.2.3 2.9 2 3.2 1.7.3.9 2.7-2.7 5.4-3.6 2.8-.7 3.3-4.3 4.5-3.5 1.2-5.3 1.7-9.3 1.5-3.9-.2-4.3.4-3.8 1.9.4 1.5.5.9-.6 1.8-1.2 1-.9 2.3-.9 4.5 0 2.1-2 1.5-3.3 1.3-1.3-.2-2.9-.9-4.8-.3-1.9.5-.6 4.5-.5 4.9.1.4 1.7 1.4 3.4.7 1.7-.6 2.4 3.1 1 3.3-1.4.2-2.2-1.9-3.7-.7s1.1 1.8.4 2.6c-.6.7-.7-1.5-2.1 0-1.4 1.5-.8 3.5-.7 5 0 1.5-1.1 1-1.3 2.5-.2 1.5-1 1.3-3.6 1.9-2.6.6-3.2 2.3-2.7 4.9.5 2.6 4.4.9 5 2.7.6 1.8.4 2.5-.3 4.2s-1.1 1.8-3.8 4.3c-2.7 2.4-2.6 3.4-2.7 4.8-.1 1.5-1.2 1.9-2.9 2.2-1.7.4-2.3 2.5-2.3 3.4-.1.9-.7 3.7 1 5.8 1.7 2.1 1.9 2.1.6 2.5-1.3.4-1.7 1-.9 1.4.7.4 2.8 2.3 1.8 3.5-1 1.2 1.7 3.9 3.9 5.3 1.7 1 4.9 1.5 6.1 2.3 0 0-1.9.5-6.1.8-4.2.3-4.8-.2-4.8-2-.5-2-.9-8.2-3.9-8.8z" id="Argentina"/><path class="st1" d="M214.3 353.6c1-1.3-1.5-7 .3-8.1 1.8-1.1 1.7-1.1 2.8-2-.1.2-.5 1.3.5 2.2 1.1 1.1-1.4 2.3 0 3.1 1.4.9 3-1.9 3.8 0 .9 1.9 1.6-1 2.1-2.6.4-1.6.6-2.9 4.5-3.4 4-.6 6.9-4 7.3-5.8.4-1.7 2-5.2 2-5.2 1.5.2 1.7 1.2 2.3 2.5.6 1.4 2.1 0 2.8 1.7.8 1.7 1.1 4.6 2.8 4.8 1.6.1 4.7.1 5.5-.4.9-.6 1.7-.7 3.1.1 1.4.8 3.8.6 2.3 1.9-1.4 1.3-1.6 2.3-1.4 3.1.2.4.7.9 1.2 1.1-1-.2-2.1-.1-3 .4-2.1 1.1-2.3 2-4.3 2.2-2 .2-2.2.6-2.7 2.1-.5 1.6-1.4.5-2.7 2.7-1.3 2.2-.1 3.1-1.1 4.5s-.1 2.8 1.1 5.6c1.1 2.8 1.5 3.2 3.5 3.8 2 .6 1.6 2.6 2.6 2.2 1-.4 3.3-2.9 4.4-1.8 1.1 1.1.4 1.6.8 3.7s-.6 1.6 2.4 2c.5.1 1 .2 1.5.4 1.8.6 2.2 1.9 1.7 3.2-.6 1.6-.7 3.3.2 5.5.9 2.2 1 2.5 0 4.8-1.1 2.3-1.8 2.8-.8 4.4 1 1.6 1.6 2.4.4 4-.4.5-.9 1.1-1.3 1.7-.9 1.2-1.7 2.4-1.8 3.3-.1 1.5-2.2 1.6-2.2 1.6-1.1-1.9-3.5-6.5-8.5-7.8-5.4-1.5-14.3-6.4-14.2-8.9.1-2.6.1-1.7-1.2-4.6-1.3-2.9-4.8-7.5-6.2-11.7-1.4-4.3-3.7-9.8-6.9-11.5s-4.6-3.5-3.6-4.8z" id="Perú"/><path class="st1" d="M303.5 468.9c-1.2-.1-1.7.1-1.7.4 0 0-1.2-1.2-.8-2.5.4-1.3 2.2-.3 2.3-2.8.1-2.4-3.5-3.8-1.8-6.7 1.7-2.9 2.2-6.8 4-7.1 1.8-.3 2.8-.9 3.4.9.6 1.8 1.7 4.7 2.3 4 .6-.7 1.3-2 3.2.3 1.9 2.4 4.9 1.7 5.1 3.6.2 1.9 1 7.1 1.1 7.5-.2.2-.5.3-.7.4-2.3 1.2-2.5 2.9-4.8 3.1-2.4.2-2.9 2.2-6 0-3-2.3-3-.9-5.6-1.1z" id="Uruguay"/></svg>