<svg width="235" height="220" fill="none" xmlns="http://www.w3.org/2000/svg"><g opacity=".05" clip-path="url(#clip0_447_15924)"><path d="M138.84 194.413c.109-.687.54-2.038.744-3.288l1.261.258a4.313 4.313 0 00.031 1.554c.306 1.476 1.786 1.781 1.786 3.077 0 1.289 1.912.672 4.442 1.969 2.53 1.289 1.237 2.335 2.961 2.702 1.731.367 1.974 3.937 1.974 4.983 0 1.047.368 1.352 2.773 1.164 2.412-.179 3.517-.461 3.517-.461v-.007c.235.156.337.328.188.539-.556.796-1.05 1.968-2.898 1.843-1.857-.125-1.669-1.109-3.212-.859-1.543.242-4.442.125-5.115-1.539-.682-1.664-.87-3.195-2.405-3.874-1.543-.68-4.998-1.172-4.692-3.382.313-2.218-1.543-3.507-1.355-4.679zm37.318-43.474c-.674-.055-.964.039-.972.218 0 0-.697-.718-.446-1.452.243-.742 1.245-.188 1.332-1.602.086-1.413-2.014-2.21-1.027-3.874.987-1.656 1.293-3.936 2.343-4.116 1.049-.187 1.605-.492 1.974.547.368 1.046.987 2.71 1.355 2.281.376-.43.744-1.172 1.856.179 1.105 1.359 2.836.984 2.961 2.093.118 1.078.588 4.124.619 4.304v.008h-.008c-.141.086-.282.172-.431.242-1.355.68-1.417 1.664-2.773 1.789-1.363.117-1.668 1.288-3.454 0-1.794-1.297-1.794-.492-3.329-.617z" fill="#A6D5D9"/><path d="M150.065 200.681c-1.724-.367-.431-1.414-2.961-2.702-2.53-1.297-4.442-.68-4.442-1.969 0-1.296-1.48-1.601-1.786-3.077a4.313 4.313 0 01-.031-1.554c.172-.984.705-1.867 1.637-2.195 1.418-.492 1.849-1.359 1.911-3.57.063-2.21-.125-3.749.674-4.061.807-.305 1.112-2.461.556-3.257-.556-.797-1.974-1.719-1.104-2.89.861-1.172 1.167-2.273.493-4.429-.681-2.148-.807-4.983.118-5.905.924-.921 2.036-2.577 1.112-4.303-.924-1.719.799-5.288 1.606-5.968.799-.671 2.373-2.577 1.708-3.936-.658-1.352-1.645-3.687-1.089-4.976.548-1.296-1.301-2.46-.251-4.428 1.05-1.969 1.606-2.828 1.606-5.538 0-2.703 2.217-2.273 2.961-4.546.736-2.281-.313-3.757.611-4.921.924-1.171 2.843-2.093 1.856-3.632 0 0 1.23-2.46 2.585-1.843 1.363.617 3.087.883 3.643.875.556-.016 1.167.812 1.543 0 .368-.812 1.105-1.015 1.849-.976 0 0 .619 1.577 1.786 1.944 1.175.368 3.329 2.648 5.185 3.015 1.849.367 1.536.922 2.405 1.602.862.671 3.016.367 3.204 1.476.188 1.101-1.097.242-1.379 1.968-.282 1.718-.227 1.593-.963 2.515-.744.922.399 2.398 1.802 1.539 1.402-.859 1.284-1.656 2.639-1.539 1.356.125 2.899-.554 3.518-1.039.611-.492.971-3.929.971-3.929.031.258.133.414.384.485.681.179 1.355 1.843.736 3.811-.611 1.969-2.091 1.352-2.961 2.336-.862.984-1.48 1.906-3.078 2.335-1.606.43-1.732 2.71-1.732 2.71-1.049.18-1.355 2.461-2.342 4.117-.987 1.663 1.113 2.46 1.026 3.874-.086 1.413-1.088.859-1.331 1.601-.251.734.446 1.453.446 1.453-.008.234.431.609 1.089.999 1.175.688 1.543.93.619 1.609-.924.68.188 1.664 1.175 1.844.987.187.548 1.538-1.543 3.14-2.1 1.593-.431 1.906-2.468 2.577-2.036.68-3.086.984-5.366.867-2.279-.125-2.467.242-2.224 1.102.25.866.313.492-.368 1.046-.674.555-.494 1.351-.494 2.585 0 1.227-1.167.86-1.911.735-.737-.117-1.669-.492-2.773-.18-1.113.305-.368 2.585-.314 2.827.063.243.987.797 1.974.43.987-.367 1.363 1.781.557 1.906-.799.125-1.293-1.109-2.155-.43-.869.68.611 1.047.243 1.477-.368.429-.431-.86-1.23 0-.806.859-.462 2.03-.43 2.889.023.86-.651.586-.745 1.445-.094.86-.587.742-2.068 1.11-1.48.367-1.88 1.351-1.566 2.827.305 1.476 2.522.523 2.898 1.57.368 1.047.243 1.445-.157 2.398-.399.953-.65 1.046-2.224 2.46-1.567 1.414-1.481 1.937-1.536 2.796-.062.86-.712 1.078-1.699 1.289-.987.219-1.324 1.445-1.356 1.937-.031.492-.43 2.156.557 3.359.987 1.195 1.081 1.195.336 1.414-.736.21-.955.554-.524.796.43.25 1.605 1.32 1.049 2-.556.679.987 2.273 2.28 3.077.963.586 2.828.875 3.517 1.305v.007s-1.105.282-3.517.461c-2.405.188-2.773-.117-2.773-1.164 0-1.046-.243-4.616-1.974-4.983z" fill="#A6D5D9"/><path d="M175.789 115.569s.736 2.585.611 3.874c-.126 1.289-.126 1.109 1.668 1.906 1.786.796 1.912.125 2.773 1.476.862 1.351.862 2.827 1.418 2.827.556 0 1.543-1.288 1.731.5.11 1.117-.015 1.844.047 2.281 0 0-.36 3.437-.971 3.929-.619.484-2.162 1.163-3.517 1.039-1.355-.118-1.238.679-2.64 1.538-1.402.859-2.546-.617-1.802-1.538.737-.922.682-.797.964-2.516.282-1.726 1.566-.866 1.378-1.968-.188-1.109-2.342-.804-3.203-1.476-.87-.68-.557-1.234-2.405-1.601-1.857-.367-4.011-2.648-5.186-3.015-1.167-.367-1.786-1.945-1.786-1.945.736.039 1.167-.086 1.418-1.929.243-1.844.987-2.828 2.71-3.132 1.731-.313 2.288-.125 3.392-.617 1.112-.492 2.225.617 3.4.367z" fill="#A6D5D9"/><path d="M161.477 121.858c-.556.007-2.279-.258-3.642-.875-1.356-.617-2.585 1.843-2.585 1.843-.987-1.539-1.543-1.289-1.669-3.382-.125-2.093-1.292-2.156-1.175-3.194.126-1.047-.055-2.515-1.042-3.351-.987-.836-.994-2.867-.994-2.867.242-.336.509-.671.744-.984.697-.937.368-1.39-.204-2.296-.58-.898-.164-1.187.447-2.539.603-1.351.501-1.515 0-2.788-.502-1.273-.486-2.257-.118-3.195.298-.765.031-1.476-1.003-1.85 0 0 2.726-1.477 3.964-1.414 1.23.062 1.661-1.352 4.128-1.719 2.468-.367 1.481.125 1.669 1.843.18 1.727-.126 3.14 3.203 3.75 3.33.617 1.732 1.413 3.149 1.538 1.418.125 1.23.859 2.711 1.352 1.48.492 1.794.742 1.794 2.28 0 1.539.242 2.703 2.091 3.07 1.857.375 2.593.554 2.844 2.343.242 1.781 1.535 2.21.979 3.476-.548 1.265.188 2.429-.979 2.671-1.175.25-2.288-.859-3.4-.367-1.104.492-1.661.305-3.392.617-1.723.305-2.467 1.289-2.71 3.132-.251 1.843-.682 1.968-1.418 1.929-.744-.039-1.48.164-1.849.977-.376.812-.987-.016-1.543 0z" fill="#A6D5D9"/><path d="M139.583 191.122c.149-.867.188-1.68-.062-2.18-.619-1.234-1.418-5.108-.682-5.725.744-.609.494-3.874 1.606-4.366 1.104-.492 1.292-3.194 1.48-4.179.181-.984 1.105-4.303.557-4.366-.557-.062-.126.492-1.113 1.289-.987.804-1.049 2.156-1.606 2.156-.556 0-.556-1.726.063-2.765.619-1.047 1.418-1.476 1.355-2.89-.062-1.422.063-3.265.431-4.554.376-1.289-.799-4.366-.243-5.655.556-1.296 1.05-2.343 2.1-3.757 1.041-1.413.305-3.686 1.535-5.038 1.238-1.359.556-1.663.431-5.475-.118-3.811.125-3.811.493-4.061.376-.243-.673-.672-.431-1.906.251-1.227 1.301-4.671 1.732-6.46.43-1.78 1.167-3.936.987-6.022-.188-2.093-1.418-2.398-.188-5.35 1.237-2.952.744-5.78.188-6.647a3.528 3.528 0 01-.157-.265h-.008v-.008s1.214-.078 1.293-.938c.054-.57.517-1.257 1.026-1.929 0 0 .008 2.031.995 2.867.987.836 1.167 2.304 1.041 3.351-.117 1.038 1.05 1.101 1.175 3.194.126 2.093.682 1.843 1.669 3.382.987 1.539-.932 2.46-1.857 3.632-.924 1.164.126 2.64-.611 4.921-.744 2.273-2.961 1.843-2.961 4.546 0 2.71-.556 3.569-1.605 5.537-1.05 1.969.799 3.132.25 4.429-.556 1.289.431 3.624 1.089 4.975.666 1.359-.909 3.265-1.708 3.937-.806.68-2.53 4.249-1.605 5.967.924 1.727-.188 3.382-1.113 4.304-.924.922-.799 3.757-.117 5.905.673 2.156.368 3.257-.494 4.429-.869 1.171.549 2.093 1.105 2.89.556.796.25 2.952-.556 3.257-.799.312-.611 1.851-.674 4.061-.063 2.211-.494 3.078-1.911 3.57-.933.328-1.465 1.21-1.638 2.194l-1.261-.257zm9.807-110.568c.204 0 .94-1.554.94-2.538 0-.984.376-1.843.658-2.788.29-.945-1.026-2.422-1.151-3.32-.118-.906-.611-1.07-.039-1.398.579-.328 1.112-.258.532-1.031-.571-.773-.658-1.055-.078-1.547.572-.492 1.974-.047 3.251-.25 1.269-.203 2.091-1.327 2.091-1.327.337.718.181 1.03 1.316 2.312 1.238 1.398 1.027.578 1.849.578.823 0 1.645.57 2.021-.125.368-.696.282-1.11 1.105-1.148.822-.04 2.06-.86 1.77-1.602-.29-.734-.987-.367-1.191-1.554-.203-1.195-1.731-2.421-1.316-2.874.408-.446 1.974.656 2.546.695.58.047.909-.445 1.199.164.282.617.446-.164.979-.531.54-.367 1.151.086 2.922-.407 1.543-.43 1.715-1.671 1.449-2.202.713-.32 1.183.195 1.143.398-.039.203.204 1.39.964 2.172.76.78.063 1.148-.392 1.929-.446.773-.572 1.265 0 2.46.58 1.187.58 2.086 2.264 2.297 1.684.203 1.645-.29 2.757-1.477.4-.43.604-.718.674-.968l.313.101s.611.781 1.481.867c.862.078 1.316-.453 1.433-.984.126-.539-.117-.453 1.277-.656.784-.117 1.089.023 1.316.148v.008s.329 1.156 1.355.992c1.034-.164 2.186.04 2.836-.289.658-.328.58-1.515 1.481-2.5.908-.983 1.754-2.116 1.754-2.116.196.195.392.422.611.703.862 1.11-.125 3.14 1.731 3.874 1.849.742 1.481 1.664.737 2.336-.737.68-.799.804-1.974 1.85-1.175 1.04.493 1.415 1.355.86.869-.555 1.668-.492 2.342-.125.682.367 2.225-.125 1.974.68-.243.796-1.23 2.46-.493 2.46.744 0 .681-.93 1.425-1.422.737-.492 1.966-.609 2.836.125.862.742 4.559.188 4.81 1.297.242 1.101-.862 3.132 0 3.132.861 0 .673-1.414 1.723-1.164 1.05.242 3.329 1.469 4.998 1.164 1.668-.305 3.266-1.047 4.629.86 1.355 1.905 2.773 2.951 4.684 3.139 1.912.187 3.643-1.047 4.136 1.601.494 2.64 2.523 4.733.549 8.115-1.974 3.382-2.648 3.75-4.191 4.242-1.543.492-1.05 3.936-2.217 3.874-1.175-.063-1.856-.242-1.794.492.063.742.494.859-.305 2.031-.807 1.171-.063 5.475.305 6.639.368 1.171-.799 1.538-1.23 2.46-.43.922.611 2.835-.806 3.819-1.418.977-.243 2.351-1.481 3.515-1.23 1.156-.548 2.812-1.355 2.937-.799.125-.556.859-2.342 1.476s-4.685-.429-6.478 1.047c-1.786 1.476-1.293 1.906-4.011 2.031-2.71.125-2.029 2.952-3.141 3.132-1.113.187-.862.492-.925 2.71-.062 2.21.925 4.796-.924 4.921-1.849.125-1.418 2.952-2.593 4.366-1.175 1.414-2.342 3.319-2.53 2.702-.18-.617.313-.921.494-2.03.188-1.102.987-1.414-.306-1.414-1.3 0 .063 1.851-.807 2.71-.861.859-1.042.797-1.598 2.765-.493 1.75-1.425 2.867-2.585 3.562-.031-.18-.501-3.226-.619-4.304-.125-1.109-1.856-.734-2.961-2.093-1.112-1.351-1.48-.609-1.856-.18-.368.43-.987-1.234-1.355-2.28-.368-1.039-.925-.735-1.974-.547 0 0 .125-2.281 1.731-2.71 1.598-.43 2.217-1.352 3.078-2.336.87-.984 2.35-.367 2.961-2.335.619-1.969-.054-3.632-.736-3.812-.251-.07-.352-.226-.384-.484-.062-.438.063-1.164-.047-2.281-.188-1.788-1.175-.5-1.731-.5s-.556-1.476-1.418-2.827c-.861-1.351-.987-.68-2.773-1.476-1.794-.797-1.794-.617-1.668-1.906.125-1.289-.611-3.874-.611-3.874 1.167-.242.431-1.406.979-2.672.556-1.265-.736-1.694-.979-3.475-.251-1.789-.987-1.969-2.844-2.343-1.848-.368-2.091-1.531-2.091-3.07s-.314-1.789-1.794-2.281c-1.481-.492-1.293-1.226-2.71-1.351-1.418-.125.18-.922-3.149-1.539-3.33-.609-3.024-2.023-3.204-3.749-.188-1.718.799-2.21-1.669-1.843-2.467.367-2.898 1.78-4.128 1.718-1.238-.062-3.964 1.414-3.964 1.414a4.205 4.205 0 00-.846-.203c-1.731-.242-1.112.039-1.363-1.148-.242-1.188.165-1.477-.446-2.133-.619-.656-1.974.82-2.554 1.031-.572.203-.329-.906-1.48-1.273-1.152-.367-1.355-.617-2.013-2.218-.658-1.593-1.191-2.413-.619-3.234.579-.82-.118-1.312.619-2.585.744-1.273 1.276-.656 1.566-1.554.282-.906.408-1.11 1.559-1.234 1.152-.125 1.23-.657 2.468-1.274a2.567 2.567 0 011.723-.203c.227.125.454.203.54.203z" fill="#A6D5D9"/><path d="M124.527 84.395c.557-.742-.861-4.061.188-4.678 1.042-.617.987-.617 1.598-1.156a1.11 1.11 0 00.298 1.296c.658.618-.822 1.313 0 1.805.823.492 1.723-1.11 2.217 0 .493 1.109.948-.602 1.191-1.508.25-.913.329-1.648 2.632-1.976 2.303-.328 3.987-2.335 4.198-3.32.204-.984 1.152-3.014 1.152-3.014.885.125.979.718 1.316 1.413.368.782 1.19 0 1.645.985.446.984.658 2.663 1.598 2.749.948.078 2.718.078 3.211-.25.494-.328.987-.406 1.81.04.822.452 2.178.374 1.355 1.108-.822.742-.948 1.352-.783 1.805.094.257.407.492.697.656a2.567 2.567 0 00-1.723.203c-1.238.617-1.316 1.148-2.468 1.273-1.151.125-1.277.328-1.559 1.234-.29.898-.822.281-1.566 1.554-.737 1.273-.04 1.765-.619 2.585-.572.82-.039 1.64.619 3.234.658 1.601.861 1.851 2.013 2.218 1.151.368.908 1.477 1.48 1.273.58-.21 1.935-1.687 2.554-1.03.611.656.204.945.446 2.132.251 1.187-.368.906 1.363 1.148.329.047.611.117.846.203 1.034.375 1.301 1.086 1.003 1.851-.368.938-.384 1.922.118 3.195.501 1.273.603 1.437 0 2.788-.611 1.351-1.027 1.64-.447 2.539.572.906.901 1.359.204 2.296-.235.312-.502.648-.744.984-.51.672-.972 1.359-1.027 1.929-.078.86-1.292.938-1.292.938-.642-1.109-2.021-3.726-4.896-4.523-3.141-.859-8.264-3.686-8.201-5.163.062-1.476.062-.984-.682-2.647-.736-1.656-2.773-4.304-3.572-6.764-.807-2.46-2.162-5.655-4.011-6.64-1.848-.984-2.718-2.03-2.162-2.764z" fill="#A6D5D9"/><path d="M128.828 81.664c-.493-1.11-1.394.492-2.217 0-.822-.492.658-1.187 0-1.804a1.108 1.108 0 01-.297-1.297l.007-.008v-.008c.604-.554.118-1.163-.313-1.288-.431-.117-1.167-.984-.862-1.656.306-.68.369-1.539.431-2.343.063-.797.556-1.781 1.794-2.453 1.23-.68 1.661-2.156 1.661-2.156v-.007s1.527-.508 1.606 0c.086.515.947 1.913 2.099 1.913 1.151 0 1.974-.82 2.71 0 .744.82.948 1.266 2.178 1.266.141 0 .266.007.376.023 0 0-.948 2.03-1.152 3.015-.211.984-1.895 2.991-4.198 3.32-2.303.328-2.382 1.062-2.632 1.975-.243.907-.697 2.617-1.191 1.508zm54.646-15.713c.18.102.305.188.579.133.611-.117.572-1.68.603-2.906.032-1.234-.767-2.499 0-3.28.768-.781 0-1.851 0-1.851 1.246.156 2.679.601 3.713 1.625 1.371 1.374 1.967 1.796 2.531 2.374 0 0-.846 1.133-1.755 2.117-.901.984-.823 2.171-1.481 2.499-.65.328-1.801.125-2.835.289-1.026.164-1.355-.992-1.355-.992v-.008z" fill="#A6D5D9"/><path d="M179.753 57.622c.29.43 1.559.617 2.569.43.447-.086 1.332-.14 2.334-.008 0 0 .768 1.07 0 1.851-.767.781.032 2.047 0 3.28-.031 1.227.008 2.79-.603 2.906-.274.055-.399-.03-.579-.132-.228-.125-.533-.266-1.316-.149-1.395.203-1.152.117-1.277.656-.118.531-.572 1.063-1.434.984-.869-.085-1.48-.867-1.48-.867l-.314-.101c.134-.438-.133-.742-.344-1.453-.329-1.109-.58-1.398-1.238-2.218-.658-.82.165-1.633.658-2.172.494-.53 1.731-.367 1.332-1.1-.368-.696-.047-1.602 0-1.72a.454.454 0 00.235.017c.673-.079 1.167-.633 1.457-.204z" fill="#A6D5D9"/><path d="M178.06 59.53c.4.733-.838.57-1.331 1.1-.494.54-1.316 1.352-.658 2.172.658.82.908 1.109 1.237 2.218.212.71.478 1.016.345 1.453-.071.25-.274.539-.674.968-1.112 1.188-1.073 1.68-2.757 1.477-1.684-.211-1.684-1.11-2.264-2.297-.572-1.195-.446-1.687 0-2.46.454-.781 1.152-1.148.392-1.93-.76-.78-1.003-1.968-.964-2.17.039-.204-.431-.72-1.143-.399a.407.407 0 00-.134-.18c-.407-.328-1.151.453-.947-1.062.211-1.515-.165-2.171.869-2.257 1.026-.078.345-.805.313-1.156-.031-.344 1.841-2.062 1.998-2.21.008-.008.008 0 .008 0 .462.398 1.081 1 1.833 1.155.963.204.987.204 1.002 1.055.024.851 1.191.937 1.935 1.468.635.461.549 1.195.94 1.336-.047.117-.368 1.023 0 1.718z" fill="#A6D5D9"/><path d="M141.989 50.586c-.165-1.102.783-.61.658-2.25-.125-1.64.658-1.11 1.52-2.132.822-.985.806-2.18.806-2.297.322-.218.604-.359.807-.343.737.054.987.273.768.671-.212.399-.588.461-.862.828-.274.375-.219.711.063 1.476.274.774-.924 1.39-1.206 2.281-.275.89.493 2.18 1.543 2.054 1.049-.117.767-1.07.54-2.241-.227-1.172-.015-1.875.729-2.125.736-.242 2.06-.515 2.154-.859.094-.336 0-1.32.337-1.257.344.062.313.859 1.018 1.015.713.148 1.888-.063 2.162.765.274.828 0 2.031 1.755 1.969 1.762-.063 1.731-.617 3.243.125 1.512.734 1.88.953 3.11.242 1.237-.703 3.078-.727 3.219-.93.141-.203-.141-.039-.078-.328.055-.289.282-.367.76-.25.47.125.885.227 1.496.313.619.078.642.593 0 .695-.635.101-.674.414-.799.594-.126.187.368.492.822.476.455-.023 2.076.305 2.609.633.532.328.885.859.313 1.046-.58.18-.54.938-.619 1.188-.086.242.885.39 1.724.226.846-.164.924.016 1.402.328.109.07.219.164.36.297-.157.148-2.029 1.867-1.997 2.21.031.352.712 1.078-.314 1.156-1.034.086-.658.742-.869 2.258-.204 1.515.54.734.948 1.062a.409.409 0 01.133.18c.266.53.094 1.773-1.449 2.202-1.771.492-2.382.04-2.922.406-.533.367-.697 1.148-.979.531-.29-.609-.619-.117-1.199-.164-.572-.039-2.138-1.14-2.546-.695-.415.453 1.113 1.68 1.316 2.875.204 1.187.901.82 1.191 1.554.29.742-.948 1.562-1.77 1.601-.823.04-.737.453-1.105 1.148-.376.695-1.198.125-2.021.125-.822 0-.611.82-1.849-.578-1.135-1.28-.979-1.593-1.316-2.312a16.392 16.392 0 00-.094-.187c-.47-.86-.689-1.234-.148-2.133.532-.906-.494-1.679-1.152-2.499-.658-.82-.329-2.624.368-3.694.697-1.063-1.77-.657-3.697-.774-1.935-.125-1.731-.906-2.632-1.562-.909-.656-1.692.453-3.267.367-1.582-.078-1.261-2.007-1.261-3.483 0-1.477-1.559-.695-1.723-1.804z" fill="#A6D5D9"/><path d="M130.638 68.643c-.079-.508-1.606 0-1.606 0-.078-.11-.666-1.07.556-1.594 1.293-.554.243-1.843 1.723-2.03 1.481-.18 1.974-1.844 1.732-2.828-.251-.984-.251-1.906.062-3.874.306-1.968-1.668-2.75-1.418-3.312.243-.562 1.544-3.515 3.016-4.007.768-.257.972-.164 1.105-.28.556.132 1.449.085 2.021.007.94-.125-.635-1.398-.423-1.906.164-.414.039-.71-.345-.984.384-.765.744-1.101 1.473-1.14 1.104-.063 1.418.921 2.091 0 .682-.922.494-.984 1.543-1.047.768-.047 1.935-1.164 2.805-1.742 0 .117.015 1.312-.807 2.297-.862 1.023-1.645.492-1.52 2.132.126 1.64-.822 1.148-.658 2.25.165 1.108 1.724.327 1.724 1.804 0 1.476-.322 3.405 1.261 3.483 1.574.086 2.358-1.023 3.266-.367.901.656.697 1.437 2.632 1.562 1.927.117 4.395-.289 3.698.773-.698 1.07-1.027 2.875-.369 3.695.658.82 1.685 1.593 1.152 2.5-.541.898-.321 1.273.149 2.132l.094.187s-.823 1.125-2.092 1.328c-1.277.203-2.679-.242-3.251.25-.579.492-.493.773.079 1.546.579.774.047.703-.533 1.031-.572.329-.078.492.039 1.398.126.899 1.442 2.375 1.152 3.32-.282.945-.658 1.804-.658 2.788 0 .985-.737 2.539-.94 2.539 0 0-.204-.117-.541-.203-.29-.164-.603-.398-.697-.656-.164-.453-.039-1.063.783-1.804.823-.735-.532-.657-1.355-1.11-.822-.445-1.316-.367-1.809-.039-.494.328-2.264.328-3.212.25-.94-.086-1.151-1.765-1.598-2.75-.454-.983-1.277-.202-1.645-.983-.337-.695-.431-1.289-1.316-1.414a2.698 2.698 0 00-.376-.023c-1.23 0-1.433-.446-2.178-1.266-.736-.82-1.558 0-2.71 0-1.151 0-2.013-1.398-2.099-1.913z" fill="#A6D5D9"/><path d="M123.972 51.977s-.47-1.203 0-1.672c.47-.468-.329-.976-.204-1.57.126-.601.549-.812.549-.812 1.237.383 1.919 1.234 3.493 1.234 1.583 0 2.899-2.296 4.567-2.124 1.661.172 3.705.257 4.348.593.125.07.243.14.337.211.383.273.509.57.344.984-.211.508 1.363 1.781.423 1.906-.572.078-1.465.125-2.021-.008-.352-.078-.572-.234-.493-.5.211-.68.344-1.78-.509-1.741-.854.039-1.113-.211-1.536-.344-.423-.125-1.621.172-1.833.383-.211.218.126.937-.509 1.148-.642.218 1.614 2 .548 2.382-1.065.383-1.402-.336-2.514-.336-1.105 0-.47-.765-1.919-.898-1.449-.125-.979-.125-1.912.64-.564.461-.838.586-1.159.524z" fill="#A6D5D9"/><path d="M123.972 50.303c-.47.47 0 1.672 0 1.672-.22-.04-.455-.164-.807-.312-.893-.383-.298-.594-1.622-1.398-1.316-.813-.548-.899-1.997-.766-1.449.125-.517-.726-2.264-.898-1.253-.117-.838-.984-1.371-1.937l.102-.063s.376-.851 1.786-1.148c1.402-.297 1.238-.297 1.919 0 .65.281 1.943.156 2.068.14h.008c.736.914 1.676 2.07 2.522 2.328 0 0-.423.211-.548.813-.125.593.674 1.1.204 1.57z" fill="#A6D5D9"/><path d="M116.35 36.441c.423-.508 1.919.297 2.514 0 .58-.289 1.152-1.75 1.191-1.836.376.094.713.211.767.485.126.593-.767 1.359-.509 3.015.251 1.656 1.747 2.85 1.019 3.444-.721.594-1.152 2.336-.423 3.015.227.219.532.602.877 1.031-.125.016-1.418.14-2.068-.14-.682-.297-.517-.297-1.919 0-1.41.296-1.786 1.148-1.786 1.148l-.102.062c-.212-.375-.572-.765-1.23-1.125-1.551-.843-2.091-2.093-2.702-2.733v-.008c1.159.016.705-2.742 1.637-3.773.94-1.03 2.005.14 2.514-.414.517-.554-.211-1.656.22-2.171z" fill="#A6D5D9"/><path d="M110.717 40.947c-.297-.805-2.021-1.461-3.908-1.305.446-.469.125-.75 0-1.242-.157-.593.203-.515 1.527-1.062 1.214-.508.877-1.07.815-1.156.603 0 1.402-.203 1.95-.5 1.026-.554.94-1.492 2.264-1.406 1.316.086 2.084.047 3.791-.25 1.708-.297 1.661-.554 1.873.04.117.32.595.421 1.026.538-.039.086-.611 1.547-1.191 1.836-.595.297-2.091-.508-2.514 0-.431.515.297 1.617-.22 2.171-.509.555-1.574-.617-2.514.414-.932 1.031-.478 3.788-1.637 3.773v.008h-.008c-.306-.329-.635-.5-1.128-.368a6 6 0 00-.353.102v-.008s.525-.773.227-1.585z" fill="#A6D5D9"/><path d="M106.879 42.312c-.376-.375-.932-.446-1.59-.422v-.016c-.023-.422.149-1.226 1.128-1.906a2.27 2.27 0 00.392-.328c1.888-.156 3.611.5 3.909 1.305.297.812-.228 1.585-.228 1.585v.008h-.007c-1.332.36-2.625.75-3.604-.226zm.556-11.41c.173.953 1.238 1.547.979 2.187-.25.64.047 1.82-.086 2.586v.007c-.078 0-.54.086-.893.594-.384.547-.979.804-1.151.164-.165-.633.219-1.695-.47-2.46-.682-.766-.509-1.672-.509-1.672V32.3c.274 0 .47-.07.853-.32.682-.437 1.207-1.312 1.269-1.421a.874.874 0 00.008.343z" fill="#A6D5D9"/><path d="M107.435 36.276c.352-.507.815-.593.893-.593-.055.351.313.5.822.5.063.086.4.648-.814 1.156-1.324.546-1.684.468-1.528 1.062.126.492.447.773 0 1.242-.094.101-.219.21-.391.328-.98.68-1.152 1.484-1.128 1.906v.015c-1.199.024-2.726.36-4.074-.304-.501-.242-.963-.578-1.425-.953 0 0-.063-1.219 0-2.32.062-1.11 1.339-1.492 2.663-1.656 1.316-.172 1.614-1.445 1.191-1.913-.423-.47-1.238-1.617-1.066-1.875.173-.25.423-.594 1.622-.594.556 0 .869.04 1.104.024v.008s-.172.906.509 1.671c.69.766.306 1.828.47 2.46.173.64.768.383 1.152-.164z" fill="#A6D5D9"/><path d="M50.276.293c1.527.125 2.875.32 4.347.953 1.465.64 4.285.578 5.5 0 1.213-.57 2.937-.828 4.214-.508 1.284.32 1.73.578 3.07 2.617 1.348 2.038 2.045 1.593 3.196 2.804 1.152 1.21.964-1.406 2.178-1.273 1.214.125 3.008.125 3.838 2.1.83 1.977 2.366 1.657 2.554 3.508.196 1.85.321 1.718 2.178 2.804 1.77 1.038 3.188.788 3.313.765v.008c-.016 1.25-.164.781-.822 2.742-.705 2.1.32 4.014.767 5.287.447 1.273-.062 1.656.447 2.172.509.507-.51 2.421 2.107 2.929 2.624.515 1.598 3.186 3.133 3.257 1.536.062 3.588-.383 4.034 0 .447.382 2.687.773 4.285 0 1.598-.766 1.465-.516 2.491-.766 1.026-.258.831-.835.447-3.124-.384-2.296-.321-3.382 1.347-3.64 1.661-.25 4.026-1.656 5.366-1.148 1.347.516 1.559 1.578.533 2.68-1.019 1.108-1.403 1.147-.384 2.124 1.026.984.258 1.405.344 2.085.087.68.47 1.828-.047 1.914-.423.07-1.143-.414-1.276-.032l-.008.008c-.063.11-.588.984-1.269 1.422-.384.25-.58.32-.854.32-.235.016-.548-.023-1.105-.023-1.198 0-1.449.343-1.621.593-.172.258.642 1.406 1.065 1.875.423.468.126 1.742-1.19 1.913-1.324.164-2.601.547-2.664 1.656a25.28 25.28 0 000 2.32h-.008v-.008c-1.464-1.187-2.835-2.788-4.88-3.241-2.687-.602-3.58.508-5.24.632-1.66.133-3.33-1-6.4-1-3.063 0-2.938-.312-5.303-1.593-2.366-1.273-2.013-1.28-3.901-1.656-.321-.062-4.09-.507-5.178-2.483-1.089-1.976-1.41-2.68-.768-3.382.635-.703-1.73-4.398-2.812-4.976-1.089-.57-.963-1.273-2.499-3.57-1.535-2.296-1.982-2.866-4.089-4.522-2.115-1.663-4.026-3.827-4.668-5.553-.643-1.718-2.045.133-2.429-3.437-.337-3.124-2.177-4.827-2.937-4.827l.666-.984c.242.133.548.227.932.258z" fill="#A6D5D9"/><path d="M48.16-1.357c.243.281.447 1 1.183 1.39l-.666.985c-.117 0-.204.039-.258.109-.455.57-1.606 1.46 0 3.757 1.598 2.296 1.08 3.89 2.49 5.42 1.41 1.531 2.625 3.828 2.492 4.398-.126.578 2.428 4.022 3.329 4.788.893.758.572 2.866-.063 2.741-.642-.132-1.285-2.874-3.392-3.764-2.107-.89-2.044-4.468-2.561-5.866-.51-1.406-2.17-2.296-3.643-4.655-1.472-2.36-2.303-3.765-2.428-5.741-.063-.992-.188-2.375-.455-3.562 0 0 3.65-.375 3.972 0z" fill="#A6D5D9"/><path d="M39.974-43.954c.705.445 1.473-.445 1.598 1.086.125 1.53 1.089 2.234 1.856 1.656.423-.313.016-1.719-.477-3.296 0 0 45.088.913 47.814 1.421 2.734.516 2.217 1.195 6.228 1.023 4.01-.172 6.736 1.953 8.444 2.89 1.7.938 4.089 3.828 3.917 6.124-.173 2.296-1.175 4.249.008 4.499 1.19.257 1.269-.844 2.976-1.953 1.708-1.101 3.329-.765 3.408-1.445.086-.68-1.191-1.273.767-2.038 1.967-.766 2.562-.453 2.82-2.523.251-2.07 1.105-3.257 3.063-3.601 1.966-.336 2.734-.172 4.356-2.375 1.112-1.523.971-2.32 1.276-2.897.141-.258.376-.469.854-.68 1.536-.68 1.536-1.866 2.554-1.187 1.026.68.509 1.273 1.277 2.296.767 1.016 2.021.852 2.021.852l-.008.008c-.141.171-.212.398-.18.718.133 1.148-.251 1.78-1.34 2.101-1.089.32-3.392 1.789-3.329 3.25.071 1.468.964 2.936.384 3.764-.572.828-3.705.89-3.768 2.484-.063 1.593.447 1.851-.705 2.492-1.151.632-.125 1.913-.705 3.444-.572 1.523-2.044.383-1.786 1.843.251 1.469.697 3.125.125 3.187-.579.07-2.749-.953-1.919.453.831 1.398 3.455 1.078 2.687 2.93-.768 1.85.768.257-.133 1.975-.893 1.726-2.233 1.531-2.107 2.867.125 1.343-.063 1.085-1.473 2.109-1.402 1.015-.83 2.038-2.491 3.444-1.661 1.398-1.919 1.078-1.089 4.335.831 3.25 1.919 1.78 1.277 3.757-.634 1.976 3.329 4.147 3.455 6.702.133 2.546-.322 3.054-.768 3.186-.447.125-1.661-.257-2.233-1.913-.579-1.656-1.856-1.023-2.498-2.492-.635-1.46-1.403-4.272-2.303-4.585-.893-.32-2.296-1.85-3.322-1.21-1.026.632-1.41 1.46-2.428.382-1.026-1.085-2.115-1.343-4.16-1.023-2.044.32-6.65 1.273-5.499 1.593 1.152.32 1.857.258 1.473.953-.384.703-.83 1.406-1.794 1.406-.956 0-2.17-1.273-3.133-.64-.956.64-1.598.703-2.812.578-1.215-.125-.956 1.21-2.108.32-1.151-.898-1.856-.062-1.793.633.062.703.963.898-.322 1.726-1.276.828-2.303-.258-2.49 1.273-.188 1.53-.447 1.336-1.473 2.359-1.018 1.023.705 1.788.705 3.444 0 .117 0 .22-.008.313-.125.023-1.543.273-3.313-.766-1.857-1.085-1.982-.953-2.178-2.804-.188-1.85-1.723-1.53-2.554-3.507-.83-1.976-2.624-1.976-3.838-2.1-1.214-.134-1.026 2.483-2.178 1.272-1.151-1.21-1.849-.765-3.196-2.804-1.34-2.038-1.786-2.296-3.07-2.616-1.277-.32-3-.063-4.215.507-1.214.578-4.034.64-5.499 0C53.15.614 51.802.42 50.275.294a2.312 2.312 0 01-.932-.258c-.737-.39-.94-1.11-1.183-1.39-.321-.375-3.972 0-3.972 0h-.008c-.25-1.18-.658-2.18-1.26-2.43-1.223-.507-6.205-3.186-6.267-5.865-.07-2.68-.196-4.53-1.222-6.124-1.019-1.593-.384-3.187 0-5.288.383-2.109-1.598-2.491-.698-5.483.893-3 .956-6.694 2.554-8.42 1.598-1.718 1.347-4.655 1.473-7.522.125-2.866.509-1.913 1.214-1.468z" fill="#A6D5D9"/><path d="M172.351 52.797c.462.398 1.081 1 1.833 1.156.963.203.987.203 1.002 1.054.024.852 1.191.938 1.935 1.469.635.46.548 1.195.94 1.335a.454.454 0 00.235.016c.674-.078 1.167-.633 1.457-.203.29.43 1.559.617 2.569.43.447-.087 1.332-.141 2.335-.008 1.245.156 2.679.601 3.713 1.624 1.371 1.375 1.966 1.797 2.53 2.375.196.195.392.422.611.703.862 1.109-.125 3.14 1.731 3.874 1.849.742 1.481 1.663.736 2.335-.736.68-.799.805-1.974 1.851-1.175 1.04.494 1.414 1.356.86.869-.555 1.668-.493 2.342-.126.681.368 2.224-.124 1.974.68-.243.797-1.23 2.46-.494 2.46.744 0 .682-.93 1.426-1.421.736-.492 1.966-.61 2.836.125.861.742 4.559.187 4.809 1.296.243 1.102-.861 3.132 0 3.132.862 0 .674-1.413 1.724-1.163 1.049.242 3.329 1.468 4.997 1.163 1.669-.304 3.267-1.046 4.63.86 1.355 1.905 2.773 2.952 4.684 3.14 1.911.187 3.643-1.047 4.136 1.6.494 2.64 2.522 4.734.548 8.116-1.974 3.382-2.647 3.75-4.19 4.241-1.544.492-1.05 3.937-2.217 3.874-1.175-.062-1.857-.242-1.794.492.063.742.493.86-.306 2.031-.806 1.172-.062 5.475.306 6.639.368 1.172-.799 1.539-1.23 2.461-.431.921.611 2.835-.807 3.819-1.418.976-.243 2.351-1.48 3.515-1.23 1.156-.549 2.812-1.355 2.937-.799.125-.557.859-2.343 1.476s-4.684-.43-6.478 1.046c-1.786 1.477-1.292 1.906-4.01 2.031-2.711.125-2.029 2.953-3.142 3.132-1.112.188-.861.492-.924 2.711-.063 2.21.924 4.795-.924 4.92-1.849.125-1.418 2.953-2.593 4.367-1.175 1.413-2.342 3.319-2.53 2.702-.18-.617.313-.922.493-2.031.188-1.101.987-1.414-.305-1.414-1.301 0 .062 1.852-.807 2.711-.862.859-1.042.796-1.598 2.765-.494 1.749-1.426 2.866-2.585 3.561m-49.091-101.68c.383-.765.744-1.101 1.472-1.14 1.105-.063 1.418.921 2.092 0 .681-.922.493-.984 1.543-1.047.768-.047 1.935-1.164 2.804-1.742.321-.218.603-.359.807-.343.736.054.987.273.768.671-.212.399-.588.461-.862.828-.274.375-.219.711.063 1.476.274.774-.925 1.39-1.207 2.281-.274.89.494 2.18 1.544 2.054 1.049-.117.767-1.07.54-2.241-.227-1.172-.016-1.875.729-2.125.736-.242 2.06-.515 2.154-.859.094-.336 0-1.32.337-1.257.344.062.313.859 1.018 1.015.713.148 1.888-.063 2.162.765.274.828 0 2.031 1.755 1.969 1.762-.063 1.731-.617 3.243.125 1.511.734 1.88.953 3.109.242 1.238-.703 3.079-.727 3.22-.93.141-.203-.141-.039-.078-.328.054-.289.282-.367.759-.25.47.125.886.227 1.497.313.618.078.642.593 0 .695-.635.101-.674.414-.799.594-.126.187.368.492.822.476.454-.023 2.076.305 2.609.633.532.328.885.859.313 1.046-.58.18-.541.938-.619 1.188-.086.242.885.39 1.723.226.846-.164.925.016 1.403.328.109.07.219.164.36.297m-46.022 25.752c.604-.554.118-1.164-.313-1.289-.431-.117-1.167-.984-.862-1.655.306-.68.369-1.54.431-2.344.063-.796.556-1.78 1.794-2.452 1.23-.68 1.661-2.156 1.661-2.156v-.008c-.079-.11-.666-1.07.556-1.593 1.292-.555.243-1.844 1.723-2.03 1.481-.18 1.974-1.844 1.731-2.828-.25-.984-.25-1.906.063-3.874.306-1.969-1.668-2.75-1.418-3.312.243-.563 1.543-3.515 3.016-4.007.768-.258.971-.164 1.105-.281m50.344 98.803h-.008a4.93 4.93 0 01-.43.243c-1.356.679-1.418 1.663-2.773 1.788-1.363.117-1.669 1.289-3.455 0-1.794-1.296-1.794-.492-3.329-.617-.674-.054-.964.039-.971.219-.008.234.43.609 1.088 1 1.175.687 1.544.929.619 1.609-.924.679.188 1.663 1.175 1.843.987.187.549 1.539-1.543 3.14-2.099 1.593-.431 1.906-2.467 2.577-2.037.68-3.087.985-5.366.867-2.28-.125-2.468.242-2.225 1.102.251.867.313.492-.368 1.046-.674.555-.494 1.352-.494 2.586 0 1.226-1.167.859-1.911.734-.736-.117-1.668-.492-2.773-.18-1.112.305-.368 2.586-.313 2.828.062.242.987.796 1.974.429.987-.367 1.363 1.781.556 1.906-.799.125-1.293-1.109-2.154-.43-.87.68.611 1.047.243 1.477-.369.429-.431-.859-1.23 0-.807.859-.462 2.03-.431 2.89.023.859-.65.585-.744 1.445-.094.859-.588.742-2.068 1.109-1.481.367-1.88 1.351-1.567 2.827.306 1.476 2.522.523 2.898 1.57.369 1.047.243 1.445-.156 2.398-.4.953-.65 1.047-2.225 2.46-1.567 1.414-1.48 1.937-1.535 2.797-.063.859-.713 1.077-1.7 1.288-.987.219-1.324 1.445-1.355 1.937-.032.492-.431 2.156.556 3.359.987 1.195 1.081 1.195.337 1.414-.737.211-.956.554-.525.796.431.25 1.606 1.32 1.05 2-.557.679.987 2.273 2.279 3.077.964.586 2.828.875 3.517 1.305.235.156.337.328.188.539-.556.796-1.049 1.968-2.898 1.843-1.857-.125-1.669-1.109-3.212-.859-1.543.242-4.441.125-5.115-1.539-.681-1.664-.869-3.194-2.405-3.874-1.543-.68-4.997-1.172-4.692-3.382.313-2.218-1.543-3.507-1.355-4.679.11-.687.54-2.038.744-3.288.149-.867.188-1.679-.063-2.179-.618-1.234-1.417-5.108-.681-5.725.744-.61.493-3.874 1.606-4.366 1.104-.493 1.292-3.195 1.48-4.179.18-.984 1.105-4.304.556-4.366-.556-.063-.125.492-1.112 1.288-.987.805-1.05 2.156-1.606 2.156s-.556-1.726.063-2.765c.619-1.046 1.418-1.476 1.355-2.89-.063-1.421.063-3.265.431-4.553.376-1.289-.799-4.367-.243-5.655.556-1.297 1.05-2.344 2.099-3.757 1.042-1.414.306-3.687 1.536-5.038 1.237-1.359.556-1.664.431-5.475-.118-3.812.125-3.812.493-4.062.376-.242-.674-.672-.431-1.906.251-1.226 1.301-4.671 1.731-6.459.431-1.781 1.168-3.937.987-6.022-.188-2.093-1.417-2.398-.188-5.351 1.238-2.952.745-5.779.188-6.646a3.59 3.59 0 01-.156-.266h-.008v-.008c-.642-1.109-2.021-3.725-4.896-4.522-3.141-.859-8.264-3.687-8.201-5.163.062-1.476.062-.984-.682-2.648-.736-1.656-2.773-4.303-3.572-6.764-.807-2.46-2.162-5.655-4.011-6.639-1.848-.984-2.718-2.03-2.162-2.765.557-.742-.861-4.062.188-4.678 1.042-.618.987-.618 1.598-1.156l.008-.008m-2.349-26.579c-.22-.04-.455-.164-.807-.313-.893-.383-.298-.593-1.622-1.398-1.316-.812-.548-.898-1.997-.765-1.449.125-.517-.727-2.264-.899-1.253-.117-.838-.984-1.371-1.937-.211-.375-.572-.765-1.23-1.124-1.551-.844-2.091-2.094-2.702-2.734h-.008c-.306-.328-.635-.5-1.128-.367a6.002 6.002 0 00-.353.101h-.007c-1.332.36-2.625.75-3.604-.226-.376-.375-.932-.445-1.59-.422-1.198.023-2.726.36-4.073-.305-.502-.242-.964-.578-1.426-.953h-.008v-.007c-1.465-1.188-2.835-2.789-4.88-3.242-2.687-.601-3.58.508-5.24.633-1.661.133-3.33-1-6.4-1-3.063 0-2.938-.312-5.303-1.593-2.366-1.273-2.014-1.281-3.901-1.656-.322-.063-4.09-.508-5.178-2.484-1.089-1.976-1.41-2.679-.768-3.382.635-.703-1.731-4.397-2.812-4.975-1.089-.57-.963-1.274-2.499-3.57-1.535-2.296-1.982-2.866-4.089-4.522-2.115-1.664-4.026-3.827-4.669-5.554-.642-1.718-2.044.133-2.428-3.436-.337-3.125-2.178-4.827-2.937-4.827-.118 0-.204.039-.259.11-.454.57-1.606 1.46 0 3.756 1.598 2.296 1.081 3.89 2.491 5.42 1.41 1.531 2.624 3.828 2.491 4.398-.125.578 2.428 4.023 3.33 4.788.892.758.571 2.867-.063 2.742-.643-.133-1.285-2.875-3.392-3.765-2.107-.89-2.045-4.468-2.562-5.866-.509-1.406-2.17-2.296-3.642-4.655-1.473-2.359-2.303-3.765-2.428-5.741-.063-.992-.188-2.374-.455-3.562h-.008c-.25-1.18-.658-2.179-1.26-2.429-1.223-.508-6.205-3.187-6.267-5.866-.071-2.679-.196-4.53-1.223-6.123-1.018-1.594-.383-3.187 0-5.288.384-2.109-1.597-2.492-.697-5.483.893-3 .956-6.694 2.554-8.42 1.598-1.718 1.347-4.655 1.473-7.522.125-2.866.509-1.913 1.214-1.468.705.445 1.472-.445 1.598 1.086.125 1.53 1.089 2.233 1.856 1.655.423-.312.016-1.718-.477-3.296-.408-1.296-.878-2.71-.995-3.718-.259-2.226-1.857-1.398-3.196-3.124-1.34-1.718-1.09-2.359-.51-3.952.572-1.593 1.215-1.914.51-3.694-.705-1.79-.768-3.508.32-4.913 1.09-1.398-1.213-2.61-1.088-4.46.125-1.851 1.598-1.21.188-4.085-1.402-2.867-2.107-.766-2.812-3.054-.697-2.297.963-2.43-1.081-3a2.064 2.064 0 01-.47-.195c-1.802-.882-3.055-3.796-3.118-5.733-.063-2.109-.697-2.874-2.044-3.382-1.34-.508-1.786-1.593-3.071-.445-1.277 1.148-1.465.828-2.428.828-.956 0 1.088 1.406-1.982 2.234-3.07.828-1.598 1.656-3.901 1.913-2.303.25-3.196 1.976-4.92 1.149-1.73-.836-1.151-1.024-3.07-.961-1.92.062-3.517-1.21-3.517-1.21l-.07-.102s-.103-1.258.751-1.258.337.531 1.426.406c1.089-.132 1.316.188 1.535.695.227.516 1.473.016 2.397-.421.932-.438 2.178.874 3.228.265 1.057-.61.642-1.656 1.793-2.07 1.152-.414 1.825.094 2.656-.765.83-.867 1.214-1.562.22-1.5-.988.063-1.63.094-1.951-.828-.314-.93-.447-.93-1.113-.898-.673.04-.767-.383-.352-.726.415-.352.478-.703.634-1.562.165-.867.705-.703 1.536-1.086.83-.383.548-.96.29-.992-.259-.031-.893.289-1.348 0-.446-.281.07-.445.353-1.21.29-.766.32-1.368.673-1.118.353.258.54.899 1.183.797.642-.094.768-.094.259-1.336 0 0-.933-2.358 1.754-2.866 2.687-.516 2.178.57 3.196.633 1.026.062 2.24-.508 2.946-.188.705.32 1.088-.578 2.044-1.531.964-.96 1.598 0 2.178-.703.572-.703-1.535-1.023-2.562-1.335-1.018-.321-1.66-1.406-1.472-2.359.195-.961.705.125 1.41-.641.705-.765-.384-2.358.642-2.234 1.018.133.963 1.594 2.076 1.531 1.12-.062.736.508.673 1.469-.07.953 1.34.703 1.85.125.516-.57-.385-1.976.83-2.547 1.221-.578.258-2.874 1.347-3.257 1.089-.382 1.277.383 2.49.321 1.215-.063 4.732.382 6.017.515 1.277.125 2.553 1.273 2.295 2.226-.25.961 1.668 1.851 1.026 2.422-.642.577.063.96 1.214 1.726 1.152.765 1.732 2.101 1.598 2.929-.023.172.016.445.102.773.313 1.21 1.246 3.116 1.496 3.116.322 0 .83-.554 1.857-.273 1.026.273 1.856.976 2.428.914.58-.063 1.285-.789 2.303-.578 1.026.219 1.708-.04 2.006.851.297.898.767 1.664.979 1.617.211-.039 1.237-.21 1.449.469.211.68 1.919.296 2.217 1.359.297 1.062 1.958 1.32 2.428 2.296.47.976.384 1.023.345 1.828-.047.804 1.151.422 3.454 1.32 2.295.89 2.468 2.89 2.898 2.632.424-.258-.172-2.085.682-2.382.854-.297 1.151-.89.595-1.148-.556-.25 1.105-1.227 1.41-.547.298.68.933 1.226 2.296 1.273 1.37.039.9.086 2.263.937 1.363.844 2.303-.765 3.157-.343.846.43.165 2.038 1.018 2.21.854.172.854-1.32 1.238-1.867.384-.554-.172-1.492.595-1.703.768-.21 0-1.187-.422-1.405-.431-.211-.384-1.445-.298-1.781.086-.344-.815-1.492-.431-2.086.384-.593.345-3.225 1.92-2.296 1.574.937.814 1.492 2.177 2 1.363.507.125 1.187 0 1.741-.133.555 1.018.68.423 1.578-.596.89.423 2.289 1.277 2.374.853.086.603-.85.297-1.741-.297-.89.384-1.617.768-1.398.384.21-.212.843.172 1.57.384.718.815 1.53 1.199 2.296.384.765 1.786.039 1.786-1.36 0-1.405-.94-1.999 0-2.342.94-.336.681-1.102 1.324-.852.634.258.266.898 1.574.766 1.308-.125 1.536.132 1.567.289.031.164-1.277.195-1.402.992-.134.796-.517 1.429-.353 1.624.157.188 1.535.094 1.535.797 0 .703-.579.64-.869 1.367-.282.734-.219 1.695-.956 1.437-.736-.258-.995-.289-1.66.289-.674.57-1.152-.547-1.669.219-.509.765.87.453-.156 1.117-1.027.671-2.593-.735-3.04.414-.446 1.148 1.41.992 1.63 2.296.227 1.312-1.082 1.788-2.17 1.945-1.09.164-2.624.351-2.303 1.148.32.797 2.177.86.383 2.328-1.793 1.468-2.937 2.39-2.976 3.444-.032 1.054-.8 1.304-1.308 1.851-.51.54.258.125-.094 1.687-.353 1.562.031 1.594 1.214 1.469 1.183-.133 1.41.89 1.41 1.812 0 .93.094 2.491 1.183 2.202 1.08-.289 1.37-1.242 2.075-.992.706.258.604.703 1.403.64.799-.062 0 .829 1.12.891 1.12.063 1.441-.062 1.504 1.055.063 1.117 7.833.031 8.154.828.322.796-.924.734-.611 1.655.322.93 2.115.578 1.888 2.078-.219 1.492-.188 2.257 1.12 3.218 1.308.953 1.567 1.687 2.178 1.5.603-.196.83-.96 1.308-.414.478.539 1.598-.07 1.535-.445-.062-.383.416-2.328-.477-2.586-.901-.258-1.183-1.148-1.254-2.07-.062-.929-1.214-1.726-.219-2.811.987-1.078 2.843-.86 1.441-3.984-1.41-3.124-3.392-3.694-3.07-4.905.321-1.21.955 0 .893-2.171-.063-2.164-1.661-1.976-1.661-2.93 0-.96 1.089-.515.509-1.725-.572-1.211-.572-2.61.58-2.61 1.143 0 2.107-.195 2.937-.515.831-.32 1.089 1.023 2.366 1.531 1.277.508 1.919 1.086 3.392.89 1.465-.187.893 1.977 1.277 2.68.383.703.321 1.913 1.981 1.913 1.661 0 1.92-.062 2.687-.187.768-.133 1.536-.578 1.152-1.531-.384-.96-1.026-1.914-.705-2.421.321-.516-.509-.766.258-.899.768-.125-.517-2.1 1.019-1.656 1.535.446-.063 2.172 2.365 2.742 2.436.578 4.99 2.484 4.481 3.507-.517 1.023.705 2.804 2.366 2.742 1.66-.063 1.214 1.335 2.491 1.335 1.276 0 1.856-.953 2.044-.25.196.703.447.445-.313 1.531-.768 1.086-1.348 1.086-.838 1.718.517.641 2.24-.062 2.365-.702.133-.633.705-1.398 1.285-.953.572.445 1.535.828 2.107 1.656.58.828 1.34 2.616 0 2.936-1.339.313-.446 1.594-1.41 2.61-.956 1.022-1.849 2.616-3.768 2.678-1.919.063-3.838.89-6.008 2.109-2.178 1.21-2.052 1.843-2.561 3.218-.51 1.367-2.045 1.562-2.491 3.218-.423 1.554-.784 3.343-.353 3.343a.21.21 0 00.094-.023c.572-.258 1.473-.836 1.34-1.664-.126-.828.321-1.593 1.222-2.359.893-.765 1.081-3.374 3.384-2.866 2.303.507 3.07-.64 2.749.445-.321 1.085-.384 1.85-1.089 1.913-.697.063-1.339.64-.384 1.149.964.507 1.606.187 1.982 1.335.384 1.148.705.898 1.857.898 1.151 0 2.561-.898 2.624.188.063 1.086-1.598 1.148-2.178 2.1-.572.962-1.535 2.492-1.982 2.492-.446 0 .063-1.273.447-1.913.384-.64 0-1.406-.635-.89-.462.367-1.245.437-1.605.867l-.008.007c-.141.172-.212.399-.18.719.133 1.148-.251 1.78-1.34 2.101-1.089.32-3.392 1.789-3.329 3.25.07 1.468.963 2.936.384 3.764-.572.828-3.705.89-3.768 2.484-.063 1.593.446 1.85-.705 2.491-1.152.633-.125 1.914-.705 3.445-.572 1.523-2.045.383-1.786 1.843.251 1.469.697 3.124.125 3.187-.579.07-2.749-.953-1.919.453.83 1.398 3.455 1.078 2.687 2.929-.768 1.851.768.258-.133 1.976-.893 1.726-2.233 1.53-2.107 2.867.125 1.343-.063 1.085-1.473 2.108-1.402 1.016-.83 2.039-2.491 3.445-1.661 1.398-1.919 1.078-1.089 4.335.83 3.25 1.919 1.78 1.277 3.757-.635 1.976 3.329 4.147 3.454 6.701.134 2.547-.321 3.054-.767 3.187-.447.125-1.661-.258-2.233-1.914-.579-1.655-1.856-1.023-2.499-2.491-.634-1.46-1.402-4.273-2.303-4.585-.893-.32-2.295-1.851-3.321-1.21-1.026.632-1.41 1.46-2.428.382-1.026-1.086-2.115-1.343-4.16-1.023-2.044.32-6.65 1.273-5.499 1.593 1.152.32 1.857.258 1.473.953-.384.703-.83 1.406-1.794 1.406-.956 0-2.17-1.273-3.133-.64-.956.64-1.598.703-2.812.578-1.215-.125-.956 1.21-2.108.32-1.151-.898-1.856-.063-1.793.633.062.702.963.898-.322 1.726-1.276.828-2.303-.258-2.49 1.273-.189 1.53-.447 1.335-1.473 2.359-1.019 1.023.705 1.788.705 3.444 0 .117 0 .219-.008.313v.007c-.016 1.25-.165.781-.823 2.742-.704 2.101.322 4.015.768 5.288.447 1.273-.063 1.656.447 2.171.509.508-.51 2.421 2.107 2.93 2.624.515 1.598 3.186 3.133 3.256 1.535.063 3.588-.383 4.034 0 .447.383 2.687.773 4.285 0 1.598-.765 1.465-.515 2.491-.765 1.026-.258.831-.836.447-3.125-.384-2.296-.322-3.382 1.347-3.64 1.661-.25 4.026-1.655 5.366-1.148 1.347.516 1.559 1.578.532 2.68-1.018 1.109-1.402 1.148-.383 2.124 1.026.984.258 1.406.344 2.086.086.68.47 1.827-.047 1.913-.423.07-1.143-.414-1.277-.031m14.359 15.043c.736.914 1.676 2.07 2.522 2.327" stroke="#676B78" stroke-width="1.353" stroke-miterlimit="10"/><path d="M108.329 35.682c-.055.352.313.5.822.5.603 0 1.402-.203 1.951-.5 1.026-.554.94-1.492 2.263-1.406 1.316.086 2.084.047 3.792-.25 1.707-.297 1.66-.554 1.872.04.117.32.595.421 1.026.538.376.094.713.211.768.485.125.593-.768 1.359-.509 3.014.25 1.656 1.746 2.851 1.018 3.445-.721.594-1.152 2.335-.423 3.015.227.219.533.601.877 1.03m-14.358-15.034a.837.837 0 00.008.343c.172.953 1.237 1.547.979 2.187-.251.64.047 1.82-.086 2.586" stroke="#676B78" stroke-width="1.353" stroke-miterlimit="10"/><path d="M144.973 43.898v.008c0 .117.016 1.312-.806 2.297-.862 1.023-1.645.492-1.52 2.132.125 1.64-.823 1.148-.658 2.25.164 1.108 1.723.327 1.723 1.804 0 1.476-.321 3.405 1.261 3.483 1.575.086 2.358-1.023 3.267-.367.901.656.697 1.437 2.632 1.562 1.927.117 4.394-.289 3.697.773-.697 1.07-1.026 2.875-.368 3.695.658.82 1.684 1.593 1.152 2.5-.541.898-.322 1.273.148 2.132l.094.187c.337.719.181 1.031 1.316 2.312 1.238 1.398 1.027.578 1.849.578.823 0 1.645.57 2.021-.125.368-.695.282-1.109 1.105-1.148.822-.04 2.06-.86 1.77-1.601-.29-.735-.987-.367-1.191-1.555-.203-1.195-1.731-2.42-1.316-2.874.408-.445 1.974.656 2.546.695.58.047.909-.445 1.199.164.282.617.446-.164.979-.53.54-.368 1.151.085 2.922-.407 1.543-.43 1.715-1.672 1.449-2.203a.414.414 0 00-.133-.18c-.408-.327-1.152.454-.948-1.061.211-1.516-.165-2.172.869-2.258 1.026-.078.345-.804.314-1.156-.032-.344 1.84-2.062 1.997-2.21.008-.008.008 0 .008 0v-.008" stroke="#676B78" stroke-width="1.015" stroke-miterlimit="10" stroke-linecap="round" stroke-linejoin="round"/><path d="M178.061 57.805v.008c-.047.117-.368 1.023 0 1.718.399.734-.838.57-1.332 1.101-.493.54-1.316 1.351-.658 2.172.658.82.909 1.109 1.238 2.218.211.71.478 1.015.344 1.453-.07.25-.274.538-.673.968-1.113 1.187-1.073 1.68-2.758 1.476-1.684-.21-1.684-1.109-2.263-2.296-.572-1.195-.447-1.687 0-2.46.454-.781 1.151-1.149.391-1.93-.76-.78-1.002-1.968-.963-2.171.039-.203-.431-.719-1.144-.398m14.413-1.617s.768 1.07 0 1.851c-.767.781.032 2.046 0 3.28-.031 1.227.008 2.789-.603 2.906-.274.055-.399-.031-.579-.133-.228-.125-.533-.265-1.316-.148-1.395.203-1.152.117-1.277.656-.118.531-.572 1.062-1.434.984-.869-.086-1.48-.867-1.48-.867" stroke="#676B78" stroke-width="1.015" stroke-miterlimit="10" stroke-linecap="round" stroke-linejoin="round"/><path d="M190.9 62.043s-.846 1.133-1.755 2.117c-.901.984-.823 2.171-1.481 2.5-.65.327-1.801.124-2.835.288-1.026.164-1.355-.992-1.355-.992m-54.442 2.688s1.528-.508 1.606 0c.086.515.948 1.914 2.099 1.914 1.152 0 1.974-.82 2.711 0 .744.82.948 1.265 2.177 1.265.141 0 .267.008.376.023.886.125.98.719 1.316 1.414.369.781 1.191 0 1.645.984.447.984.658 2.664 1.598 2.75.948.078 2.719.078 3.212-.25.494-.328.987-.406 1.81.039.822.453 2.177.375 1.355 1.109-.823.742-.948 1.351-.784 1.804.094.258.408.492.698.656.227.125.454.203.54.203.204 0 .94-1.554.94-2.538 0-.984.376-1.843.658-2.789.29-.945-1.026-2.42-1.151-3.32-.118-.905-.611-1.07-.04-1.397.58-.328 1.113-.258.533-1.031-.572-.773-.658-1.055-.078-1.547.572-.492 1.974-.047 3.251-.25 1.269-.203 2.091-1.328 2.091-1.328" stroke="#676B78" stroke-width="1.015" stroke-miterlimit="10" stroke-linecap="round" stroke-linejoin="round"/><path d="M126.322 78.55v.007l-.008.008c-.047.11-.306.734.298 1.296.658.617-.823 1.313 0 1.805.822.492 1.723-1.11 2.216 0 .494 1.109.948-.602 1.191-1.508.251-.914.329-1.648 2.632-1.976 2.303-.328 3.987-2.335 4.199-3.32.203-.984 1.151-3.014 1.151-3.014m11.389 8.706s-.203-.117-.54-.203a2.567 2.567 0 00-1.723.203c-1.238.617-1.316 1.148-2.468 1.273-1.151.125-1.277.328-1.559 1.234-.29.898-.822.281-1.566 1.554-.737 1.274-.04 1.766-.619 2.586-.572.82-.039 1.64.619 3.234.658 1.6.861 1.85 2.013 2.218 1.151.367.908 1.476 1.48 1.273.58-.211 1.935-1.687 2.554-1.031.611.656.204.945.446 2.132.251 1.187-.368.906 1.363 1.148.329.047.611.118.846.203 1.034.375 1.301 1.086 1.003 1.852-.368.937-.384 1.921.118 3.194.501 1.273.603 1.437 0 2.788-.611 1.352-1.027 1.641-.447 2.539.572.906.901 1.359.204 2.296-.235.313-.502.649-.744.984-.51.672-.972 1.36-1.027 1.93-.078.859-1.292.937-1.292.937" stroke="#676B78" stroke-width="1.015" stroke-miterlimit="10" stroke-linecap="round" stroke-linejoin="round"/><path d="M158.329 206.368s-1.105.281-3.517.461c-2.405.187-2.773-.117-2.773-1.164 0-1.046-.243-4.616-1.974-4.983-1.724-.367-.431-1.414-2.961-2.703-2.53-1.296-4.442-.679-4.442-1.968 0-1.296-1.48-1.601-1.786-3.077a4.318 4.318 0 01-.031-1.555c.172-.984.705-1.866 1.637-2.194 1.418-.492 1.849-1.359 1.911-3.57.063-2.21-.125-3.749.674-4.061.807-.305 1.112-2.461.556-3.257-.556-.797-1.974-1.719-1.104-2.89.861-1.172 1.167-2.273.493-4.429-.681-2.148-.807-4.983.118-5.905.924-.922 2.036-2.577 1.112-4.304-.924-1.718.799-5.287 1.606-5.967.799-.672 2.373-2.578 1.708-3.937-.658-1.351-1.645-3.686-1.089-4.975.548-1.297-1.301-2.46-.251-4.429 1.05-1.968 1.606-2.827 1.606-5.537 0-2.703 2.217-2.273 2.961-4.546.736-2.281-.313-3.757.611-4.921.924-1.172 2.843-2.093 1.856-3.632-.987-1.539-1.543-1.289-1.668-3.382s-1.293-2.156-1.175-3.194c.125-1.047-.055-2.515-1.042-3.351-.987-.836-.995-2.867-.995-2.867m24.816 41.126s-.697-.718-.446-1.452c.243-.742 1.245-.188 1.332-1.602.086-1.413-2.014-2.21-1.027-3.874.987-1.656 1.293-3.936 2.343-4.116 1.049-.187 1.605-.492 1.974.547.368 1.046.987 2.71 1.355 2.281.376-.43.744-1.172 1.856.179 1.105 1.359 2.836.984 2.961 2.093.118 1.078.588 4.124.619 4.304v.008" stroke="#676B78" stroke-width="1.015" stroke-miterlimit="10" stroke-linecap="round" stroke-linejoin="round"/><path d="M155.25 122.826s1.229-2.46 2.585-1.843c1.363.617 3.086.882 3.642.875.556-.016 1.167.812 1.543 0 .368-.813 1.105-1.016 1.849-.977.736.039 1.167-.086 1.418-1.929.243-1.843.987-2.827 2.71-3.132 1.731-.312 2.287-.125 3.392-.617 1.112-.492 2.225.617 3.4.367 1.167-.242.431-1.406.979-2.671.556-1.266-.737-1.695-.979-3.476-.251-1.789-.987-1.968-2.844-2.343-1.849-.367-2.091-1.531-2.091-3.07 0-1.538-.314-1.788-1.794-2.28-1.481-.493-1.293-1.227-2.711-1.352-1.417-.125.181-.921-3.149-1.538-3.329-.61-3.023-2.023-3.203-3.75-.188-1.718.799-2.21-1.669-1.843-2.467.367-2.898 1.78-4.128 1.719-1.238-.063-3.964 1.413-3.964 1.413" stroke="#676B78" stroke-width="1.015" stroke-miterlimit="10" stroke-linecap="round" stroke-linejoin="round"/><path d="M177.387 140.111s.125-2.28 1.731-2.71c1.598-.429 2.217-1.351 3.079-2.335.869-.984 2.35-.367 2.961-2.336.619-1.968-.055-3.632-.737-3.811-.25-.071-.352-.227-.383-.485-.063-.437.062-1.163-.047-2.28-.188-1.789-1.175-.5-1.732-.5-.556 0-.556-1.476-1.417-2.828-.862-1.351-.987-.679-2.773-1.476-1.794-.796-1.794-.617-1.669-1.906.125-1.288-.611-3.874-.611-3.874" stroke="#676B78" stroke-width="1.015" stroke-miterlimit="10" stroke-linecap="round" stroke-linejoin="round"/><path d="M164.869 120.883s.619 1.578 1.786 1.945c1.175.367 3.329 2.647 5.186 3.015 1.848.367 1.535.921 2.405 1.601.861.672 3.015.367 3.203 1.476.188 1.101-1.096.242-1.378 1.968-.282 1.719-.227 1.594-.964 2.515-.744.922.4 2.398 1.802 1.539 1.402-.859 1.285-1.656 2.64-1.539 1.355.125 2.898-.554 3.517-1.038.611-.493.971-3.929.971-3.929m-46.975-80.599c.383.273.509.57.344.984-.211.508 1.363 1.781.423 1.906-.572.078-1.465.125-2.021-.008-.352-.078-.572-.234-.493-.5.211-.68.344-1.78-.509-1.741-.854.039-1.113-.211-1.536-.344-.423-.125-1.621.172-1.833.383-.211.218.126.937-.509 1.148-.642.218 1.614 2 .548 2.382-1.065.383-1.402-.336-2.514-.336-1.105 0-.47-.765-1.919-.898-1.449-.125-.979-.125-1.912.64-.564.461-.838.586-1.159.524 0 0-.47-1.203 0-1.672.47-.468-.329-.976-.204-1.57.126-.601.549-.812.549-.812 1.237.383 1.919 1.234 3.493 1.234 1.583 0 2.899-2.296 4.567-2.124 1.661.172 3.705.257 4.348.593.125.07.243.14.337.211zM44.188-1.357s3.65-.375 3.972 0c.243.281.447 1 1.183 1.39.243.133.548.227.932.258 1.528.125 2.875.32 4.348.953 1.464.64 4.284.578 5.498 0 1.215-.57 2.938-.828 4.215-.508 1.285.32 1.731.578 3.07 2.617 1.348 2.039 2.045 1.593 3.197 2.804 1.151 1.21.963-1.406 2.177-1.273 1.214.125 3.008.125 3.838 2.101.83 1.976 2.366 1.656 2.554 3.507.196 1.851.321 1.718 2.178 2.804 1.77 1.039 3.188.789 3.313.766h.008M99.79 40.634s-.063-1.218 0-2.32c.062-1.108 1.339-1.491 2.663-1.655 1.316-.172 1.614-1.445 1.191-1.914-.423-.468-1.238-1.617-1.066-1.874.173-.25.423-.594 1.622-.594.556 0 .869.039 1.104.023.274 0 .47-.07.854-.32.682-.437 1.206-1.312 1.269-1.421l.008-.008" stroke="#676B78" stroke-width="1.015" stroke-miterlimit="10" stroke-linecap="round" stroke-linejoin="round"/><path d="M108.336 35.675h-.008v.008c-.078 0-.54.086-.893.593-.384.547-.979.805-1.151.164-.165-.632.219-1.694-.47-2.46-.682-.765-.509-1.671-.509-1.671m3.838 3.867l.008.008c.063.086.399.648-.815 1.156-1.324.546-1.684.468-1.527 1.062.125.492.446.773 0 1.242a2.27 2.27 0 01-.392.328c-.979.68-1.151 1.484-1.128 1.906" stroke="#676B78" stroke-width="1.015" stroke-miterlimit="10" stroke-linecap="round" stroke-linejoin="round"/><path d="M110.491 42.53s.525-.773.227-1.585c-.297-.805-2.021-1.46-3.908-1.305m13.245-5.042v.008c-.039.085-.611 1.546-1.191 1.835-.595.297-2.091-.508-2.514 0-.431.515.297 1.617-.22 2.171-.509.555-1.574-.617-2.514.414-.932 1.031-.478 3.788-1.637 3.773h-.008m4.042 3.802s.376-.851 1.786-1.148c1.402-.297 1.237-.297 1.919 0 .65.281 1.943.156 2.068.14h.008" stroke="#676B78" stroke-width="1.015" stroke-miterlimit="10" stroke-linecap="round" stroke-linejoin="round"/></g><defs><clipPath id="clip0_447_15924"><path fill="#fff" d="M0 0h235v220H0z"/></clipPath></defs></svg>