<svg width="98" height="122" fill="none" xmlns="http://www.w3.org/2000/svg"><path opacity=".2" d="M52.654 94.651c6.421 0 11.627-1.007 11.627-2.25 0-1.242-5.206-2.249-11.627-2.249-6.422 0-11.628 1.007-11.628 2.25 0 1.242 5.206 2.25 11.628 2.25z" fill="#2D3C5B"/><path d="M55.428 92.403h-5.549l1.641-45.778h2.739l1.169 45.778z" fill="#C47723"/><path d="M63.974 44.587c0 8.656-5.088 15.663-11.368 15.663s-11.368-7.007-11.368-15.663c0-8.657 11.368-38.735 11.368-38.735S63.974 35.93 63.974 44.587z" fill="#0EE02C"/><path opacity=".2" d="M54.602 60.015l.826 32.387h-2.822V5.852S63.974 35.93 63.974 44.587c0 7.714-4.037 14.132-9.372 15.428zm21.012 53.906c6.422 0 11.628-1.007 11.628-2.25 0-1.242-5.206-2.249-11.628-2.249s-11.628 1.007-11.628 2.249c0 1.243 5.206 2.25 11.628 2.25z" fill="#2D3C5B"/><path d="M78.388 111.673H72.84l1.64-45.802h2.74l1.168 45.802z" fill="#C47723"/><path d="M86.935 63.845c0 8.656-5.088 15.663-11.368 15.663s-11.368-7.007-11.368-15.663c0-8.657 11.368-38.736 11.368-38.736s11.368 30.08 11.368 38.736z" fill="#0EE02C"/><path opacity=".2" d="M77.562 79.273l.826 32.387h-2.821V25.11s11.368 30.078 11.368 38.735c0 7.725-4.05 14.132-9.373 15.428zm-51.398 28.925c6.422 0 11.628-1.007 11.628-2.249 0-1.243-5.206-2.25-11.628-2.25s-11.628 1.007-11.628 2.25c0 1.242 5.206 2.249 11.628 2.249z" fill="#2D3C5B"/><path d="M28.938 105.95H23.4l1.63-45.79h2.738l1.169 45.79z" fill="#C47723"/><path d="M37.496 58.122c0 8.656-5.088 15.664-11.368 15.664S14.76 66.778 14.76 58.122c0-8.656 11.368-38.735 11.368-38.735s11.368 30.079 11.368 38.735z" fill="#0EE02C"/><path opacity=".2" d="M28.112 73.538l.826 32.388h-2.821v-86.54s11.368 30.08 11.368 38.736c.011 7.726-4.038 14.12-9.373 15.416z" fill="#2D3C5B"/></svg>