<svg width="62" height="62" viewBox="0 0 62 62" fill="none" xmlns="http://www.w3.org/2000/svg">
<path d="M1.9375 31.0005C1.9375 36.7161 3.58437 42.0442 6.39375 46.5005H55.5094C58.3187 42.0442 59.9656 36.7161 59.9656 31.0005C59.9656 25.2849 58.3187 19.9567 55.5094 15.5005H6.39375C3.58437 19.9567 1.9375 25.2849 1.9375 31.0005Z" fill="#F9F9F9"/>
<path d="M55.6061 15.4995C50.4717 7.36201 41.3654 1.93701 30.9998 1.93701C20.6342 1.93701 11.5279 7.36201 6.39355 15.4995H55.6061ZM6.39355 46.4995C11.5279 54.637 20.6342 60.062 30.9998 60.062C41.3654 60.062 50.4717 54.637 55.6061 46.4995H6.39355Z" fill="#B4D7EE"/>
<path d="M44.2721 30.8062L36.3283 30.5156V30.4188C37.5877 30.225 38.5564 29.45 39.9127 29.5469C41.5596 29.7406 42.5283 28.7719 43.1096 28.5781C43.7877 28.3844 44.1752 28.7719 44.1752 28.5781C44.2721 28.3844 43.7877 27.9969 42.8189 28.0938C41.9471 28.1906 41.6564 28.9656 39.6221 28.7719C37.8783 28.675 37.2971 29.3531 36.0377 29.3531V29.2563L43.2064 25.9625C43.2064 25.9625 43.4002 25.8656 43.4002 25.6719C43.3033 25.4781 43.1096 25.575 43.1096 25.575L35.8439 28.4813V28.3844C36.9096 27.7063 37.4908 26.6406 38.8471 26.2531C40.3971 25.7688 40.9783 24.6063 41.4627 24.1219C41.9471 23.6375 42.5283 23.9281 42.5283 23.7344C42.5283 23.5406 41.9471 23.3469 41.1721 23.8313C40.3971 24.3156 40.3971 25.0906 38.4596 25.6719C36.8127 26.1563 36.5221 27.0281 35.3596 27.6094L35.2627 27.5125L40.6877 21.7C40.6877 21.7 40.8814 21.5063 40.7846 21.4094C40.6877 21.3125 40.4939 21.5063 40.4939 21.5063L34.6814 26.9312L34.5846 26.8344C35.3596 25.7688 35.4564 24.6063 36.5221 23.7344C37.7814 22.6688 37.7814 21.4094 38.0721 20.8281C38.3627 20.2469 38.9439 20.2469 38.8471 20.0531C38.7502 19.8594 38.1689 19.9562 37.5877 20.6344C37.0064 21.4094 37.2971 22.0875 35.8439 23.3469C34.5846 24.4125 34.5846 25.3813 33.8096 26.2531C33.8096 26.2531 33.7127 26.2531 33.7127 26.1563L36.4252 18.6969C36.4252 18.6969 36.5221 18.5031 36.3283 18.4063C36.1346 18.3094 36.0377 18.6 36.0377 18.6L32.7439 25.7688H32.6471C32.9377 24.5094 32.6471 23.3469 33.2283 22.1844C34.0033 20.7312 33.5189 19.4719 33.5189 18.8906C33.6158 18.2125 34.1002 18.0188 34.0033 17.9219C33.9064 17.7281 33.3252 18.1156 33.0346 18.9875C32.8408 19.8594 33.3252 20.4406 32.4533 22.1844C31.6783 23.7344 32.0658 24.5094 31.6783 25.6719H31.5814L31.2908 17.7281C31.2908 17.7281 31.2908 17.4375 31.0971 17.4375C30.9033 17.4375 30.9033 17.7281 30.9033 17.7281L30.6127 25.6719H30.5158C30.3221 24.4125 29.5471 23.4437 29.6439 22.0875C29.8377 20.4406 28.8689 19.4719 28.6752 18.8906C28.4814 18.3094 28.8689 17.825 28.6752 17.825C28.4814 17.7281 28.0939 18.2125 28.1908 19.1812C28.2877 20.0531 29.0627 20.3438 28.8689 22.3781C28.7721 24.1219 29.4502 24.7031 29.4502 25.9625H29.3533L26.0596 18.7937C26.0596 18.7937 25.9627 18.6 25.7689 18.6C25.5752 18.6969 25.6721 18.8906 25.6721 18.8906L28.3846 26.35H28.2877C27.6096 25.2844 26.5439 24.7031 26.1564 23.3469C25.6721 21.7969 24.5096 21.2156 24.0252 20.7312C23.5408 20.2469 23.8314 19.6656 23.6377 19.6656C23.4439 19.6656 23.2502 20.2469 23.7346 21.0219C24.2189 21.7969 24.9939 21.7969 25.5752 23.7344C26.0596 25.3813 26.9314 25.6719 27.5127 26.8344L27.4158 26.9312L21.6033 21.5063C21.6033 21.5063 21.4096 21.3125 21.3127 21.4094C21.2158 21.5063 21.4096 21.7 21.4096 21.7L26.8346 27.5125L26.7377 27.6094C25.6721 26.8344 24.5096 26.7375 23.6377 25.6719C22.5721 24.4125 21.3127 24.4125 20.7314 24.1219C20.1502 23.8313 20.1502 23.25 19.9564 23.3469C19.7627 23.4438 19.8596 24.025 20.5377 24.6063C21.3127 25.1875 21.9908 24.8969 23.2502 26.35C24.3158 27.6094 25.2846 27.6094 26.1564 28.3844C26.1564 28.3844 26.1564 28.4813 26.0596 28.4813L18.6002 25.7688C18.6002 25.7688 18.4064 25.6719 18.3096 25.8656C18.2127 26.0594 18.5033 26.1563 18.5033 26.1563L25.6721 29.45V29.5469C24.4127 29.2563 23.2502 29.5469 22.0877 28.9656C20.6346 28.1906 19.3752 28.675 18.7939 28.675C18.1158 28.5781 17.9221 28.0938 17.8252 28.1906C17.6314 28.2875 18.0189 28.8688 18.8908 29.1594C19.7627 29.3531 20.3439 28.8688 22.0877 29.7406C23.6377 30.5156 24.4127 30.1281 25.5752 30.5156V30.6125L17.6314 30.9031C17.6314 30.9031 17.3408 30.9031 17.3408 31.0969C17.3408 31.2906 17.6314 31.2906 17.6314 31.2906L25.5752 31.5812V31.6781C24.3158 31.8719 23.3471 32.6469 21.9908 32.55C20.3439 32.3562 19.3752 33.325 18.7939 33.5187C18.1158 33.7125 17.7283 33.325 17.7283 33.5187C17.6314 33.7125 18.1158 34.1 19.0846 34.0031C20.0533 33.9062 20.2471 33.2281 22.2814 33.325C24.0252 33.4219 24.6064 32.7438 25.8658 32.7438V32.8406L18.6971 36.1344C18.6971 36.1344 18.5033 36.2312 18.5033 36.425C18.5033 36.6187 18.7939 36.5219 18.7939 36.5219L26.2533 33.8094V33.9063C25.1877 34.5844 24.6064 35.65 23.2502 36.0375C21.7002 36.5219 21.1189 37.6844 20.6346 38.1688C20.1502 38.6531 19.5689 38.3625 19.5689 38.5562C19.5689 38.75 20.1502 38.9438 20.9252 38.4594C21.7002 37.975 21.7002 37.2 23.6377 36.6187C25.2846 36.1344 25.5752 35.2625 26.7377 34.6812L26.8346 34.7781L21.4096 40.5906C21.4096 40.5906 21.2158 40.7844 21.3127 40.8813C21.4096 40.9781 21.6033 40.7844 21.6033 40.7844L27.4158 35.3594L27.5127 35.4562C26.7377 36.5219 26.6408 37.6844 25.5752 38.5562C24.3158 39.6219 24.3158 40.8813 24.0252 41.4625C23.7346 42.0438 23.1533 42.0438 23.2502 42.2375C23.3471 42.4312 23.9283 42.3344 24.5096 41.6563C25.0908 40.9781 24.8002 40.2031 26.2533 38.9438C27.5127 37.8781 27.5127 36.9094 28.2877 36.0375C28.2877 36.0375 28.3846 36.0375 28.3846 36.1344L25.6721 43.5938C25.6721 43.5938 25.5752 43.7875 25.7689 43.8844C25.9627 43.9813 26.0596 43.6906 26.0596 43.6906L29.3533 36.5219H29.4502C29.1596 37.7813 29.4502 38.9438 28.8689 40.1063C28.0939 41.5594 28.5783 42.8188 28.4814 43.4C28.3846 44.0781 27.9002 44.2719 27.9971 44.3688C28.0939 44.5625 28.6752 44.175 28.9658 43.3031C29.1596 42.4313 28.6752 41.9469 29.5471 40.1063C30.3221 38.5563 29.9346 37.7812 30.3221 36.6187H30.4189L30.7096 44.5625C30.7096 44.5625 30.7096 44.8531 30.9033 44.8531C31.0971 44.8531 31.0971 44.5625 31.0971 44.5625L31.3877 36.6187H31.4846C31.6783 37.8781 32.4533 38.8469 32.3564 40.2031C32.1627 41.85 33.1314 42.8188 33.3252 43.4C33.5189 44.0781 33.1314 44.4656 33.3252 44.4656C33.5189 44.5625 33.9064 44.0781 33.8096 43.1094C33.7127 42.2375 32.9377 41.9469 33.1314 39.9125C33.2283 38.1688 32.5502 37.5875 32.5502 36.3281H32.6471L35.9408 43.4969C35.9408 43.4969 36.0377 43.6906 36.2314 43.6906C36.4252 43.5938 36.3283 43.4 36.3283 43.4L33.5189 35.8438H33.6158C34.2939 36.9094 35.3596 37.4906 35.7471 38.8469C36.2314 40.3969 37.3939 40.9781 37.8783 41.4625C38.3627 41.9469 38.0721 42.5281 38.2658 42.5281C38.4596 42.5281 38.6533 41.9469 38.1689 41.1719C37.6846 40.3969 36.9096 40.3969 36.3283 38.4594C35.8439 36.8125 34.9721 36.5219 34.3908 35.3594L34.4877 35.2625L40.3002 40.6875C40.3002 40.6875 40.4939 40.8813 40.5908 40.7844C40.6877 40.6875 40.4939 40.4938 40.4939 40.4938L35.0689 34.6812L35.1658 34.5844C36.2314 35.3594 37.3939 35.4563 38.2658 36.5219C39.3314 37.7813 40.5908 37.7812 41.1721 38.0719C41.7533 38.3625 41.7533 38.9438 41.9471 38.8469C42.1408 38.75 42.0439 38.1688 41.3658 37.5875C40.5908 37.0063 39.9127 37.2969 38.6533 35.8438C37.5877 34.5844 36.6189 34.5844 35.7471 33.7125C35.7471 33.7125 35.7471 33.6156 35.8439 33.6156L43.3033 36.3281C43.3033 36.3281 43.4971 36.425 43.5939 36.2313C43.6908 36.0375 43.4002 35.9406 43.4002 35.9406L36.2314 32.6469V32.55C37.4908 32.8406 38.6533 32.55 39.8158 33.1313C41.2689 33.9063 42.5283 33.4219 43.1096 33.4219C43.7877 33.5188 43.9814 34.0031 44.0783 33.9063C44.2721 33.8094 43.8846 33.2281 43.0127 32.9375C42.1408 32.7438 41.5596 33.2281 39.8158 32.3563C38.2658 31.5813 37.4908 31.9687 36.3283 31.5812V31.4844L44.2721 31.1938C44.2721 31.1938 44.5627 31.1938 44.5627 31C44.5627 30.8063 44.2721 30.8062 44.2721 30.8062Z" fill="#F6B40E"/>
<path d="M33.9064 30.3252C33.6158 30.0346 33.2283 29.8408 32.8408 29.8408C32.4533 29.8408 32.1627 30.0346 31.8721 30.3252C32.3564 30.7127 33.2283 30.7127 33.9064 30.3252ZM33.6158 30.2283C33.4221 30.4221 33.2283 30.5189 33.0346 30.5189C33.1314 30.4221 33.2283 30.3252 33.2283 30.2283C33.2283 30.1314 33.1314 30.0346 33.0346 29.9377C33.3252 30.0346 33.5189 30.1314 33.6158 30.2283ZM32.5502 29.9377C32.4533 30.0346 32.4533 30.1314 32.4533 30.2283C32.4533 30.3252 32.5502 30.5189 32.6471 30.5189C32.4533 30.5189 32.2596 30.4221 32.0658 30.2283C32.2596 30.1314 32.3564 30.0346 32.5502 29.9377Z" fill="#85340A"/>
<path d="M32.9371 29.5469C32.3559 29.5469 32.259 29.6437 32.0652 29.8375C31.7746 30.0312 31.6777 30.0312 31.6777 30.0312C31.6777 30.0312 31.6777 30.225 31.7746 30.1281C31.8715 30.1281 32.0652 30.0312 32.259 29.8375C32.5496 29.6437 32.7434 29.6438 33.034 29.6438C33.809 29.6438 34.1965 30.225 34.2934 30.225C34.3902 30.225 33.7121 29.5469 32.9371 29.5469Z" fill="#85340A"/>
<path d="M31.291 29.4515C31.1941 29.6452 31.1941 29.7421 31.1941 29.9359C31.0972 30.5171 31.1941 31.1952 31.5816 31.8734C31.5816 31.8734 31.6785 31.7765 31.7754 31.7765C31.3879 31.2921 31.291 30.7109 31.291 30.2265C31.291 29.9359 31.4847 29.7421 31.5816 29.5484C32.2597 28.9671 33.4222 29.064 34.391 29.839C33.5191 28.5796 32.2597 28.6765 31.291 29.4515Z" fill="#85340A"/>
<path d="M32.2592 30.7115C31.9686 30.5178 31.8717 30.4209 31.7748 30.4209C31.6779 30.4209 31.6779 30.5178 32.0654 30.7115C32.4529 30.9053 33.2279 31.0021 33.9061 30.4209C33.1311 30.8084 32.5498 30.8084 32.2592 30.7115ZM31.7748 32.2615C31.6779 32.2615 31.5811 32.1646 31.4842 32.0678C31.4842 32.1646 31.2904 32.3584 30.9998 32.3584C30.7092 32.3584 30.5154 32.0678 30.5154 32.0678C30.5154 32.1646 30.4186 32.2615 30.2248 32.2615C30.1279 32.2615 29.9342 32.1646 29.9342 31.9709C29.9342 31.874 30.0311 31.7771 30.1279 31.7771C29.9342 31.7771 29.8373 31.9709 29.8373 32.1646C29.8373 32.3584 30.0311 32.5521 30.2248 32.5521C30.3217 32.5521 30.4186 32.4553 30.5154 32.3584C30.6123 32.4553 30.9029 32.4553 30.9998 32.4553H31.0967C31.1936 32.4553 31.3873 32.4553 31.5811 32.3584C31.6779 32.4553 31.7748 32.5521 31.8717 32.5521C32.0654 32.5521 32.2592 32.3584 32.2592 32.1646C32.2592 31.9709 32.1623 31.874 31.9686 31.7771C32.0654 31.7771 32.1623 31.874 32.1623 31.9709C32.0654 32.1646 31.9686 32.2615 31.7748 32.2615ZM30.9998 33.1334C31.1936 33.1334 31.3873 32.9396 31.6779 33.1334C31.9686 33.3271 32.1623 33.424 32.3561 33.5209C31.9686 33.2303 31.7748 32.9396 31.3873 32.9396C31.2904 32.9396 31.0967 32.9396 30.9998 33.0365C30.8061 32.9396 30.7092 32.9396 30.6123 32.9396C30.2248 32.9396 30.0311 33.3271 29.6436 33.5209C29.8373 33.424 30.0311 33.2303 30.3217 33.1334C30.6123 33.0365 30.8061 33.1334 30.9998 33.1334Z" fill="#85340A"/>
<path d="M31 33.4234C30.8063 33.4234 30.7094 33.3265 30.4187 33.4234C30.225 33.4234 30.0313 33.4234 29.7406 33.5202H29.6438C30.5156 33.6171 30.1281 34.1015 31 34.1015C31.8719 34.1015 31.4844 33.6171 32.3563 33.5202H32.1625C31.3875 33.2296 31.2906 33.4234 31 33.4234ZM31 33.9077C30.3219 33.9077 30.5156 33.4234 29.7406 33.4234C30.5156 33.2296 30.6125 33.5202 31 33.5202C31.2906 33.5202 31.4844 33.3265 32.2594 33.4234C31.4844 33.5202 31.6781 33.9077 31 33.9077ZM31 34.1015C30.6125 34.1015 30.225 34.3921 30.225 34.8765C30.3219 34.489 30.6125 34.2952 31 34.2952C31.3875 34.2952 31.6781 34.5859 31.775 34.8765C31.775 34.3921 31.3875 34.1015 31 34.1015ZM30.4187 29.5484C30.6125 29.7421 30.7094 30.0327 30.7094 30.2265C30.8063 30.7109 30.6125 31.1952 30.225 31.7765C30.225 31.7765 30.3219 31.7765 30.4187 31.8734C30.7094 31.1952 30.9031 30.614 30.8062 29.9359C30.8062 29.7421 30.7094 29.6452 30.7094 29.4515C29.8375 28.6765 28.5781 28.5796 27.6094 29.839C28.5781 28.9671 29.8375 28.8702 30.4187 29.5484Z" fill="#85340A"/>
<path d="M29.8374 29.9361C30.128 30.1299 30.2249 30.2268 30.3218 30.2268C30.4187 30.2268 30.4187 30.1299 30.4187 30.1299C30.4187 30.1299 30.2249 30.1299 30.0312 29.9361C29.7405 29.7424 29.6437 29.6455 29.1593 29.6455C28.2874 29.6455 27.803 30.3236 27.8999 30.3236C27.9968 30.3236 28.3843 29.7424 29.1593 29.7424C29.353 29.7424 29.6437 29.7424 29.8374 29.9361Z" fill="#85340A"/>
<path d="M28.1904 30.3252C28.3842 30.5189 28.7717 30.6158 29.1592 30.6158C29.4498 30.6158 29.8373 30.5189 30.1279 30.3252C29.8373 30.0346 29.4498 29.8408 29.0623 29.8408C28.7717 29.8408 28.3842 30.0346 28.1904 30.3252ZM28.3842 30.3252C28.5779 30.1314 28.7717 29.9377 28.9654 29.9377C28.8686 30.0346 28.7717 30.1314 28.7717 30.2283C28.7717 30.4221 28.8686 30.5189 28.9654 30.5189C28.7717 30.6158 28.4811 30.5189 28.3842 30.3252ZM29.8373 30.2283C29.7404 30.3252 29.5467 30.4221 29.3529 30.5189C29.4498 30.4221 29.4498 30.3252 29.4498 30.2283C29.4498 30.1314 29.3529 30.0346 29.3529 29.9377C29.6436 30.0346 29.8373 30.1314 29.8373 30.2283Z" fill="#85340A"/>
<path d="M30.3217 30.4209C30.2248 30.4209 30.1279 30.5178 29.8373 30.7115C29.5467 30.9053 28.9654 30.9053 28.1904 30.5178C28.8686 31.099 29.6436 31.0021 30.0311 30.8084C30.4186 30.5178 30.4186 30.4209 30.3217 30.4209Z" fill="#85340A"/>
</svg>
