<svg width="62" height="62" viewBox="0 0 62 62" fill="none" xmlns="http://www.w3.org/2000/svg">
<g clip-path="url(#clip0_447_15728)">
<mask id="mask0_447_15728" style="mask-type:luminance" maskUnits="userSpaceOnUse" x="0" y="0" width="62" height="62">
<path d="M31 62C48.1208 62 62 48.1208 62 31C62 13.8792 48.1208 0 31 0C13.8792 0 0 13.8792 0 31C0 48.1208 13.8792 62 31 62Z" fill="white"/>
</mask>
<g mask="url(#mask0_447_15728)">
<path d="M0 0H62V62H0V0Z" fill="#6DA544"/>
<path d="M31 12.1328L56.6113 30.9992L31 49.8656L5.38867 30.9992L31 12.1328Z" fill="#FFDA44"/>
<path d="M21.0944 26.7604C20.4919 28.1461 20.1945 29.6453 20.2225 31.1561L39.8397 37.1865C40.704 35.952 41.2981 34.5491 41.5834 33.0693C36.667 25.1619 27.0885 23.3455 21.1065 26.7725L21.0944 26.7604Z" fill="#EEEEEE"/>
<path d="M30.9637 20.2227C29.1926 20.2272 27.45 20.668 25.8898 21.5063C23.7426 22.6648 22.052 24.5176 21.0945 26.7618C24.7635 25.9827 28.5707 26.1545 32.1546 27.2608C35.7385 28.3671 38.9801 30.3713 41.5715 33.0829C42.0529 30.6314 41.6677 28.0887 40.4816 25.8899C39.5566 24.1723 38.1827 22.7379 36.5065 21.7398C34.8303 20.7418 32.9145 20.2174 30.9637 20.2227ZM25.6719 30.334C23.824 30.3278 21.9862 30.6056 20.2227 31.1575C20.243 32.8865 20.6791 34.5852 21.4941 36.1102C22.1648 37.3573 23.0746 38.4601 24.1717 39.3555C25.2687 40.2508 26.5315 40.9212 27.8877 41.3283C29.244 41.7354 30.6671 41.8712 32.0759 41.728C33.4847 41.5849 34.8514 41.1654 36.098 40.4938C37.5781 39.6968 38.8512 38.5647 39.8156 37.1879C38.116 35.0658 35.9644 33.3495 33.5177 32.1638C31.071 30.9782 28.3907 30.3531 25.6719 30.334Z" fill="#0052B4"/>
</g>
</g>
<defs>
<clipPath id="clip0_447_15728">
<rect width="62" height="62" fill="white"/>
</clipPath>
</defs>
</svg>
