<svg width="62" height="62" viewBox="0 0 62 62" fill="none" xmlns="http://www.w3.org/2000/svg">
<path d="M50.7623 9.6875C45.5311 4.84375 38.6529 1.9375 30.9998 1.9375C23.3467 1.9375 16.4686 4.84375 11.2373 9.6875H50.7623ZM11.2373 52.3125C16.4686 57.1562 23.3467 60.0625 30.9998 60.0625C38.6529 60.0625 45.5311 57.1562 50.7623 52.3125H11.2373Z" fill="#2A5F9E"/>
<path d="M1.9375 31C1.9375 35.1656 2.80937 39.0406 4.35938 42.625H57.6406C59.1906 39.0406 60.0625 35.1656 60.0625 31C60.0625 26.8344 59.1906 22.9594 57.6406 19.375H4.35938C2.80937 22.9594 1.9375 26.8344 1.9375 31Z" fill="#C94747"/>
<path d="M11.2377 52.3125H50.6658C53.5721 49.6 55.9939 46.3063 57.5439 42.625H4.2627C6.00645 46.3063 8.33145 49.6 11.2377 52.3125ZM50.7627 9.6875H11.2377C8.33145 12.4 5.90957 15.6937 4.35957 19.375H57.6408C55.9939 15.6937 53.6689 12.4 50.7627 9.6875Z" fill="#F9F9F9"/>
</svg>
