<svg width="62" height="62" viewBox="0 0 62 62" fill="none" xmlns="http://www.w3.org/2000/svg">
<path d="M60.0625 31H1.9375C1.9375 36.3281 3.39062 41.2688 5.8125 45.5312H56.1875C58.6094 41.2688 60.0625 36.3281 60.0625 31Z" fill="#2A5F9E"/>
<path d="M31 1.9375C14.9187 1.9375 1.9375 14.9187 1.9375 31H60.0625C60.0625 14.9187 47.0812 1.9375 31 1.9375Z" fill="#FFE62E"/>
<path d="M31 60.0625C41.7531 60.0625 51.15 54.25 56.1875 45.5312H5.8125C10.85 54.25 20.2469 60.0625 31 60.0625Z" fill="#ED4C5C"/>
<path d="M24.5898 28.6287L25.3668 29.4231L25.7 28.5154L25.8114 27.9477C25.7 26.359 25.8114 24.7702 25.8114 24.7702L26.0343 24.9979L25.1449 24.0902L24.5898 23.5234V28.6287Z" fill="#034EA2"/>
<path d="M25.8115 27.947L26.5885 25.5639L25.8115 24.7695V27.947Z" fill="#ED1C24"/>
<path d="M24.5895 23.5264L25.1446 24.0932L22.4796 21.371C22.3682 21.2567 22.3682 23.7531 22.3682 26.4763L24.5895 28.7451V23.5264Z" fill="#FFDD00"/>
<path d="M25.3663 38.2721C23.4792 37.1376 23.2564 33.6201 23.2564 33.0524V26.9261L23.8124 27.4937L21.1464 24.7706C20.9246 24.5439 21.1464 32.1447 21.1464 35.4356C21.1464 37.0243 22.1462 42.583 27.6991 39.7465C27.6991 39.7465 30.4755 38.7254 31.3639 37.4777H30.8088C30.6974 37.591 30.5859 37.591 30.4755 37.591C27.2544 39.8598 25.3663 38.2721 25.3663 38.2721Z" fill="#FFDD00"/>
<path d="M23.2568 33.0521C23.2568 33.5064 23.4796 37.024 25.2563 38.1574C25.2563 38.1574 27.1444 39.7462 30.476 37.5907C29.4762 38.045 28.6993 38.045 28.1432 37.9307C26.5884 37.4773 24.9231 35.6619 24.7012 33.7331C24.4784 31.8053 24.4784 28.1735 24.4784 28.1735L24.7012 28.4011L23.8129 27.4934L23.2568 27.0391V33.0521Z" fill="#034EA2"/>
<path d="M25.5896 30.6722V29.1968C25.2563 28.8578 25.7 29.3112 24.8117 28.4025L24.5898 28.1758V28.2901C24.5898 28.7435 24.5898 32.0333 24.8127 33.7354C25.0345 35.6642 26.6998 37.4797 28.2546 37.933C28.8097 38.0473 29.5876 38.0473 30.5864 37.594C30.6978 37.594 30.6978 37.4797 30.8092 37.4797C27.81 37.1396 25.9228 34.4165 25.5896 30.6722Z" fill="#ED1C24"/>
<path d="M36.6939 38.3843C38.4716 37.2499 38.8048 33.7324 38.6934 33.279V27.1517L38.1383 27.7194L40.8033 24.9972C41.0262 24.7695 40.8033 32.3713 40.8033 35.6612C40.8033 37.2499 39.8036 42.8086 34.2507 39.9721C34.2507 39.9721 31.4743 38.952 30.5859 37.7033H31.142C31.2524 37.7033 31.3638 37.8167 31.3638 37.8167C34.8068 39.9731 36.6939 38.3843 36.6939 38.3843Z" fill="#FFDD00"/>
<path d="M38.6937 33.1664C38.6937 33.6198 38.4709 37.1373 36.6942 38.2717C36.6942 38.2717 34.8071 39.8605 31.4746 37.704C32.4744 38.1584 33.2523 38.1584 33.8074 38.045C35.3622 37.5907 37.0275 35.7752 37.2503 33.8465C37.4721 31.9187 37.4721 28.2878 37.4721 28.2878L37.2493 28.5145L38.1386 27.6068L38.6937 27.0391V33.1664Z" fill="#034EA2"/>
<path d="M36.4735 30.7846V29.3101L37.2505 28.5158L37.4723 28.2891V28.4024C37.4723 28.8558 37.4723 32.1457 37.2495 33.8477C37.0276 35.7765 35.4728 37.592 33.8075 38.1587C33.2524 38.273 32.4745 38.273 31.4748 37.8196C31.3643 37.8196 31.3643 37.7053 31.2529 37.7053C34.1398 37.2519 36.1393 34.5288 36.4726 30.7846" fill="#ED1C24"/>
<path d="M25.4785 30.0281C25.4785 34 27.9973 37.1969 31.0004 37.1969C34.0035 37.1969 36.5223 34 36.5223 30.0281C36.5223 26.0562 34.0035 22.8594 31.0004 22.8594C27.9973 22.8594 25.4785 26.1531 25.4785 30.0281Z" fill="#8CDDEA"/>
<path d="M25.4785 30.3203C25.4785 34.2922 27.9973 37.4891 31.0004 37.4891C34.1004 37.4891 36.5223 34.2922 36.5223 30.3203H25.4785Z" fill="#6DD337"/>
<path d="M25.6719 30.5179L36.1344 30.7117L36.2313 29.9367C36.2313 29.8398 36.425 29.7429 36.1344 29.7429C34.9719 29.646 35.4563 29.5492 34.7781 29.5492C34.5844 29.5492 30.1281 28.4835 29.7406 28.4835C29.3531 28.3867 25.8656 28.9679 25.8656 28.9679L25.6719 30.5179Z" fill="#557176"/>
<path d="M25.5752 28.6732L27.2221 29.3514C27.2221 29.3514 29.3533 28.9639 29.5471 29.0607C29.7408 29.1576 31.5814 29.4482 31.6783 29.4482H34.4877H34.3908C34.1971 29.3514 32.0658 28.7701 31.8721 28.6732C31.7752 28.5764 30.1283 27.9951 30.0314 27.8014C29.8377 27.6076 28.6752 26.9295 28.4814 26.9295C28.2877 26.8326 25.5752 28.6732 25.5752 28.6732Z" fill="white"/>
<path d="M33.3246 23.057C33.3246 23.057 32.259 22.3789 30.9027 22.3789C29.8371 22.3789 28.7715 22.9602 28.7715 22.9602C27.609 23.6383 26.6402 24.8977 26.059 26.4477C25.6715 27.5133 25.3809 28.7727 25.3809 30.032C25.3809 33.8102 27.4152 36.7164 30.0309 37.4914C30.0309 37.4914 30.4184 37.6852 30.9027 37.6852C31.3871 37.6852 31.8715 37.5883 31.8715 37.5883C34.4871 36.9102 36.6184 33.907 36.6184 30.1289C36.6184 25.1883 32.8402 22.6695 33.3246 23.057ZM31.9684 37.1039C31.9684 37.1039 31.484 37.2008 30.9996 37.2008C30.5152 37.2008 30.0309 37.1039 30.0309 37.1039C27.7059 36.4258 25.8652 33.6164 25.8652 30.2258C25.8652 29.0633 26.1559 27.8039 26.5434 26.8352C27.1246 25.4789 27.9965 24.3164 29.0621 23.7352C29.0621 23.7352 30.1277 23.057 30.9996 23.057C32.259 23.057 33.2277 23.7352 33.2277 23.7352C34.9715 24.8008 36.2309 27.3195 36.2309 30.1289C36.134 33.6164 34.2934 36.5227 31.9684 37.1039Z" fill="#B1BABF"/>
<path d="M27.7059 30.225L29.3527 32.4531L26.834 33.9062C26.834 33.9062 27.0277 34.4875 27.5121 35.1656C27.9965 35.7469 29.159 37.0062 30.2246 37.1031C31.3871 37.2 32.1621 37.2 32.8402 36.8125C33.4215 36.425 34.2934 35.9406 34.8746 34.9719C35.4559 34.1 35.4559 33.9062 35.4559 33.9062C35.4559 33.9062 31.7746 33.1313 31.6777 33.1313C31.5809 33.0344 28.0934 30.3219 27.9965 30.225C27.8996 30.1281 28.7715 29.0625 28.7715 29.0625L27.7059 30.225Z" fill="#034EA2"/>
<path d="M30.1279 38.5547H31.9686V43.3016H30.1279V38.5547Z" fill="#ED1C24"/>
<path d="M28.6748 38.9453H30.5154V43.6922H28.6748V38.9453ZM31.4842 38.9453H33.3248V43.6922H31.4842V38.9453Z" fill="#034EA2"/>
<path d="M28.2871 38.9453H29.4496V44.9516H28.2871V38.9453ZM32.5496 38.9453H33.7121V44.9516H32.5496V38.9453Z" fill="#FFDD00"/>
<path d="M26.6406 36.9102H35.3594V39.2352H26.6406V36.9102Z" fill="white"/>
<path d="M36.425 17.9219C34.6812 17.9219 32.8406 19.8594 31 19.8594C29.1594 19.8594 27.3187 17.9219 25.575 17.9219C23.9281 17.9219 17.4375 19.8594 17.4375 19.8594C26.4469 19.8594 31 24.7031 31 24.7031C31 24.7031 35.5531 19.8594 44.5625 19.8594C44.5625 19.8594 38.0719 17.9219 36.425 17.9219Z" fill="#594640"/>
<path d="M31.0004 20.2469C31.6424 20.2469 32.1629 19.7264 32.1629 19.0844C32.1629 18.4423 31.6424 17.9219 31.0004 17.9219C30.3584 17.9219 29.8379 18.4423 29.8379 19.0844C29.8379 19.7264 30.3584 20.2469 31.0004 20.2469Z" fill="#F9F9F9"/>
</svg>
