<svg width="62" height="62" viewBox="0 0 62 62" fill="none" xmlns="http://www.w3.org/2000/svg">
<path d="M60.0625 31.0016C60.0625 18.3109 52.0219 7.55781 40.6875 3.58594V58.4172C52.0219 54.4453 60.0625 43.6922 60.0625 31.0016Z" fill="#ED4C5C"/>
<path d="M1.9375 31.0016C1.9375 43.6922 10.075 54.4453 21.3125 58.4172V3.58594C10.075 7.55781 1.9375 18.3109 1.9375 31.0016Z" fill="#75A843"/>
<path d="M40.6875 3.58438C37.6844 2.51875 34.3906 1.9375 31 1.9375C27.6094 1.9375 24.3156 2.51875 21.3125 3.58438V58.4156C24.3156 59.4813 27.6094 60.0625 31 60.0625C34.3906 60.0625 37.6844 59.4813 40.6875 58.4156V3.58438Z" fill="white"/>
<path d="M39.4283 30.7102C39.3314 30.4195 39.2346 30.807 39.2346 30.9039C39.2346 30.6133 39.1377 30.4195 38.9439 30.1289C38.6533 30.4195 38.5564 30.807 38.5564 31.1945C38.4596 30.9039 38.3627 30.6133 38.0721 30.5164C38.2658 30.807 38.1689 31.0008 38.1689 31.2914C38.1689 31.6789 38.4596 31.9695 38.4596 32.357C38.4596 32.7445 38.2658 33.0352 37.9752 33.3258V33.0352C37.0064 33.4227 37.2002 33.907 37.2002 34.7789C37.2002 35.6508 36.7158 35.457 36.1346 35.9414C36.2314 35.7477 36.2314 35.457 36.1346 35.2633C36.1346 35.8445 35.3596 35.8445 35.2627 36.3289C35.1658 36.5227 35.2627 36.9102 34.9721 37.007C34.7783 37.1039 34.4877 37.2977 34.4877 37.4914C34.2939 37.3945 34.1002 37.3945 33.8096 37.3945C33.9064 37.2977 34.0033 37.2977 34.1002 37.2008C33.1314 36.7164 32.8408 37.782 31.9689 37.8789C31.6783 37.8789 31.0002 37.4914 31.0002 37.8789C31.8721 37.8789 32.2596 38.6539 32.9377 38.6539C33.5189 38.6539 34.0033 38.1695 34.5846 38.1695C34.4877 38.1695 34.1971 37.9758 33.9064 37.9758C34.3908 37.6852 34.6814 37.1039 35.2627 37.1039C36.2314 37.1039 36.7158 36.9102 37.0064 35.9414C36.9096 35.9414 36.8127 35.9414 36.7158 36.0383C36.7158 35.6508 37.1033 35.1664 37.4908 34.9727C38.4596 34.7789 38.3627 34.0039 38.9439 33.3258C38.7502 33.3258 38.5564 33.4227 38.3627 33.6164C38.3627 33.0352 38.2658 32.4539 38.7502 32.0664C39.7189 31.582 39.6221 31.3883 39.4283 30.7102ZM22.5721 30.7102C22.3783 31.4852 22.2814 31.6789 23.0564 32.1633C23.6377 32.5508 23.4439 33.132 23.4439 33.7133C23.2502 33.5195 23.1533 33.4227 22.8627 33.4227C23.4439 34.0039 23.3471 34.8758 24.3158 35.0695C24.6064 35.2633 25.0908 35.7477 25.0908 36.1352C24.9939 36.1352 24.8971 36.0383 24.8002 36.0383C25.0908 37.007 25.5752 37.2008 26.5439 37.2008C27.1252 37.2008 27.4158 37.782 27.9002 38.0727C27.6096 38.0727 27.3189 38.1695 27.2221 38.2664C27.8033 38.2664 28.2877 38.8477 28.8689 38.7508C29.5471 38.7508 30.0314 37.9758 30.8064 37.9758C30.8064 37.5883 30.1283 37.9758 29.8377 37.9758C29.0627 37.782 28.7721 36.8133 27.7064 37.2008C27.8033 37.2977 27.9002 37.3945 27.9971 37.3945C27.8033 37.3945 27.5127 37.2977 27.3189 37.4914C27.2221 37.2977 27.0283 37.1039 26.8346 37.007C26.6408 36.8133 26.6408 36.5227 26.5439 36.3289C26.3502 35.8445 25.6721 35.7477 25.6721 35.2633C25.5752 35.457 25.5752 35.7477 25.6721 35.9414C25.0908 35.457 24.6064 35.6508 24.6064 34.7789C24.6064 34.0039 24.8002 33.4227 23.8314 33.0352V33.3258C23.5408 33.0352 23.3471 32.8414 23.3471 32.357C23.3471 31.9695 23.7346 31.6789 23.6377 31.2914C23.6377 31.0008 23.5408 30.807 23.7346 30.5164C23.4439 30.6133 23.3471 30.9039 23.2502 31.1945C23.2502 30.807 23.1533 30.4195 22.8627 30.1289C22.7658 30.3227 22.6689 30.6133 22.5721 30.9039C22.6689 30.7102 22.5721 30.4195 22.5721 30.7102Z" fill="#75A843"/>
<path d="M33.6158 36.5203C33.4221 36.5203 33.3252 36.3266 33.2283 36.2297C33.2283 36.0359 34.0033 35.8422 34.1002 35.8422V35.6484C32.8408 36.0359 29.0627 36.3266 28.2877 34.9703C27.9002 35.5516 27.2221 35.1641 26.5439 34.6797C26.6408 34.8734 27.0283 35.8422 27.0283 35.7453C27.2221 35.8422 28.4814 36.1328 28.4814 36.4234L28.1908 36.7141C30.2252 37.3922 31.4846 37.5859 33.6158 36.5203Z" fill="#428BC1"/>
<path d="M32.3563 36.5186C32.4531 36.4217 32.4531 36.3248 32.4531 36.1311L32.3563 35.8405C32.55 35.6467 32.3562 35.1623 32.0656 35.2592C31.8719 35.3561 31.9687 35.3561 31.775 35.2592C31.6781 35.2592 31.6781 35.1623 31.5812 35.1623H29.8375C29.6437 35.1623 29.6437 35.0655 29.45 35.0655C29.2562 34.9686 29.1594 35.1623 29.0625 35.2592C29.0625 35.453 29.1594 35.453 29.1594 35.5498C29.1594 35.6467 29.0625 35.7436 29.0625 35.9373C29.0625 36.1311 29.1594 36.228 29.2563 36.3248C28.8688 36.6155 29.2563 37.0998 29.6438 36.8092C29.7406 37.003 30.0312 37.003 30.3219 37.003H31.3875C31.5813 37.003 31.9687 37.0998 32.0656 36.8092C32.3562 37.2936 32.7438 36.7123 32.3563 36.5186Z" fill="#ED4C5C"/>
<path d="M35.4559 34.0027C34.6809 33.034 34.2934 34.4871 33.4215 34.3902C33.6153 33.2277 31.8715 33.6152 31.3871 33.9059C31.484 33.809 31.5809 33.6152 31.6778 33.4215C31.2903 33.4215 30.8059 33.6152 30.5153 33.3246C29.934 32.9371 29.159 32.7434 28.6746 33.4215C28.2871 32.8402 27.2215 32.259 26.6403 32.8402C26.6403 32.259 26.059 31.3871 25.3809 31.484C24.6059 31.5809 24.8965 32.5496 25.284 32.9371C25.5746 33.2277 25.9621 33.3246 26.3496 33.3246C26.3496 33.5184 26.4465 33.6152 26.5434 33.7121C27.0278 34.0996 27.9965 34.1965 28.4809 33.809C28.4809 34.7777 30.4184 34.7777 30.9028 34.2934C30.709 34.7777 30.5153 35.7465 31.1934 35.7465C31.7746 35.7465 31.5809 35.1652 32.0653 34.9715C32.4528 34.7777 32.9371 34.6809 33.3246 34.8746C34.0028 35.2621 36.134 35.1652 35.4559 34.0027Z" fill="#428BC1"/>
<path d="M27.5124 31.583C27.4155 31.3893 27.2218 31.1955 27.2218 31.1955C26.8343 31.2924 26.8343 31.0018 26.7374 30.7112C26.6405 30.2268 25.9624 30.033 25.9624 29.6455C25.9624 29.258 26.3499 28.8705 26.0593 28.483C25.7687 28.0955 25.2843 27.9018 25.2843 28.0955C25.1874 28.2893 25.6718 28.2893 25.6718 28.7737C25.6718 29.3549 25.0905 29.8393 25.7687 30.3237C26.1562 30.9049 26.1562 31.9705 26.8343 31.9705C27.1249 31.9705 27.4155 31.8737 27.5124 31.583Z" fill="#75A843"/>
<path d="M28.9658 31.0986C28.772 30.7111 28.9658 30.1299 28.5783 29.8392C28.0939 29.4517 27.1252 30.2267 27.0283 29.258C27.0283 29.0642 28.0939 27.9017 28.2877 27.8049C28.5783 27.4174 28.4814 26.7392 28.1908 26.5455C27.8033 26.3517 27.7064 26.5455 27.4158 26.933C27.5127 27.0299 27.9002 27.2236 27.9002 27.3205C27.6095 27.9986 26.7377 28.0955 26.5439 28.7736C26.3502 29.258 26.447 30.033 26.9314 30.3236C27.222 30.5174 27.4158 30.5174 27.7064 30.5174C28.5783 30.4205 28.0939 30.6142 28.1908 30.808C28.1908 31.0017 28.4814 31.6799 28.9658 31.0986ZM26.0595 26.3517C26.0595 26.933 26.6408 26.8361 27.0283 26.7392C27.0283 26.5455 27.0283 26.3517 27.1252 26.158C26.9314 26.2549 26.6408 26.2549 26.5439 26.158C26.2533 25.9642 27.222 25.5767 27.1252 25.5767C27.1252 25.5767 26.1564 26.0611 26.5439 25.4799C26.6408 25.2861 26.8345 25.0924 26.9314 24.8986C27.0283 24.7049 26.6408 24.8986 26.6408 24.8986C26.5439 24.8986 26.447 24.8986 26.3502 24.9955C25.7689 25.4799 25.9627 25.7705 26.0595 26.3517Z" fill="#75A843"/>
<path d="M36.3279 26.35C35.8435 25.6719 34.0029 23.4438 31.3873 23.25C31.0967 23.25 30.3217 23.5406 30.031 23.6375C29.1592 24.2187 30.9998 24.7031 31.0967 25.0906C31.0967 25.2844 31.1935 25.3812 31.1935 25.575C30.9029 25.0906 30.6123 24.8 30.5154 24.6062C30.031 24.8 29.256 24.5094 29.1592 24.025C29.0623 24.2187 29.0623 24.3156 28.8685 24.5094C28.8685 24.2187 28.7717 24.2187 28.6748 24.025C28.6748 24.3156 28.6748 24.7031 28.3842 24.8C28.481 24.6063 28.3842 24.4125 28.2873 24.2188C28.2873 24.5094 28.2873 24.7031 28.0935 24.8969C28.1904 24.7031 27.9967 24.6063 27.9967 24.4125C27.8998 25.1875 26.8342 25.4781 27.8998 25.7688C28.2873 25.8656 28.481 25.7687 28.8685 25.9625C28.9654 26.0594 29.1592 26.2531 29.1592 26.1562C29.1592 26.2531 28.7717 26.6406 29.0623 26.7375C28.9654 26.8344 28.6748 27.4156 28.6748 27.4156C28.9654 27.4156 28.7717 27.6094 28.5779 27.8031C28.2873 28.2875 28.5779 28.7719 28.6748 29.3531C28.6748 29.1594 28.9654 29.45 28.9654 29.7406C28.9654 30.1281 29.3529 30.3219 29.4498 30.6125C28.9654 30.1281 28.8685 30.6125 29.4498 30.9031C28.9654 30.9031 28.8685 31.1938 29.3529 31.3875C28.1904 31.3875 29.1592 31.8719 29.3529 31.9688C30.1279 32.1625 30.7092 31.5813 30.7092 31.4844C30.7092 31.4844 32.2592 33.0344 32.356 33.0344C32.4529 33.0344 33.2279 32.6469 33.4217 32.8406C33.6154 33.1313 33.8092 32.8406 34.0029 32.9375C34.1967 33.1313 34.9717 32.9375 35.1654 32.8406C35.2623 32.8406 36.231 32.6469 36.0373 32.4531C35.5529 32.0656 34.9717 31.6781 34.4873 31.2906C34.0029 30.9031 33.5185 30.6125 33.131 30.225C32.9373 30.0313 32.9373 29.6437 32.8404 29.3531C33.7123 30.225 34.5842 30.7094 34.4873 29.0625C35.0685 29.5469 36.231 32.2594 36.3279 32.2594C36.6185 32.2594 36.3279 29.3531 36.3279 29.0625C36.7154 29.45 36.7154 32.6469 36.8123 32.6469C37.2967 32.7438 37.9748 28.4813 36.3279 26.35Z" fill="#89664C"/>
<path d="M29.3535 31.2913C29.2566 31.2913 28.7723 30.6132 28.7723 30.5163C29.0629 31.6788 27.9004 31.0007 28.191 30.5163C27.8035 30.4194 26.8348 31.0007 27.2223 31.5819C27.0285 31.9694 28.5785 31.6788 28.6754 31.4851C29.0629 32.3569 30.0316 31.3882 29.3535 31.2913ZM33.9066 34.1976C34.391 33.5194 32.3566 33.3257 32.5504 32.5507C32.2598 32.7444 31.8723 33.4226 31.4848 33.2288C31.291 33.1319 30.516 33.6163 30.9035 33.9069C30.9035 33.5194 31.0973 33.8101 31.3879 33.7132C31.291 34.0038 31.0004 34.2944 31.4848 34.4882C31.291 33.9069 32.066 34.1976 31.9691 33.9069C31.7754 33.7132 32.6473 33.7132 32.7441 33.7132C33.0348 33.7132 34.0035 34.0038 33.616 34.2944C33.616 34.2944 33.8098 34.2944 33.9066 34.1976ZM27.416 25.8663C27.3191 26.0601 26.9316 26.3507 26.9316 26.6413C26.9316 26.8351 27.416 27.3194 27.6098 27.0288C27.0285 26.6413 27.7066 26.3507 27.9973 26.3507C28.0941 26.3507 28.0941 26.5444 28.0941 26.5444C28.191 26.6413 28.966 26.3507 28.8691 26.1569C28.966 25.7694 27.7066 25.7694 27.416 25.8663Z" fill="#FFCE31"/>
</svg>
