<svg width="62" height="63" viewBox="0 0 62 63" fill="none" xmlns="http://www.w3.org/2000/svg">
<path d="M30.9996 61.0313C43.6902 61.0313 54.4434 52.8609 58.4152 41.3438H3.58398C7.55586 52.8609 18.309 61.0313 30.9996 61.0313Z" fill="#428BC1"/>
<path d="M30.9996 1.96875C18.309 1.96875 7.55586 10.2375 3.58398 21.6563H58.4152C54.4434 10.2375 43.6902 1.96875 30.9996 1.96875Z" fill="#ED4C5C"/>
<path d="M58.4156 41.3438C59.4813 38.2922 60.0625 34.9453 60.0625 31.5C60.0625 28.0547 59.4813 24.7078 58.4156 21.6562H3.58438C2.51875 24.7078 1.9375 28.0547 1.9375 31.5C1.9375 34.9453 2.51875 38.2922 3.58438 41.3438H58.4156Z" fill="#F9F9F9"/>
<path d="M31 40.3594C26.1562 40.3594 22.2812 36.4219 22.2812 31.5C22.2812 26.5781 26.1562 22.6406 31 22.6406C35.8438 22.6406 39.7188 26.5781 39.7188 31.5C39.7188 36.4219 35.8438 40.3594 31 40.3594ZM31 22.9359C26.35 22.9359 22.5719 26.775 22.5719 31.5C22.5719 36.225 26.35 40.0641 31 40.0641C35.65 40.0641 39.4281 36.225 39.4281 31.5C39.4281 26.775 35.65 22.9359 31 22.9359Z" fill="#3E4347"/>
<path d="M31.0002 24.0195C26.9314 24.0195 23.6377 27.3664 23.6377 31.5008C23.6377 35.6352 26.9314 38.982 31.0002 38.982C35.0689 38.982 38.3627 35.6352 38.3627 31.5008C38.3627 27.3664 35.0689 24.0195 31.0002 24.0195ZM31.0002 37.1117C27.9971 37.1117 25.4783 34.5523 25.4783 31.5008C25.4783 28.4492 27.9971 25.8898 31.0002 25.8898C34.0033 25.8898 36.5221 28.4492 36.5221 31.5008C36.5221 34.5523 34.0033 37.1117 31.0002 37.1117Z" fill="#ED4C5C"/>
<path d="M25.1871 31.4984C25.1871 28.25 27.8027 25.5922 30.9996 25.5922C34.1965 25.5922 36.8121 28.25 36.8121 31.4984H38.0715C38.0715 27.5609 34.8746 24.3125 30.9996 24.3125C27.1246 24.3125 23.9277 27.5609 23.9277 31.4984H25.1871Z" fill="#FFCE31"/>
<path d="M33.8092 31.2023C33.8092 32.7773 32.5498 34.057 30.9998 34.057C29.4498 34.057 28.1904 32.7773 28.1904 31.2023C28.1904 29.6273 29.4498 28.3477 30.9998 28.3477C32.5498 28.3477 33.8092 29.6273 33.8092 31.2023Z" fill="#428BC1"/>
<path d="M32.5498 33.0781L30.9998 31.9953L29.4498 33.0781L30.0311 31.4047L28.6748 30.3219H30.3217L30.9029 28.6484L31.4842 30.3219H33.1311L31.9686 31.4047L32.5498 33.0781Z" fill="#FFCE31"/>
<path d="M28.4809 29.0398C28.4809 29.0398 28.0934 28.9414 27.8997 28.9414C28.0934 28.6461 28.1903 27.957 28.1903 27.957C28.1903 27.957 27.609 28.2523 27.4153 28.6461C27.3184 28.4492 27.1247 28.1539 27.1247 28.1539C27.1247 28.1539 26.834 28.4492 26.9309 28.7445C26.9309 29.0398 27.3184 29.4336 27.3184 29.4336C27.3184 29.4336 27.8028 29.6305 28.0934 29.532C28.2872 29.3352 28.4809 29.0398 28.4809 29.0398Z" fill="#699635"/>
<path d="M27.9965 29.8273C27.9965 29.8273 27.609 29.8273 27.4152 29.9258C27.5121 29.532 27.4152 28.9414 27.4152 28.9414C27.4152 28.9414 26.9308 29.4336 26.834 29.7289C26.6402 29.532 26.3496 29.3352 26.3496 29.3352C26.3496 29.3352 26.1558 29.7289 26.2527 29.9258C26.3496 30.1227 26.834 30.5164 26.834 30.5164C26.834 30.5164 27.4152 30.5164 27.609 30.418C27.8027 30.3195 27.9965 29.8273 27.9965 29.8273Z" fill="#83BF4F"/>
<path d="M27.7061 30.7133C27.7061 30.7133 27.3186 30.8117 27.1248 30.9102C27.1248 30.5164 26.9311 29.9258 26.9311 29.9258C26.9311 29.9258 26.6404 30.5164 26.6404 30.9102C26.4467 30.7133 26.1561 30.6148 26.1561 30.6148C26.1561 30.6148 26.0592 31.0086 26.2529 31.2055C26.4467 31.4023 26.9311 31.5992 26.9311 31.5992C26.9311 31.5992 27.4154 31.5008 27.6092 31.3039C27.8029 31.107 27.7061 30.7133 27.7061 30.7133Z" fill="#699635"/>
<path d="M27.7064 31.6992C27.7064 31.6992 27.4158 31.8961 27.2221 32.093C27.1252 31.6992 26.7377 31.207 26.7377 31.207C26.7377 31.207 26.5439 31.7977 26.6408 32.1914C26.3502 32.093 26.0596 32.093 26.0596 32.093C26.0596 32.093 26.0596 32.4867 26.3502 32.6836C26.5439 32.8805 27.1252 32.8805 27.1252 32.8805C27.1252 32.8805 27.6096 32.5852 27.7064 32.3883C27.8033 32.1914 27.7064 31.6992 27.7064 31.6992Z" fill="#83BF4F"/>
<path d="M27.9004 32.5836C27.9004 32.5836 27.6098 32.8789 27.5129 33.0758C27.3191 32.682 26.8348 32.3867 26.8348 32.3867C26.8348 32.3867 26.8348 32.9773 27.0285 33.3711H26.4473C26.4473 33.3711 26.5441 33.7648 26.8348 33.8633C27.1254 33.9617 27.6098 33.8633 27.6098 33.8633C27.6098 33.8633 27.9973 33.4695 28.0941 33.1742C28.191 32.8789 27.9004 32.5836 27.9004 32.5836Z" fill="#699635"/>
<path d="M28.3846 33.4688C28.3846 33.4688 28.1908 33.7641 28.0939 34.0594C27.8033 33.7641 27.2221 33.5672 27.2221 33.5672C27.2221 33.5672 27.4158 34.1578 27.6096 34.4531C27.3189 34.4531 27.0283 34.65 27.0283 34.65C27.0283 34.65 27.2221 34.9453 27.5127 35.0437C27.8033 35.0437 28.2877 34.8469 28.2877 34.8469C28.2877 34.8469 28.5783 34.3547 28.5783 34.0594C28.6752 33.6656 28.3846 33.4688 28.3846 33.4688Z" fill="#83BF4F"/>
<path d="M28.966 34.1562C28.966 34.1562 28.8691 34.55 28.8691 34.7469C28.5785 34.55 27.9004 34.4516 27.9004 34.4516C27.9004 34.4516 28.191 34.9437 28.5785 35.2391C28.3848 35.3375 28.0941 35.5344 28.0941 35.5344C28.0941 35.5344 28.3848 35.8297 28.6754 35.7312C28.966 35.7312 29.3535 35.3375 29.3535 35.3375C29.3535 35.3375 29.5473 34.8453 29.4504 34.55C29.3535 34.3531 28.966 34.1562 28.966 34.1562Z" fill="#699635"/>
<path d="M29.8377 34.6484C29.8377 34.6484 29.8377 35.0422 29.9346 35.2391C29.5471 35.1406 28.9658 35.2391 28.9658 35.2391C28.9658 35.2391 29.4502 35.6328 29.7408 35.8297L29.3533 36.2234C29.3533 36.2234 29.7408 36.4203 29.9346 36.3219C30.2252 36.2234 30.5158 35.7312 30.5158 35.7312C30.5158 35.7312 30.5158 35.1406 30.4189 34.9437C30.1283 34.7469 29.8377 34.6484 29.8377 34.6484Z" fill="#83BF4F"/>
<path d="M33.5186 29.0398C33.5186 29.0398 33.9061 28.9414 34.0998 28.9414C33.9061 28.6461 33.8092 27.957 33.8092 27.957C33.8092 27.957 34.3904 28.2523 34.5842 28.6461C34.6811 28.4492 34.8748 28.1539 34.8748 28.1539C34.8748 28.1539 35.1654 28.4492 35.0686 28.7445C35.0686 29.0398 34.6811 29.4336 34.6811 29.4336C34.6811 29.4336 34.1967 29.532 33.9061 29.4336C33.7123 29.3352 33.5186 29.0398 33.5186 29.0398Z" fill="#699635"/>
<path d="M34.0029 29.8273C34.0029 29.8273 34.3904 29.8273 34.5842 29.9258C34.4873 29.532 34.5842 28.9414 34.5842 28.9414C34.5842 28.9414 35.0686 29.4336 35.1654 29.7289C35.3592 29.532 35.6498 29.3352 35.6498 29.3352C35.6498 29.3352 35.8436 29.7289 35.7467 29.9258C35.6498 30.1227 35.0686 30.5164 35.0686 30.5164C35.0686 30.5164 34.4873 30.5164 34.2936 30.418C34.0998 30.3195 34.0029 29.8273 34.0029 29.8273Z" fill="#83BF4F"/>
<path d="M34.2938 30.7133C34.2938 30.7133 34.6812 30.8117 34.875 30.9102C34.875 30.5164 35.0688 29.9258 35.0688 29.9258C35.0688 29.9258 35.3594 30.5164 35.3594 30.9102C35.5531 30.7133 35.8437 30.6148 35.8437 30.6148C35.8437 30.6148 35.9406 31.0086 35.7469 31.2055C35.5531 31.4023 35.0688 31.5992 35.0688 31.5992C35.0688 31.5992 34.5844 31.5008 34.3906 31.3039C34.1969 31.107 34.2938 30.7133 34.2938 30.7133Z" fill="#699635"/>
<path d="M34.294 31.6992C34.294 31.6992 34.5847 31.8961 34.7784 32.093C34.8753 31.6992 35.2628 31.207 35.2628 31.207C35.2628 31.207 35.4565 31.7977 35.3597 32.1914C35.6503 32.093 35.9409 32.093 35.9409 32.093C35.9409 32.093 35.9409 32.4867 35.6503 32.6836C35.4565 32.8805 34.8753 32.8805 34.8753 32.8805C34.8753 32.8805 34.3909 32.5852 34.294 32.3883C34.1972 32.093 34.294 31.6992 34.294 31.6992Z" fill="#83BF4F"/>
<path d="M34.1002 32.5836C34.1002 32.5836 34.3909 32.8789 34.4877 33.0758C34.6815 32.682 35.1659 32.3867 35.1659 32.3867C35.1659 32.3867 35.1659 32.9773 34.9721 33.3711H35.5534C35.5534 33.3711 35.4565 33.7648 35.1659 33.8633C34.8752 33.9617 34.3909 33.8633 34.3909 33.8633C34.3909 33.8633 34.0034 33.4695 33.9065 33.1742C33.8096 32.8789 34.1002 32.5836 34.1002 32.5836Z" fill="#699635"/>
<path d="M33.6159 33.4688C33.6159 33.4688 33.8096 33.7641 33.9065 34.0594C34.1971 33.7641 34.7784 33.5672 34.7784 33.5672C34.7784 33.5672 34.5846 34.1578 34.3909 34.4531C34.6815 34.4531 34.9721 34.65 34.9721 34.65C34.9721 34.65 34.7784 34.9453 34.4877 35.0437C34.1971 35.0437 33.7127 34.8469 33.7127 34.8469C33.7127 34.8469 33.4221 34.3547 33.4221 34.0594C33.3252 33.6656 33.6159 33.4688 33.6159 33.4688Z" fill="#83BF4F"/>
<path d="M33.034 34.1562C33.034 34.1562 33.1308 34.55 33.1308 34.7469C33.4215 34.55 34.0996 34.4516 34.0996 34.4516C34.0996 34.4516 33.809 34.9437 33.4215 35.2391C33.6152 35.3375 33.9058 35.5344 33.9058 35.5344C33.9058 35.5344 33.6152 35.8297 33.3246 35.7312C33.034 35.7312 32.6465 35.3375 32.6465 35.3375C32.6465 35.3375 32.4527 34.8453 32.5496 34.55C32.6465 34.3531 33.034 34.1562 33.034 34.1562Z" fill="#699635"/>
<path d="M32.1625 34.6484C32.1625 34.6484 32.1625 35.0422 32.0656 35.2391C32.4531 35.1406 33.0344 35.2391 33.0344 35.2391C33.0344 35.2391 32.55 35.6328 32.2594 35.8297L32.6469 36.2234C32.6469 36.2234 32.2594 36.4203 32.0656 36.3219C31.775 36.2234 31.4844 35.7312 31.4844 35.7312C31.4844 35.7312 31.4844 35.1406 31.5812 34.9437C31.8719 34.7469 32.1625 34.6484 32.1625 34.6484Z" fill="#83BF4F"/>
</svg>
