<svg width="62" height="62" viewBox="0 0 62 62" fill="none" xmlns="http://www.w3.org/2000/svg">
<path d="M60.0625 31.0016C60.0625 18.3109 52.0219 7.55781 40.6875 3.58594V58.4172C52.0219 54.4453 60.0625 43.6922 60.0625 31.0016ZM1.9375 31.0016C1.9375 43.6922 10.075 54.4453 21.3125 58.4172V3.58594C10.075 7.55781 1.9375 18.3109 1.9375 31.0016Z" fill="#ED4C5C"/>
<path d="M40.6875 3.58438C37.6844 2.51875 34.3906 1.9375 31 1.9375C27.6094 1.9375 24.3156 2.51875 21.3125 3.58438V58.4156C24.3156 59.4813 27.6094 60.0625 31 60.0625C34.3906 60.0625 37.6844 59.4813 40.6875 58.4156V3.58438Z" fill="#F9F9F9"/>
</svg>
