<svg width="62" height="62" viewBox="0 0 62 62" fill="none" xmlns="http://www.w3.org/2000/svg">
<path d="M59.7719 27.125H58.4156V21.3125C57.4469 18.5031 55.9938 15.8875 54.25 13.5625H48.4375V7.75C43.5938 4.06875 37.5875 1.9375 31 1.9375C14.9187 1.9375 1.9375 14.9187 1.9375 31C1.9375 32.3563 2.03437 33.6156 2.22812 34.875H3.58438V40.6875C4.55313 43.4969 6.00625 46.1125 7.75 48.4375H13.5625V54.25C18.4062 57.9313 24.4125 60.0625 31 60.0625C37.5875 60.0625 43.5938 57.9313 48.4375 54.25V48.4375H54.25C55.9938 46.1125 57.4469 43.4969 58.4156 40.6875V34.875H59.7719C59.9656 33.6156 60.0625 32.3563 60.0625 31C60.0625 29.6437 59.9656 28.3844 59.7719 27.125Z" fill="#F9F9F9"/>
<path d="M3.58477 40.6875H58.416C59.0941 38.8469 59.5785 36.9094 59.7723 34.875H2.22852C2.42227 36.9094 2.90664 38.8469 3.58477 40.6875ZM7.75039 48.4375C9.39727 50.6656 11.3348 52.6031 13.5629 54.25H48.4379C50.666 52.6031 52.6035 50.6656 54.2504 48.4375H7.75039ZM31.0004 13.5625H54.2504C52.6035 11.3344 50.666 9.39688 48.4379 7.75H31.0004V13.5625ZM31.0004 27.125H59.7723C59.4816 25.0906 58.9973 23.1531 58.416 21.3125H31.0004V27.125Z" fill="#428BC1"/>
<path d="M16.1781 24.0242L14.8219 24.993C14.0469 26.8336 14.3375 27.6086 14.4344 28.2867L13.7562 29.9336C16.3719 29.0617 14.1437 27.5117 17.7281 24.8961L16.8562 23.5398L16.1781 24.0242ZM15.4031 22.5711L14.6281 22.4742L13.0781 22.1836C11.2375 22.9586 10.85 23.7336 10.4625 24.218L8.71875 24.7992C11.1406 26.0586 10.6563 23.3461 15.1125 24.0242L15.4031 22.5711ZM13.7562 21.6023L15.1125 20.7305L14.6281 20.0523H14.725C14.725 20.0523 14.6281 20.0523 14.6281 19.9555L13.7562 18.5992C11.9156 17.8242 11.1406 18.1148 10.4625 18.2117L8.71875 17.6305C9.59063 20.1492 11.1406 17.9211 13.7562 21.6023ZM14.6281 18.793L16.1781 19.0836L16.275 18.3086L16.5656 16.7586C15.7906 14.918 15.0156 14.5305 14.5313 14.143L13.8531 12.4961C12.5938 14.918 15.3063 14.4336 14.6281 18.793ZM21.1187 12.593C18.5031 13.4648 20.7313 15.0148 17.1469 17.6305L18.0188 18.9867L20.0531 17.6305C21.4094 14.3367 19.5688 14.143 21.1187 12.593ZM19.6656 20.0523L20.4406 20.1492L21.9906 20.4398C23.8313 19.6648 24.2188 18.8898 24.6063 18.4055L26.2531 17.7273C23.8313 16.468 24.3156 19.1805 19.8594 18.5023L19.6656 20.0523ZM21.2156 21.0211L19.8594 21.893L20.3438 22.5711H20.2469C20.2469 22.5711 20.3438 22.5711 20.3438 22.668L21.2156 24.0242C23.0563 24.7992 23.8313 24.5086 24.5094 24.4117L26.1563 25.0898C25.3813 22.4742 23.8313 24.7023 21.2156 21.0211ZM20.15 23.7336L18.6 23.443L18.4063 24.218L18.1156 25.768C18.8906 27.6086 19.6656 27.9961 20.15 28.3836L20.8281 30.0305C22.0875 27.6086 19.375 28.093 20.15 23.7336Z" fill="#FCD116"/>
<path d="M20.4406 20.1492L19.6656 20.0523L19.8594 18.5023C24.3156 19.1805 23.8313 16.468 26.2531 17.7273L24.6063 18.4055C24.2188 18.8898 23.8313 19.6648 21.9906 20.4398L20.4406 20.1492ZM20.4406 20.1492H20.3438M18.4063 24.218L18.6 23.443L20.15 23.7336C19.375 28.093 22.0875 27.6086 20.8281 30.0305L20.15 28.3836C19.6656 27.9961 18.8906 27.6086 18.1156 25.768L18.4063 24.218ZM18.4063 24.218V24.1211M16.1781 24.0242L14.8219 24.993C14.0469 26.8336 14.3375 27.6086 14.4344 28.2867L13.7563 29.9336C16.3719 29.0617 14.1437 27.5117 17.7281 24.8961L16.8563 23.5398L16.1781 24.0242ZM15.4031 22.5711L14.6281 22.4742L13.0781 22.1836C11.2375 22.9586 10.85 23.7336 10.4625 24.218L8.71875 24.7992C11.1406 26.0586 10.6563 23.3461 15.1125 24.0242L15.4031 22.5711ZM13.7563 21.6023L15.1125 20.7305L14.6281 20.0523H14.725C14.725 20.0523 14.6281 20.0523 14.6281 19.9555L13.7563 18.5992C11.9156 17.8242 11.1406 18.1148 10.4625 18.2117L8.71875 17.6305C9.59063 20.1492 11.1406 17.9211 13.7563 21.6023ZM14.6281 18.793L16.1781 19.0836L16.275 18.3086L16.5656 16.7586C15.7906 14.918 15.0156 14.5305 14.5313 14.143L13.8531 12.4961C12.5938 14.918 15.3063 14.4336 14.6281 18.793ZM21.1188 12.593C18.5031 13.4648 20.7313 15.0148 17.1469 17.6305L18.0188 18.9867L20.0531 17.6305C21.4094 14.3367 19.5687 14.143 21.1188 12.593ZM21.2156 21.0211L19.8594 21.893L20.3438 22.5711H20.2469C20.2469 22.5711 20.3438 22.5711 20.3438 22.668L21.2156 24.0242C23.0563 24.7992 23.8313 24.5086 24.5094 24.4117L26.1563 25.0898C25.3813 22.4742 23.8313 24.7023 21.2156 21.0211Z" stroke="black" stroke-width="0.187936" stroke-miterlimit="20"/>
<path d="M20.3438 22.5719L27.125 21.3125L20.3438 20.0531L24.3156 14.4344L18.6969 18.4062L17.4375 11.625L16.1781 18.4062L10.5594 14.4344L14.4344 20.0531L7.75 21.3125L14.4344 22.5719L10.5594 28.1906L16.1781 24.3156L17.4375 31L18.6969 24.3156L24.3156 28.1906L20.3438 22.5719Z" fill="#FCD116" stroke="black" stroke-width="0.187936" stroke-miterlimit="20"/>
<path d="M17.4371 24.507C19.2027 24.507 20.634 23.0757 20.634 21.3102C20.634 19.5446 19.2027 18.1133 17.4371 18.1133C15.6715 18.1133 14.2402 19.5446 14.2402 21.3102C14.2402 23.0757 15.6715 24.507 17.4371 24.507Z" fill="#FCD116" stroke="black" stroke-width="0.187936" stroke-miterlimit="20"/>
<path d="M19.8592 20.0547C19.6654 20.2484 19.5686 19.8609 18.7936 19.8609C18.0186 19.8609 17.9217 20.3453 17.8248 20.2484C17.7279 20.1516 18.4061 19.6672 18.6967 19.5703C18.8904 19.5703 19.5686 19.7641 19.8592 20.0547ZM18.9873 20.2484C19.1811 20.4422 18.9873 20.8297 18.7936 20.8297C18.5998 20.8297 18.2123 20.4422 18.4061 20.2484" fill="black"/>
<path d="M18.0186 20.5398C18.0186 20.1523 18.3092 20.1523 18.7936 20.1523C19.2779 20.1523 19.4717 20.5398 19.6654 20.6367C19.4717 20.6367 19.2779 20.3461 18.7936 20.3461C18.3092 20.2492 18.3092 20.2492 18.0186 20.5398ZM18.1154 20.6367C18.2123 20.443 18.4061 20.8305 18.6967 20.8305C18.9873 20.8305 19.1811 20.7336 19.3748 20.6367C19.5686 20.443 19.0842 21.0242 18.7936 21.0242C18.4061 20.9273 18.0186 20.7336 18.1154 20.6367Z" fill="black"/>
<path d="M19.0844 20.8297C19.4719 20.6359 19.2781 20.3453 19.0844 20.2484C19.1813 20.3453 19.375 20.6359 19.0844 20.8297ZM17.4375 22.5734C17.6312 22.5734 17.6312 22.4766 17.9219 22.4766C18.2125 22.4766 18.6969 22.7672 19.0844 22.6703C18.4063 22.9609 18.6969 22.7672 17.5344 22.7672H17.3406M19.1812 22.9609C19.0844 22.7672 19.0844 22.7672 18.8906 22.4766C19.0844 22.6703 19.0844 22.7672 19.1812 22.9609ZM17.4375 23.2516C18.2125 23.2516 18.0188 23.0578 18.9875 22.6703C18.3094 22.7672 18.1156 22.9609 17.4375 22.9609H17.2437M17.4375 22.1859C17.6312 22.1859 17.7281 21.9922 17.9219 21.9922C18.1156 21.9922 18.5031 22.0891 18.6 22.1859C18.6 22.1859 18.5031 21.9922 18.3094 21.8953C18.1156 21.8953 18.1156 21.5078 17.9219 21.4109C17.9219 21.5078 18.0188 21.5078 18.0188 21.7016C18.0188 21.8953 17.7281 21.8953 17.7281 21.7016C17.825 21.8953 17.6312 21.8953 17.4375 21.8953M15.0156 20.0547C15.2094 20.2484 15.3063 19.8609 16.0813 19.8609C16.8563 19.8609 16.9531 20.3453 17.05 20.2484C17.1469 20.1516 16.4688 19.6672 16.1781 19.5703C15.9844 19.5703 15.3063 19.7641 15.0156 20.0547ZM15.8875 20.2484C15.6937 20.4422 15.8875 20.8297 16.0813 20.8297C16.275 20.8297 16.6625 20.4422 16.4688 20.2484" fill="black"/>
<path d="M16.8559 20.5398C16.8559 20.1523 16.5652 20.1523 16.0809 20.1523C15.5965 20.1523 15.4027 20.5398 15.209 20.6367C15.4027 20.6367 15.5965 20.3461 16.0809 20.3461C16.5652 20.3461 16.5652 20.2492 16.8559 20.5398ZM16.759 20.6367C16.6621 20.443 16.4684 20.8305 16.1777 20.8305C15.8871 20.8305 15.6934 20.7336 15.4996 20.6367C15.3059 20.443 15.7902 21.0242 16.0809 21.0242C16.4684 20.9273 16.8559 20.7336 16.759 20.6367Z" fill="black"/>
<path d="M15.7911 20.8313C15.4036 20.6375 15.5974 20.3469 15.7911 20.25C15.6942 20.3469 15.5005 20.6375 15.7911 20.8313ZM17.438 22.575C17.2442 22.575 17.2442 22.4781 16.9536 22.4781C16.663 22.4781 16.1786 22.7687 15.7911 22.6719C16.4692 22.9625 16.1786 22.7688 17.3411 22.7688H17.5349M15.6942 22.9625C15.7911 22.7688 15.7911 22.7688 15.9849 22.4781C15.7911 22.6719 15.7911 22.7688 15.6942 22.9625ZM17.438 23.2531C16.663 23.2531 16.8567 23.0594 15.888 22.6719C16.5661 22.7687 16.7599 22.9625 17.438 22.9625H17.6317M17.438 22.1875C17.2442 22.1875 17.1474 21.9938 16.9536 21.9938C16.7599 21.9938 16.3724 22.0906 16.2755 22.1875C16.2755 22.1875 16.3724 21.9938 16.5661 21.8969C16.7599 21.8969 16.7599 21.5094 16.9536 21.4125C16.9536 21.5094 16.8567 21.5094 16.8567 21.7031C16.8567 21.8969 17.1474 21.8969 17.1474 21.7031C17.0505 21.8969 17.2442 21.8969 17.438 21.8969M17.438 23.5437C16.9536 23.6406 17.2442 23.5437 17.438 23.5437V23.5437Z" fill="black"/>
</svg>
